<svg xmlns="http://www.w3.org/2000/svg" height="480" width="640" version="1"><g><path stroke-width="1pt" fill="#c00" d="M0 0h640v480h-640z"/><g stroke-width="1pt"><path fill="#006" d="M0 0h512v256h-512z"/><g><path fill="#fff" d="M0 0v28.622l454.757 227.378h57.241v-28.621l-454.757-227.378h-57.241zm511.998 0v28.621l-454.757 227.378h-57.241v-28.621l454.757-227.378h57.241z"/><path fill="#fff" d="M213.333 0v255.999h85.333v-255.999h-85.333zm-213.333 85.333v85.333h511.998v-85.333h-511.998z"/><path fill="#c00" d="M0 102.4v51.2h511.998v-51.2h-511.998zm230.399-102.4v255.999h51.2v-255.999h-51.2z"/><path fill="#c00" d="M0 255.999l170.666-85.333h38.161l-170.666 85.333h-38.161zm0-255.999l170.666 85.333h-38.161l-132.505-66.252v-19.081zm303.171 85.333l170.666-85.333h38.161l-170.666 85.333h-38.161zm208.827 170.666l-170.666-85.333h38.161l132.505 66.253v19.08z"/></g></g><g><path d="M481.83 463.626c3.367.465 128.145-32.103 127.914-82.912v-248.742h-255.835v248.742c-.232 50.809 127.914 82.912 127.914 82.912z" fill-rule="evenodd" fill="#fff"/><path d="M-903.54 822.05c1.22 325.7-655.51 534.47-673.23 531.49 0 0-674.45-205.79-673.23-531.49 7.16-10.536 9.96-14.595 10.43-27.844 2.29-6.875 1.64-15.152 1.64-23.02v-23.021c-1.73-5.202-1.64-13.795-1.64-21.376-.22-5.804-1.64-15.454-1.64-16.443 1.28 9.471 3.02 14.092 6.57 1.644 2.51-6.278 3.92-11.441 6.58-19.732.29-8.094 1.64-14.587 1.64-23.02 0-7.972.38-15.559 1.65-21.377 2.53-2.073 4.74-5.722 8.22-3.288-.31 8.369-2.27 12.789-3.29 21.376v46.041c.16 5.439.91 9.983 3.29 13.155.29-8.095 1.64-14.587 1.64-23.021 1.9-5.689 3.07-13.139 6.58-18.088 1.99-7.394 5.22-13.502 8.22-21.376 2.51-7.807 5.04-13.192 6.58-19.732 3.63-4.077 7.64-11.014 11.51-14.799 8.45-5.43 5.95 2.76 3.29 9.866v23.021c5.8 1.657 2.09-2.335 6.58-6.577 1.58-6.083 5.31-14.346 8.22-19.732 2.92-4.739 6.7-9.218 9.86-14.799 3.42-2.102 12.53-8.07 13.16-8.222-3.65 3.824-6.79 9.365-9.87 14.799-1.26 5.818-1.64 13.405-1.64 21.376.6 15.793 3.82 3.08 6.58-3.288 3.35-2.744 1.82-4.597 8.22-4.933 9.69-6.53 6.58.646 4.93 8.221-1.31 7.351-1.64 14.841-1.64 23.021 0 8.924 1.54 12.746 1.64 21.376 0 7.582-.09 16.175 1.65 21.376 1.17 8.881 3.58 12.586 6.57 19.732 2.51 7.252 5.42 11.873 8.22 18.088 6.44 7.893 3.29.717 3.29-8.222v-46.041c3.02-5.157 3.89-11.445 8.22-16.443 1.65-6.019 4.65-10.675 8.23-14.799 2.45-3.909 6.16-8.807 8.22-13.155v23.021c0 8.179.33 15.67 1.64 23.02 2.26 7.619 3.93 12.286 4.94 19.732 4.29 2.78 5.91 6.903 9.86 9.866 1.99-7.598 3.29-14.388 3.29-23.02v-23.021c1.37-7.684 2.92-14.073 4.93-19.732 2.22-6.977 3.68 1.805 4.94 4.933 2.84 6.012 5.79 9.158 9.86 16.443 4.83 3.451 6.08 8.786 9.87 13.155.87 4.034 1.29 13.115 3.29 16.443 1.77-8.002 4.74-12.822 6.57-21.376 4.93-4.831 7.83-8.229 13.16-11.51 8.36-1.611 12.2-3.916 19.73-4.933 10.41 0 8.54 1.064 1.64 6.577-2.61 4.246-6.36 10.867-9.86 14.799-1.02 7.514-2.97 11.212-3.29 19.732.6 8.429 3.02 15.088 4.93 21.376 4.12-4.611 8.7-14.515 11.51-19.732 4.41-5.036 6.44-12.481 9.87-16.443 3.54-4.289 8.13-7 14.8-8.222 4.08-3.065 8.89-3.288 16.44-3.288 15.09 4.827 31.93 3.435 47.69 4.933 12.19 0 19.9-2.238 31.24-4.933 12.34-2.539 25.39-2.794 37.82-4.933 12.52 0 26.39-1.114 37.82 1.644h32.88c11.89 0 23.53-.245 34.53-1.644 13.27 0 26.77.605 39.47-1.645 14.64 0 28.33-1.158 42.75-1.644 19.75 0 38.05-2.356 57.55-3.288 14.92-.634 26.89-5.416 41.11-8.222 9.53-2.169 20.71-1.644 31.24-1.644 12.48 0 22.46 2.218 34.53 3.288 10.27 0 19.68.851 29.6 1.645h101.94999999999999c12.08 0 23.18.743 34.53 1.644 10.31 0 19.66.83 29.6 1.644h26.31c7.22.86 16.21 1.021 23.02 3.289 9.55 0 17.27 1.321 26.31 1.644 8.51.516 15.72 1.644 24.66 1.644 8.26.295 15.31 1.911 23.02 3.289 6.98.943 12.59 2.733 18.09 4.933 4.64 2.197 12.24 5.279 16.44 8.222 9.13 0 13.09-1.725 19.74-3.289 4.58-3.537 9.64-3.654 9.86-6.577-5.07 4.519-9.44 5.577-11.51 13.154-1.03 2.565-4.34 12.035 0 9.866 6.04-3.525 10.35-7.542 13.16-13.154 4.7-6.623 6.86-10.678 11.51-16.444 3.44-6.616 9.21-10.764 13.15-14.798 4.6-6.759 7.28-10.169 3.29 1.644-1.41 7.913-2.72 14.015-3.29 21.376-.94 6.975-2.73 12.587-4.93 18.088 0 5.08-.42 10.399 1.64 13.154 7.59-2.167 15-6.207 19.73-9.866 6.51-1.774 11.97-5.252 18.09-9.866 8.1-2.025 13.33-2.289 14.8-4.933-4.43 4.523-8.65 8.448-13.15 11.511-2.19 4.612-5.98 7.345-4.94 11.51 5.11-1.111 14.94-1.69 19.73-3.289 7.71-2.667 11.16-4.304 19.74-6.577 14.765.192 2.498 2.24-4.94 6.577-4.46 3.036-9.07 7.542-14.8 11.511-3.67 6.82-6.16 12.168-9.86 16.443-1.93 7.157-4.59 12.247-8.22 16.443-1.46 6.188-3.54 11.659-4.94 18.088-1.42 10.552-5.32 13.111 6.58 8.221 5.1-5.562 10.03-10.196 13.16-14.799 3.03-4.728 7.17-10.545 11.51-14.799 2.26-6.386 5.81-8.91 9.86-16.443 3.661-3.837 8.797-9.617 13.157-14.799 3.764-3.59 8.946-7.383 14.798-9.866 9.013-3.004 7.87-8.779 4.933 1.645-3.466 4.196-5.575 9.794-6.577 16.443-3.571 14.821.355 9.164 6.577 4.933 5.341-4.412 3.347-7.48 11.511-9.866 1.801-1.517 10.546-6.293 8.221-1.644-1.116 7.408-3.903 10.798-6.577 16.443-3.615 6.524-6.483 11.714-8.222 18.087-2.909 3.88-5.027 8.337 0 6.578 8.471-1.883 11.08-4.921 16.444-8.222 3.201-7.303 6.352-9.631 9.866-14.799-2.013 8.052-4.9 13.579-6.578 19.732-3.786 4.369-5.751 9.307-8.221 16.443-3.603 7.016-4.821 10.371-4.933 19.732-2.215 7.477-5.063 12.895-1.645 19.732 5.209-5.417 9.865-8.835 13.155-16.443 3.386-4.099 5.154-10.395 6.577-16.443 1.567-6.658 3.942-10.753 4.933-18.088 2.292-6.875 1.645-15.153 1.645-23.021v-23.02c-.094-7.859-2.588-14.365 0-19.732 5.006 5.109 6.258 9.691 9.866 16.443 2.11 8.442 5.844 13.214 6.577 21.376 3.342 4.915 3.839 10.934 6.577 18.088.577 8.072 2.097 15.085 0 21.376-.496 5.291-3.066 9.066 0 13.155 5.308-4.385 5.538-10.919 6.577 3.289 0 7.198.252 14.07.836 21.266z" fill-rule="evenodd" fill-opacity=".996" transform="matrix(.19 0 0 .156 781.609 252.146)" stroke="#002b00" stroke-width="11.125" fill="#007a0f"/><path d="M-2178.7 685.68c-.62 4.245-1.64 17.061-1.64 26.309 0 8.38.75 14.816 1.64 21.376.55 5.919 1.88 6.805 0 11.51" transform="matrix(.19 0 0 .156 781.609 252.146)" stroke="#002b00" stroke-width="11.125" fill="none"/><path d="M-2154.1 672.52c.63 4.245 1.65 17.062 1.65 26.309 0 8.736-1.08 14.023-1.65 21.377-.29 8.079-1.64 12.433-1.64 21.376v6.577" transform="matrix(.19 0 0 .156 781.609 252.146)" stroke="#002b00" stroke-width="11.125" fill="none"/><path d="M-2172.2 759.67c1.55 0 .93 4.205 1.64 9.866.95 6.998 2.51 12.974 4.93 18.088.35 9.411 2.15 11.425 8.23 14.799 5.87 5.788 8.03 9.685 11.51 14.799 4.19.741 4.91 1.85 6.57 4.933" transform="matrix(.19 0 0 .156 781.609 252.146)" stroke="#002b00" stroke-width="11.125" fill="none"/><path d="M-2229.7 809h1.64c8.48 1.413 20.16 1.238 26.31 3.289 6.33 1.469 13.95 4.538 18.09 8.221 6.65 7.382 9.26 12.74 18.08 16.444 7.4 4.315 14.86 5.888 23.03 8.221 7.59 3.202 12.6 5.624 18.08 8.222 7.81 3.994 14.04 8.476 23.02 9.866h23.02c7.7 0 12.64.26 16.45-3.289l-16.45 3.289c7.7 0 12.64.26 16.45-3.289" transform="matrix(.19 0 0 .156 781.609 252.146)" stroke="#002b00" stroke-width="11.125" fill="none"/><path d="M-2200.1 927.39h52.620000000000005c3.39 7.075 6.48 9.284 13.16 11.51 5.33 3.905 12.28 6.004 19.73 6.577h3.29" transform="matrix(.19 0 0 .156 781.609 252.146)" stroke="#002b00" stroke-width="11.125" fill="none"/><path d="M-2185.3 955.35c4.47-.919 17.27-4.287 26.31-4.933 9.62 0 14.8 2.073 19.73 6.577 5.04 3.425 7.99 6.602 14.8 9.866 7.27 2.511 14.62 3.289 23.02 3.289.78 2.319.48 1.644 3.29 1.644" transform="matrix(.19 0 0 .156 781.609 252.146)" stroke="#002b00" stroke-width="11.125" fill="none"/><path d="M-2163.9 988.23h29.6c5.9 2.794 10.77 3.151 13.15 9.865 6.82 5.741 9.83 9.501 19.73 9.871 3.81 1.97 11.83 1.64 18.09 1.64" transform="matrix(.19 0 0 .156 781.609 252.146)" stroke="#002b00" stroke-width="11.125" fill="none"/><path d="M-2085 1045.8h29.59c9.66.98 16.51.28 21.38 6.58 5.42 7.8 9.97 6.08 16.44 9.87 5.7 0 9.45 1.18 14.8 1.64" transform="matrix(.19 0 0 .156 781.609 252.146)" stroke="#002b00" stroke-width="11.125" fill="none"/><path d="M-2014.3 1091.8c4.25.62 17.06 1.64 26.31 1.64 9.08 1.23 9.76 3.39 14.8 9.87 2.74 9.6 7.48 8.92 18.09 9.86 7.2 0 12.97-.53 18.09-1.64" transform="matrix(.19 0 0 .156 781.609 252.146)" stroke="#002b00" stroke-width="11.125" fill="none"/><path d="M-2149.1 762.96l1.64 1.644c-3.73-3.731-1.93-2.363 1.65 6.578.62 8.063 2.05 12.855 4.93 19.732 3.91 5.609 7.18 10.979 9.87 16.443 2.92 6.68 6.81 11.845 11.51 16.443.69 2.087 1.2 2.593 3.28 3.289" transform="matrix(.19 0 0 .156 781.609 252.146)" stroke="#002b00" stroke-width="11.125" fill="none"/><path d="M-2114.6 769.54c.84 0 5.23 5.086 8.22 9.866 5.7 4.074 10.23 9.203 14.8 14.799 5.13 3.386 11.11 7.55 18.09 11.51 7.98 2.764 10.74 5.003 18.08 8.222 3.87 3.348 10.82 5.812 16.45 8.222 2.42 0 1.25-.388 3.29 1.644" transform="matrix(.19 0 0 .156 781.609 252.146)" stroke="#002b00" stroke-width="11.125" fill="none"/><path d="M-2076.8 753.1c-1.8 0 0 4.239 0 9.866 2.75 6.088 7.01 12.119 11.51 18.088 5.21 3.442 10.49 10.505 14.8 16.443 2.65 4.223 5.7 7.31 11.51 9.866" transform="matrix(.19 0 0 .156 781.609 252.146)" stroke="#002b00" stroke-width="11.125" fill="none"/><path d="M-2037.3 739.94c.06 5.876 1.62 16.938 3.29 26.31 2.86 6.823 4.98 11.276 6.58 18.087 1.03 6.853 3.62 12.832 8.22 18.088 3.77 4.78 10.23 9.499 16.44 11.51 6.35 2.719 10.81 4.826 19.73 4.933 6.56-.886 13-1.644 21.38-1.644h13.16" transform="matrix(.19 0 0 .156 781.609 252.146)" stroke="#002b00" stroke-width="11.125" fill="none"/><path d="M-1999.5 753.1c.14 5.279-1.4 10.768 4.93 14.799 2.13 6.659 6.84 14.364 11.51 21.376 4.17 5.286 9.96 9.137 18.09 9.866 5.77 1.339 14.5 2.639 21.38 4.933 6.24 4.06 12.78 10.903 21.37 13.155l-21.37-13.155c6.24 4.06 12.78 10.903 21.37 13.155" transform="matrix(.19 0 0 .156 781.609 252.146)" stroke="#002b00" stroke-width="11.125" fill="none"/><path d="M-1984.7 753.1c4.35 5.551 16.15 17.799 24.67 26.309 5.88 4.862 11.94 8.736 18.08 11.511 7.52 1.163 15.81 4.454 21.38 6.577 3.59 1.537 4.61 3.012 9.86 3.289" transform="matrix(.19 0 0 .156 781.609 252.146)" stroke="#002b00" stroke-width="11.125" fill="none"/><path d="M-1961.7 733.36l1.65 1.645c-4.68-4.672-2.25-2.142 8.22 6.577 6.14 4.954 8.58 6.281 9.86 14.799 3.02 2.854 3.99 7.924 8.22 4.933-.52-9.732-5.03-13.119 3.29-8.222 3.03 6.332 6.75 11.464 11.51 14.799 3 3.173 6.52 4.743 13.16 4.933" transform="matrix(.19 0 0 .156 781.609 252.146)" stroke="#002b00" stroke-width="11.125" fill="none"/><path d="M-1790.7 955.35c4.13.516 21.43.566 29.6 3.289 7.35 1.312 14.84 1.644 23.02 1.644 8.32-.308 13.02-2.784 21.38 0 9.59.738 10.67 3.031 18.08 9.866 6.11 4.141 8.73 8.81 13.16 16.443 1.94 1.254 14.26 8.828 4.93 3.289" transform="matrix(.19 0 0 .156 781.609 252.146)" stroke="#002b00" stroke-width="11.125" fill="none"/><path d="M-1798.9 915.88c5.51 2.905 18.24 10.319 24.66 14.799 8.63 1.917 11.11 4.661 19.74 6.577 8.8-.104 14.34-2.338 21.37-3.288 5.52-1.84 14.39-2.331 21.38 0 7.45 2.581 12.13 4.848 18.09 8.221 3.26 4.078 13.55 11.503 3.28 3.289-2.74-3.837-3.83-4.385-8.22-6.577" transform="matrix(.19 0 0 .156 781.609 252.146)" stroke="#002b00" stroke-width="11.125" fill="none"/><path d="M-1764.4 912.6c6.03.172 21.04 2.167 31.24 3.288 6.88 2.293 15.55 2.755 23.02 3.289 8.66 1.546 15.09 2.11 21.38 6.577 4.43 2.981 10.56 8.747 14.8 13.155 9.3 4.031 3.64 2.989-3.29-3.289" transform="matrix(.19 0 0 .156 781.609 252.146)" stroke="#002b00" stroke-width="11.125" fill="none"/><path d="M-1739.7 897.8c6.48 0 16.65 1.448 26.31 3.288 3.82 4.619 9.98 5.905 18.09 8.222 5.73 1.4 9.92 4.725 16.44 8.222" transform="matrix(.19 0 0 .156 781.609 252.146)" stroke="#002b00" stroke-width="11.125" fill="none"/><path d="M-1616.4 1021.1l1.64-1.64c-3.62 3.62-2.4 1.79 6.58 0 9.97-2.69 19.28-3.77 29.6-1.65 8.04 0 15.89.14 23.02-1.64 3.3-2.48 7.45-1.31 9.86-4.94 4.74-.83 4.58-4.61 4.94 0" transform="matrix(.19 0 0 .156 781.609 252.146)" stroke="#002b00" stroke-width="11.125" fill="none"/><path d="M-1611.4 1047.4c8.69-.44 26.41-1.55 36.18-8.22 6.37-1.94 12.67-5.53 19.73-6.58 8.38 0 15.17-1.08 23.02-1.64 9.47-.51 17.94-1.65 27.95-1.65h24.67c8.29 0 15.43.74 23.02 1.65 6.47 1.13 14.19 4.91 18.09 8.22 5.84 1.27 12.44 1.88 18.08 0" transform="matrix(.19 0 0 .156 781.609 252.146)" stroke="#002b00" stroke-width="11.125" fill="none"/><path d="M-1442.1 1193.8c.55-.54 1.09-1.09 1.64-1.64-3.38 3.38-2.34 1.99 4.93-1.64 9.8 0 18.97-.48 27.96-1.65 8.59.28 17.5 1.19 23.02 4.93 7.66 2.47 15.09 3.36 21.37 6.58 8.01 2.96 13.02 4.97 21.38 6.58 4.48 2.24 15.13 1.73 21.38 3.29 8.04 0 15.89.13 23.02-1.65 8.55-1.83 13.37-4.8 21.37-6.57 5.35-5.16 12-8.15 19.74-9.87 3.18-3.85 7.65-8.33 11.51-11.51l-11.51 11.51c3.18-3.85 7.65-8.33 11.51-11.51" transform="matrix(.19 0 0 .156 781.609 252.146)" stroke="#002b00" stroke-width="11.125" fill="none"/><path d="M-1220.1 787.63c6.1-.419 18.58-2.761 26.31-6.577 6.46-1.821 14.22-5.025 18.09-8.222 6.51-1.777 10.7-4.02 18.09-6.577 6.89-4.925 14.68-9.035 18.08-13.155 9.14-4.185 11.31-6.836 14.8-14.799 1.86-2.481.95-4.152 3.29-4.933" transform="matrix(.19 0 0 .156 781.609 252.146)" stroke="#002b00" stroke-width="11.125" fill="none"/><path d="M-1083.6 733.36c-.84 0-5.23 5.086-8.22 9.866-5.65 5.273-11.05 12.922-14.8 19.732-4.39 2.986-8.99 7.951-14.8 11.51-7.43 6.356-13 10.315-21.38 14.799-6.2 4.134-11.79 6.457-19.73 8.222-7.7 2.667-11.15 4.304-19.73 6.577" transform="matrix(.19 0 0 .156 781.609 252.146)" stroke="#002b00" stroke-width="11.125" fill="none"/><path d="M-1049.1 738.3c-.55.548-1.1 1.096-1.64 1.644 4.12-4.126 2.12-2.248-4.94 6.578-5.63 5.145-11.9 12.179-14.8 16.443-4.66 3.108-12.7 11.297-18.08 14.799-7.3 6.078-14.09 8.026-19.73 13.155-8.1 3.121-13.17 6.542-21.38 9.866-4.69 2.222-11.82 3.87-16.44 6.577h-4.94" transform="matrix(.19 0 0 .156 781.609 252.146)" stroke="#002b00" stroke-width="11.125" fill="none"/><path d="M-1059 797.49c-.54.548-1.09 1.096-1.64 1.644 3.9-3.904 2.04-2.309-3.29 6.577-5.89 4.086-8.52 7.957-14.8 11.511 0 2.192.55 1.644-1.64 1.644" transform="matrix(.19 0 0 .156 781.609 252.146)" stroke="#002b00" stroke-width="11.125" fill="none"/><path d="M-988.24 769.54c0 .482-3.036 4.807-4.933 9.866-4.54 4.633-6.777 11.236-11.508 16.444-3.62 7.555-6.47 9.195-13.16 16.443-4.38 2.814-11.43 7.306-14.8 11.51-6.74 2.956-11 6.373-18.08 8.222" transform="matrix(.19 0 0 .156 781.609 252.146)" stroke="#002b00" stroke-width="11.125" fill="none"/><path d="M-1044.2 845.18c6.05-2.192 16.37-7.738 23.02-11.51 5.59-3.013 12.12-7.204 16.45-9.866 2.19-6.174 7.129-9.368 14.797-13.155 3.301-4.854 8.089-7.802 13.154-13.154 5.008-2.754 6.664-6.426 9.866-9.866" transform="matrix(.19 0 0 .156 781.609 252.146)" stroke="#002b00" stroke-width="11.125" fill="none"/><path d="M-1047.4 853.4c6.91-.059 19.93-.149 27.95-4.933 8.64-2.708 11.64-6.043 19.731-8.222 4.512-3.159 11.571-6.276 16.443-9.866l-16.443 9.866c4.512-3.159 11.571-6.276 16.443-9.866" transform="matrix(.19 0 0 .156 781.609 252.146)" stroke="#002b00" stroke-width="11.125" fill="none"/><path d="M-919.18 812.29c-3.606 5.99-11.343 19.205-19.732 24.665-3.205 3.879-11.489 7.529-16.444 11.51-5.166 2.447-12.761 5.717-19.732 9.866-7.788 1.669-13.168 3.716-19.731 6.577" transform="matrix(.19 0 0 .156 781.609 252.146)" stroke="#002b00" stroke-width="11.125" fill="none"/><path d="M-1050.7 897.8c5.66-2.389 16.06-8.195 24.66-11.511 4.1-2.047 8.2-1.644 13.16-1.644" transform="matrix(.19 0 0 .156 781.609 252.146)" stroke="#002b00" stroke-width="11.125" fill="none"/><path d="M-1012.9 907.66c.57 0 4.97-4.13 9.86-6.578 6.454-4.053 13.696-8.155 19.734-11.51 6.845-1.786 14.331-6.823 23.02-8.222 4.438 2.219 14.728 2.814 21.377 3.289h9.866" transform="matrix(.19 0 0 .156 781.609 252.146)" stroke="#002b00" stroke-width="11.125" fill="none"/><path d="M-991.53 920.82c7.102-.182 17.88-.319 24.665-4.933 5.422-.929 10.272-2.506 13.155-4.933" transform="matrix(.19 0 0 .156 781.609 252.146)" stroke="#002b00" stroke-width="11.125" fill="none"/><path d="M-1108.3 998.1c1.36.072 9.17 1.584 13.15 3.291 5.72 2.86 8.51 6.15 14.8 9.86 5.45 4.78 12.54 6.27 21.37 6.58h23.03c9.67-.55 14.08-2.96 23.02-3.29 7.71 0 13.062-1.08 18.084-3.29" transform="matrix(.19 0 0 .156 781.609 252.146)" stroke="#002b00" stroke-width="11.125" fill="none"/><path d="M-1126.4 1017.8c6.77.18 10.95 1.22 18.09 4.93 8.07 7.02 13.64 11.21 23.02 13.16 7.35.56 12.64 1.64 21.37 1.64 8.05 0 15.9-.13 23.02 1.65 6.36.18 8.03 1.64 14.8 1.64" transform="matrix(.19 0 0 .156 781.609 252.146)" stroke="#002b00" stroke-width="11.125" fill="none"/><g><path d="M74.995 82.955c-1.044 0-2.29.08-2.907-.291-1.179-.216-1.99-.695-2.616-1.453-1.078-.748-1.423-1.441-2.325-2.325-.29-1.064-.822-1.887-1.453-2.616.02-1.646.309-2.235.872-3.197 1.374-.476 1.918-.86 3.488-1.163.756-.514 1.958-1.025 2.907-1.453-.436-.738-.895-1.183 0-2.035.736-.702 1.574-1.255 2.907-1.453 1.48.135 1.822.696 2.616 1.453 1.422 0 2.809-.024 4.069.291 1.172.32 1.909.722 3.197 1.453 1.181.394 1.726.784 2.325 2.035.935.909.316 1.513.291 2.907-.162 1.92-.791 1.79-1.744 2.616 1.316.674 2.317.818 3.779.872h8.138c1.365-.372 1.548-.817 2.034-2.035.368-.919.881-2.116 1.163-3.197.644-.744.98-1.694 1.744-2.325.524-1.095 1.197-1.946 2.035-2.616.818-1.186 1.522-1.705 2.616-2.325.903-1.058 1.703-1.403 0-1.453-1.389.244-1.977.92-3.488 1.163-.292-.73-.235-1.669.29-2.325.383-1.445 1.13-2.246 1.454-3.488.678-.783.905-1.844 1.453-3.197-.097-1.267-.339-2.374-.581-3.488-.406-1.014-.582-1.907-.582-3.488.292-1.238.568-1.984 1.454-2.616.537-.966 1.133-1.464 2.325-2.035.583-.817 1.396-1.279 2.326-1.744.653-.79 1.42-1.24 2.034-2.325.362-1.02.71-1.997.872-3.197.407-.813.538-2.541.582-3.779-.019-1.543-.195-2.378-.872-3.197-.361-.903-.642-2.141-1.163-2.907 0-1.581.176-2.474.581-3.488.31-1.549.291-1.947.291-1.163v-.291c1.662.978 2.116 1.381 4.07 1.453.815 0 1.34-.082 2.034-.291 1.652.178 2.271.184 2.326-1.744.258-1.035.49.355.581.872.643 1.286.694.468 1.453-.291.477-1.429 1.011-.6 2.035-.291.116-.349.493-.493.872-.872.218 1.09.539 1.999 1.454 2.325 1.467-.269 1.544-.852 1.744-2.325 1.039-.215 1.121-.544 1.162.872.767.159 1.378.493 2.035 0 .258-.646.555-1.207.872-1.744.378 1.702.513 1.968 2.326 2.035.586-.554.837-.872.872-2.035.658.797 1.49 1.326 2.906 1.453 1.171.11 1.016.543 2.326.581.332.702.483 1.955 1.162 2.616 1 .642 2.352.869 2.907.581 0-.809-.109-1.635.291-2.035 1.138-.379 2.128-.089 3.197.291 1.474.402 1.454.752 1.454 2.616-.101 1.404-.272 2.762-.872 3.488-.236 1.086-.265 2.592-.872 3.779-.502 1.624.431 1.713.581 3.488.234.982-.273 2.281-.291 3.779.02 1.613-.006 2.411 1.163 2.907.671.989 1.494 1.477 2.325 2.325.986 1.129 1.43 1.632 2.035 2.616 1.053 1.206 1.206 1.717 2.035 2.907.485.97.936 1.673 1.453 2.907.35 1.048.235 2.411 0 3.488-.931.734-1.396 1.592-1.453 3.197-.41.82-.499 2.416-.581 3.488.284 1.209.875 2.006 1.453 2.907.606.757 1.603 1.543 2.325 2.035.636.733 1.079 1.628 1.744 2.325.383 1.259.852 1.823.872 3.488.243 1.114.484 2.221.582 3.488.676.639.594.872 2.035.872.894.523 1.992.581 3.488.581 1.3.1 2.234.291 3.778.291 1.184 0 2.42-.006 3.198-.291.607-.952.951-2.58 1.453-3.488.098-1.267.34-2.374.582-3.488.685-.719 1.191-1.462 2.034-2.035 1.202-.617 1.964-.816 3.489-.872 1.408.399 2.375.777 3.197-.291 1.128-.308 1.833-.581 3.488-.581 1.722-.43 2.179-.198 2.907.872.238 1.094.47 2.349.872 3.197.661.449 1.693 1.181 2.325 1.744.408.861.582 1.474.582 2.907.523.873.122 1.891 0 2.907-.684.717-1.21 1.517-2.035 2.325-.354.432-.776.752-1.453.872l.581.581-10.17 10.172-106.09-.872-4.945-12.208z" fill-rule="evenodd" fill-opacity=".996" transform="matrix(1.452 0 0 1.402 292.902 114.522)" stroke="#2b2b2b" stroke-width="1pt" fill="#d40f0f"/><path d="M129.93 29.47l.29.291c-.73-.73-.373-.394.872 1.163v4.069c0 1.655.274 2.36.582 3.488l.872 1.163" transform="matrix(1.452 0 0 1.402 292.902 114.522)" stroke="#2b2b2b" stroke-width="1pt" fill="none"/><path d="M138.65 29.761v.291c0-.856.05-.374-.872 1.163-.586 1.345-.581 2.152-.291 3.488.307.92.291 2.438.291 3.779l-.291.581" transform="matrix(1.452 0 0 1.402 292.902 114.522)" stroke="#2b2b2b" stroke-width="1pt" fill="none"/><path d="M144.76 37.318h-.291c.856 0 .374-.05-1.162.872-1.293.812-1.789 1.241-3.198 1.453-.947.928-1.503 1.142-3.197 1.163-.137.41-.085.291-.582.291" transform="matrix(1.452 0 0 1.402 292.902 114.522)" stroke="#2b2b2b" stroke-width="1pt" fill="none"/><path d="M137.78 42.551v.291c.383-.144 1.727-.515 2.325-.581.728-.602 1.907-.838 2.616-1.453 1.116-.144.758-.544 2.035-.581l-2.035.581c1.116-.144.758-.544 2.035-.581" transform="matrix(1.452 0 0 1.402 292.902 114.522)" stroke="#2b2b2b" stroke-width="1pt" fill="none"/><path d="M142.14 43.713c.496 0 2.54.085 3.488.291h1.453" transform="matrix(1.452 0 0 1.402 292.902 114.522)" stroke="#2b2b2b" stroke-width="1pt" fill="none"/><path d="M108.42 50.399h.291c-.785 0-.382.018 1.163-.291 1.301-.1 2.38-.332 3.779-.581 1.553-.389 2.17-.392 3.197-1.453 1.164-.776 1.548-1.455 1.744-2.907.202-.928.326-2.03.872-2.616" transform="matrix(1.452 0 0 1.402 292.902 114.522)" stroke="#2b2b2b" stroke-width="1pt" fill="none"/><path d="M121.21 46.33v1.454c0 1.496.058 2.594.582 3.488.597 1.248.973 1.795 2.034 2.325l2.907 1.163h.872" transform="matrix(1.452 0 0 1.402 292.902 114.522)" stroke="#2b2b2b" stroke-width="1pt" fill="none"/><path d="M128.48 53.306h1.454c2.154 0 4.021.232 6.104.291h4.069c1.431-.051 2.579-.291 4.07-.291h2.906" transform="matrix(1.452 0 0 1.402 292.902 114.522)" stroke="#2b2b2b" stroke-width="1pt" fill="none"/><path d="M121.79 43.423h1.453c1.203-.401 2.817-.357 4.069-.581.517.278.875.624 1.454.872" transform="matrix(1.452 0 0 1.402 292.902 114.522)" stroke="#2b2b2b" stroke-width="1pt" fill="none"/><path d="M122.96 39.353h.291c-.784 0-.387-.019 1.163.291.718.622 1.426.984 2.616 1.163" transform="matrix(1.452 0 0 1.402 292.902 114.522)" stroke="#2b2b2b" stroke-width="1pt" fill="none"/><path d="M123.83 36.446h.291c-.784 0-.387-.019 1.163.291.748.763 1.947 1.477 2.616 2.325.636.376 1.017.83 1.744 1.163" transform="matrix(1.452 0 0 1.402 292.902 114.522)" stroke="#2b2b2b" stroke-width="1pt" fill="none"/><path d="M115.69 53.887v.291c0-.856-.049-.374.872 1.163.097 1.355.211 2.917.872 3.779.192 1.414.234 1.8-.29 2.907-.452 1.016-1.033 2.319-1.744 2.907-.581.854-1.443 1.206-2.035 2.035-.758.53-1.529 1.582-2.035 2.325-1.113 1.241-1.359 1.959-2.325 2.616-.374 1.121-.909 1.664-1.454 2.907-.872 1.028-1.513 2.024-2.034 3.197-.408.951-.465 2.556-.872 3.779v.872" transform="matrix(1.452 0 0 1.402 292.902 114.522)" stroke="#2b2b2b" stroke-width="1pt" fill="none"/><path d="M112.49 80.048v-1.454c0-1.466.131-2.728.291-4.069.445-1.039.877-2.203 1.162-3.488.598-.879.852-1.78 1.454-2.907.31-1.136.889-2.018 1.744-2.616.364-1.092.827-1.734 1.453-2.907.457-.931 1.373-2.07 1.744-3.488.444-.527.606-1.393.872-2.325" transform="matrix(1.452 0 0 1.402 292.902 114.522)" stroke="#2b2b2b" stroke-width="1pt" fill="none"/><path d="M123.83 58.247v.291c0-.812.036-.381-.581 1.163-.447 1.246-1.14 2.286-1.453 3.488-.605 1.301-1.014 2.702-1.454 4.069-.232 1.299-.29 2.623-.29 4.069v4.069c0 1.487-.274 2.603-.291 4.07-.371.741-.51 1.524-.291 1.744" transform="matrix(1.452 0 0 1.402 292.902 114.522)" stroke="#2b2b2b" stroke-width="1pt" fill="none"/><path d="M127.03 59.41c-.275 0-.166.743-.291 1.744-.105 1.371-.291 2.417-.291 4.069-.295 1.379-.704 2.541-.872 3.779-.409 1.382-.813 2.141-.872 3.779.595.875 1.348 1.502 1.744 2.907.47.957 1.018 1.938 1.454 3.197 0 1.578.272 2.253.29 3.779 0 .717-.056 1.166.291 1.744" transform="matrix(1.452 0 0 1.402 292.902 114.522)" stroke="#2b2b2b" stroke-width="1pt" fill="none"/><path d="M132.84 61.445v.291c0-.812.036-.381-.581 1.163-.92 1.246-1.503 2.334-2.035 3.197-.442 1.376-.943 2.689-.581 4.069.095 1.332.345 2.911.872 3.779.053 1.428.291 2.198.291 3.779.1 1.3.29 2.235.29 3.779 0 1.183-.006 2.42-.29 3.197-.547.234-.407.497-1.163.581" transform="matrix(1.452 0 0 1.402 292.902 114.522)" stroke="#2b2b2b" stroke-width="1pt" fill="none"/><path d="M129.06 54.468c-.366 0 .169.778.29 1.744.402.669.291 2.09.291 3.197" transform="matrix(1.452 0 0 1.402 292.902 114.522)" stroke="#2b2b2b" stroke-width="1pt" fill="none"/><path d="M134.29 55.34h.29c-.911 0-.366-.06 1.163 1.163.217.999.436 2.121.581 3.197" transform="matrix(1.452 0 0 1.402 292.902 114.522)" stroke="#2b2b2b" stroke-width="1pt" fill="none"/><path d="M140.4 54.468v1.454c.299 1.394.581 2.482.581 4.069l-.581-4.069c.299 1.394.581 2.482.581 4.069" transform="matrix(1.452 0 0 1.402 292.902 114.522)" stroke="#2b2b2b" stroke-width="1pt" fill="none"/><path d="M143.88 54.759h.291c-.856 0-.374-.05 1.162.872v.872" transform="matrix(1.452 0 0 1.402 292.902 114.522)" stroke="#2b2b2b" stroke-width="1pt" fill="none"/><path d="M142.14 61.735h-.291c.911 0 .352-.076-.872 1.453-.459.918-1.003 1.666-1.453 2.616-.533.987-.737 1.487-.872 2.616" transform="matrix(1.452 0 0 1.402 292.902 114.522)" stroke="#2b2b2b" stroke-width="1pt" fill="none"/><path d="M137.2 62.317c-.168 0-.508.908-1.162 1.453-.259 1.19-.563 1.956-.582 3.488 0 1.885.351 2.203 1.163 3.488.682.787 1.055 1.506 1.163 2.907v8.138c-.201 1.335-.573 1.987-1.454 2.616-1.115.726-1.256.184-2.034-.872-.272-.897-.653-1.316-.872-2.325" transform="matrix(1.452 0 0 1.402 292.902 114.522)" stroke="#2b2b2b" stroke-width="1pt" fill="none"/><path d="M144.76 61.735v.291c0-.785.019-.385-.291 1.163-.529 1.309-1.299 2.582-1.744 3.488-.405 1.014-.581 1.907-.581 3.488.244 1.364.529 2.61.581 4.069 0 1.595-.395 2.53-.581 3.779-.57 1.081-1.069 2.44-1.744 3.197l-.291.581" transform="matrix(1.452 0 0 1.402 292.902 114.522)" stroke="#2b2b2b" stroke-width="1pt" fill="none"/><path d="M148.24 58.538v.291c0-.813.036-.381-.581 1.163-.103 1.446-.419 2.573-.582 3.779-.384.897-1.056 2.595-1.453 3.488-.601.977-.872 1.447-.872 3.197.601 1.03 1.523 1.944 2.616 2.325.447.944.641 2 1.163 3.197.102 1.433.415 2.669.581 4.069v1.163" transform="matrix(1.452 0 0 1.402 292.902 114.522)" stroke="#2b2b2b" stroke-width="1pt" fill="none"/><path d="M151.44 60.863l-.291.291c.64-.64.317-.425 0 1.163 0 1.482-.192 2.683-.291 4.069-.518 1.038-.995 2.247-1.162 3.488.252 1.381.907 1.687 2.034 2.325.676.645 1.656 1.2 2.616 1.744 1.086.633 1.831 1.351 2.617 2.325.866 1.074 1.409 1.31 2.034 2.616.167 1.235.555 2.402.291 3.488 0 .388.097.291-.291.291" transform="matrix(1.452 0 0 1.402 292.902 114.522)" stroke="#2b2b2b" stroke-width="1pt" fill="none"/><path d="M153.48 54.178h.291c-.911 0-.35-.074.872 1.453.315 1.26.291 2.647.291 4.069.556.818.773 1.907.872 3.197.306.92.29 2.439.29 3.779-.097 1.134-.459 1.835 0 2.907 1.263.764 2.139 1.608 2.907 2.325 1.069.534 1.492 1.002 2.326 2.035.529.934 1.14 1.92 1.744 2.616.232 1.299.29 2.623.29 4.069 0 1.707.053 2.545-.872 3.488-.44 0-.927.078-.29.291" transform="matrix(1.452 0 0 1.402 292.902 114.522)" stroke="#2b2b2b" stroke-width="1pt" fill="none"/><path d="M149.41 42.26v1.454c.205 1.381.858 2.296 1.744 3.197.543.799 1.236 1.492 2.035 2.035 1.122.381 1.53.581 2.906.581" transform="matrix(1.452 0 0 1.402 292.902 114.522)" stroke="#2b2b2b" stroke-width="1pt" fill="none"/><path d="M152.9 50.98h.291c-.785 0-.388-.019 1.162.291.983.492 1.475 1.165 2.326 1.744.246.903.598 2.365 1.163 3.197.207 1.161.38 2.251.872 2.907" transform="matrix(1.452 0 0 1.402 292.902 114.522)" stroke="#2b2b2b" stroke-width="1pt" fill="none"/><path d="M127.9 44.295v1.454c.835.724 1.55.872 3.197.872 1.3.1 2.235.291 3.779.291h4.07c1.553 0 1.869.023 2.325-1.453.596-.809-.194-1.089-.581-1.744l.581 1.744c.596-.809-.194-1.089-.581-1.744" transform="matrix(1.452 0 0 1.402 292.902 114.522)" stroke="#2b2b2b" stroke-width="1pt" fill="none"/><path d="M166.56 84.699h.291c-.912 0-.367-.06 1.162 1.163.18.87.548 1.327.872 2.035" transform="matrix(1.452 0 0 1.402 292.902 114.522)" stroke="#2b2b2b" stroke-width="1pt" fill="none"/><path d="M83.424 73.072h-.291c.856 0 .373-.05-1.163.872-.855.599-1.434 1.48-1.744 2.616-1.014.676-.441 1.125.872 1.163 1.739-.021 2.194-.195 3.197-1.163.705-.528 1.15-1.378.581-2.325l-.581 2.325c.705-.528 1.15-1.378-.872-3.488z" fill-rule="evenodd" transform="matrix(1.452 0 0 1.402 292.902 114.522)" stroke="#000" stroke-width="1pt"/><path d="M171.21 85.571v.291c0-.784-.019-.386.29 1.163.155.36.263.659.582.872" transform="matrix(1.452 0 0 1.402 292.902 114.522)" stroke="#2b2b2b" stroke-width="1pt" fill="none"/><path d="M174.12 85.28v1.454c.509.69.963 1.508 1.454 2.035" transform="matrix(1.452 0 0 1.402 292.902 114.522)" stroke="#2b2b2b" stroke-width="1pt" fill="none"/><path d="M177.02 86.152v.291c0-.856-.05-.374.872 1.163.123.369.213.458.582.581" transform="matrix(1.452 0 0 1.402 292.902 114.522)" stroke="#2b2b2b" stroke-width="1pt" fill="none"/><path d="M86.912 84.99v1.454c-.217 1.083-.898 1.828-1.453 2.325l1.453-2.325c-.217 1.083-.898 1.828-1.453 2.325" transform="matrix(1.452 0 0 1.402 292.902 114.522)" stroke="#2b2b2b" stroke-width="1pt" fill="none"/><path d="M90.11 85.862v1.454c-.418.597-.657.946-1.163 1.163" transform="matrix(1.452 0 0 1.402 292.902 114.522)" stroke="#2b2b2b" stroke-width="1pt" fill="none"/><path d="M92.726 85.28v1.454c-.071.713-.389 1.101-.581 1.744" transform="matrix(1.452 0 0 1.402 292.902 114.522)" stroke="#2b2b2b" stroke-width="1pt" fill="none"/><path d="M96.505 84.699h.291c-.077.193 0 1.298 0 2.035-.314.584-.776.69-1.163 1.163" transform="matrix(1.452 0 0 1.402 292.902 114.522)" stroke="#2b2b2b" stroke-width="1pt" fill="none"/><path d="M461.764 151.286h-.421c.147.381.591 2.282.844 2.853 1.167.805 1.78 2.079 2.532 3.26 1.051-1.172 1.266-2.173 1.266-4.483-.56-1.565-2.264-1.408-4.221-1.63z" fill-rule="evenodd" fill="#2b2b2b"/><path d="M511.147 152.916c-.123 0-1.234.752-2.532 1.223-.314 2.235-.174 2.478.844 4.075 2.015-.15 2.06-.588 2.532-2.445.932-1.201.277-.928-.844-2.853z" fill-rule="evenodd" fill="#2b2b2b"/><path d="M144.18 31.505h-1.163c-1.55-.277-2.404-.367-3.488.581-.334 1.247-.515 2.257.291 2.907.989.242 1.575.646 2.616.872.561-.912 1.018-1.575 1.744-2.616.671-.224.192-.721 0-1.744v1.744c.671-.224.192-.721 0-1.744" transform="matrix(1.452 0 0 1.402 292.902 114.522)" stroke="#2b2b2b" stroke-width="1pt" fill="none"/><path d="M129.35 31.505l-.29-.291c.659.659.419.342-1.163-.291-1.34 0-2.859-.016-3.779.291-.365.73.441 1.277 1.163 1.744.799.543 1.491 1.236 2.034 2.035.808.594.984 1.426 2.035 1.744.47-.992.877-1.712 1.163-3.197-.183-.548-.664-1.148-1.163-2.035z" transform="matrix(1.452 0 0 1.402 292.902 114.522)" stroke="#2b2b2b" stroke-width="1pt" fill="none"/><path d="M78.192 71.618c-.336 0-2.424-.019-3.197.291-.802 1.248-.634 1.936.291 2.616.243 1.611.778 1.679 2.616 1.744.772.579 1.506.37 1.744-.581.497-.829.257-1.737-.291-2.325 0-.911.06-.215-1.163-1.744z" fill-rule="evenodd" transform="matrix(1.452 0 0 1.402 292.902 114.522)" stroke="#000" stroke-width="1pt"/><path d="M72.088 77.141h-.291c.813 0 .327-.089-.291 1.453 0 .898-.074 1.839.291 2.325 1.044 0 2.29.08 2.907-.291.479-1.279.553-2.238-.581-2.616-.384-.577-.989-.569-2.035-.872z" fill-rule="evenodd" transform="matrix(1.452 0 0 1.402 292.902 114.522)" stroke="#000" stroke-width="1pt"/><path d="M83.134 80.629h-1.454c-.614.53-1.366 1.17-1.744 2.035 1.217.332 1.575.994 2.325 1.744 1.896-.023 2.163-.113 2.325-2.035 0-1.135.042-.448-1.453-1.744z" fill-rule="evenodd" transform="matrix(1.452 0 0 1.402 292.902 114.522)" stroke="#000" stroke-width="1pt"/><path d="M182.25 82.083h-1.453c-1.363.441-1.622.911-1.744 2.616.853.515 1.938 1.114 3.197 1.453.91.532 2.122.746 3.489.291.566-.92 1.031-1.17 1.162-2.616-.996-.303-2.545-.9-3.197-1.453l3.197 1.453c-.996-.303-2.545-.9-4.651-1.744z" fill-rule="evenodd" transform="matrix(1.452 0 0 1.402 292.902 114.522)" stroke="#000" stroke-width="1pt"/><path d="M185.16 75.107h-.291c.912 0 .352-.076-.872 1.453-.308 1.42-.059 1.956.582 3.197 1.287.634 1.416 1.609 2.616 2.035.558.558.291-.751.291-1.453.247-1.539.753-1.95.872-3.488-.267-1.089-.616-1.684-1.744-2.035l1.744 2.035c-.267-1.089-.616-1.684-3.198-1.744z" fill-rule="evenodd" transform="matrix(1.452 0 0 1.402 292.902 114.522)" stroke="#000" stroke-width="1pt"/><path d="M191.85 75.979h-.291c.911 0 .351-.076-.872 1.453-.562.926-.581 2.328-.581 3.779.48 1.296 1.187.495 1.744-.291.985-.67 1.391-.94 1.453-2.616 0-1.373.016-.758-1.453-2.325z" fill-rule="evenodd" transform="matrix(1.452 0 0 1.402 292.902 114.522)" stroke="#000" stroke-width="1pt"/><path d="M195.92 80.048h-.29c.784 0 .387-.019-1.163.291-.965 1.106-1.697 1.675-2.035 3.197 1.363.296 2.249.092 3.779-.291.624-1.363.692-1.097-.291-3.197z" fill-rule="evenodd" transform="matrix(1.452 0 0 1.402 292.902 114.522)" stroke="#000" stroke-width="1pt"/><path d="M127.74 32.473h-.514c-.202.27-.089.558.103.822.106.353.062.488.411.617.249.297.591.448 1.028.514.709-.065.437-.246.308-.719-.239-.276-.232-.565-.617-.719-.111-.168-.434-.321-.719-.514z" fill-rule="evenodd" transform="matrix(1.919 0 0 1.83 232.912 100.074)" stroke-width="1pt"/><path d="M141.51 32.679c-.081.017-.525.204-.719.308-.33.392-.451.518-.309.925.341.136.726.248 1.234.308.503-.097.486-.34.514-.822-.109-.254-.365-.41-.72-.719z" fill-rule="evenodd" transform="matrix(2.054 0 0 2.245 208.022 86.239)" stroke-width="1pt"/><path d="M38.66-669.61v1.453c.331 1.406.367 1.883 2.035 2.035h12.207c1.278-.12 1.163-.407 1.163-1.744.191-.298-.147-1.228-.581-1.744-1.149.408-1.433 1.465-2.907 1.744-1.675 0-2.462.018-3.197-.872-.836-.541-.92-1.612-1.744-.582-.939.567-1.815.872-3.488.872-1.776 0-1.802-.196-3.488-1.162z" fill-rule="evenodd" transform="matrix(1.609 0 0 1.607 413.661 1257.939)" stroke-width="1pt"/><path d="M42.73-676.01h.291c-.911 0-.368-.062 1.163 1.163.123.696.291.847.291 1.744" transform="matrix(1.609 0 0 1.607 413.381 1256.754)" stroke="#2b2b2b" stroke-width="1.109" fill="none"/><path d="M42.439-673.68h-.291c.084.21.147 1.314.291 1.744 1.453 0 .773-.244 0-1.744z" fill-rule="evenodd" transform="matrix(4.177 0 0 2.134 304.15 1610.983)" stroke-width="1.109"/><path d="M49.415-673.97h-.291c.813 0 .38-.036-1.163.581-.557.786-1.377 1.166-.291 2.035 1.206.068 1.815.29 3.197.29v-2.034 2.034c0-.678 0-1.356-1.453-2.906z" fill-rule="evenodd" transform="matrix(1.009 0 0 1.246 440.684 1014.205)" stroke-width="1.591"/><path d="M48.834-675.72h-.291c.784 0 .387-.02-1.163.29-.304.514-.737 1.051-1.163 1.454" transform="matrix(1.609 0 0 1.607 413.241 1256.754)" stroke="#2b2b2b" stroke-width="1.109" fill="none"/></g><g stroke="#2b2b2b" stroke-width="1pt"><path d="M415.463 288.353c-.889 0-4.21.063-6.074-.417-2.277.086-2.725.767-4.454 1.255-1.99-.076-3.062-.419-5.264-.419-1.583-.882-2.691-1.59-4.859-1.674-1.615-.224-3.2-.417-5.264-.417-2.361.029-3.214.755-4.859 1.672-.754 1.145-1.721 2.219-2.834 3.347-.891 1.353-1.671 1.931-3.239 3.346-.859 1.305-1.755 1.958-2.43 4.183 0 1.928-.022 4.114.405 5.438.265 2.028.746 3.046.81 5.437 0 2.197-.141 3.985-.81 5.857-.447 2.076-1.216 3.374-2.025 5.438-.425 1.317-.684 3.613-.81 5.438.297 1.747 1.113 3.439 1.62 5.437.49 2.023.886 3.766 1.62 5.019.472 1.613 1.174 1.463 1.215 3.764 0 2.271.379 3.244.405 5.438.605 1.249.892 3.294 1.215 5.019.963 1.209 1.205 2.488 2.834 3.347.348-2.013.67-3.564.81-5.438.234-1.353.306-3.734.81-4.6l1.62 4.182c.774.968 1.441 2.849 2.024 4.183.832.235.81-.079.81-1.674.477-1.476.744-3.185 1.215-5.019v-1.672c1.001 1.191 1.687 2.829 2.43 4.182.761 1.157 1.542 2.346 2.834 3.347 1.947.473 1.62.003 1.62-2.092v-5.855c.084 2.353.743 2.815 1.215 4.6.95.981 1.4 1.826 3.239 2.092.8-1.343 1.635-2.051 2.429-3.764 0-2.307.175-3.635.81-5.019 1.206-1.545 1.744-2.101 3.239-3.347 1.577-1.453 3.079-2.895 4.859-3.764.996-1.484 2.176-2.453 3.644-3.764 1.646-1.576 3.033-3.431 4.049-5.438 1.18-1.219 2.26-3.285 2.834-5.438 1.079-1.747 1.429-3.774 1.62-6.274.866-2.041 1.611-4.032 2.025-6.274 0-2.249-.175-4.095-.405-5.855-1.003-1.741-1.667-3.862-2.43-5.021-.478-1.548-1.622-3.425-2.025-5.019-1.038-2.007-.937-2.691-3.644-2.927-1.273 0-1.092-.163-2.834-.837z" fill-rule="evenodd" fill-opacity=".996" fill="#d40f0f"/><path d="M378.615 297.548v.419c0-1.13-.026-.555.405 1.672.218 1.669.405 3.307.405 5.438 0 2.133.187 3.769.405 5.438.202 1.735.562 2.672 2.025 3.764" fill="none"/><path d="M382.664 307.592c.286 0 .436 1.288 1.215 2.092.409 1.551 1.142 3.151 2.025 5.019.399 2.137.965 3.173 1.62 4.6.38.981.524 2.255 1.215 2.928v-11.712c-.37-2.141-.794-3.481-1.215-5.438v-2.51" fill="none"/><path d="M390.358 308.844c.076.863.624 3.629 1.215 5.021.541 1.465 1.186 3.183 2.025 4.182.171 1.002.581 1.502 1.215 2.51 1.398-1.164 2.452-2.094 2.834-4.182.613-1.478 1.076-3.154 1.215-5.021.144-2.081.583-3.703.81-5.437 0-2.193-.002-3.793-.81-5.019l.81 5.019c0-2.193-.002-3.793-.81-5.019" fill="none"/><path d="M400.885 311.78v.419c0-1.13-.026-.555.405 1.674.292 1.384.405 3.102.405 5.019-.44.302-.606 1.18-.81 1.672" fill="none"/><path d="M404.53 305.506v2.0909999999999997c0 1.829.168 4.255-.405 5.438 0 2.133-.187 3.769-.405 5.438.534 2.76.985-.161 1.215-1.255.486-1.318.997-3.503 1.62-4.602.252-2.183.733-3.308.81-5.437.41-1.695.405-3.515.405-5.438" fill="none"/><path d="M410.198 296.713c.141 0 1.224 1.05 2.429 1.674.281 1.928.954 2.603 1.215 4.6v2.091" fill="none"/><path d="M409.793 293.792c.52.224 2.408 1.584 3.239 2.091 1.111.115 1.503.167 1.62 1.255" fill="none"/><path d="M409.389 291.274h2.0250000000000004c.97.111.884.419 2.025.419" fill="none"/></g><g fill-opacity=".996" fill-rule="evenodd" stroke="#2b2b2b" stroke-width="1pt" fill="#d30f0f"><path d="M560.737 293.878h-2.027c-1.812.342-2.402 1.232-3.241 2.504l3.241-2.504c-1.812.342-2.402 1.232-3.241 2.504"/><path d="M561.546 291.365l-.404-.418c.892.919.591.455-1.621 0-1.355-.289-1.482-.289-2.837 0"/><path d="M557.907 288.45h2.027c2.452.202 4.436.804 6.888.834 2.044 0 3.803-.188 5.672-.416 1.147-.592 3.498-.418 5.268-.418 2.307 0 3.364.254 5.268.834 1.386.372 3.591 1.109 4.862 1.67 1.335.651 2.601 1.12 4.052 2.087 1.552 1.084 1.94 1.779 2.025 4.174-.216 1.651-.48 3.523-.81 5.427.142 2.058.579 3.833.81 5.843.439 1.809.406 3.803.406 5.845-.311 1.547-.967 1.432-1.621 2.922 1.142.775 2.54 2.275 3.242 3.339.339 1.959.737 3.749.81 5.843 0 2.342-.053 3.636-.81 5.427-.528 2.019-1.16 2.871-1.621 5.009-.347 1.644-1.016 3.324-1.621 4.592-.671 1.015-1.132 3.271-1.62 4.591-.254 1.987-.874 3.879-1.621 5.009-.413 1.558-.618 2.726-2.025 3.34-1.206-.31-.811-1.114-.811-2.504.289-1.664.454-2.895 0-4.174-1.326-.322-1.415.652-2.025 2.504-.86.952-.912 2.18-2.027 2.922-1.383 1.725-1.871 1.116-2.835-1.252 0-2.219-.266-3.56-.406-5.427-.217-2.694-.47 1.503-.81 2.087-.459 2.125-1.164 2.862-1.621 4.592-1.666.628-2.306.612-2.431-1.67.323-1.865.406-3.767.406-5.843-1.018-1.209-1.092-.257-1.621.834-.089 2.471-.693 2.769-1.621 4.174-1.354.824-1.041.836-1.621-1.252-.644-1.582-1.119-2.18-2.431-2.922-1.164-1.04-2.159-1.252-4.457-1.252-2.117-.08-3.149-.793-4.862-1.252-1.617-.477-3.189-.843-4.052-1.67-.769-1.166-1.879-2.667-2.837-4.591-1.044-1.964-1.54-3.198-1.62-5.427-.348-2.005-.577-4.215-.811-6.261-.459-2.839-1.138-5.929-1.62-8.765-.698-2.236-1.377-4.206-1.621-6.679-.806-1.834-1.249-3.828-1.621-5.845 0-1.924-.022-4.106.406-5.425.772-1.544 1.657-2.586 2.431-3.758 1.14-1.456 1.893-2.519 3.647-3.757.905-1.113 2.69-1.871 4.052-2.504.916-.404 1.539-.526 3.241-.834z"/><path d="M561.964 298.459v.418c0-1.229.116-.49-2.025.834-1.107 1.086-2.097 1.458-3.242 2.922-.259.625-.776 1.136 0 1.67"/><path d="M561.546 303.054v.416c0-1.126-.026-.554.406 1.67.071 1.977.406 2.872.406 5.009-.746 1.279-.308 3.069.404 4.592.636 1.822 1.443 3.089 2.027 4.591.864.297.404-.32.404-1.67-.524-1.621-.312-3.722 0-5.843v-5.009"/><path d="M572.488 302.221h-.404c1.132 0 .454-.128-.406 2.088v5.843c-.427 1.321-.406 3.502-.406 5.427-.431 2.046-.718 2.651 1.621 3.339l2.027 2.504c.769-1.957 1.585-3.728 2.025-5.843.648-1.206.912-3.678 1.216-5.427.668-.836 1.512-2.378 2.025-3.339"/><path d="M583.027 302.637v.418c0-1.127-.026-.554.406 1.669.031 1.825.404 3.151.404 5.009-.797 1.211-.91 2.914-1.62 4.592-.71 1.98-1.189 3.512-1.216 5.843 0 1.402-.362 2.918.81 2.088.834-1.848 1.543-3.853 2.025-5.845.891-1.812 1.384-3.194 2.027-4.591.212-1.835.251-4.117.81-5.845l-.81 5.845c.212-1.835.251-4.117.81-5.845"/><path d="M592.757 299.722l-.404.418c.799-.823.452-.609 0 1.252 0 1.918.209 4.577-.406 5.843-.287 2.484-.636 3.267-2.025 5.009-.282.725-.809 1.808-1.216 2.088"/><path d="M569.659 313.91v.418c0-1.127.026-.554-.406 1.67-.774.919-1.929 2.688-2.431 4.173-.333.115-1.101.418-.406.418"/><path d="M568.446 318.505h.404c-1.132 0-.456-.131.406 2.087l1.216 2.504"/></g><path d="M77.32 201.26c-.275 0-.166.743-.291 1.744v4.07c.189 1.439.683 2.802 1.453 3.488.463.463 1.443 1.204 2.035 1.744 0-1.544.191-2.479.291-3.779.486-.831.637-2.133 1.163-2.907.128-1.667.73-1.681 1.163-3.197.497-.723-.534-.786-1.453-.872-1.085-.255-2.104-.617-2.907-1.163l2.907 1.163c-1.085-.255-2.104-.617-4.36-.291z" fill-rule="evenodd" fill-opacity=".996" transform="matrix(1.393 0 0 1.439 301.422 109.394)" stroke="#000" stroke-width="1pt" fill="#000f0f"/><path d="M92.435 200.68h-.291c.856 0 .341-.084-.581 1.453 0 1.41.067 2.751.291 3.779.6.726.812 1.919 1.163 2.907.52.32.844-.467 1.163-1.163.589-1.454 1.25-2.135 1.453-3.488.319-1.171.868-1.652 1.163-2.907-.618-1.29-.944-1.849-2.616-2.034-.73.73-.18.202-1.744 1.453z" fill-rule="evenodd" fill-opacity=".996" transform="matrix(1.393 0 0 1.439 301.422 109.394)" stroke="#000" stroke-width="1pt" fill="#000f0f"/><path d="M168.59 200.39h.29c-.157.421-.29 1.73-.29 2.616-.217 1.216-.45 2.289 0 3.489.834.367 1.373.644 1.744 1.453.679.572.829.87.872-.581.63-1.388.928-1.736 1.744-2.907.577-.987.801-1.656.581-3.198-.751-1.522-1.176-1.701-2.907-2.034-1.823 0-1.797 1.361-2.325 2.616" fill-rule="evenodd" fill-opacity=".996" transform="matrix(1.393 0 0 1.439 301.422 109.394)" stroke="#000" stroke-width="1pt" fill="#000f0f"/><path d="M182.84 202.13h-.291c.233.608.581 1.864.581 2.907.232 1.299.291 2.624.291 4.07-.173 1.155-.465 1.162.872 1.162.544-1.295.973-2.269 1.744-2.906.372-1.222.815-1.956.872-3.489 0-1.2.09-2.727-.29-3.488-2.109 0-2.041.291-3.779 1.744z" fill-rule="evenodd" fill-opacity=".996" transform="matrix(1.393 0 0 1.439 301.422 109.394)" stroke="#000" stroke-width="1pt" fill="#000f0f"/><path d="M195.63 195.74h-.291c.812 0 .38-.035-1.163.582-.72.943-1.826 1.415-1.453 2.907 1.453.49 2.267.848 2.907 1.744.925.508 1.596.891 2.034 1.744.531.353.84.906 1.163 1.453-.174-1.463-.479-2.444-.581-3.779-.02-1.646-.31-2.235-.872-3.197-.118-1.055-.425-.815-1.744-1.454z" fill-rule="evenodd" fill-opacity=".996" transform="matrix(1.393 0 0 1.439 301.422 109.394)" stroke="#000" stroke-width="1pt" fill="#000f0f"/><path d="M197.66 189.92h-.29c.855 0 .373-.05-1.163.872-.651 1.176-.667 2.169-.291 3.197 1.424.212 1.995.83 2.616 1.744.867.867 1.468 1.452 2.326 2.035-.622-1.059-1.178-2.025-1.454-3.197-.048-1.293-.259-2.233-.581-3.198l.581 3.198c-.048-1.293-.259-2.233-1.744-4.651z" fill-rule="evenodd" fill-opacity=".996" transform="matrix(1.393 0 0 1.439 301.422 109.394)" stroke="#000" stroke-width="1pt" fill="#000f0f"/><path d="M69.472 195.74c-.098 0-.931.537-1.453 1.163-1.414.78-2.175 1.229-2.325 2.907-.051 1.377-.291 2-.291 3.488.412.412.075 1.669.581 1.163.886-.975 1.342-1.861 2.325-2.616.659-.628 1.881-1.288 2.907-1.744 1.626-.473 1.499-.313.581-1.744-.517-.876-1.199-1.351-2.325-2.617z" fill-rule="evenodd" fill-opacity=".996" transform="matrix(1.393 0 0 1.439 301.422 109.394)" stroke="#000" stroke-width="1pt" fill="#000f0f"/><path d="M67.437 190.22h-.291c.856 0 .373-.05-1.163.872-.728.909-1.626 1.173-2.035 2.325-.677.819-.853 1.654-.872 3.197.027.941.181 1.826.581 2.326.388-1.094.861-1.739 2.035-2.326.722-.467.919-1.093 1.744-1.453.599-.256 1.261-.101 1.453-.872-.191-1.782-.728-2.304-1.453-4.069z" fill-rule="evenodd" fill-opacity=".996" transform="matrix(1.393 0 0 1.439 301.422 109.394)" stroke="#000" stroke-width="1pt" fill="#000f0f"/><path d="M89.819 181.2v.29c0-.855.05-.374-.872 1.163-1.014.405-1.907.581-3.488.581-.881.661-1.457.457-2.035 1.744-.779.817-1.136 1.269-2.325 1.745-1.34 0-2.859.015-3.779-.291-.976-.527-2.371-.92-3.488-1.163-1.577.019-2.366.391-3.488.872-1.201.283-1.954.653-2.616 1.454-.782.312-.782.779-.872 1.744.415.691.037 1.069.872 1.162.465.569.581.589.581 1.744l.581 4.07c.67 1.595 1.176 1.722 2.325 2.616.997.472 1.71.929 2.907 1.453 1.07.55 2.357.627 3.488.872.929 1.097 1.524 1.532 2.907 2.035 1.426-.215 1.649-.82 2.907-1.163.491-.491 1.255-.089 1.744-.872.427-.823.616-2.682 1.163-3.488.638-1.294 1.513-1.95 2.907-2.325.765-.574 1.649-.645 2.616-.291-.064 1.726-.616 1.797-.872 3.198-.498.922-.818 1.737-.291 2.616 1.215.405 2.679.29 4.069.29 1.876-.316 2.012-.745 2.035-2.616-.277-1.177-.697-1.901-.872-3.197 0-.898-.075-1.839.291-2.326l2.616.582c.497.994.92 1.252 2.035.872.353-.55.893-.953 1.163-1.454.294.8.865 1.516 1.453 1.163.613-1.28 1.039-1.684 2.325-2.035 1.231-.267 2.04-.629 2.907-1.162.88-.542 1.427-1.245 2.326-1.744.616-.962 1.241-1.601 1.453-3.198 0-1.711-.346-2.841-.581-4.36-.648-1.017-.967-2.114-2.035-2.907-.847-.508-2.038-.124-3.198 0-1.3-.1-2.234-.29-3.778-.29-1.491 0-2.639.239-4.07.29h-4.069c-1.687 0-2.571.236-3.779.872-.856 0-.241-.083-1.163 1.454z" fill-rule="evenodd" fill-opacity=".996" transform="matrix(1.393 0 0 1.439 301.422 109.394)" stroke="#2b2b2b" stroke-width="1pt" fill="#d40f0f"/><path d="M157.55 191.67c.499.125 1.824.771 2.907.872 1.127.059.872.365.872 1.453.417.239.822.911 1.453 1.163.232-.43.702-1.099 1.163-1.453.269.627.575 1.305 1.453 1.744.737-1.398.674-1.721 2.616-1.744 1.222 1.159.858 2.235 0 3.197-.428 1.239-.61 2.314-.872 3.779.569.705 1.325.581 2.616.581.872-.522 2.009-.274 2.616.291 1.745-.087 1.681-.317 1.744-2.035v-4.069c.643-.643 1.335-.816 2.035-.291.726.6 1.075 1.992 1.744 2.907.099 1.278.257 2.453.872 3.197.656 1.369.87 1.68 2.616 1.744 1.522-.018 2.365-.228 3.779-.581 1.301-.238 1.724-.859 2.326-1.744 1.439-.387 1.842-.811 3.488-.872 1.497-.333 1.958-.87 2.906-1.453.626-.723.904-1.807 1.454-2.617.435-1.086.963-1.585 1.163-2.906.119-1.548.746-1.911 1.162-3.198.258-1.029-.256-1.678-1.162-2.325-.746-.647-1.834-.805-2.907-1.163h-8.139c-1.483 0-2.683-.191-4.07-.291-1.172-.676-1.724-1.124-2.616-2.034-1.261-.188-2.458-.898-3.488-1.454-.821-1.018-1.632-1.195-2.325-2.034-1.183-.502-1.789-1.153-3.198-1.744-1.199-.641-1.873-.971-3.488-1.163-1.387-.099-2.587-.291-4.069-.291-1.675 0-2.583.491-3.779.872-1.009 1.066-1.767 1.154-2.035 2.616-.411.823-.291 2.508-.291 3.779.292 1.363.874 2.669 1.163 3.779.115 1.224.291 1.869.291 3.488z" fill-rule="evenodd" fill-opacity=".996" transform="matrix(1.393 0 0 1.439 301.422 109.394)" stroke="#2b2b2b" stroke-width="1pt" fill="#d40f0f"/><path d="M82.843 189.92c-.633-.093-2.847-.291-4.36-.291-1.166.254-2.076.529-3.488.582-1.069.251-2.182.564-2.907 1.162-.976.092-1.281.403-2.325.582" transform="matrix(1.393 0 0 1.439 301.422 109.394)" stroke="#2b2b2b" stroke-width="1pt" fill="none"/><path d="M83.134 192.54h-.291c.856 0 .373-.05-1.163.872-1.154 1.008-1.957 1.514-2.616 2.907-.789.657-1.01 1.241-2.035 1.453-.608.646-1.217 1.217-1.744 1.744" transform="matrix(1.393 0 0 1.439 301.422 109.394)" stroke="#2b2b2b" stroke-width="1pt" fill="none"/><path d="M181.09 193.41h.29c-.812 0-.38-.036 1.163.581 1.216 1.062 1.267 1.595 2.907 1.744 1.532.558 1.696.89 2.325 2.326.212.493.291.915.291 1.744" transform="matrix(1.393 0 0 1.439 301.422 109.394)" stroke="#2b2b2b" stroke-width="1pt" fill="none"/><path d="M181.67 189.63c.468.18 2.119 1.062 3.197 1.163 1.16.157 2.298.291 3.779.291 1.369.185 2.076.618 3.488 1.162h2.326" transform="matrix(1.393 0 0 1.439 301.422 109.394)" stroke="#2b2b2b" stroke-width="1pt" fill="none"/><g><path d="M520.83-116.93c-1.257 33.442-9.085 53.149-35.434 53.149-17.716 0-35.764-15.68-35.433-35.433.332-19.753 22.568-20.962 37.859-19.339 5.425-16.094-20.142-33.81-91.008-33.81-70.164-.924-124.67 73.273-216.75 70.866-92.078-2.407-132.95-114.03-115.44-141.73-6.861 24.66-22.32 39.976-29.182 64.637-6.861 24.66 24.578 59.012 17.716 83.672l-58.882 64.289s-5.123 58.664-11.984 83.324c0-17.717 31.404-59.727 73.414-59.727 35.433 0 152.45-27.033 159.45 265.75 0 230.52-140.57 239.62-185.51 223.26-.11 27.793 15.589 114.18 87.422 202.59 77.143 88.58 166.25 100.95 183.74 99.72-8.221-24.66-42.01-53.15-10.087-53.47 21.226.32 27.953 46.05 27.953 46.05s34.536-26.24 46.041-13.16c11.109 20.58-35.051 38.3-35.051 38.3s23.432 55.77 53.15 88.58c35.434 46.82 86.746 62.39 106.3 63.02 9.501.31 27.872 7.8 27.211 25.57-1.315 35.376-1.273 52.466-18.419 53.146h127.47c-17.146-.68-17.104-17.77-18.419-53.146-.661-17.77 17.71-25.26 27.211-25.57 19.554-.63 70.866-16.2 106.3-63.02 29.718-32.81 53.15-88.58 53.15-88.58s-46.16-17.72-35.051-38.3c11.505-13.08 46.041 13.16 46.041 13.16s6.727-45.73 27.953-46.05c31.923.32-1.866 28.81-10.087 53.47 17.494 1.23 106.6-11.14 183.75-99.72 71.83-88.41 87.53-174.8 87.42-202.59-44.95 16.356-185.52 7.256-185.52-223.26 6.996-292.78 124.02-265.75 159.45-265.75 42.01 0 73.42 42.01 73.42 59.727 0 4.417 4.05-25.159-3.67-52.074-7.72-26.914-46.31-46.305-56.6-84.4-10.29-38.094 7.72-94.892 0-124.02-7.72-29.123-22.06-35.433-22.06-35.433 17.5 27.695-23.37 139.32-115.45 141.73-92.082 2.408-146.59-71.79-216.75-70.866-70.866 0-96.433 17.716-91.008 33.81 15.291-1.623 37.527-.414 37.859 19.339.331 19.753-17.717 35.433-35.433 35.433-26.349 0-34.177-19.708-35.434-53.149h-81.601z" fill-rule="evenodd" transform="matrix(.17 0 0 .14 391.957 259.073)" stroke-width="1.25" fill="#0068bd"/><g stroke="#000"><path d="M215.15 278.72c0 230.52-140.57 239.62-185.51 223.26-.11 27.793 15.589 114.18 87.422 202.59 77.143 88.58 166.25 100.95 183.74 99.72-8.221-24.66-42.01-53.15-10.087-53.47 21.226.32 27.953 46.05 27.953 46.05s34.536-26.24 46.041-13.16c11.109 20.58-35.051 38.3-35.051 38.3s23.432 55.77 53.15 88.58c35.434 46.82 86.746 62.39 106.3 63.02 9.501.31 27.872 7.8 27.211 25.57-1.315 35.376-1.273 52.466-18.419 53.146h127.47c-17.146-.68-17.104-17.77-18.419-53.146-.661-17.77 17.71-25.26 27.211-25.57 19.554-.63 70.866-16.2 106.3-63.02 29.718-32.81 53.15-88.58 53.15-88.58s-46.16-17.72-35.051-38.3c11.505-13.08 46.041 13.16 46.041 13.16s6.727-45.73 27.953-46.05c31.923.32-1.866 28.81-10.087 53.47 17.494 1.23 106.6-11.14 183.75-99.72 71.83-88.41 87.53-174.8 87.42-202.59-44.95 16.356-176.21 16.558-176.21-213.96-2.107-9.149-2.776-27.288-4.275-35.824-1.499-8.535-35.472 26.766-38.855 26.587-11.423-.359-46.732-32.686-71.856-37.071-11.852-1.893-50.628 33.305-60.175 33.994-12.495.726-28.51-35.973-55.13-32.205-19.595 3.103-35.643 36.54-40.445 31.758-12.349-12.298-25.95-20.022-41.7-22.942-23.548-2.04-36.935 16.411-49.59 31.592-.443-12.395-17.165-24.791-36.213-23.234-13.7-139.99-122.91-282.93-131.79-287.41-6.593-2.637-4.078 13.602-6.117 20.403-16.619-4.561-33.238-9.123-49.858-13.684-3.181 8.085-1.712 16.169-9.545 24.254-19.861-14.947-30.421-43.847-45.631-44.842-5.423 17.81-1.544 54.223-2.316 81.335-12.574-8.365-25.149-16.73-37.724-25.095-1.01 8.847-2.02 17.694-3.031 26.541-1.214 10.631-51.204-28.6-61.016-28.856-9.811-.255-21.479 27.453-30.295 27.304-8.817-.149 56.995 42.98 73.293 238.09z" fill-rule="evenodd" stroke-width="1.25" fill="#e8e1cb" transform="matrix(.17 0 0 .14 391.957 259.073)"/><path d="M199.99 175.68s23.255-32.556 51.16-27.905c27.905 4.65 58.135 106.97 58.135 106.97" stroke-width="1pt" fill="none" transform="matrix(.17 0 0 .14 391.957 259.073)"/><path d="M279.05 40.803c0 4.651 18.603 79.065 34.881 102.32 16.278 23.254 53.485 41.857 72.088 69.762 18.604 27.906 27.905 104.64 27.905 104.64" stroke-width="1pt" fill="none" transform="matrix(.17 0 0 .14 391.957 259.073)"/><path d="M320.91 5.922s6.977 37.207 18.604 65.112 39.532 37.206 53.484 60.461c13.953 23.254 23.255 69.762 23.255 69.762" stroke-width="1pt" fill="none" transform="matrix(.17 0 0 .14 391.957 259.073)"/><path d="M211.61 336.13s32.555-4.651 60.46 32.556c27.906 37.207 32.556 86.04 32.556 86.04" stroke-width="1pt" fill="none" transform="matrix(.17 0 0 .14 391.957 259.073)"/><path d="M813.9 284.97s20.929-2.326 34.881 13.952c13.953 16.278 11.627 27.905 9.302 27.905" stroke-width="1pt" fill="none" transform="matrix(.17 0 0 .14 391.957 259.073)"/><path d="M811.57 308.23s18.603 0 25.579 4.651c6.977 4.651 9.302 27.905 9.302 27.905" stroke-width="1pt" fill="none" transform="matrix(.17 0 0 .14 391.957 259.073)"/><path d="M799.95 331.48c2.325 0 16.278-13.952 25.579-9.302 9.302 4.651 11.627 30.231 11.627 30.231" stroke-width="1pt" fill="none" transform="matrix(.17 0 0 .14 391.957 259.073)"/><path d="M788.32 343.11s16.278-2.325 25.58 4.651l6.976 18.603" stroke-width="1pt" fill="none" transform="matrix(.17 0 0 .14 391.957 259.073)"/><path d="M741.81 343.11c2.325 0 30.23 9.302 41.858 20.929 11.627 11.627 9.301 37.207 9.301 37.207" stroke-width="1pt" fill="none" transform="matrix(.17 0 0 .14 391.957 259.073)"/><path d="M874.36 357.06s6.976-4.651 23.254 9.301c16.278 13.953 18.604 30.231 18.604 30.231" stroke-width="1pt" fill="none" transform="matrix(.17 0 0 .14 391.957 259.073)"/><path d="M872.03 382.64s18.603 2.326 27.905 9.302c9.301 6.976 23.254 23.254 23.254 23.254" stroke-width="1pt" fill="none" transform="matrix(.17 0 0 .14 391.957 259.073)"/><path d="M865.06 412.87s23.255-9.302 32.556-4.651c9.302 4.651 25.58 18.603 25.58 18.603" stroke-width="1pt" fill="none" transform="matrix(.17 0 0 .14 391.957 259.073)"/></g><g stroke-width="1pt"><path d="M-301.18-134.65v442.91h17.716v-442.91l-8.858-35.433-8.858 35.433z" fill-rule="evenodd" transform="matrix(.093 -.034 .04 .074 487.205 299.752)" stroke="#000" fill="#b03f00"/><path d="M-301.18-134.65v407.48h17.716v-407.48l-8.858-35.433-8.858 35.433z" fill-rule="evenodd" transform="matrix(.093 -.034 .04 .074 513.567 290.114)" stroke="#000" fill="#b03f00"/><g stroke="#000" fill="none"><path d="M482.827 292.765l17.805 29.019"/><path d="M482.827 292.765l21.1 27.815"/><path d="M482.827 292.765l24.396 26.61"/><path d="M482.827 292.765l27.69 25.405"/><path d="M481.179 293.368l14.51 30.224"/><path d="M481.179 293.367l11.214 31.429"/><path d="M481.179 293.367l7.919 32.634"/><path d="M481.179 293.368l4.624 33.838"/><path d="M481.178 293.367l.532 37.204"/><path d="M482.827 292.765l33.484 25.158"/><path d="M481.604 323.13l28.01-10.24"/><path d="M506.266 310.375l-24.715 9.036"/><path d="M481.498 315.69l21.42-7.831"/><path d="M499.569 305.343l-18.124 6.626"/><path d="M481.392 308.249c.028.051 14.829-5.421 14.829-5.421"/><path d="M492.872 300.312l-11.534 4.217"/><path d="M481.286 300.808c.054-.02 8.311-3.035 8.238-3.012"/><path d="M481.233 297.087l4.943-1.807"/><path d="M457.309 303.963l17.805 29.019"/><path d="M457.308 303.964l21.1 27.815"/><path d="M457.309 303.964l24.396 26.61"/><path d="M457.309 303.963l27.69 25.405"/><path d="M455.66 304.566l14.51 30.224"/><path d="M455.661 304.566l11.214 31.429"/><path d="M455.661 304.565l7.919 32.634"/><path d="M455.66 304.566l4.624 33.838"/><path d="M455.66 304.566l.532 37.204"/><path d="M457.308 303.964l33.484 25.158"/><path d="M456.086 334.329l28.01-10.24"/><path d="M480.748 321.574l-24.715 9.036"/><path d="M455.98 326.889l21.42-7.831"/><path d="M474.051 316.542l-18.124 6.626"/><path d="M455.874 319.448c.028.051 14.829-5.421 14.829-5.421"/><path d="M467.354 311.511l-11.534 4.217"/><path d="M455.768 312.007c.054-.02 8.311-3.035 8.238-3.012"/><path d="M455.715 308.286l4.943-1.807"/></g><g fill-rule="evenodd" stroke="#000" fill="#b03f00"><path d="M481.5 323.086l34.601-12.65 2.126 3.933 2.356.709-1.648.602 1.417 2.622 1.648-.602-.939 1.913 7.778 3.437-1.382 19.347-52.724 19.276-11.338-20.976 8.238-3.012-2.835-5.244 4.943-1.807 7.76-7.547z"/><path d="M471.632 337.685l49.429-18.071"/><path d="M470.923 336.374l49.429-18.071"/><path d="M469.506 333.752l49.429-18.071"/><path d="M473.571 330.86l44.646-16.477"/><path d="M521.062 319.614l-1.842 25.795"/><path d="M482.918 325.708l21.42-7.831"/><path d="M478.914 325.602c3.256-1.054 37.896-13.854 37.896-13.854"/><path d="M515.162 312.35l-.23 3.224"/><path d="M515.64 316.885l-.23 3.224"/><path d="M500.811 322.307l-.23 3.224"/><path d="M502.459 321.704l-.23 3.224"/><path d="M520.831 322.838l-8.238 3.012.23-3.224"/><path d="M520.601 326.062l-8.238 3.012.271-3.365-.04.141"/><path d="M520.371 329.287l-8.238 3.012.23-3.224"/><path d="M520.14 332.511l-8.238 3.012.23-3.224"/><path d="M519.909 335.736l-8.238 3.012.23-3.224"/><path d="M519.679 338.96l-8.238 3.012.23-3.224"/><path d="M520.831 322.838l8.008.213"/><path d="M520.371 329.287l8.008.213"/><path d="M512.33 329.221l-46.111 16.755"/><path d="M512.319 332.316c-.062.125-44.752 16.155-44.752 16.155"/><path d="M511.671 338.747c-3.295 1.205-41.191 15.059-41.066 15.104"/><path d="M511.54 342.035s-39.46 14.54-39.339 14.586"/><path d="M519.448 342.185l-8.238 3.012.23-3.224"/><path d="M519.218 345.409l-8.238 3.012.23-3.224"/><path d="M479.058 336.459l-1.169 1.47.957 1.736 6.591-2.409 1.169-1.47"/><path d="M490.592 332.243l-1.169 1.47.957 1.736 6.591-2.409 1.169-1.47"/><path d="M483.31 344.325l-1.169 1.47.957 1.736 6.591-2.409 1.169-1.47"/><path d="M494.844 340.109l-1.169 1.47.957 1.736 6.591-2.409 1.169-1.47"/></g><path fill-rule="evenodd" d="M478.932 336.586l6.591-2.409.945 1.748-6.591 2.409z"/><path fill-rule="evenodd" d="M490.465 332.369l6.591-2.409.945 1.748-6.591 2.409z"/><path fill-rule="evenodd" d="M483.184 344.452l6.591-2.409.945 1.748-6.591 2.409z"/><path fill-rule="evenodd" d="M494.717 340.236l6.591-2.409.945 1.748-6.591 2.409z"/><path fill-rule="evenodd" stroke="#000" fill="#b03f00" d="M-301.18-99.213h88.583v17.717h-88.583z" transform="matrix(.093 -.034 .04 .074 510.272 291.319)"/><path fill-rule="evenodd" stroke="#000" fill="#b03f00" d="M-584.65-99.213h88.583v17.717h-88.583z" transform="matrix(.093 -.034 .04 .074 510.272 291.319)"/><g stroke="#000" fill="none"><path d="M481.872 322.741l-.709-1.311 34.601-12.65.709 1.311"/><path d="M482.812 320.827l.709 1.311"/><path d="M484.088 320.57l.709 1.311"/><path d="M485.735 319.967l.709 1.311"/><path d="M487.383 319.365l.709 1.311"/><path d="M489.031 318.763l.709 1.311"/><path d="M490.678 318.16l.709 1.311"/><path d="M492.326 317.558l.709 1.311"/><path d="M493.974 316.955l.709 1.311"/><path d="M495.621 316.353l.709 1.311"/><path d="M497.269 315.751l.709 1.311"/><path d="M498.917 315.148l.709 1.311"/><path d="M500.564 314.546l.709 1.311"/><path d="M502.212 313.944l.709 1.311"/><path d="M503.86 313.341l.709 1.311"/><path d="M505.507 312.739l.709 1.311"/><path d="M507.155 312.137l.709 1.311"/><path d="M508.802 311.534l.709 1.311"/><path d="M510.45 310.932l.709 1.311"/><path d="M512.098 310.329l.709 1.311"/><path d="M513.745 309.727l.709 1.311"/></g></g><g stroke="#000"><path d="M32.92 551.31c-.11 27.793 12.3 64.848 84.133 153.26 77.143 88.58 166.25 100.95 183.74 99.72-8.221-24.66-42.01-53.15-10.087-53.47 21.226.32 27.953 46.05 27.953 46.05s34.536-26.24 46.041-13.16c11.109 20.58-35.051 38.3-35.051 38.3s23.432 55.77 53.15 88.58c35.434 46.82 86.746 62.39 106.3 63.02 9.501.31 27.872 7.8 27.211 25.57-1.315 35.376-1.273 52.466-18.419 53.146h127.47c-17.146-.68-17.104-17.77-18.419-53.146-.661-17.77 17.71-25.26 27.211-25.57 19.554-.63 70.866-16.2 106.3-63.02 29.718-32.81 53.15-88.58 53.15-88.58s-46.16-17.72-35.051-38.3c11.505-13.08 46.041 13.16 46.041 13.16s6.727-45.73 27.953-46.05c31.923.32-1.866 28.81-10.087 53.47 17.494 1.23 106.6-11.14 183.75-99.72 71.83-88.41 87.53-151.78 87.42-179.57-2.81 1.021-59.78-13.779-69.48-4.288-12.98-10.24-38.09-20.589-57.601-20.965-22.8-.377-43.289 9.219-50.318 25.712-13.606-19.682-53.266-29.558-61.641-28.272-27.333 4.704-44.374 41.317-35.418 87.337-20.641-19.754-27.998-21.696-51.111-21.76-50.423-.121-55.381 89.819-129.14 89.282-58.401-.444-83.079-31.417-100.29-53.799 22.249-19.092 20.85-26.544 6.129-45.765-16.689-18.061-42.762-16.443-60.658 1.805-17.897-17.717-18.059-28.043-35.776-53.15-17.315-24.538-29.608-26.967-61-26.84-31.391.128-55.464 1.804-67.577 34.691-15.402 8.593-37.213 26.565-54.089 23.02-10.298-28.042-43.228-60.617-70.99-61s-72.792 56.438-82.747 82.923c-17.683-37.06-36.276-42.13-51.789-42.9-15.512-.77-21.083 24.88-27.181 40.31z" fill-rule="evenodd" stroke-width="1.25" fill="#00c8ff" transform="matrix(.17 0 0 .14 391.957 259.073)"/><path d="M167.72 490s16.443 9.866 36.175 39.464l3.289 42.752" stroke-width="1pt" fill="none" transform="matrix(.17 0 0 .14 391.957 259.073)"/><path d="M184.16 506.45s32.886 3.289 46.041 26.31c13.155 23.02 6.577 49.329 6.577 49.329" stroke-width="1pt" fill="none" transform="matrix(.17 0 0 .14 391.957 259.073)"/><path d="M220.34 631.42s23.021-55.907 65.773-32.887c42.752 23.021 39.464 59.196 36.175 59.196h-3.289v3.289" stroke-width="1pt" fill="none" transform="matrix(.17 0 0 .14 391.957 259.073)"/><path d="M263.09 687.32s23.021-9.866 49.33 0l9.866 32.886" stroke-width="1pt" fill="none" transform="matrix(.17 0 0 .14 391.957 259.073)"/><path d="M259.8 700.48s26.309-6.577 42.752 3.289l3.289 26.309" stroke-width="1pt" fill="none" transform="matrix(.17 0 0 .14 391.957 259.073)"/><path d="M200.61 710.34s3.289 26.309 19.732 42.753c16.443 16.443 46.041 23.02 46.041 23.02" stroke-width="1pt" fill="none" transform="matrix(.17 0 0 .14 391.957 259.073)"/><path d="M361.75 723.5c32.886 16.443 39.463 46.041 39.463 46.041" stroke-width="1pt" fill="none" transform="matrix(.17 0 0 .14 391.957 259.073)"/><path d="M374.9 710.34c49.33 0 46.041 29.598 46.041 29.598" stroke-width="1pt" fill="none" transform="matrix(.17 0 0 .14 391.957 259.073)"/><path d="M302.56 552.49s29.598-23.02 69.062 0c39.463 23.021 16.443 52.619 16.443 52.619" stroke-width="1pt" fill="none" transform="matrix(.17 0 0 .14 391.957 259.073)"/><path d="M322.29 513.02s39.464-26.309 72.35 0c32.887 26.309 23.021 46.041 23.021 46.041" stroke-width="1pt" fill="none" transform="matrix(.17 0 0 .14 391.957 259.073)"/><path d="M437.39 529.47s9.865 16.443 19.731 32.886c9.866 16.444 26.31 13.155 26.31 13.155" stroke-width="1pt" fill="none" transform="matrix(.17 0 0 .14 391.957 259.073)"/><path d="M526.18 647.86s23.02 32.887 75.639 39.464c52.618 6.577 98.659-13.155 98.659-13.155" stroke-width="1pt" fill="none" transform="matrix(.17 0 0 .14 391.957 259.073)"/><path d="M526.18 690.61s29.598 29.598 69.061 29.598c39.464 0 95.371-16.443 95.371-16.443" stroke-width="1pt" fill="none" transform="matrix(.17 0 0 .14 391.957 259.073)"/><path d="M526.18 720.21s16.443 26.309 75.639 26.309c59.195 0 85.504-13.154 85.504-13.154" stroke-width="1pt" fill="none" transform="matrix(.17 0 0 .14 391.957 259.073)"/><path d="M522.89 759.67s6.578 13.155 36.175 19.732c29.598 6.577 59.196-9.866 59.196-9.866" stroke-width="1pt" fill="none" transform="matrix(.17 0 0 .14 391.957 259.073)"/><path d="M618.26 785.98s19.732 26.309 46.041 26.309 0-39.463 19.732-46.041c19.732-6.577 49.329 0 49.329 0" stroke-width="1pt" fill="none" transform="matrix(.17 0 0 .14 391.957 259.073)"/><path d="M605.11 825.45s19.732 26.309 49.33 19.732c29.598-6.578 65.773-55.907 65.773-55.907l23.02-16.443" stroke-width="1pt" fill="none" transform="matrix(.17 0 0 .14 391.957 259.073)"/><path d="M388.06 887.93s3.288-16.443 39.464-9.866c36.175 6.577 0 55.907 39.463 55.907 39.464 0 75.639-23.02 98.66-26.309 23.02-3.289 65.772 23.02 88.793 29.598 23.02 6.577 65.773-26.309 65.773-26.309" stroke-width="1pt" fill="none" transform="matrix(.17 0 0 .14 391.957 259.073)"/><path d="M568.94 956.99c3.289 0 13.155-6.578 36.175-3.289 23.021 3.289 49.33 3.289 49.33 3.289" stroke-width="1pt" fill="none" transform="matrix(.17 0 0 .14 391.957 259.073)"/><path d="M559.07 989.88s16.444-6.577 29.598-6.577c13.155 0 9.866 19.729 9.866 19.729" stroke-width="1pt" fill="none" transform="matrix(.17 0 0 .14 391.957 259.073)"/><path d="M483.43 624.84c-3.289 0 16.443 0 26.309 3.288 9.866 3.289 13.154 26.309 13.154 26.309" stroke-width="1pt" fill="none" transform="matrix(.17 0 0 .14 391.957 259.073)"/><path d="M480.14 647.86s13.154-6.577 26.309 0l6.577 29.598" stroke-width="1pt" fill="none" transform="matrix(.17 0 0 .14 391.957 259.073)"/><path d="M470.28 674.17c0-3.288 19.732-9.866 26.309-6.577l6.577 32.886" stroke-width="1pt" fill="none" transform="matrix(.17 0 0 .14 391.957 259.073)"/><path d="M463.7 710.34s16.443-13.154 26.309-13.154l6.577 23.02" stroke-width="1pt" fill="none" transform="matrix(.17 0 0 .14 391.957 259.073)"/><path d="M460.41 739.94l23.021-13.154 9.865 19.731" stroke-width="1pt" fill="none" transform="matrix(.17 0 0 .14 391.957 259.073)"/><path d="M746.52 588.66s13.155-3.289 32.886 0c19.732 3.288 26.31 26.309 26.31 26.309" stroke-width="1pt" fill="none" transform="matrix(.17 0 0 .14 391.957 259.073)"/><path d="M753.1 614.97c0-3.289 19.732-3.289 26.309 0 6.578 3.288 16.444 19.732 16.444 19.732" stroke-width="1pt" fill="none" transform="matrix(.17 0 0 .14 391.957 259.073)"/><path d="M789.27 684.03c-3.288 0 3.289 13.155 6.578 29.598 3.288 16.443-13.155 32.886-13.155 32.886" stroke-width="1pt" fill="none" transform="matrix(.17 0 0 .14 391.957 259.073)"/><path d="M855.05 670.88c-3.288 0 19.732 23.02 23.021 42.752 3.288 19.732-16.444 39.464-16.444 39.464" stroke-width="1pt" fill="none" transform="matrix(.17 0 0 .14 391.957 259.073)"/><path d="M871.49 661.01s23.021 32.886 23.021 49.329c0 16.444-16.443 42.753-16.443 42.753" stroke-width="1pt" fill="none" transform="matrix(.17 0 0 .14 391.957 259.073)"/><path d="M894.51 637.99s9.866 13.155 13.154 29.598c3.289 16.443-6.577 42.752-6.577 42.752" stroke-width="1pt" fill="none" transform="matrix(.17 0 0 .14 391.957 259.073)"/><path d="M924.11 677.46s16.443 19.732 9.866 36.175c-6.578 16.443-19.732 29.598-19.732 29.598" stroke-width="1pt" fill="none" transform="matrix(.17 0 0 .14 391.957 259.073)"/><path d="M950.42 687.32c-3.289 3.288 6.577 23.02 3.288 32.886-3.288 9.866-19.731 26.309-19.731 26.309" stroke-width="1pt" fill="none" transform="matrix(.17 0 0 .14 391.957 259.073)"/><path d="M957 634.7c0 3.288 23.021 23.02 23.021 46.041 0 23.02-13.155 46.041-13.155 46.041" stroke-width="1pt" fill="none" transform="matrix(.17 0 0 .14 391.957 259.073)"/><path d="M920.82 598.53s16.443 3.289 19.732 19.732c3.289 16.444-9.866 32.887-9.866 32.887" transform="matrix(.17 0 0 .14 382.593 253.663)" stroke-width="1pt" fill="none"/><path d="M927.4 568.93s26.309 29.597 32.887 39.463c6.577 9.866-3.289 32.887-3.289 32.887" transform="matrix(.17 0 0 .14 382.593 253.663)" stroke-width="1pt" fill="none"/><path d="M920.82 565.64c3.289 3.289 32.886 3.289 46.041 19.732l6.577 46.041" transform="matrix(.17 0 0 .14 382.593 253.663)" stroke-width="1pt" fill="none"/></g><path d="M503.45 7.085c5.813-4.651 24.417-15.115 59.298-13.953 34.881 1.163 59.299 17.441 59.299 17.441l-2.326-45.346s-23.254-11.627-54.647-11.627l-58.136 6.976-3.488 46.509z" fill-rule="evenodd" stroke="#000" stroke-width="1pt" fill="#ffd400" transform="matrix(.17 0 0 .151 391.957 247.449)"/><g fill-rule="evenodd" stroke="#000" stroke-width="1.25" fill="#ffd400"><path d="M388.574 269.595c0 2.474.433 4.04 3.445 4.04s4.121-2.497 4.193-4.27c.091-2.239.593-5.651 6.617-5.651 3.012 0 21.762-1.648 22.321 34.724.559 36.372-31.321 28.941-31.321 28.941s-3.43 12.401 15.311 32.55c14.393 14.57 34.942 14.963 34.942 14.963s3.183 5.848 9.569 13.39c9.234 10.906 21.083 8.54 21.083 11.021 0 2.479-2.983 1.389-3.012 3.63.029 2.719 1.592 3.906 4.507 3.811s2.908-2.488 3.131-7.441c.112-2.488-3.011-3.536-4.626-3.58-3.324-.088-12.047-2.268-18.071-8.823-5.052-4.593-9.036-12.401-9.036-12.401s7.847-2.481 5.959-5.362c-1.956-1.831-7.827 1.842-7.827 1.842s-1.144-6.402-4.752-6.447c-5.427.045.317 4.033 1.715 7.486-2.974.172-18.122-1.56-31.236-13.961-12.211-12.377-14.88-24.472-14.862-28.363 7.641 2.29 31.537 1.016 31.537-31.256-1.193-40.989-21.087-37.205-27.11-37.205-7.142 0-12.48 5.881-12.48 8.362z"/><path d="M585.555 269.595c0 2.474-.433 4.04-3.445 4.04s-4.121-2.497-4.193-4.27c-.091-2.239-.593-5.651-6.617-5.651-3.012 0-21.762-1.648-22.321 34.724-.559 36.372 31.321 28.941 31.321 28.941s3.43 12.401-15.311 32.55c-14.393 14.57-34.942 14.963-34.942 14.963s-3.183 5.848-9.569 13.39c-9.234 10.906-21.083 8.54-21.083 11.021 0 2.479 2.983 1.389 3.012 3.63-.029 2.719-1.592 3.906-4.507 3.811s-2.908-2.488-3.131-7.441c-.112-2.488 3.011-3.536 4.626-3.58 3.324-.088 12.047-2.268 18.071-8.823 5.052-4.593 9.036-12.401 9.036-12.401s-7.847-2.481-5.959-5.362c1.956-1.831 7.827 1.842 7.827 1.842s1.144-6.402 4.752-6.447c5.427.045-.317 4.033-1.715 7.486 2.974.172 18.122-1.56 31.236-13.961 12.211-12.377 14.88-24.472 14.862-28.363-7.641 2.29-31.537 1.016-31.537-31.256 1.193-40.989 21.087-37.205 27.11-37.205 7.142 0 12.48 5.881 12.48 8.362z"/><path d="M561.456 223.205c-4.491 0-3.851 3.74-3.012 6.017s6.024 3.904 10.73 1.424c-1.299 3.757-4.706 14.882-18.598 15.168-16.213-.285-17.619-10.052-35.593-10.129-17.974-.077-21.223 2.17-20.985 7.364.214 4.682 1.544 7.441 6.024 7.441 3.012 0 6.08-2.195 6.024-4.961-.056-2.765-3.837-2.935-6.436-2.708-.922-2.253 3.424-4.733 15.471-4.733 11.928-.129 21.194 10.258 36.848 9.921 15.654-.337 22.601-15.966 19.627-19.842-3.149-4.733-5.314-4.961-10.098-4.961z"/><path d="M412.668 223.205c4.491 0 3.851 3.74 3.012 6.017s-6.024 3.904-10.73 1.424c1.299 3.757 4.706 14.882 18.598 15.168 16.213-.285 17.619-10.052 35.593-10.129 17.974-.077 21.223 2.17 20.985 7.364-.214 4.682-1.544 7.441-6.024 7.441-3.012 0-6.08-2.195-6.024-4.961.056-2.765 3.837-2.935 6.436-2.708.922-2.253-3.424-4.733-15.471-4.733-11.928-.129-21.194 10.258-36.848 9.921-15.654-.337-22.601-15.966-19.627-19.842 3.149-4.733 5.314-4.961 10.098-4.961z"/></g></g><path d="M-1576.8 1353.5c17.72 2.98 674.45-205.79 673.23-531.49v-1594.5h-1346.5v1594.5c-1.22 325.7 673.23 531.49 673.23 531.49z" transform="matrix(.19 0 0 .156 781.609 252.146)" stroke="#000" stroke-width="11.125" fill="none"/></g></g></svg>