<svg xmlns="http://www.w3.org/2000/svg" height="480" width="640"><defs><clipPath id="a"><path fill-opacity=".67" d="M0 0h640v480h-640z"/></clipPath></defs><g clip-path="url(#a)"><path fill-rule="evenodd" fill="#c60000" d="M-40 0h720v480h-720z"/><path fill-rule="evenodd" fill="#003bb2" d="M-40 68.571h720v342.86h-720z"/><g><path d="M456.809 239.737c0 75.654-61.33 136.98-136.98 136.98-75.654 0-136.98-61.33-136.98-136.98 0-75.654 61.33-136.98 136.98-136.98 75.654 0 136.98 61.33 136.98 136.98z" fill-rule="evenodd" fill="#fff"/><g><g stroke="#000" fill-rule="evenodd"><path d="M0 318.04c6.927 1.019 14.391 1.206 23.312 0 7.405 1.994 12.863 5.647 18.317 8.326 3.057 5.665 7.339 13.999 11.656 18.316 1.874 6.872 4.641 9.755 8.326 16.652.918 6.795 3.182 13.617 0 19.981-3.795 4.745-9.758 7.515-14.986 9.991-6.902 3.688-10.937 5.046-19.982 6.661-7.443 1.329-15.029 1.665-23.312 1.665-8.013-1.431-14.192-2.757-21.647-3.33l-23.312-3.331c-4.813-2.815-11.026-5.126-16.651-6.66-3.906-3.725-9.56-7.953-14.986-11.656-4.189-7.502-8.004-10.206-11.656-16.652-3.316-4.876-4.891-11.169-4.995-19.981 2.625-5.344 6.961-10.53 9.991-14.986 5.197-3.433 11.072-7.989 18.316-11.656 9.784-.346 13.604-3.214 23.312-3.331h24.977c5.652.566 8.442 5.584 13.321 9.991z" transform="matrix(.199 0 0 .17 344.942 141.495)" stroke-width="3.75" fill="#030"/><path d="M273.08 659.39c-6.66-38.298-16.652-133.21-16.652-174.84 1.665-31.639 121.56-139.87 124.89-151.53 3.33-11.656 64.94-99.909 74.931-126.55-24.977 18.316-66.606 98.243-74.931 106.57-8.326 8.326 18.316-83.257 9.991-111.56-8.326 33.303-21.647 118.22-31.638 126.55-4.995 4.996-91.583 104.9-101.57 101.57-9.991-3.33-36.633-19.981-31.637-29.972 4.995-9.991 71.601-71.601 74.931-93.248s8.326-73.266 14.986-78.261c6.661-4.996 16.652-29.973 24.977-49.955-21.646 9.991-24.977 39.964-33.302 41.629-8.326 1.665-28.308-33.303-28.308-33.303s13.321 38.298 14.986 46.624c1.666 8.326-6.66 63.275-11.656 69.936-4.995 6.661-41.628 53.284-48.289 54.949-6.66 1.666-24.977-76.596-24.977-91.582s13.321-73.266 0-76.597c-8.326 0-9.991 68.271-14.986 68.271-4.996 0-16.652-68.27-16.652-68.27s-6.659 31.637-3.33 53.283c-9.991 1.666-36.633-39.962-36.633-39.962s49.954 86.587 59.946 89.917c9.99 4.995 19.981 68.271 18.316 71.601s-49.954-16.651-59.945-23.312c-9.991-6.66-29.973-79.927-29.973-79.927s9.991 71.601-1.665 61.611c-11.656-9.991-29.972-18.317-39.963-33.303-9.991-14.986-4.995-76.597-4.995-76.597s-16.651 54.95-23.312 54.95c-6.661 0-28.307-73.266-28.307-73.266s3.33 79.927 13.321 84.922c9.991 4.995 159.85 104.9 161.52 114.9 1.665 9.99 19.982 48.288 29.973 59.944-1.666 21.647 6.66 161.52 9.991 194.82l29.972 9.991z" transform="matrix(.199 0 0 .17 278.669 126.209)" stroke-width="1pt" fill="#520900"/><path d="M-338.02 133.21c1.849 6.416 2.528 12.146 11.656 14.986 5.054 1.925 15.007 4.529 19.982 6.661 5.242 2.483 11.14 5.593 18.316 6.66 5.394 1.798 14.58 3.65 21.647 4.996 7.443 1.329 15.029 1.665 23.312 1.665 9.557-1.707 13.811-3.429 19.981-8.326 1.851-6.786 4.343-9.832 4.996-18.317.567-7.944 1.665-14.819 1.665-23.311l-3.33-19.982c-5.577-5.465-7.051-8.649-16.652-11.656-7.476-3.382-14.307-3.33-23.312-3.33-6.961 2.321-15.344 1.665-23.312 1.665h-23.311c-6.973 1.516-12.292 2.762-18.317 6.661-8.133 3.673-9.338 6.317-13.321 14.987-2.934 8.8-3.036 15.415 0 26.642z" transform="matrix(.199 0 0 .17 342.954 135.833)" stroke-width="3.75" fill="#030"/><path d="M-329.7 191.49c0-2.781-6.02 2.689-8.326 4.995-5.392 3.774-7.647 8.815-8.326 18.317-2.502 5.189 0 13.714 0 21.646 0 9.181.062 15.585 4.996 19.982 5.598 3.445 8.289 4.995 18.316 4.995h46.624c5.896-1.965 13.091-2.953 19.982-4.995 7.705-4.085 13.071-4.517 21.646-6.661 4.883-4.237 11.635-8.599 19.982-9.99 9.547-.455 15.257-3.788 21.647-8.326 8.216-2.054 15.635-6.365 21.647-9.991 4.837-3.289 8.309-7.415 11.656-13.321 3.396-7.925 4.482-12.895-1.665-21.647-12.143-4.415-6.108-9.191-14.987-13.321-4.062-2.453-13.524-5.673-18.316-8.326-8.293.615-14.192 2.679-23.312 3.331-4.71 2.355-14.368 1.665-21.647 1.665h-26.642c-7.968 0-16.35-.656-23.312 1.665l-16.651 6.66c-4.393 2.987-11.507 5.411-16.652 8.326l16.652-8.326c-4.393 2.987-11.507 5.411-23.312 13.322z" transform="matrix(.199 0 0 .17 341.96 137.532)" stroke-width="3.75" fill="#030"/><path d="M-186.5 49.949c3.314 0-5.2 3.981-8.326 6.66-4.011 7.063-4.474 13.423-6.661 19.982-2.565 5.771-5.726 13.066-6.66 19.982-3.139 7.493-4.878 10.225-4.996 19.981 0 7.678-.09 16.38 1.665 21.647 5.049 6.362 9.899 9.976 18.317 14.986 7.207 2.495 12.49 3.984 19.982 4.996h23.312c5.267 1.756 13.969 1.665 21.646 1.665 8.493-3.172 11.709-7.208 19.982-8.326 9.115-.828 10.687-4.642 14.986-11.656 3.998-5.168 5.674-11.013 6.66-18.316 0-8.399-.75-15.628-1.665-23.312-4.006-4.495-7.053-10.696-9.991-18.316-5.146-8.821-5.152-12.739-13.321-16.651-3.976-5.431-10.848-8.069-14.987-11.656-8.651-.618-15.218-1.694-21.646-4.995-7.678 0-16.38-.091-21.647 1.665-6.032 0-10.447.57-16.651 1.665z" transform="matrix(.199 0 0 .145 343.617 140.962)" stroke-width="3.75" fill="#030"/><path d="M-58.28 64.935c-.987 0-4.077 4.824-6.661 9.991-4.344 6.915-4.925 13.315-8.326 18.316-1.329 7.444-1.665 15.028-1.665 23.312.756 8.314 3.197 11.323 8.326 14.987 7.713 4.38 11.367 6.411 19.982 8.325 7.447.573 12.8 1.665 21.647 1.665 7.968 0 16.35.656 23.312-1.665 8.283 0 15.869-.336 23.312-1.665 3.822-3.24 12.04-6.141 16.651-8.325 5.482-6.642 8.106-13.245 11.656-18.317 0-9.822.078-15.564-4.995-23.312-3.621-6.388-7.961-9.321-13.322-14.986-6.718-2.337-12.379-7.196-19.982-8.326h-69.935z" transform="matrix(.199 0 0 .17 342.291 135.267)" stroke-width="3.75" fill="#030"/><path d="M76.596 76.591c-6.286 2.619-8.589 3.299-11.656 9.991-4.62 7.115-7.342 10.462-11.656 14.986-.991 6.664-3.643 13.879-6.66 18.317-.915 7.684-1.665 14.913-1.665 23.312 4.222 6.486 10.085 12.603 16.651 16.651 6.791 2.351 13.95 5.932 19.982 8.326 7.765 2.033 14.951 4.398 23.312 4.995 7.217 1.805 15.164 1.665 23.312 1.665 7.404-1.609 13.749-3.478 19.981-8.325 3.333-5.196 7.156-11.045 8.326-19.982 2.754-8.263.539-19.061-3.33-26.642-2.039-7.477-5.016-10.373-13.321-14.987-4.595-4.854-10.702-10.322-14.987-13.321-5.281-4.584-12.142-5.153-19.981-8.326-8.492-1.887-11.337-4.33-19.982-4.995l19.982 4.995c-8.488-1.886-11.333-4.33-28.304-6.66z" transform="matrix(.199 0 0 .17 340.303 141.778)" stroke-width="3.75" fill="#030"/><path d="M-51.619 146.53c-7.618 3.463-11.162 7.635-16.651 13.321 0 8.846 1.092 14.2 1.665 21.647 3.466 4.734 7.144 14.249 9.991 18.316 2.172 6.812 6.921 12.137 9.991 16.652 7.69 3.112 15.495 5.441 23.312 8.325 9.198 0 15.098 2.06 23.312 3.331 6.962 2.32 15.344 1.665 23.312 1.665 8.148 0 16.094-.139 23.312 1.665 7.703 1.369 13.396 4.361 21.647 4.995 4.739-.451 13.136-1.138 19.982-1.665 7.667-3.485 10.982-5.707 14.987-11.656 3.752-4.542 3.33-11.267 3.33-19.981 1.602-8.972 2.092-15.007-1.665-23.312-.108-8.961-1.817-13.172-3.331-21.647-3.005-6.01-5.646-8.651-11.656-11.656-5.463-3.808-12.863-5.998-18.316-9.991-7.433-.885-15.759-2.05-21.647-3.33-6.511-4.341-11.933-6.545-21.647-6.661-9.514-1.132-13.996-2.263-21.647 1.665-7.989.571-15.149 2.169-19.982 4.996-6.144.472-15.283.981-19.982 3.33-7.413 0-9.987 1.288-16.651 1.665l16.651-1.665c-7.413 0-9.987 1.288-18.316 9.991z" transform="matrix(.252 0 0 .132 337.605 146.862)" stroke-width="3.75" fill="#030"/><path d="M-123.22 278.07c-4.299-.632-17.278-1.665-26.642-1.665-8.747 0-15.86.58-23.312 3.33-7.975 1.537-13.883 4.047-19.982 6.661-5.053 2.393-10.953 4.83-14.986 8.325-4.955 3.369-9.13 6.335-13.321 13.321-4.476 6.422-4.944 10.559-8.326 18.317v23.312c.587 7.633 1.64 14.23 4.995 21.647 5.022 4.017 11.977 5.282 18.317 6.66 6.029 1.311 13.875 2.775 21.647 3.33 9.239 0 14.16.466 21.646 3.331 9.747-.361 11.606-2.628 19.982-6.661 9.314-3.692 14.861-5.061 23.312-9.991 5.173-4.079 8.578-10.984 11.656-18.316 4.689-7.575 7.91-14.886 11.656-21.647 1.804-7.218 1.665-15.164 1.665-23.312-2.221-6.258-5.752-8.905-9.991-14.986-4.616-5.049-6.672-8.946-9.991-13.321l9.991 13.321c-4.616-5.049-6.672-8.946-18.316-11.656z" transform="matrix(.199 0 0 .17 343.948 138.664)" stroke-width="3.75" fill="#030"/><path d="M0 318.04c6.927 1.019 14.391 1.206 23.312 0 7.405 1.994 12.863 5.647 18.317 8.326 3.057 5.665 7.339 13.999 11.656 18.316 1.874 6.872 4.641 9.755 8.326 16.652.918 6.795 3.182 13.617 0 19.981-3.795 4.745-9.758 7.515-14.986 9.991-6.902 3.688-10.937 5.046-19.982 6.661-7.443 1.329-15.029 1.665-23.312 1.665-8.013-1.431-14.192-2.757-21.647-3.33l-23.312-3.331c-4.813-2.815-11.026-5.126-16.651-6.66-3.906-3.725-9.56-7.953-14.986-11.656-4.189-7.502-8.004-10.206-11.656-16.652-3.316-4.876-4.891-11.169-4.995-19.981 2.625-5.344 6.961-10.53 9.991-14.986 5.197-3.433 11.072-7.989 18.316-11.656 9.784-.346 13.604-3.214 23.312-3.331h24.977c5.652.566 8.442 5.584 13.321 9.991z" transform="matrix(.255 0 0 .142 350.331 136.476)" stroke-width="3.75" fill="#030"/></g><g fill-rule="evenodd" stroke="#000" stroke-width="3.711" fill="#006a00"><path d="M332.182 285.005l.721-1.13-2.156-.203 1.479-1.545-2.175-.56 2.062-1.587-2.194-.918 2.284-1.064-1.26-1.705 2.35.188-1.084-2.077 2.776.876-.151-2.864 2.046 1.827 1.422-2.619 1.288 2.242 2.199-2.675.881 1.912 3.412-1.865-.839 2.576 3.616-1.7-.626 2.92 3.422-1.686-1.219 2.784 3.506-.075-2.829 1.823 2.971.862-2.645 1.63 2.425 1.62c-7.281 3.703-12.926 5.132-21.683 3.014z"/><path d="M293.148 283.872l.721-1.13-2.156-.203 1.479-1.545-2.175-.56 2.062-1.587-2.194-.918 2.284-1.064-1.26-1.705 2.35.188-1.084-2.077 2.776.876-.151-2.864 2.046 1.827 1.422-2.619 1.288 2.242 2.199-2.675.881 1.912 3.412-1.865-.839 2.576 3.616-1.7-.626 2.92 3.422-1.686-1.219 2.784 3.506-.075-2.829 1.823 2.971.862-2.645 1.63 2.425 1.62c-7.281 3.703-12.926 5.132-21.683 3.014z"/><path d="M353.87 284.437l.721-1.13-2.156-.203 1.479-1.545-2.175-.56 2.062-1.587-2.194-.918 2.284-1.064-1.26-1.705 2.35.188-1.084-2.077 2.776.876-.151-2.864 2.046 1.827 1.422-2.619 1.288 2.242 2.199-2.675.881 1.912 3.412-1.865-.839 2.576 3.616-1.7-.626 2.92 3.422-1.686-1.219 2.784 3.506-.075-2.829 1.823 2.971.862-2.645 1.63 2.425 1.62c-7.281 3.703-12.926 5.132-21.683 3.014z"/><path d="M340.017 293.738l.535-1.267-2.145.26 1.215-1.837-2.218-.088 1.78-2.003-2.291-.437 2.078-1.535-1.495-1.411 2.334-.316-1.38-1.815 2.856.271-.584-2.788 2.285 1.364.996-2.882 1.605 1.933 1.75-3.104 1.155 1.696 3.062-2.564-.431 2.716 3.287-2.445-.17 3.01 3.099-2.39-.771 3.001 3.428-.822-2.497 2.398 3.045.215-2.345 2.169 2.626 1.078c-6.577 5.2-11.896 7.811-20.807 7.592z"/><path d="M368.328 293.501l.721-1.13-2.156-.203 1.479-1.545-2.175-.56 2.062-1.587-2.194-.918 2.284-1.064-1.26-1.705 2.35.188-1.084-2.077 2.776.876-.151-2.864 2.046 1.827 1.422-2.619 1.288 2.242 2.199-2.675.881 1.912 3.412-1.865-.839 2.576 3.616-1.7-.626 2.92 3.422-1.686-1.219 2.784 3.506-.075-2.829 1.823 2.971.862-2.645 1.63 2.425 1.62c-7.281 3.703-12.926 5.132-21.683 3.014z"/><path d="M351.944 295.203l.721-1.13-2.156-.203 1.479-1.545-2.175-.56 2.062-1.587-2.194-.918 2.284-1.064-1.26-1.705 2.35.188-1.084-2.077 2.776.876-.151-2.864 2.046 1.827 1.422-2.619 1.288 2.242 2.199-2.675.881 1.912 3.412-1.865-.839 2.576 3.616-1.7-.626 2.92 3.422-1.686-1.219 2.784 3.506-.075-2.829 1.823 2.971.862-2.645 1.63 2.425 1.62c-7.281 3.703-12.926 5.132-21.683 3.014z"/><path d="M276.763 283.872l.721-1.13-2.156-.203 1.479-1.545-2.175-.56 2.062-1.587-2.194-.918 2.284-1.064-1.26-1.705 2.35.188-1.084-2.077 2.776.876-.151-2.864 2.046 1.827 1.422-2.619 1.288 2.242 2.199-2.675.881 1.912 3.412-1.865-.839 2.576 3.616-1.7-.626 2.92 3.422-1.686-1.219 2.784 3.506-.075-2.829 1.823 2.971.862-2.645 1.63 2.425 1.62c-7.281 3.703-12.926 5.132-21.683 3.014z"/><path d="M262.908 293.173l.535-1.267-2.145.26 1.215-1.837-2.218-.088 1.78-2.003-2.291-.437 2.078-1.535-1.495-1.411 2.334-.316-1.38-1.815 2.856.271-.584-2.788 2.285 1.364.996-2.882 1.605 1.933 1.75-3.104 1.155 1.696 3.062-2.564-.431 2.716 3.287-2.445-.17 3.01 3.099-2.39-.771 3.001 3.428-.822-2.497 2.398 3.045.215-2.345 2.169 2.626 1.078c-6.577 5.2-11.896 7.811-20.807 7.592z"/><path d="M291.222 292.937l.721-1.13-2.156-.203 1.479-1.545-2.175-.56 2.062-1.587-2.194-.918 2.284-1.064-1.26-1.705 2.35.188-1.084-2.077 2.776.876-.151-2.864 2.046 1.827 1.422-2.619 1.288 2.242 2.199-2.675.881 1.912 3.412-1.865-.839 2.576 3.616-1.7-.626 2.92 3.422-1.686-1.219 2.784 3.506-.075-2.829 1.823 2.971.862-2.645 1.63 2.425 1.62c-7.281 3.703-12.926 5.132-21.683 3.014z"/><path d="M274.835 294.634l.721-1.13-2.156-.203 1.479-1.545-2.175-.56 2.062-1.587-2.194-.918 2.284-1.064-1.26-1.705 2.35.188-1.084-2.077 2.776.876-.151-2.864 2.046 1.827 1.422-2.619 1.288 2.242 2.199-2.675.881 1.912 3.412-1.865-.839 2.576 3.616-1.7-.626 2.92 3.422-1.686-1.219 2.784 3.506-.075-2.829 1.823 2.971.862-2.645 1.63 2.425 1.62c-7.281 3.703-12.926 5.132-21.683 3.014z"/><path d="M344.41 284.215l-1.712 1.008 4.294.539-3.335 1.3 4.249.897-4.518 1.25 4.205 1.255-4.845.697 2.143 1.889-4.688-.556 1.704 2.23-5.388-1.305-.358 2.864-3.698-2.134-3.469 2.374-2.076-2.425-5.046 2.308-1.332-2.035-7.301 1.314 2.285-2.423-7.673 1.118 1.936-2.798-7.279 1.135 3.097-2.569-7.078-.476 6.118-1.363-5.783-1.321 5.701-1.201-4.51-1.987c15.515-2.53 27.212-3.06 44.355.414z"/></g><path d="M356.34 196.48c0 22.512-18.995 6.66-38.298 6.66-19.302 0-36.632 17.517-39.962.001 0-9.192 25.655-23.313 44.957-23.313 14.308 1.666 36.634-4.196 33.303 16.652z" fill-rule="evenodd" transform="matrix(.273 0 0 .3 278.39 210.836)" stroke="#000" stroke-width="2.5" fill="#510800"/><path d="M356.34 196.48c0 22.512-18.995 6.66-38.298 6.66-19.302 0-36.632 17.517-39.962.001 0-9.192 25.655-23.313 44.957-23.313 14.308 1.666 36.634-4.196 33.303 16.652z" fill-rule="evenodd" transform="matrix(-.273 0 0 .3 369.376 209.47)" stroke="#000" stroke-width="2.5" fill="#ffc600"/><path d="M349.68 188.16c0 13.794-7.082 24.977-15.819 24.977-8.736 0-15.819-11.183-15.819-24.977s7.082-24.977 15.819-24.977c8.736 0 15.819 11.183 15.819 24.977z" fill-rule="evenodd" transform="matrix(.336 0 0 .328 277.66 205.155)" stroke="#000" stroke-width="2.5" fill="#520900"/><g fill-rule="evenodd" stroke="#000" stroke-width="1pt" transform="matrix(-.623 -.117 -.37 .623 523.129 93.618)"><path d="M323.854 237.913c4.351-1.966-24.349-33.243-30.096-48.406-5.748-15.164-5.441-15.609-7.676-22.71l-2.807 1.27c.718 4.603 14.137 40.962 27.379 59.899 3.74 5.432.561 15.658 4.776 13.753l8.424-3.806z" fill="#af8000"/><path d="M285.048 167.875l-23.046 2.321s-4.303 3.835-2.293 11.826c2.009 7.991 7.986 11.104 7.986 11.104l20.193-16.393-2.841-8.858z" fill="#808080"/><rect ry="3.532" rx="3.532" transform="matrix(.844 -.297 .284 .885 -19.207 -255.61)" height="19.428" width="7.064" y="534.62" x="175.71" fill="#808080"/></g><path d="M244.77 87.419c7.322-5.947 11.157-3.718 17.649 3.102 9.323 9.815 41.318 58.855 46.313 63.018s4.241-6.417 10.344-1.387c3.032 3.727-10.437 17.026-13.737 14.569-6.411-5.02 3.915-5.374-.354-9.643-4.925-5.133-51.215-40.497-60.282-50.571-5.92-6.577-6.314-13.969.067-19.087z" fill-rule="evenodd" transform="matrix(.713 .16 .332 .528 132.518 68.139)" stroke="#000" stroke-width="1.25" fill="#923d09"/><g stroke="#000"><path d="M193.63 88.249c15.546 4.424 43.275 46.12 53.766 45.791 16.652-.481 83.233-77.561 72.564-88.252-7.399-8.246-67.939 41.192-71.852 44.126-.67-8.601-15.95-51.042-28.31-59.945-14.62-9.31-32.21-4.157-47.82-6.661-7.3-2.843-18.84-14.056-23.78-24.976 8.182-3.544 15.323-2.479 23.311-10.651 5.679-6.642 2.381-46.913.37-51.059-13.291-14.268 5.429-7.327-39.024-9.082-64.268-2.446-75.878 49.582-31.653 70.792-3.462 15.928-14.219 19.594-22.939 21.646-8.777.106-38.826-.763-55.546 12.489-33.403 24.552-8.925 30.904-15.352 35.8-7.173 5.645-17.868 19.827-21.888 28.307-10.472 4.996-99.485-4.995-116.5-1.664-16.42.965-56.467 15.818-73.15 26.641 3.565 14.142 241.51-7.603 249.27-2.497 5.946 3.345-2.705 51.237 2.011 54.949 1.659 9.063 116.54 5.829 125.6 5.829 7.557-18.859 15.389-81.558 20.925-91.583z" fill-rule="evenodd" transform="matrix(-.128 0 0 .204 281.764 185.974)" stroke-width="4.702" fill="#ffc600"/><path d="M174.9-96.568c1.543 25.457-7.118 3.304-38.369 3.304-60.56-5.035-39.286 99.196-39.286 67.025-26.227-13.71-44.834-100.29 29.616-96.931 23.538 0 44.958 7.858 48.044 26.603z" fill-rule="evenodd" transform="matrix(-.154 0 0 .143 285.371 186.831)" stroke-width="5.125"/><path d="M387.98 96.574c0 1.681-.172 7.957-.833 11.656-.445 3.74-1.539 8.077-2.498 10.823-.342 4.452-2.091 5.174-2.497 9.991-1.544 2.27-2.209 5.944-2.498 9.991 0 4.27.686 7.558.833 11.656.481 3.56 1.612 6.366 1.665 10.823 0 4.365-.005 7.549-1.665 9.991v5.828" transform="matrix(-.202 0 0 .204 352.795 179.603)" stroke-width="3.75" fill="none"/><path d="M383.81 76.592c.58 0 1.029 20.129 5.828 24.978 1.039 3.212 4.574 7.343 5.828 9.99 1.672 2.459 3.981 5.368 8.326 6.661h11.656c4.634 0 7.473.055 10.823-1.665 1.485-.8 2.531-1.846 3.33-3.331" transform="matrix(-.202 0 0 .204 352.795 179.603)" stroke-width="3.75" fill="none"/><path d="M442.09 115.72h.832c-2.327 0-1.092-.104 3.331 1.665 1.725 2.537 3.768 3.625 6.66 4.996 2.982 1.467 6.391 1.665 10.823 1.665 4.198-.354 6.74-1.686 9.159-3.331 4.043-1.308 4.815-2.935 5.828-7.493v-11.656c-.478-3.531-1.384-6.372-2.498-9.158-.419-1.258-.833-.705-.833-2.498" transform="matrix(-.202 0 0 .204 352.795 179.603)" stroke-width="3.75" fill="none"/><path d="M510.36 121.55c-.425 0-2.65 2.575-4.163 4.995-2.568.918-3.233 3.716-4.162 5.828-.669 2.675-1.666 2.859-1.666 6.661-1.677 3.708-2.204 7.007-2.497 10.823l2.497-10.823c-1.677 3.708-2.204 7.007-2.497 10.823" transform="matrix(-.202 0 0 .204 352.795 179.603)" stroke-width="3.75" fill="none"/><path d="M461.24 54.946h-.833c2.249 0 1.099-.053-3.33.833-1.817 2.271-4.807 4.306-7.493 5.828-2.977 1.824-5.367 4.009-8.326 4.995l8.326-4.995c-2.977 1.824-5.367 4.009-8.326 4.995" transform="matrix(-.202 0 0 .204 352.795 179.603)" stroke-width="3.75" fill="none"/><path d="M402.13 51.615h.833c-2.248 0-1.105-.054 3.33.833 2.936 1.391 4.752 2.89 7.493 4.995 1.291 1.935 3.257 2.305 4.163 5.828 1.574.848 2.124 1.67 2.498 4.163" transform="matrix(-.202 0 0 .204 352.795 179.603)" stroke-width="3.75" fill="none"/><path d="M427.11 29.968h4.163c4.529 0 6.733.681 10.824.833 3.538-.425 4.382-1.737 7.493-2.498" transform="matrix(-.202 0 0 .204 352.795 179.603)" stroke-width="3.75" fill="none"/><path d="M442.93 133.21c.139.661 1.652 4.256 2.498 5.828 1.517 2.512 3.538 4.914 4.163 8.326.968 2.905 1.526 6.23 1.665 9.99.761 3.503 1.264 6.62-.833 9.159-.898 3.292-2.57 5.692-4.162 9.158-1.111 0-.833-.278-.833.833" transform="matrix(-.202 0 0 .204 352.795 179.603)" stroke-width="3.75" fill="none"/><path d="M416.28 134.87v.833c0-2.248.055-1.105-.832 3.33-1.147 4.013-2.15 7.388-4.163 9.991-1.098 3.294-2.326 4.504-2.498 9.158.662 1.544.833 3.263.833 5.828" transform="matrix(-.202 0 0 .204 352.795 179.603)" stroke-width="3.75" fill="none"/><path d="M412.12 169.01v4.163c.908 1.211.55 1.294 1.665 1.665" transform="matrix(-.202 0 0 .204 352.795 179.603)" stroke-width="3.75" fill="none"/><path d="M343.02 128.21v.832c0-2.327-.258-.936 4.163.833 3.572.638 7.937 1.037 10.823 1.665 2.672 1.312 5.265 3.48 7.493 4.995 1.994 1.728 4.819 3.48 7.494 4.996 3.004 1.502 4.325 2.823 5.828 5.828.907 1.21.549 1.293 1.665 1.665" transform="matrix(-.202 0 0 .204 352.795 179.603)" stroke-width="3.75" fill="none"/><path d="M423.78-16.655c.123-.184 2.467-1.914 4.996-2.498 1.805-1.354 4.812-.74 6.66 0" transform="matrix(-.315 0 0 .204 402.691 180.325)" stroke-width="3" fill="none"/><path d="M445.42-19.153h.833c-2.248 0-1.106.054 3.33-.833 3.481-1.16 7.672-.833 11.656-.833 1.174.391.832.242.832 1.665" transform="matrix(-.245 0 0 .204 373.051 180.325)" stroke-width="3.402" fill="none"/><path d="M444.59-7.497v.833c0-2.327-.103-1.091 1.666 3.33.643 2.962 1.76 7.05.832 9.158-2.184 0-2.859-.274-4.163-.833" transform="matrix(-.245 0 0 .204 373.051 180.325)" stroke-width="3.402" fill="none"/><path d="M371.33-24.981c0 3.219-4.1 5.828-9.158 5.828s-9.158-2.609-9.158-5.828 4.1-5.828 9.158-5.828 9.158 2.609 9.158 5.828z" fill-rule="evenodd" transform="matrix(-.241 -.035 -.024 .115 350.237 198.762)" stroke-width="4.501"/><path d="M371.33-24.981c0 3.219-4.1 5.828-9.158 5.828s-9.158-2.609-9.158-5.828 4.1-5.828 9.158-5.828 9.158 2.609 9.158 5.828z" fill-rule="evenodd" transform="matrix(-.175 -.023 -.017 .075 330.146 187.225)" stroke-width="6.528"/><path d="M371.33-24.981c0 3.219-4.1 5.828-9.158 5.828s-9.158-2.609-9.158-5.828 4.1-5.828 9.158-5.828 9.158 2.609 9.158 5.828z" fill-rule="evenodd" transform="matrix(-.175 -.023 -.017 .075 324.847 186.712)" stroke-width="6.528"/><path d="M412.95 113.64c0 2.069-1.864 3.747-4.163 3.747-2.299 0-4.163-1.677-4.163-3.747s1.864-3.747 4.163-3.747c2.299 0 4.163 1.677 4.163 3.747z" fill-rule="evenodd" transform="matrix(-.202 0 0 .204 352.795 179.603)" stroke-width="3.75"/><path d="M469.57 119.89c0 1.379-1.305 2.498-2.914 2.498-1.609 0-2.914-1.118-2.914-2.498s1.305-2.498 2.914-2.498c1.609 0 2.914 1.118 2.914 2.498z" fill-rule="evenodd" transform="matrix(-.202 0 0 .204 352.795 179.603)" stroke-width="3.75"/><path d="M447.09 31.634v.833c0-2.795.197-1.029-4.163 3.33-3.724 1.786-5.164 3.667-6.66 6.66-1.742 3.851-2.342 6.613-2.498 10.824v6.66" transform="matrix(-.202 0 0 .204 352.795 179.603)" stroke-width="3.75" fill="none"/><path d="M419.61 30.801c.577 0 1.477 2.273 2.498 4.995 1.856 2.189 3.037 5.351 3.33 9.158 0 4.519.78 6.454.833 10.824v3.33" transform="matrix(-.202 0 0 .204 352.795 179.603)" stroke-width="3.75" fill="none"/><path d="M504.54 129.04c0 .481-2.6 1.455-4.163 3.33-3.161.428-5.964.833-9.99.833-.611-.916-1.836-1.217-3.331-1.665" transform="matrix(-.202 0 0 .204 352.795 179.603)" stroke-width="3.75" fill="none"/></g><g fill-rule="evenodd" stroke="#000" stroke-width="3.75" fill="#fff"><path d="M276.726 216.125l-18.445.221v1.55s-1.74 1.993-2.784 6.422c-1.044 4.429-2.088 21.039-2.088 21.039l-4.524 18.825s2.784 2.879 4.872 2.658c2.088-.222 8.352-1.772 8.352-1.993 0-.221.348-10.63 1.044-17.717.696-7.087 2.088-10.852 5.22-13.952 4.176 6.422 4.524 13.066 4.176 13.066s-.348 5.315-.696 9.301c-.348 3.986.348 9.523.348 9.523l12.181-.443s-.348-4.872-.696-8.637c-.348-3.765-1.409-5.536-1.74-9.744-.365-4.65-.878-7.091-1.392-14.617-.677-6.083-3.07-10.009-3.741-13.731-.182-.949.087-1.661-.087-1.772z"/><path d="M268.373 233.399s1.74-1.772 2.436-4.872l.696-3.765"/><path d="M272.201 242.258l2.088 5.315"/><path d="M264.198 241.149l-2.436 7.308"/><path d="M253.408 266.84l2.437-10.853"/><path d="M276.726 217.232l-18.445.221"/><path d="M268.026 233.177c0-.221-1.044-3.986-1.044-3.986"/><path d="M274.985 217.232l1.74 11.295"/></g><g><path d="M435.436 239.834c0 63.422-51.416 114.838-114.838 114.838s-114.838-51.416-114.838-114.838 51.416-114.838 114.838-114.838 114.838 51.416 114.838 114.838z" stroke="#006a00" stroke-width="2.8937500000000003" fill="none"/><g stroke-width="1pt"><path d="M446.313 215.39c14.457 12.331-2.862 24.661-10.842 24.661s-25.3-12.331-10.843-24.661c-3.614 12.331 10.842 15.413 10.843 21.579 0-6.165 14.457-9.248 10.842-21.579z" fill-rule="evenodd" fill="#006a00"/><path d="M336.61 432.28c35.433 124.02-53.149 106.3-53.149 141.73 0-35.433-88.583-17.717-53.15-141.73" stroke="#000" fill="none" transform="matrix(.203 0 0 .174 377.225 140.224)"/></g><g stroke-width="1pt"><path d="M310.714 111.728c13.89-13.039 24.197 5.541 23.297 13.482-.9 7.941-15.112 23.83-25.742 8.097 11.852 4.943 16.547-9.106 22.678-8.433-6.13-.673-7.565-15.396-20.233-13.146z" fill-rule="evenodd" fill="#006a00"/><path d="M336.61 432.28c35.433 124.02-53.149 106.3-53.149 141.73 0-35.433-88.583-17.717-53.15-141.73" stroke="#000" fill="none" transform="matrix(.023 -.203 .172 .019 228.092 171.898)"/></g><g stroke-width="1pt"><path d="M346.842 361.683c-10.063 16.157-24.798.851-25.972-7.051-1.174-7.902 8.468-26.895 22.783-14.421-12.721-1.736-13.642 13.039-19.737 13.961 6.094-.921 11.268 12.933 22.926 7.512z" fill-rule="evenodd" fill="#006a00"/><path d="M336.61 432.28c35.433 124.02-53.149 106.3-53.149 141.73 0-35.433-88.583-17.717-53.15-141.73" stroke="#000" fill="none" transform="matrix(.03 .201 -.171 .026 410.605 282.499)"/></g><g stroke-width="1pt"><path d="M194.345 246.875c-13.606-13.181 4.407-24.337 12.348-23.828 7.941.509 24.397 13.872 9.23 25.21 4.376-12.03-9.815-16.016-9.425-22.146-.39 6.13-14.97 8.274-12.153 20.765z" fill-rule="evenodd" fill="#006a00"/><path d="M336.61 432.28c35.433 124.02-53.149 106.3-53.149 141.73 0-35.433-88.583-17.717-53.15-141.73" stroke="#000" fill="none" transform="matrix(-.203 -.013 .011 -.173 257.761 326.086)"/></g><g stroke-width="1pt"><path d="M435.504 183.972c16.866 8.646 2.891 24.612-4.854 26.45-7.746 1.839-27.391-6.147-16.193-21.454-.673 12.809 14.067 12.473 15.485 18.461-1.418-5.988 11.906-12.313 5.563-23.457z" fill-rule="evenodd" fill="#006a00"/><path d="M336.61 432.28c35.433 124.02-53.149 106.3-53.149 141.73 0-35.433-88.583-17.717-53.15-141.73" stroke="#000" fill="none" transform="matrix(.198 -.047 .04 .169 351.201 126.788)"/></g><g stroke-width="1pt"><path d="M275.879 120.258c9-16.724 24.697-2.452 26.38 5.333 1.682 7.785-6.714 27.302-21.809 15.821 12.809.904 12.774-13.854 18.798-15.166-6.024 1.311-12.083-12.136-23.369-5.988z" fill-rule="evenodd" fill="#006a00"/><path d="M336.61 432.28c35.433 124.02-53.149 106.3-53.149 141.73 0-35.433-88.583-17.717-53.15-141.73" stroke="#000" fill="none" transform="matrix(-.043 -.199 .169 -.037 216.794 203.289)"/></g><g stroke-width="1pt"><path d="M383.799 347.304c-3.969 18.567-23.046 9.252-26.84 2.25-3.795-7.002-1.187-28.081 16.529-21.277-12.561 2.711-8.398 16.866-13.82 19.808 5.421-2.941 15.006 8.274 24.131-.78z" fill-rule="evenodd" fill="#006a00"/><path d="M336.61 432.28c35.433 124.02-53.149 106.3-53.149 141.73 0-35.433-88.583-17.717-53.15-141.73" stroke="#000" fill="none" transform="matrix(.097 .179 -.152 .082 416.782 251.223)"/></g><g stroke-width="1pt"><path d="M200.988 279.044c-17.15-8.15-3.614-24.554 4.093-26.628 7.706-2.073 27.621 5.332 16.848 20.994.301-12.845-14.457-12.065-16.051-18.018 1.595 5.953-11.569 12.685-4.889 23.652z" fill-rule="evenodd" fill="#006a00"/><path d="M336.61 432.28c35.433 124.02-53.149 106.3-53.149 141.73 0-35.433-88.583-17.717-53.15-141.73" stroke="#000" fill="none" transform="matrix(-.196 .053 -.045 -.168 286.53 333.878)"/></g><g stroke-width="1pt"><path d="M418.313 160.412c18.78 2.693 10.768 22.364 4.039 26.628-6.728 4.264-27.922 3.101-22.323-15.041 3.543 12.349 17.38 7.228 20.676 12.438-3.295-5.209 7.246-15.537-2.392-24.024z" fill-rule="evenodd" fill="#006a00"/><path d="M336.61 432.28c35.433 124.02-53.149 106.3-53.149 141.73 0-35.433-88.583-17.717-53.15-141.73" stroke="#000" fill="none" transform="matrix(.172 -.109 .093 .147 319.919 133.608)"/></g><g stroke-width="1pt"><path d="M246.135 137.426c4.748-18.354 23.359-8.204 26.84-1.045 3.482 7.159-.017 28.081-17.38 20.498 12.632-2.144 9.089-16.459 14.617-19.152-5.527 2.693-14.598-8.929-24.077-.301z" fill-rule="evenodd" fill="#006a00"/><path d="M336.61 432.28c35.433 124.02-53.149 106.3-53.149 141.73 0-35.433-88.583-17.717-53.15-141.73" stroke="#000" fill="none" transform="matrix(-.089 -.183 .156 -.076 208.604 231.93)"/></g><g stroke-width="1pt"><path d="M410.115 327.687c1.488 18.921-19.453 15.412-25.086 9.779-5.633-5.633-9.142-26.575 9.779-25.086-11.268 6.165-3.242 18.549-7.601 22.908 4.358-4.358 16.742 3.667 22.908-7.601z" fill-rule="evenodd" fill="#006a00"/><path d="M336.61 432.28c35.433 124.02-53.149 106.3-53.149 141.73 0-35.433-88.583-17.717-53.15-141.73" stroke="#000" fill="none" transform="matrix(.144 .144 -.122 .123 414.315 226.096)"/></g><g stroke-width="1pt"><path d="M213.57 305.965c-18.638-3.827-9.394-22.918-2.392-26.752 7.002-3.834 28.152-1.382 21.419 16.334-2.781-12.508-16.955-8.256-19.932-13.642 2.977 5.386-8.22 15.024.904 24.06z" fill-rule="evenodd" fill="#006a00"/><path d="M336.61 432.28c35.433 124.02-53.149 106.3-53.149 141.73 0-35.433-88.583-17.717-53.15-141.73" stroke="#000" fill="none" transform="matrix(-.178 .098 -.084 -.152 309.861 338.735)"/></g><g stroke-width="1pt"><path d="M393.51 137.857c18.85-2.409 16.205 18.701 10.807 24.608-5.398 5.907-26.186 10.436-25.476-8.557 6.626 10.967 18.673 2.339 23.209 6.485-4.536-4.146 2.976-16.919-8.54-22.536z" fill-rule="evenodd" fill="#006a00"/><path d="M336.61 432.28c35.433 124.02-53.149 106.3-53.149 141.73 0-35.433-88.583-17.717-53.15-141.73" stroke="#000" fill="none" transform="matrix(.137 -.15 .128 .117 291.492 138.159)"/></g><g stroke-width="1pt"><path d="M221.979 159.79c-.212-18.921 20.447-14.01 25.689-8.025 5.242 5.985 7.335 27.054-11.445 24.289 11.658-5.368 4.482-18.23 9.125-22.27-4.642 4.04-16.459-4.784-23.369 6.006z" fill-rule="evenodd" fill="#006a00"/><path d="M336.61 432.28c35.433 124.02-53.149 106.3-53.149 141.73 0-35.433-88.583-17.717-53.15-141.73" stroke="#000" fill="none" transform="matrix(-.134 -.153 .13 -.114 210.398 260.622)"/></g><g stroke-width="1pt"><path d="M428.233 300.775c5.953 18-15.197 19.489-22.004 15.342-6.807-4.147-15.202-23.634 3.508-26.61-9.461 8.61 1.275 18.744-1.914 23.989 3.189-5.244 17.114-.354 20.41-12.721z" fill-rule="evenodd" fill="#006a00"/><path d="M336.61 432.28c35.433 124.02-53.149 106.3-53.149 141.73 0-35.433-88.583-17.717-53.15-141.73" stroke="#000" fill="none" transform="matrix(.174 .106 -.09 .148 408.082 201.168)"/></g><g stroke-width="1pt"><path d="M234.488 329.934c-18.992 1.205-15.087-19.709-9.336-25.263 5.75-5.555 26.806-8.753 24.962 10.169-5.971-11.374-18.531-3.526-22.819-7.955 4.288 4.429-3.986 16.707 7.194 23.05z" fill-rule="evenodd" fill="#006a00"/><path d="M336.61 432.28c35.433 124.02-53.149 106.3-53.149 141.73 0-35.433-88.583-17.717-53.15-141.73" stroke="#000" fill="none" transform="matrix(-.146 .142 -.121 -.125 335.945 336.221)"/></g><g stroke-width="1pt"><path d="M367.851 121.369c18.071-5.953 19.63 15.197 15.484 22.004-4.147 6.807-23.705 15.202-26.752-3.508 8.681 9.461 18.833-1.275 24.113 1.914-5.28-3.189-.407-17.114-12.845-20.41z" fill-rule="evenodd" fill="#006a00"/><path d="M336.61 432.28c35.433 124.02-53.149 106.3-53.149 141.73 0-35.433-88.583-17.717-53.15-141.73" stroke="#000" fill="none" transform="matrix(.105 -.175 .148 .09 267.579 141.085)"/></g><g stroke-width="1pt"><path d="M204.719 190.144c-6.59-17.788 14.545-20.154 21.508-16.281 6.963 3.873 16.052 23.05-2.586 26.805 9.177-9.018-1.931-18.726 1.081-24.113-3.012 5.386-17.132 1.063-20.002 13.589z" fill-rule="evenodd" fill="#006a00"/><path d="M336.61 432.28c35.433 124.02-53.149 106.3-53.149 141.73 0-35.433-88.583-17.717-53.15-141.73" stroke="#000" fill="none" transform="matrix(-.178 -.099 .085 -.152 227.796 289.226)"/></g><g stroke-width="1pt"><path d="M440.553 278.184c7.937 17.291-12.942 21.187-20.179 17.823-7.237-3.364-17.77-21.863.514-26.964-8.451 9.673 3.366 18.567.779 24.166 2.586-5.598 16.99-2.303 18.886-15.024z" fill-rule="evenodd" fill="#006a00"/><path d="M336.61 432.28c35.433 124.02-53.149 106.3-53.149 141.73 0-35.433-88.583-17.717-53.15-141.73" stroke="#000" fill="none" transform="matrix(.185 .086 -.073 .157 409.348 180.986)"/></g><g stroke-width="1pt"><path d="M270.079 353.789c-17.433 7.512-20.847-13.481-17.326-20.639 3.521-7.159 22.217-17.239 26.893 1.187-9.461-8.699-18.602 2.905-24.131.177 5.528 2.728 1.913 17.061 14.564 19.276z" fill-rule="evenodd" fill="#006a00"/><path d="M336.61 432.28c35.433 124.02-53.149 106.3-53.149 141.73 0-35.433-88.583-17.717-53.15-141.73" stroke="#000" fill="none" transform="matrix(-.09 .183 -.155 -.077 367.412 325.526)"/></g><g stroke-width="1pt"><path d="M447.904 248.962c11.409 15.095-8.178 23.335-15.962 21.614-7.785-1.721-21.987-17.433-5.191-26.291-6.219 11.197 7.21 17.309 5.864 23.298 1.346-5.988 16.122-5.864 15.289-18.621z" fill-rule="evenodd" fill="#006a00"/><path d="M336.61 432.28c35.433 124.02-53.149 106.3-53.149 141.73 0-35.433-88.583-17.717-53.15-141.73" stroke="#000" fill="none" transform="matrix(.199 .044 -.038 .169 396.883 161.147)"/></g><g stroke-width="1pt"><path d="M339.23 114.018c16.299-9.709 22.318 10.645 19.736 18.195-2.582 7.55-19.807 19.967-26.752 2.321 10.453 7.388 18.035-5.297 23.847-3.313-5.811-1.984-4.039-16.653-16.831-17.203z" fill-rule="evenodd" fill="#006a00"/><path d="M336.61 432.28c35.433 124.02-53.149 106.3-53.149 141.73 0-35.433-88.583-17.717-53.15-141.73" stroke="#000" fill="none" transform="matrix(.066 -.193 .164 .056 245.985 154.827)"/></g><g stroke-width="1pt"><path d="M306.097 364.007c-15.52 10.842-23.095-9-21.1-16.706 1.995-7.706 18.231-21.314 26.521-4.234-11.002-6.608-17.593 6.573-23.546 5.014 5.953 1.559 5.315 16.299 18.125 15.927z" fill-rule="evenodd" fill="#006a00"/><path d="M336.61 432.28c35.433 124.02-53.149 106.3-53.149 141.73 0-35.433-88.583-17.717-53.15-141.73" stroke="#000" fill="none" transform="matrix(-.051 .197 -.168 -.044 395.428 316.766)"/></g><g stroke-width="1pt"><path d="M195.843 216.54c-10.488-15.874 9.553-22.869 17.22-20.639 7.667 2.23 20.906 18.904 3.614 26.698 6.874-10.825-6.165-17.823-4.464-23.741-1.701 5.917-16.441 4.837-16.37 17.682z" fill-rule="evenodd" fill="#006a00"/><path d="M336.61 432.28c35.433 124.02-53.149 106.3-53.149 141.73 0-35.433-88.583-17.717-53.15-141.73" stroke="#000" fill="none" transform="matrix(-.195 -.057 .048 -.167 240.944 307.969)"/></g></g><g stroke="#000"><path d="M193.63 88.249c15.546 4.424 43.275 46.12 53.766 45.791 16.652-.481 83.233-77.561 72.564-88.252-7.399-8.246-67.939 41.192-71.852 44.126-.67-8.601-15.95-51.042-28.31-59.945-14.62-9.31-32.21-4.157-47.82-6.661-7.3-2.843-18.84-14.056-23.78-24.976 8.182-3.544 15.323-2.479 23.311-10.651 5.679-6.642 2.381-46.913.37-51.059-13.291-14.268 5.429-7.327-39.024-9.082-64.268-2.446-75.878 49.582-31.653 70.792-3.462 15.928-14.219 19.594-22.939 21.646-8.777.106-38.826-.763-55.546 12.489-33.403 24.552-8.925 30.904-15.352 35.8-7.173 5.645-17.868 19.827-21.888 28.307-10.472 4.996-99.485-4.995-116.5-1.664-16.42.965-56.467 15.818-73.15 26.641 3.565 14.142 241.51-7.603 249.27-2.497 5.946 3.345-2.705 51.237 2.011 54.949 1.659 9.063 116.54 5.829 125.6 5.829 7.557-18.859 15.389-81.558 20.925-91.583z" fill-rule="evenodd" transform="matrix(.128 0 0 .204 363.373 187.113)" stroke-width="4.702" fill="#520900"/><path d="M174.9-96.568c1.543 25.457-7.118 3.304-38.369 3.304-60.56-5.035-39.286 99.196-39.286 67.025-26.227-13.71-44.834-100.29 29.616-96.931 23.538 0 44.958 7.858 48.044 26.603z" fill-rule="evenodd" transform="matrix(.154 0 0 .143 359.765 187.971)" stroke-width="5.125"/><path d="M387.98 96.574c0 1.681-.172 7.957-.833 11.656-.445 3.74-1.539 8.077-2.498 10.823-.342 4.452-2.091 5.174-2.497 9.991-1.544 2.27-2.209 5.944-2.498 9.991 0 4.27.686 7.558.833 11.656.481 3.56 1.612 6.366 1.665 10.823 0 4.365-.005 7.549-1.665 9.991v5.828" transform="matrix(.202 0 0 .204 292.253 180.743)" stroke-width="3.75" fill="none"/><path d="M383.81 76.592c.58 0 1.029 20.129 5.828 24.978 1.039 3.212 4.574 7.343 5.828 9.99 1.672 2.459 3.981 5.368 8.326 6.661h11.656c4.634 0 7.473.055 10.823-1.665 1.485-.8 2.531-1.846 3.33-3.331" transform="matrix(.202 0 0 .204 292.253 180.743)" stroke-width="3.75" fill="none"/><path d="M442.09 115.72h.832c-2.327 0-1.092-.104 3.331 1.665 1.725 2.537 3.768 3.625 6.66 4.996 2.982 1.467 6.391 1.665 10.823 1.665 4.198-.354 6.74-1.686 9.159-3.331 4.043-1.308 4.815-2.935 5.828-7.493v-11.656c-.478-3.531-1.384-6.372-2.498-9.158-.419-1.258-.833-.705-.833-2.498" transform="matrix(.202 0 0 .204 292.253 180.743)" stroke-width="3.75" fill="none"/><path d="M510.36 121.55c-.425 0-2.65 2.575-4.163 4.995-2.568.918-3.233 3.716-4.162 5.828-.669 2.675-1.666 2.859-1.666 6.661-1.677 3.708-2.204 7.007-2.497 10.823l2.497-10.823c-1.677 3.708-2.204 7.007-2.497 10.823" transform="matrix(.202 0 0 .204 292.253 180.743)" stroke-width="3.75" fill="none"/><path d="M461.24 54.946h-.833c2.249 0 1.099-.053-3.33.833-1.817 2.271-4.807 4.306-7.493 5.828-2.977 1.824-5.367 4.009-8.326 4.995l8.326-4.995c-2.977 1.824-5.367 4.009-8.326 4.995" transform="matrix(.202 0 0 .204 292.253 180.743)" stroke-width="3.75" fill="none"/><path d="M402.13 51.615h.833c-2.248 0-1.105-.054 3.33.833 2.936 1.391 4.752 2.89 7.493 4.995 1.291 1.935 3.257 2.305 4.163 5.828 1.574.848 2.124 1.67 2.498 4.163" transform="matrix(.202 0 0 .204 292.253 180.743)" stroke-width="3.75" fill="none"/><path d="M427.11 29.968h4.163c4.529 0 6.733.681 10.824.833 3.538-.425 4.382-1.737 7.493-2.498" transform="matrix(.202 0 0 .204 292.253 180.743)" stroke-width="3.75" fill="none"/><path d="M442.93 133.21c.139.661 1.652 4.256 2.498 5.828 1.517 2.512 3.538 4.914 4.163 8.326.968 2.905 1.526 6.23 1.665 9.99.761 3.503 1.264 6.62-.833 9.159-.898 3.292-2.57 5.692-4.162 9.158-1.111 0-.833-.278-.833.833" transform="matrix(.202 0 0 .204 292.253 180.743)" stroke-width="3.75" fill="none"/><path d="M416.28 134.87v.833c0-2.248.055-1.105-.832 3.33-1.147 4.013-2.15 7.388-4.163 9.991-1.098 3.294-2.326 4.504-2.498 9.158.662 1.544.833 3.263.833 5.828" transform="matrix(.202 0 0 .204 292.253 180.743)" stroke-width="3.75" fill="none"/><path d="M412.12 169.01v4.163c.908 1.211.55 1.294 1.665 1.665" transform="matrix(.202 0 0 .204 292.253 180.743)" stroke-width="3.75" fill="none"/><path d="M343.02 128.21v.832c0-2.327-.258-.936 4.163.833 3.572.638 7.937 1.037 10.823 1.665 2.672 1.312 5.265 3.48 7.493 4.995 1.994 1.728 4.819 3.48 7.494 4.996 3.004 1.502 4.325 2.823 5.828 5.828.907 1.21.549 1.293 1.665 1.665" transform="matrix(.202 0 0 .204 292.253 180.743)" stroke-width="3.75" fill="none"/><path d="M423.78-16.655c.123-.184 2.467-1.914 4.996-2.498 1.805-1.354 4.812-.74 6.66 0" transform="matrix(.315 0 0 .204 242.296 181.461)" stroke-width="3" fill="none"/><path d="M445.42-19.153h.833c-2.248 0-1.106.054 3.33-.833 3.481-1.16 7.672-.833 11.656-.833 1.174.391.832.242.832 1.665" transform="matrix(.245 0 0 .204 271.975 181.461)" stroke-width="3.402" fill="none"/><path d="M444.59-7.497v.833c0-2.327-.103-1.091 1.666 3.33.643 2.962 1.76 7.05.832 9.158-2.184 0-2.859-.274-4.163-.833" transform="matrix(.245 0 0 .204 271.975 181.461)" stroke-width="3.402" fill="none"/><path d="M371.33-24.981c0 3.219-4.1 5.828-9.158 5.828s-9.158-2.609-9.158-5.828 4.1-5.828 9.158-5.828 9.158 2.609 9.158 5.828z" fill-rule="evenodd" transform="matrix(.242 -.035 .024 .115 294.817 199.9)" stroke-width="4.501"/><path d="M371.33-24.981c0 3.219-4.1 5.828-9.158 5.828s-9.158-2.609-9.158-5.828 4.1-5.828 9.158-5.828 9.158 2.609 9.158 5.828z" fill-rule="evenodd" transform="matrix(.175 -.023 .017 .075 314.933 188.361)" stroke-width="6.528"/><path d="M371.33-24.981c0 3.219-4.1 5.828-9.158 5.828s-9.158-2.609-9.158-5.828 4.1-5.828 9.158-5.828 9.158 2.609 9.158 5.828z" fill-rule="evenodd" transform="matrix(.175 -.023 .017 .075 320.241 187.851)" stroke-width="6.528"/><path d="M412.95 113.64c0 2.069-1.864 3.747-4.163 3.747-2.299 0-4.163-1.677-4.163-3.747s1.864-3.747 4.163-3.747c2.299 0 4.163 1.677 4.163 3.747z" fill-rule="evenodd" transform="matrix(.202 0 0 .204 292.253 180.743)" stroke-width="3.75"/><path d="M469.57 119.89c0 1.379-1.305 2.498-2.914 2.498-1.609 0-2.914-1.118-2.914-2.498s1.305-2.498 2.914-2.498c1.609 0 2.914 1.118 2.914 2.498z" fill-rule="evenodd" transform="matrix(.202 0 0 .204 292.253 180.743)" stroke-width="3.75"/><path d="M447.09 31.634v.833c0-2.795.197-1.029-4.163 3.33-3.724 1.786-5.164 3.667-6.66 6.66-1.742 3.851-2.342 6.613-2.498 10.824v6.66" transform="matrix(.202 0 0 .204 292.253 180.743)" stroke-width="3.75" fill="none"/><path d="M419.61 30.801c.577 0 1.477 2.273 2.498 4.995 1.856 2.189 3.037 5.351 3.33 9.158 0 4.519.78 6.454.833 10.824v3.33" transform="matrix(.202 0 0 .204 292.253 180.743)" stroke-width="3.75" fill="none"/><path d="M504.54 129.04c0 .481-2.6 1.455-4.163 3.33-3.161.428-5.964.833-9.99.833-.611-.916-1.836-1.217-3.331-1.665" transform="matrix(.202 0 0 .204 292.253 180.743)" stroke-width="3.75" fill="none"/></g><g fill-rule="evenodd" stroke="#000" stroke-width="3.75" fill="#fff"><path d="M368.98 217.334l18.445.221v1.55s1.74 1.993 2.784 6.422c1.044 4.429 2.088 21.039 2.088 21.039l4.524 18.825s-2.784 2.879-4.872 2.658c-2.088-.222-8.352-1.772-8.352-1.993 0-.221-.348-10.63-1.044-17.717-.696-7.087-2.088-10.852-5.22-13.952-4.176 6.422-4.524 13.066-4.176 13.066s.348 5.315.696 9.301c.348 3.986-.348 9.523-.348 9.523l-12.181-.443s.348-4.872.696-8.637c.348-3.765 1.409-5.536 1.74-9.744.365-4.65.878-7.091 1.392-14.617.677-6.083 3.07-10.009 3.741-13.731.182-.949-.087-1.661.087-1.772z"/><path d="M377.333 234.608s-1.74-1.772-2.436-4.872l-.696-3.765"/><path d="M373.505 243.467l-2.088 5.315"/><path d="M381.508 242.358l2.436 7.308"/><path d="M392.298 268.049l-2.437-10.853"/><path d="M368.98 218.441l18.445.221"/><path d="M377.68 234.386c0-.221 1.044-3.986 1.044-3.986"/><path d="M370.721 218.441l-1.74 11.295"/></g><path d="M349.68 188.16c0 13.794-7.082 24.977-15.819 24.977-8.736 0-15.819-11.183-15.819-24.977s7.082-24.977 15.819-24.977c8.736 0 15.819 11.183 15.819 24.977z" fill-rule="evenodd" transform="matrix(.336 0 0 .328 143.172 205.84)" stroke="#000" stroke-width="2.5" fill="#ffc600"/><g stroke-width="1pt"><g fill-rule="evenodd" stroke="#000"><path d="M283.391 305.478s10.843-4.27 14.457-4.27c3.614 0 3.614 4.27 3.904 4.389l-.289 8.42h-18.071v-8.539z" fill="#00cfe6"/><path d="M301.463 326.831s0 4.27 3.614 4.27 7.228.12 10.842 0v-12.809h-14.457v8.539z" fill="#00cfe6"/><path d="M370.132 305.531s-10.843-4.27-14.457-4.27c-3.614 0-3.614 4.27-3.904 4.389l.289 8.42h18.071v-8.539z" fill="#00cfe6"/><path d="M352.061 326.879s0 4.27-3.614 4.27-7.228.12-10.842 0v-12.809h14.457v8.539z" fill="#00cfe6"/><path d="M344.833 326.882s0 4.27 3.614 4.27h-10.843l7.229-4.27z" fill="#fff"/><path d="M380.975 305.53l-25.299 12.809s8.577 8.025 16.866 8.539c4.217 0 8.433-8.539 8.433-8.539v-12.809z" fill="#00cfe6"/><path d="M352.061 309.801c-.145-2.135.452-8.54 4.066-8.54h-11.294c-3.614 0-7.229 4.27-7.229 8.54l.289 8.539h14.167v-8.539z" fill="#fff"/><path d="M308.691 326.833s0 4.27-3.614 4.27h10.843l-7.229-4.27z" fill="#fff"/><path d="M272.549 305.477l25.299 12.809s-8.577 8.025-16.866 8.539c-4.217 0-8.433-8.539-8.433-8.539v-12.809z" fill="#00cfe6"/><path d="M301.463 309.748c.145-2.135-.452-8.54-4.066-8.54h11.294c3.614 0 7.229 4.27 7.229 8.54l-.289 8.539h-14.167v-8.539z" fill="#fff"/><path d="M265.344 305.288c-.022.244 3.592-8.295 10.82-8.295s36.141 17.079 50.576 17.079c14.479 0 40.117-17.487 47.006-17.079 6.89.408 10.918 8.956 10.842 8.539-.076-.416-3.614 12.809-3.614 12.809 0-4.27-3.614-8.539-7.228-8.539s-21.685 17.079-47.006 17.079c-25.278 0-43.348-17.079-46.963-17.079-3.614 0-7.228 4.27-7.228 8.539l-7.205-13.053z" fill="#fff"/></g><path d="M363.117 314.156l-3.17-9.638 3.239-1.477.374 1.138-2.647 1.207.971 2.952 2.478-1.13.371 1.129-2.478 1.13 1.079 3.28 2.75-1.254.374 1.138-3.343 1.524z"/><path d="M349.534 320.441l-3.17-9.638.593-.27 2.795 8.5 2.207-1.006.374 1.138-2.799 1.276z"/><path d="M345.423 322.36l-3.17-9.638 3.022-1.378.374 1.138-2.429 1.107.981 2.983 2.102-.958.374 1.138-2.102.958 1.44 4.379-.593.27z"/><path d="M308.287 322.397l2.099-9.938 1.218.358-.039 7.461c-.004.694-.011 1.214-.018 1.557.146-.342.367-.841.662-1.496l2.924-6.485 1.089.32-2.099 9.938-.78-.229 1.757-8.319-3.534 7.796-.73-.215.019-8.981-1.787 8.461-.78-.229z"/><path d="M308.732 311.718l.769.378-1.906 5.469c-.331.95-.661 1.674-.988 2.17-.327.494-.725.832-1.195 1.015-.465.18-.977.13-1.538-.146-.544-.268-.937-.637-1.177-1.115-.24-.475-.333-1.039-.28-1.689.054-.654.256-1.482.606-2.485l1.906-5.469.769.378-1.903 5.462c-.286.822-.452 1.453-.496 1.889-.04.433.018.811.172 1.135.157.323.4.567.73.729.566.278 1.041.269 1.428-.03.386-.299.786-1.042 1.2-2.231l1.903-5.462z"/><path d="M292.526 304.888l.577.316-2.128 5.42c-.37.942-.714 1.663-1.031 2.166-.316.5-.673.853-1.071 1.061-.393.205-.799.191-1.219-.039-.408-.223-.684-.555-.824-1.001-.141-.444-.154-.983-.041-1.616.115-.637.368-1.451.758-2.445l2.128-5.42.576.315-2.126 5.413c-.32.815-.522 1.436-.604 1.862-.079.422-.075.784.013 1.087.091.302.259.522.507.658.424.232.807.191 1.15-.124.343-.315.745-1.061 1.207-2.239l2.126-5.413z"/><path d="M282.225 306.572l.584.195c-.159.485-.251.903-.278 1.258-.022.35.029.673.154.97.127.29.314.504.561.639.22.12.442.156.665.108.224-.048.424-.172.601-.371.181-.202.328-.448.442-.737.116-.296.177-.574.183-.834.007-.265-.05-.522-.174-.771-.078-.162-.277-.455-.598-.878-.318-.429-.522-.777-.61-1.049-.116-.348-.157-.724-.124-1.127.036-.404.139-.823.308-1.252.186-.474.422-.882.708-1.222.287-.346.592-.559.916-.641.324-.083.632-.043.925.117.323.177.563.445.72.805.161.357.222.79.184 1.297-.038.508-.161 1.04-.367 1.596l-.588-.213c.203-.61.278-1.112.224-1.509-.051-.397-.245-.686-.58-.869-.349-.191-.657-.192-.927-.003-.266.186-.475.473-.628.863-.132.335-.184.644-.156.923.025.28.227.661.603 1.149.381.482.626.856.733 1.122.155.391.216.813.185 1.267-.03.452-.144.927-.342 1.431-.196.499-.447.934-.755 1.306-.305.365-.631.605-.978.716-.343.108-.67.075-.981-.095-.394-.216-.677-.519-.847-.913-.168-.393-.232-.877-.19-1.456.046-.582.187-1.188.426-1.821z"/><path d="M366.231 306.836c-.525-1.597-.738-2.942-.635-4.025.101-1.09.467-1.778 1.099-2.066.414-.189.856-.146 1.328.128s.919.752 1.344 1.437c.424.678.795 1.498 1.112 2.463.321.977.518 1.893.588 2.749.069.853.003 1.559-.202 2.11-.207.547-.505.908-.894 1.086-.422.192-.87.146-1.347-.142-.476-.285-.924-.769-1.345-1.449s-.771-1.444-1.049-2.29zm.618-.258c.382 1.161.828 2.011 1.337 2.549.511.535.985.702 1.424.502.446-.204.702-.708.766-1.516.068-.805-.103-1.829-.51-3.069-.258-.785-.545-1.441-.861-1.967-.315-.532-.644-.902-.988-1.113-.343-.217-.662-.258-.958-.123-.42.191-.678.668-.778 1.428-.098.756.091 1.86.568 3.309z"/><path d="M357.914 316.418l-3.17-9.638 1.986-.905c.399-.182.732-.233.998-.153.264.077.53.306.799.687.269.382.489.837.664 1.368.225.684.312 1.307.26 1.871-.052.562-.272 1.004-.66 1.328.21.09.382.196.516.316.286.263.59.616.913 1.058l1.642 2.268-.746.34-1.252-1.735c-.364-.502-.652-.877-.865-1.135-.213-.255-.385-.425-.514-.505-.127-.082-.245-.129-.353-.134-.078-.001-.193.034-.346.103l-.688.313 1.408 4.282-.593.27zm-1.178-5.655l1.274-.581c.271-.123.463-.281.577-.468.112-.194.165-.438.158-.737-.009-.304-.065-.612-.167-.923-.149-.455-.35-.795-.602-1.018-.249-.224-.54-.261-.872-.109l-1.418.646 1.049 3.189z"/><path d="M351.14 314.022c-.525-1.597-.739-2.942-.636-4.025.101-1.09.467-1.778 1.099-2.066.414-.189.856-.146 1.328.128.472.274.92.752 1.345 1.437.424.679.794 1.498 1.112 2.463.321.977.518 1.893.588 2.749.07.853.003 1.559-.202 2.11-.207.547-.505.908-.894 1.086-.422.192-.87.146-1.347-.141-.476-.285-.924-.769-1.344-1.449-.42-.68-.77-1.445-1.048-2.29zm.617-.258c.382 1.161.828 2.011 1.337 2.549.511.535.985.702 1.423.502.446-.204.702-.708.767-1.517.068-.804-.103-1.829-.51-3.069-.258-.785-.546-1.441-.862-1.967-.315-.532-.644-.902-.988-1.113-.343-.217-.663-.258-.958-.123-.42.191-.679.668-.778 1.428-.098.756.091 1.86.568 3.309z"/><path d="M316.738 324.726l1.199-10.152 2.339.383c.477.078.846.245 1.108.5.265.25.453.603.564 1.058.115.452.144.91.089 1.377-.051.434-.172.829-.362 1.19-.19.36-.445.633-.765.822.356.242.609.595.759 1.062.153.467.194.998.125 1.588-.056.474-.171.907-.344 1.299-.17.385-.359.676-.566.866-.208.193-.456.324-.744.393-.286.067-.627.069-1.024.004l-2.377-.389zm1.52-5.752l1.349.221c.366.06.633.063.801.013.222-.068.4-.212.532-.43.136-.217.225-.504.267-.86.04-.337.025-.641-.044-.91-.069-.275-.19-.473-.363-.596-.173-.127-.484-.227-.932-.301l-1.246-.204-.362 3.067zm-.554 4.688l1.553.254c.267.044.456.058.568.045.196-.026.366-.092.509-.199.143-.109.27-.28.381-.51.112-.235.187-.515.225-.838.045-.379.024-.716-.062-1.013-.086-.302-.228-.525-.428-.669-.196-.15-.493-.257-.89-.322l-1.442-.236-.412 3.489z"/><path d="M324.471 325.709v-10.238h2.796c.561 0 .989.093 1.281.279.292.182.526.505.701.971.175.466.262.979.262 1.543 0 .727-.144 1.338-.434 1.838-.289.497-.736.813-1.342.949.221.172.389.342.504.509.244.363.474.817.692 1.362l1.097 2.787h-1.049l-.834-2.129c-.244-.617-.445-1.085-.602-1.412-.158-.325-.3-.554-.425-.684-.123-.129-.25-.222-.379-.272-.095-.033-.25-.05-.465-.05h-.967v4.548h-.834zm.834-5.719h1.793c.382 0 .68-.065.895-.189.215-.131.378-.335.49-.614.112-.284.167-.593.167-.923 0-.483-.108-.882-.326-1.194-.215-.312-.557-.468-1.023-.468h-1.996v3.388z"/><path d="M331.524 325.179l.885-10.563.886-.184 4.04 9.537-.936.195-1.178-2.899-2.596.541-.228 3.192-.872.182zm1.176-4.507l2.105-.439-1.064-2.652c-.323-.807-.574-1.472-.751-1.997.017.662.001 1.327-.048 1.992l-.242 3.096z"/><path d="M292.056 315.497l3.684-9.381 1.634.894c.333.182.562.424.687.726.128.298.171.676.128 1.134-.039.456-.143.898-.313 1.33-.157.401-.356.75-.596 1.049s-.505.501-.795.608c.198.31.289.704.272 1.181-.015.479-.13.993-.344 1.538-.172.438-.376.824-.613 1.157-.232.328-.452.561-.659.695-.208.137-.428.205-.661.205-.231-.001-.485-.077-.763-.228l-1.661-.908zm2.713-5.125l.942.515c.256.14.453.203.592.193.184-.014.356-.111.514-.288.161-.176.306-.429.435-.757.122-.311.195-.604.217-.875.024-.277-.011-.493-.106-.649-.093-.16-.297-.326-.61-.497l-.871-.476-1.113 2.834zm-1.701 4.332l1.085.593c.186.102.323.158.41.171.153.02.298-.005.433-.074.137-.072.277-.205.424-.399.148-.198.28-.448.397-.746.138-.35.215-.675.232-.977.019-.306-.025-.551-.134-.733-.104-.187-.296-.356-.573-.508l-1.008-.551-1.266 3.224z"/></g><g><path d="M212.6 432.28v106.3c0 70.866 88.583 106.3 88.583 106.3s88.583-35.433 88.583-106.3v-106.3h-177.17z" fill-rule="evenodd" transform="matrix(.406 0 0 .383 201.06 45.179)" stroke="#000" stroke-width="1pt" fill="#00daec"/><path d="M212.6 432.28v106.3c0 8.858 1.384 17.163 3.806 24.914l84.777-42.631v-88.583h-88.583z" fill-rule="evenodd" transform="matrix(.406 0 0 .383 201.06 45.179)" stroke="#000" stroke-width="1pt" fill="#fff"/><path d="M212.6 432.28v106.3c0 8.858 1.384 17.163 3.806 24.914l84.777-42.631v-88.583h-88.583z" fill-rule="evenodd" transform="matrix(-.406 0 0 .383 445.829 45.179)" stroke="#000" stroke-width="1pt" fill="#fff300"/><g fill-rule="evenodd" transform="matrix(.406 0 0 .383 201.06 45.179)" stroke="#000" stroke-width="1.25"><path d="M227.859 458.382c3.836-2.438 6.605.038 11.727 6.368 7.358 9.106 34.796 51.139 38.582 55.249s1.799-3.499 6.417 1.482c2.469 3.337-4.251 9.478-6.711 6.969-4.814-5.047 1.739-2.844-1.599-6.856-3.88-4.774-38.512-40.598-45.744-49.825-4.722-6.024-6.025-11.309-2.673-13.388z" fill="#923d09"/><rect ry="1.293" rx="2.606" transform="matrix(.756 .655 -.586 .81 0 0)" height="66.045" width="5.212" y="181.35" x="495.52" fill="#af8000"/><path fill="#b0b0d4" d="M266.771 451.975l24.416 16.333-12.096 14.481-24.416-16.333z"/></g><g stroke="#000" fill-rule="evenodd" transform="matrix(.406 0 0 .383 201.06 45.179)"><path d="M385.112 528.567c4.885-2.106-27.333-35.603-33.785-51.842-6.452-16.241-6.108-16.717-8.617-24.322l-3.152 1.36c.806 4.93 15.87 43.87 30.736 64.151 4.198 5.818.63 16.769 5.361 14.729l9.457-4.076z" stroke-width="1pt" fill="#af8000"/><path d="M341.548 453.549l-25.871 2.486s-4.83 4.107-2.574 12.665c2.255 8.558 8.965 11.892 8.965 11.892l22.668-17.557-3.189-9.486z" stroke-width="1pt" fill="#808080"/><rect ry="3.532" rx="3.532" transform="rotate(-18.579)" height="19.428" width="7.064" y="534.62" x="175.71" stroke-width="1pt" fill="#808080"/><path d="M239.61 381.52c0 7.316-1.581 13.246-3.532 13.246s-3.532-5.931-3.532-13.246c0-7.316 1.581-13.246 3.532-13.246s3.532 5.931 3.532 13.246z" transform="matrix(.745 -.716 .635 .393 -105.9 523.83)" stroke-width="1pt" fill="#cf0000"/><path d="M239.61 381.52c0 7.316-1.581 13.246-3.532 13.246s-3.532-5.931-3.532-13.246c0-7.316 1.581-13.246 3.532-13.246s3.532 5.931 3.532 13.246z" transform="matrix(-.978 .311 .027 .755 595.47 104.78)" stroke-width="1pt" fill="#cf0000"/><path stroke-width=".865pt" fill="#b0b0d4" d="M310.691 508.867l67.745-40.383 8.887 15.418-67.745 40.383z"/></g><path d="M231.36 591.4l8.83-7.065s1.767 8.831 7.065 8.831l8.831-7.653s0 7.653 5.887 7.653 10.597-7.653 10.597-7.064c0 .588.588 7.064 5.298 7.064l10.597-6.476s.589 7.654 5.887 7.065c5.299-.589 7.065-8.242 7.653-7.653.589.588 4.121 7.653 8.242 7.064l10.009-6.476s1.177 7.065 5.887 7.065c4.709 0 6.476-6.476 6.476-6.476s2.354 5.298 6.475 5.298l10.597-5.887" transform="matrix(.388 0 0 .383 211.251 51.722)" stroke="#0072ff" stroke-width="1pt" fill="none"/><path d="M231.95 591.4c3.139-1.374 5.69.196 9.418-7.654 0 4.121 2.945 9.42 8.243 9.42l8.831-7.653s0 7.653 5.887 7.653 10.597-7.653 10.597-7.064c0 .588.588 7.064 5.298 7.064l10.597-6.476s.589 7.654 5.887 7.065c5.299-.589 7.065-8.242 7.653-7.653.589.588 4.121 7.653 8.242 7.064 2.943-.589 10.009-7.065 10.009-7.065" transform="matrix(.406 0 0 .383 212.064 55.782)" stroke="#0072ff" stroke-width="1pt" fill="none"/><g fill-rule="evenodd"><path d="M305.54 350.62v18.839h14.717l-5.298-18.839h-9.419z" transform="matrix(.321 0 0 .286 236.521 162.175)" stroke="#000" stroke-width="1pt" fill="#fff"/><path d="M341.455 265.263c-.19.168-7.583 3.704-17.251 3.704s-13.459-1.01-14.407-1.684c-.948-.674-2.085-2.021-3.223-2.021s-2.085.842-2.085.842 1.896.842 3.223 1.852c1.327 1.01 1.706 2.863 1.706 2.863l31.278.337s-.19-1.852-.19-2.862 1.138-2.526.948-3.031z"/><path stroke-width="1pt" d="M244.91 335.31h2.355v54.75h-2.355z" transform="matrix(.321 0 0 .286 235.198 157.461)"/><path stroke-width="1pt" d="M276.7 328.24h2.355v62.404h-2.355z" transform="matrix(.321 0 0 .286 235.198 157.461)"/><path stroke-width="1pt" d="M307.9 338.84h2.355v51.218h-2.355z" transform="matrix(.321 0 0 .286 235.198 157.461)"/><path stroke="#000" stroke-width=".768pt" fill="#fff" d="M299.07 342.37h18.839v8.831h-18.839z" transform="matrix(.321 0 0 .286 235.198 157.461)"/><path stroke="#000" stroke-width=".826pt" fill="#fff" d="M297.89 350.61h21.782v8.831h-21.782z" transform="matrix(.321 0 0 .286 235.198 157.461)"/><path stroke="#000" stroke-width=".869pt" fill="#fff" d="M296.71 358.86h24.137v8.831h-24.137z" transform="matrix(.321 0 0 .286 235.198 157.461)"/><path stroke="#000" stroke-width="1.029pt" fill="#fff" d="M266.17 334.72h23.837v12.527h-23.837z" transform="matrix(.321 0 0 .286 235.198 157.461)"/><path stroke="#000" stroke-width="1.106pt" fill="#fff" d="M264.68 346.41h27.561v12.527h-27.561z" transform="matrix(.321 0 0 .286 235.198 157.461)"/><path stroke="#000" stroke-width="1.165pt" fill="#fff" d="M263.19 358.1h30.541v12.527h-30.541z" transform="matrix(.321 0 0 .286 235.198 157.461)"/><path stroke="#000" stroke-width=".984pt" fill="#fff" d="M260.21 368.28h36.5v15.307h-36.5z" transform="matrix(.321 0 0 .286 235.198 157.461)"/><path stroke="#000" stroke-width=".763pt" fill="#fff" d="M238.25 342.37h15.763v10.414h-15.763z" transform="matrix(.321 0 0 .286 235.198 157.461)"/><path stroke="#000" stroke-width=".82pt" fill="#fff" d="M237.26 352.09h18.226v10.414h-18.226z" transform="matrix(.321 0 0 .286 235.198 157.461)"/><path stroke="#000" stroke-width=".863pt" fill="#fff" d="M236.28 361.81h20.197v10.414h-20.197z" transform="matrix(.321 0 0 .286 235.198 157.461)"/><path stroke="#000" stroke-width=".73pt" fill="#fff" d="M234.31 370.27h24.137v12.725h-24.137z" transform="matrix(.321 0 0 .286 235.198 157.461)"/><path d="M220 377.51h9.876l10.597-33.374-20.473 33.374z" stroke="#000" stroke-width=".763pt" fill="#fff" transform="matrix(.321 0 0 .286 235.198 157.461)"/><path transform="matrix(.288 .127 -.174 .24 235.198 157.461)" stroke-width="1pt" d="M391.01 193.78h2.426v52.648h-2.426z"/></g><path d="M231.36 591.4l8.83-7.065s1.767 8.831 7.065 8.831l8.831-7.653s0 7.653 5.887 7.653 10.597-7.653 10.597-7.064c0 .588.588 7.064 5.298 7.064l10.597-6.476s.589 7.654 5.887 7.065c5.299-.589 7.065-8.242 7.653-7.653.589.588 4.121 7.653 8.242 7.064l10.009-6.476s1.177 7.065 5.887 7.065c4.709 0 6.476-6.476 6.476-6.476s2.354 5.298 6.475 5.298l7.065-7.064s1.177 6.476 4.121 6.476c2.943 0 6.476-6.476 6.476-6.476s1.177 8.242 4.121 7.653c2.943-.589 4.121-8.242 4.71-7.653.588.589 4.709 7.064 4.12 7.064" transform="matrix(.384 0 0 .383 207.933 46.985)" stroke="#0072ff" stroke-width="1pt" fill="none"/></g></g></g></g></svg>