<svg xmlns="http://www.w3.org/2000/svg" height="480" width="640" version="1" xmlns:xlink="http://www.w3.org/1999/xlink"><defs><linearGradient id="a"><stop stop-color="#a43907" stop-opacity=".996" offset="0"/><stop stop-color="#fff" offset="1"/></linearGradient><linearGradient id="b" y2="577.14" xlink:href="#a" gradientUnits="userSpaceOnUse" x2="470.9" gradientTransform="scale(1.003 .997)" y1="592.2" x1="444.4"/><linearGradient id="c" y2="552.83" xlink:href="#a" gradientUnits="userSpaceOnUse" x2="520.55" gradientTransform="scale(.936 1.068)" y1="562.51" x1="458.24"/><linearGradient id="d" y2="580.2" xlink:href="#a" gradientUnits="userSpaceOnUse" x2="445.28" gradientTransform="scale(1.003 .997)" y1="578.68" x1="472.38"/><linearGradient id="e" y2="558.12" xlink:href="#a" gradientUnits="userSpaceOnUse" x2="456.44" gradientTransform="scale(.936 1.068)" y1="553.74" x1="517.97"/><linearGradient id="f" y2="369.94" xlink:href="#a" gradientUnits="userSpaceOnUse" x2="646.19" y1="369.94" x1="851.78"/><linearGradient id="g" y2="508.75" xlink:href="#a" gradientUnits="userSpaceOnUse" x2="677.4" gradientTransform="scale(.823 1.215)" y1="507.23" x1="388.53"/><linearGradient id="h" y2="505.86" xlink:href="#a" gradientUnits="userSpaceOnUse" x2="556.8" gradientTransform="scale(.835 1.198)" y1="504.94" x1="579.84"/><linearGradient id="i" y2="514.33" xlink:href="#a" gradientUnits="userSpaceOnUse" x2="558.88" gradientTransform="scale(.823 1.215)" y1="512.01" x1="581.43"/><linearGradient id="j" y2="503.9" xlink:href="#a" gradientUnits="userSpaceOnUse" x2="589.77" gradientTransform="scale(.835 1.198)" y1="517.88" x1="552"/></defs><g><path stroke-width="1pt" fill="#006" d="M0 0h640v480h-640z"/><g><path fill-rule="evenodd" fill="#006" d="M0 0h400v200h-400z"/><g stroke-width="1pt"><path d="M0 .001v25.562l317.141 203.069h39.919v-25.561l-317.141-203.069h-39.919zm357.06 0v25.561l-317.141 203.069h-39.919v-25.561l317.141-203.069h39.919z" fill="#fff"/><path d="M148.775.001v228.63h59.51v-228.63h-59.51zm-148.775 76.21v76.21h357.06v-76.21h-357.06z" fill="#fff"/><path d="M0 91.453v45.726h357.06v-45.726h-357.06zm160.677-91.452v228.63h35.706v-228.63h-35.706z" fill="#c00"/><path d="M0 228.631l119.02-76.21h26.613l-119.02 76.21h-26.613zm0-228.63l119.02 76.21h-26.613l-92.407-59.169v-17.041zm211.427 76.21l119.02-76.21h26.613l-119.02 76.21h-26.613zm145.633 152.42l-119.02-76.21h26.613l92.407 59.169v17.041z" fill="#c00"/></g></g><g><path d="M394.465 353.618c-.857.014-1.68.098-2.372.219-3.957.69-10.2 13.585-13.652 21.134-5.399 6.592-8.279 11.716-10.548 15.512-.882 1.475-2.241 3.186-1.825 5.146-8.171 2.008-8.578 9.023-8.578 11.752 0 2.896.912 4.344.912 4.344l4.891 9.162.036.109c5.206 10.765 12.915 25.259 17.228 26.462 6.123 1.707 21.983-4.147 33.872-14.198 19.493 8.03 44.468 14.672 72.38 14.672 27.911 0 52.85-6.643 72.344-14.672 11.889 10.052 27.749 15.906 33.872 14.198 4.327-1.207 12.058-15.797 17.264-26.572l4.891-9.162s.913-1.448.912-4.344c0-2.731-.44-9.746-8.614-11.752.41-1.96-.907-3.671-1.788-5.146-2.286-3.824-5.163-8.995-10.622-15.658-3.465-7.568-9.681-20.302-13.614-20.988-5.539-.965-17.484 1.845-17.484 2.81l-.073.584-23.991 22.659c0 .651 1.272 17.046 5.767 31.536-16.059 5.846-35.771 9.964-58.874 9.964-23.118 0-42.883-4.112-58.948-9.964 4.495-14.49 5.803-30.885 5.804-31.536l-23.979-22.659-.073-.584c0-.845-9.148-3.125-15.148-3.03zm6.132 28.142c3.015-.038 6.227 2.447 8.87 5.22-.091.545-.183 1.103-.292 1.606-.729 3.354-1.981 7.783-3.723 12.41-6.856-4.005-12.451-8.171-16.716-12.044 2.602-2.767 6.781-6.537 11.206-7.154.216-.03.438-.034.657-.036zm172.35 0c.219.002.441.006.657.036 4.425.617 8.64 4.387 11.242 7.154-4.275 3.882-9.878 8.069-16.754 12.082-1.749-4.638-2.993-9.085-3.723-12.446-.11-.504-.2-1.059-.292-1.606 2.645-2.78 5.848-5.257 8.87-5.22zm-193.888 31.974c3.189 2.444 7.353 5.228 12.374 8.176-1.391.883-2.869 1.538-4.416 1.898-2.062.479-4.229.387-6.424-.073-.685-1.695-1.263-3.826-1.424-6.68-.067-1.189-.094-2.296-.109-3.322zm215.461 0c-.016 1.026-.079 2.132-.146 3.322-.16 2.854-.702 4.984-1.387 6.68-2.195.46-4.399.552-6.46.073-1.548-.36-2.989-1.015-4.38-1.898 5.022-2.948 9.184-5.732 12.374-8.176z" fill-rule="evenodd" stroke="#fff" stroke-width="11.68" fill="url(#b)"/><path d="M445.63 595.48s5.625-8.75 10.313-8.125c4.687.625 9.062 6.25 9.375 6.562.312.313 7.187-7.187 6.875-7.5-.313-.312-7.188-16.562-10.938-17.187s-11.847 1.196-11.847 1.821l-3.778 24.429z" fill-rule="evenodd" transform="matrix(-1.478 0 0 1.544 1073.36 -525.342)" stroke="#000" stroke-width="1.16" fill="url(#b)"/><path d="M433.13 586.11c0 .625 1.875 23.75 10 31.875s21.25 13.125 25.938 11.875c4.687-1.25 15.312-24.687 15.312-24.687s-11.25 11.25-19.687 9.375c-8.438-1.875-13.438-15.938-15-22.813-1.563-6.875-.313-20.313-.313-20.313l-16.25 14.688z" fill-rule="evenodd" transform="matrix(-1.478 0 0 1.544 1073.36 -525.342)" stroke="#000" stroke-width="1.16" fill="url(#c)"/><path d="M445.63 595.48s5.625-8.75 10.313-8.125c4.687.625 9.062 6.25 9.375 6.562.312.313 7.187-7.187 6.875-7.5-.313-.312-7.188-16.562-10.938-17.187s-11.847 1.196-11.847 1.821l-3.778 24.429z" fill-rule="evenodd" transform="matrix(1.478 0 0 1.544 -99.826 -525.342)" stroke="#000" stroke-width="1.16" fill="url(#d)"/><path d="M433.13 586.11c0 .625 1.875 23.75 10 31.875s21.25 13.125 25.938 11.875c4.687-1.25 15.312-24.687 15.312-24.687s-11.25 11.25-19.687 9.375c-8.438-1.875-13.438-15.938-15-22.813-1.563-6.875-.313-20.313-.313-20.313l-16.25 14.688z" fill-rule="evenodd" transform="matrix(1.478 0 0 1.544 -99.826 -525.342)" stroke="#000" stroke-width="1.16" fill="url(#e)"/><path d="M378.682 374.649c-5.539 6.757-8.496 11.98-10.804 15.84-2.308 3.861-.951 9.234 4.38 16.9 5.747 8.261 52.997 40.552 114.536 40.552 61.541 0 108.79-32.291 114.536-40.552 5.331-7.665 6.651-13.038 4.344-16.9-2.308-3.861-5.229-9.084-10.768-15.84 0 10.135-39.142 46.756-108.112 46.756-68.972 0-108.112-36.621-108.112-46.756z" fill-rule="evenodd" stroke="#000" stroke-width="1.7519999999999998" fill="url(#f)"/><path d="M467.82 625.48c.625-.937 7.187-11.875 7.187-11.875l-3.598-2.538c-1.105 3.094-5.152 4.101-5.777 7.851s2.813 7.5 2.188 6.562z" fill-rule="evenodd" transform="matrix(1.478 0 0 1.544 -98.845 -523.975)" stroke="#000" stroke-width="1.16" fill="url(#g)"/><path d="M475 622.98s1.25-5.312-2.812-5.937c-4.063-.625-6.214 2.973-5.625 1.562.654-1.567 3.125-3.125 3.437-8.437.313-5.313-.312-8.125-.312-8.125s1.562-6.876 8.125-5.938c6.562.938 6.875 5.938 6.875 7.813l-.625 2.812-9.063 16.25z" fill-rule="evenodd" transform="matrix(1.478 0 0 1.544 -99.826 -525.342)" stroke="#000" stroke-width="1.16" fill="url(#h)"/><path d="M436.62 649.96v2.602h.875l.203-1.573.203-.191h1.522v7.996l-.215.235-.825.073v.72h3.793v-.72l-.824-.073-.216-.235v-7.996h1.523l.19.191.215 1.573h.876v-2.602h-7.32z" stroke-width="1pt" transform="matrix(1.523 -.951 .758 1.327 -589.756 -40.91)"/><path d="M427.15 649.96v.72l.736.074.203.235v7.805l-.203.235-.736.073v.72h3.591v-.72l-.762-.073-.203-.235v-3.704h3.667v3.704l-.19.235-.762.073v.72h3.578v-.72l-.736-.073-.203-.235v-7.805l.203-.235.736-.074v-.72h-3.578v.72l.762.074.19.235v3.219h-3.667v-3.219l.203-.235.762-.074v-.72h-3.591z" stroke-width="1pt" transform="matrix(1.583 -.835 .667 1.379 -556.047 -124.898)"/><path d="M422.81 654.98v.72l.939.074.203.206v2.998c-.33.029-.571.044-.698.044-1.953 0-3.146-1.543-3.146-4.189 0-2.572 1.167-4.1 3.058-4.1.368 0 .71.073 1.053.235l.19.264.241 1.558h.926v-2.498c-.939-.324-1.839-.485-2.677-.485-2.816 0-4.63 2.013-4.63 5.026 0 3.057 1.801 5.174 4.465 5.174.926 0 1.865-.206 2.842-.603v-3.424l.203-.206.736-.074v-.72h-3.705z" stroke-width="1pt" transform="matrix(1.699 -.531 .425 1.48 -446.354 -321.164)"/><path d="M413.66 659.83h3.793v-.72l-.85-.073-.203-.235v-7.834l.203-.206.85-.074v-.72h-3.793v.72l.837.074.203.206v7.834l-.203.235-.837.073v.72z" stroke-width="1pt" transform="matrix(1.695 -.534 .445 1.478 -457.026 -318.197)"/><path d="M393.88 659.83h6.813v-2.63h-.863l-.216 1.558-.165.235h-2.943v-3.822h1.649l.178.206.127 1.058h.748v-3.41h-.748l-.127 1.059-.178.205h-1.649v-3.498h2.525l.165.191.19 1.294h.888v-2.308h-6.394v.72l.774.074.203.206v7.834l-.203.235-.774.073v.72z" stroke-width="1pt" transform="matrix(1.661 -.152 .131 1.538 -238.199 -513.545)"/><path d="M384.25 649.96v.72l.736.074.203.235v7.805l-.203.235-.736.073v.72h3.59v-.72l-.761-.073-.203-.235v-3.704h3.666v3.704l-.19.235-.761.073v.72h3.578v-.72l-.736-.073-.203-.235v-7.805l.203-.235.736-.074v-.72h-3.578v.72l.761.074.19.235v3.219h-3.666v-3.219l.203-.235.761-.074v-.72h-3.59z" stroke-width="1pt" transform="matrix(1.667 -.029 .027 1.544 -172.476 -565.626)"/><path d="M376.42 649.96v2.602h.875l.203-1.573.203-.191h1.523v7.996l-.216.235-.825.073v.72h3.794v-.72l-.825-.073-.216-.235v-7.996h1.523l.19.191.216 1.573h.875v-2.602h-7.32z" stroke-width="1pt" transform="matrix(1.667 .02 -.014 1.544 -145.355 -584.816)"/><path d="M365.33 659.83h6.813v-2.63h-.863l-.216 1.558-.165.235h-2.943v-3.822h1.649l.178.206.127 1.058h.748v-3.41h-.748l-.127 1.059-.178.205h-1.649v-3.498h2.525l.165.191.19 1.294h.888v-2.308h-6.394v.72l.774.074.203.206v7.834l-.203.235-.774.073v.72z" stroke-width="1pt" transform="matrix(1.624 .081 -.068 1.543 -95.201 -608.001)"/><path d="M352.34 659.83h3.793v-.72l-.85-.073-.203-.235v-7.834l.203-.206.85-.074v-.72h-3.793v.72l.837.074.203.206v7.834l-.203.235-.837.073v.72z" stroke-width="1pt" transform="matrix(1.548 .522 -.451 1.469 180.517 -720.935)"/><path d="M345.5 659.5c.787.323 1.637.485 2.449.485 2.081 0 3.362-1.264 3.362-3.013 0-.867-.406-1.661-1.142-2.205-.748-.558-1.421-.779-1.814-1.058-.672-.47-1.028-.911-1.028-1.587 0-.809.571-1.396 1.497-1.396.406 0 .698.073.926.205l.178.206.216 1.529h.913v-2.381c-.799-.324-1.598-.5-2.385-.5-1.814 0-2.994 1.264-2.994 2.895 0 .721.304 1.441.888 2.014.558.544 1.155.794 1.662 1.088.901.529 1.358 1.058 1.358 1.851 0 .809-.609 1.397-1.637 1.397-.393 0-.761-.074-1.116-.206l-.165-.22-.203-1.764h-.965v2.66z" stroke-width="1pt" transform="matrix(1.548 .522 -.451 1.469 180.517 -720.935)"/><path d="M337.56 659.83h6.813v-2.63h-.862l-.216 1.558-.165.235h-2.943v-3.822h1.649l.178.206.126 1.058h.749v-3.41h-.749l-.126 1.059-.178.205h-1.649v-3.498h2.524l.165.191.191 1.294h.888v-2.308h-6.395v.72l.774.074.203.206v7.834l-.203.235-.774.073v.72z" stroke-width="1pt" transform="matrix(1.467 .734 -.635 1.393 328.257 -743.699)"/><path d="M332.18 649.96h-3.704v.72l.774.074.203.235v7.805l-.203.235-.774.073v.72h3.704c1.269 0 2.22-.22 3.007-.925 1.028-.912 1.561-2.264 1.561-3.998 0-3.087-1.624-4.939-4.568-4.939zm-1.053.823h.736c2.017 0 2.994 1.338 2.994 4.101s-.977 4.115-2.994 4.115h-.736v-8.216z" stroke-width="1pt" transform="matrix(1.358 .936 -.812 1.289 478.707 -743.851)"/><path d="M356.84 649.96v.72l.749.074.203.206v7.834l-.203.235-.749.073v.72h3.578v-.72l-.774-.073-.203-.235v-3.307h.216c1.281 0 1.611.632 2.004 2.028.203.705.317 1.367.977 1.955.305.279.774.455 1.32.455.393 0 .824-.044 1.268-.117v-.706h-.165c-.85 0-1.23-.22-1.497-1.029-.241-.734-.342-1.528-.736-2.175-.291-.47-.723-.749-1.332-.911 1.434-.309 2.183-1.161 2.183-2.513 0-1.632-1.015-2.514-2.982-2.514h-3.857zm2.601.838h.584c1.23 0 1.877.676 1.877 1.881 0 1.353-.647 1.97-2.004 1.97l-.457-.015v-3.836z" stroke-width="1pt" transform="matrix(1.588 .352 -.311 1.511 75.829 -686.677)"/><path d="M405.15 649.96v.72l.749.074.203.206v7.834l-.203.235-.749.073v.72h3.578v-.72l-.774-.073-.203-.235v-3.307h.216c1.281 0 1.611.632 2.004 2.028.203.705.318 1.367.977 1.955.305.279.774.455 1.32.455.393 0 .824-.044 1.268-.117v-.706h-.165c-.85 0-1.23-.22-1.497-1.029-.241-.734-.342-1.528-.735-2.175-.292-.47-.724-.749-1.332-.911 1.433-.309 2.182-1.161 2.182-2.513 0-1.632-1.015-2.514-2.982-2.514h-3.857zm2.601.838h.584c1.23 0 1.877.676 1.877 1.881 0 1.353-.647 1.97-2.004 1.97l-.457-.015v-3.836z" stroke-width="1pt" transform="matrix(1.751 -.299 .241 1.524 -347.17 -445.357)"/><path d="M467.82 625.48c.625-.937 7.187-11.875 7.187-11.875l-3.598-2.538c-1.105 3.094-5.152 4.101-5.777 7.851s2.813 7.5 2.188 6.562z" fill-rule="evenodd" transform="matrix(-1.478 0 0 1.544 1072.425 -523.975)" stroke="#000" stroke-width="1.16" fill="url(#i)"/><path d="M475 622.98s1.25-5.312-2.812-5.937c-4.063-.625-6.214 2.973-5.625 1.562.654-1.567 3.125-3.125 3.437-8.437.313-5.313-.312-8.125-.312-8.125s1.562-6.876 8.125-5.938c6.562.938 6.875 5.938 6.875 7.813l-.625 2.812-9.063 16.25z" fill-rule="evenodd" transform="matrix(-1.478 0 0 1.544 1073.36 -525.342)" stroke="#000" stroke-width="1.16" fill="url(#j)"/><path d="M396.85 605.91s-75.43-21.26-74.99-102.14l.581-106.91h148.82l.583 106.3c.44 80.882-74.993 102.76-74.993 102.76z" fill-rule="evenodd" fill-opacity=".996" transform="matrix(1.478 0 0 1.544 -99.382 -521.37)" stroke="#fff" stroke-width="3.867" fill="#0072c4"/><g fill-rule="evenodd"><path d="M339.69 420.17c.124 0 1.038-.83 1.875-1.562 1.169-.56 2.25-1.347 3.438-1.875.885-.49 2.634-.87 3.437-1.25 1.053-.527 1.912-1.134 2.813-2.188.108-1.398.313-2.402.313-4.062 1.243-.572 2.346-1.127 3.437-1.563 1.564-.421 1.903-1.019 3.438-1.25.988-.33 2.621-.313 4.062-.313 1.555 0 2.536 1.057 3.933 1.307 1.656.639 2.429 1.081 3.75 2.188.746.903 1.21 1.637 2.482 2.317 1.007.494 1.95 1.242 3.125 1.562 1.29.715 2.435 1.129 3.437 2.188.918.624 1.297 1.551 2.188 2.187 1.032.819 2.011 1.556 3.125 2.188 1.339.858 2.666 1.51 4.835 1.323 1.148-.065 2.384-.191 3.75.053 1.529 0 3.021-.026 4.375.313 1.594 0 2.884.206 4.375.312 1.397.25 2.821.313 4.375.313 1.355.338 2.846.312 4.375.312h8.75c1.592 0 3.204.062 4.375.313 1.577 0 2.933-.141 4.375-.313 1.697 0 2.991-.297 4.688-.312h5.313c1.364.357 3.107.602 4.062 1.25l3.125 1.25c.958.47 2.413 1.214 3.125 2.187.882.882 1.788 2.145 2.5 3.438.87 1.2 1.201 2.572 1.875 4.062.357 1.428.606 2.786.625 4.375.339 1.355.313 2.846.313 4.375-.357 1.425-.435 3.011-.938 4.375-.054 1.525-.373 2.905-.625 4.063-.278 1.279-.605 2.102-.625 3.75v4.375c-.11 1.435-.438 2.489-.625 4.062-.756 1.365-1.48 2.961-2.187 4.688-1.04.693-1.942 1.679-2.5 2.5-.667.394-1.053.992-.938 1.25 1.249.416.938 1.247.938 2.812.162 1.205.284 2.699.625 4.063.114 1.492.448 2.404.937 3.437.493.616.589.313-.625.313-.903.677-1.817.323-2.187-.938-.729-.841-.969-1.859-1.25-3.437-.173-1.447-.415-2.857-.938-3.75-.16-1.761-.65-1.743-2.5-1.875-.88-.746-2.042-.938-3.75-.938-1.701 0-1.844-.166-1.875 1.563v4.375c-.294 1.268-.939 2.296-1.25 3.437-.932.653-1.417 1.749-2.5 2.5-.516 1.419-1.266 1.666-2.813 1.875-.541-.646-1.423-1.489-1.875-2.187.875-1.404 1.639-1.616 2.188-3.125.664-1.244 1.054-2.051 1.562-3.125-.667-.982-1.266-1.425-1.875-2.813-.514-.756-1.226-2.383-1.562-3.437-1.026-.342-2.642-.397-3.438-.938-1.516-.337-1.94 1.25-3.749 1.25h-4.375c-1.935 0-2.418 1.033-4.063.938-.483.15-1.655-.066-3.438 0-1.306.435-2.879.312-4.375.312-1.585-.019-2.882-.368-4.062-.625-1.436-.376-2.864-.757-4.375-.937-1.835 0-2.518.14-3.75.937-.975.553-2.388 1.817-3.438 2.5-.444 1.037-.675 2.792-1.25 4.063-.332 1.219-.872 1.992-1.25 3.125-.423 1.057-.823 2.145-.937 3.75-.106 2.106-.587 1.848-1.875 1.25-.537-.872-1.393-1.831-1.875-2.813.284-1.59.604-2.381.625-4.062-.304-1.213-1.014-1.174-1.875-.313 0 1.636.079 2.898-.625 3.75-.352 1.291-.918 1.849-1.875 2.5-.468 1.16-1.507 1.691-2.5 2.188-.159-.053 0-.419 0-1.25-.749-1.429-.054-2.615-.054-4.375.019-1.578-.075-2.624.404-4.063 0-1.515-.735-2.956-.975-4.062-.581-1.161-.916-1.735-2.5-2.188-1.113-.423-2.717-.995-3.438-1.875-.907-1.125-1.486-1.588-2.812-2.187-1.438-.498-2.136-.954-3.125-1.563-.966-1.019-1.751-1.461-2.188-2.812-.652-.961-.764-2.746-1.25-4.063-.106-1.372-.517-2.647-.937-3.75-.186-1.372-.412-2.376-.938-3.75-.174-1.285-.562-2.629-.937-4.062 0-1.529.026-3.021-.313-4.375v-4.375c-.225-1.263-.308-3.112-.625-4.063 0-1.7-.189-2.66-.625-3.75-.715-1.104-.773-1.599-1.875-1.875-.796.971-2.108 1.367-3.75 1.563-1.147-.25-2.766-.413-4.063-.938-1.253-.295-2.11-.769-3.125-1.25-.555-.817-1.218-1.742-1.875-2.5-.194-1.632-.566-2.472-.625-4.062 0-1.193.03-.56 1.25-2.188z" stroke-opacity=".996" transform="matrix(1.478 0 0 1.544 -109.567 -519.992)" stroke-width="1pt" fill="#bcbcbc"/><path d="M358.2 431.43l.221-.221c-.502.502-.318.26.884-.221.672-.405 1.95-1.118 2.431-1.547.577-.253 1.496-.583 1.988-1.104.616-.628 1.231-1.149 1.989-1.768.875-.71 1.691-.943 2.652-1.547 1.25-.089 1.703-.601 2.872-.221 1.097.238 1.552.245 2.431-.663.887-.543 1.863-1.071 2.21-1.989v-1.325c-.017 1.444-.289 1.912-1.326 2.43-.723.792-1.624 1.688-1.989 2.431-.702.972-.851 1.516-1.547 1.989-.571.696-1.551 1.064-1.767 2.209.315.526.027.814.662.884.64.526 1.306.302 2.21 0 .899-.995 1.303-1.638 1.768-2.651.742-.969 1.157-1.43 1.547-2.21.768-.533 1.256-.948 1.547-1.768.889-.497 1.62-1.021 2.209-1.547.661-.406 1.011-.736 1.989-.884-.014 1.187-.198 1.748-.663 2.431-.22 1.231-.176 1.814.221 2.652.635.375.522.702.884 1.547.36-.731.543-2.21.663-3.094v-.221c0 .966.092 2.248-.221 2.873.015 1.288.314 1.863.663 2.872.372.487.635.803 1.105 1.105.044-1.275.377-2.115.442-3.314.308.925.205 2.148.442 3.093.08 1.04.474 1.846.884 2.652.503.297.674 1.174.883.442.523-1.555.536-3.256.884-4.862.063-.815.131-2.028.442-2.651l-.442 2.651c.063-.815.131-2.028.442-2.651v-.221c.206 1.164.401 2.288.442 3.535 0 .995-.067 2.008.221 2.873.735-.325 1.161-1.088 1.547-1.989.589-1.068.992-1.542 1.768-2.43l-1.768 2.43c.589-1.068.992-1.542 1.768-2.43v-.221c-.122 1.019-.221 1.979-.221 3.093 0 1.019-.012 2.174.221 2.873.26 1.172.616 1.389.663 2.651 0 .615-.084 1.243.221 1.547.952.238.955-.292 1.105-1.547.012-1.425.393-2.397.441-3.756 0-1.677.248.204.442.884.446.984.585 1.859.663 2.872 0 .615-.083 1.243.221 1.547.854-.338 1.192-1.292 1.768-1.768.44-1.047.895-1.509 1.326-2.209 1.145-.229 1.089-.679 1.105-1.989 0-1.057-.087-2.17.221-3.094.354-.96.688-2.029.884-2.872.413-.236.859.348 1.104.884.484.712.442 1.751.442 2.872.213.978.638 1.742 1.105 2.652.554 1.021 1.004 1.64 1.547 2.21.233.699.221 1.854.221 2.872.861-.935 1.026-2.329 1.105-3.756-.116-.971-.137-2.18-.442-3.094-.035-.973-.217-1.978-.442-2.651-.746-.343-.864-.647-.221-1.547.711-.588 1.479-.361 2.652-.221.593.593.837.91.884 2.209 0 1.177.052 2.082.442 2.873.432.636.861 1.073 1.104 2.21.339.277.601.725 1.105.221.277-.647.44-1.982.663-2.652.216-.839.605-1.251 1.105-1.547 0 1.23-.015 1.984.442 2.873.433.987.733 1.358 1.105 2.431.471.314.531.991 1.105 1.325.135-1.038.221-2.226.221-3.535v-3.094c.081-1.053.348-1.645.663-2.43.712.848.663 1.199.663 2.43.727-.259.849-.758 1.104-1.546.519-.437.661-.641.884.441.155 1.156.45 2.197.663 3.315.455.51.98 1.745 1.547 2.21.389.632.826 1.243 1.326 1.768.344.727.432 1.107 1.326 1.325 0-1.495.052-2.995-.221-4.419 0-1.27-.29-1.723-.442-2.873-.368-.762-.585-1.885-.442-2.209 1.035.982 1.503 1.552 1.989 2.651.518 1.062.955 1.776 1.325 2.873.511.419 1.416 1.677 1.768 2.21.789.674 1.173 1.376 1.989 1.988.422.38 1.314.592 1.547.442-.041-1.296-.247-2.408-.663-3.535-.015-1.237-.311-1.909-.663-2.652-.869-.717-1.528-1.206-1.989-2.21-.342-.28-.409-.489-.442-1.104 1.27 1.005 2.157 1.901 3.094 3.093.633.785.955 1.141 1.768 1.547.44.472 1.723 1.06 2.651 1.326.557.706 1.301 1.112 2.21 1.326l-2.21-1.326c.557.706 1.301 1.112 2.21 1.326v.221c-.111-1.382-.642-2.392-1.326-3.536-.576-1.209-1.103-1.657-1.989-2.431-.578-.875-1.225-1.391-2.209-1.988-.61-.686-1.523-1.825-1.989-2.21.942-.566 2.049.383 3.094.884.862.894 1.668 2.059 2.209 2.651.589 1.136 1.04 1.838 1.989 2.873.952.54 1.613 1.074 2.431 1.768 1.266.335.761-.108.442-1.105-.437-1.247-.048-1.267.884-.442.615.419 1.3 1.117 2.209 1.547.393.487.986.757 1.547.442.234-.312.221-.277.221-.663-.465-1.371-.897-2.439-1.989-2.873-.5-.61-1.314-1.336-1.988-1.989-.44-.647-.953-1.02-1.326-1.767l1.326 1.767c-.44-.647-.953-1.02-1.326-1.767h-.221c1.334.047 1.809.371 2.872.884.757.264 1.575.955 1.989 1.546.431.547 1.121 1.135 1.547 1.768.679.5 1.429 1.069 2.21 1.547.735.922.867 1.522.884 2.873.424.625.5 1.903.662 2.651-.162 1.215-.597.261-.662-.442-.187-.976-.576-.925-1.326-.663 0 1.335.154 1.7.663 2.652-.138.912-.455 1.579-.884 2.21-.516.294-.627-.65-1.105-1.105-.051-1.367-.453-1.517-1.326-2.21v.884c.493.943 1.013 1.803 1.105 3.094.341.985.442 1.607.442 2.872 0 1.082.018 2.136-.221 3.094 0 1.199-.207 1.713-.221 2.873v6.186999999999999c-.17.782-.221 1.801-.221 2.872l.221-2.872c-.17.782-.221 1.801-.221 2.872v.221c-.42-1.11-.877-2.115-1.105-3.314-.716-.678-1.171-1.377-1.547-2.21-.169-.948-.275-2.106-.442-2.873-.311-.778-.641-1.609-1.326-1.104-.271 1.647.071 2.628.663 4.198.347 1.041.309 1.859.663 2.873.512 1.168.924 1.336 0 2.651-.456.701-.7.923-.884 1.768-.817.409-1.022.591-1.104 1.547-.275-.86-.943-1.867-1.326-2.873-.396-1.058-.885-2.145-1.105-3.093-.536-.74-1.165-1.937-1.768-2.431-.555-.714-1.352-1.904-1.768-2.652-.846-.943-1.033-1.489-1.767-1.988-.189-.441-.414-.992-.884-.663 0 1.057-.087 2.169.221 3.093.223 1.303.615 2.026.663 3.315v2.431c-.531-1.245-1.098-2.356-1.547-3.536-.483-.66-.955-1.945-1.547-2.431-.376-.857-.669-1.568-1.105-2.209-.113-.642-.41-.635-.663-1.105.015 1.253.413 1.692.663 2.651.431.842.569 2.253.442 2.652-.557-1.549-1.061-3.242-1.768-4.64-.67-.908-1.324-2.075-1.768-2.873-.657-.759-1.333-.784-1.988-1.326-.597-.283-1.168-.599-1.547-1.105.174 1.165.628 1.893.884 2.873.145 1.111.656 2.001.884 2.873-.246 1.512-.603-.419-.884-1.105-.233-1.244-.664-1.935-1.105-2.652-.592-.403-1.131-1.118-1.768-1.547-.62-.238-.442.043-.442.884 0 1.367.052 2.27.442 3.094.441.648.442 1.493.442 2.651-.039 1.088-.221 1.961-.221 3.094v1.768c-.507-.94-.989-1.473-1.326-2.652-.767-1.003-.994-1.74-1.547-2.872-.49-.197-1.288-.36-1.767 0 .086 1.118.603 1.61.663 2.872-.881.863-.722 1.109-1.326-.221-.504-1.007-1.091-.96-1.768-1.547-1.109-.138-.757-.817-1.105-1.767 0-.851.088-1.71-.221-2.431-1.211 0-1.906-.042-2.651.663-.351.7-.227 1.964 0 2.872v3.094c-.252.774-.751.816-.884 1.768-.427.943-.568 1.984-.884 2.652-.787.679-.445.765-.884-.442v-7.072c0-1.201.181-1.786.221-2.872-.458-.916-.583-1.088-1.989-1.105-.342.571-.212 1.631 0 2.21 0 1.071.051 2.091.221 2.872 0 1.174.145 1.885.221 2.873-.042 1.171-.27 2.105-.884 2.652l-.884.884c-.799-.383-1.738-.904-2.43-1.547-.859-.262-1.669-.442-2.873-.442-1.465-.018-1.49-.188-1.989-1.326-.448-1.217-.659-2.276-.884-3.536-.486-1.034-.6-1.739-.884-2.872-.371-.675-.767-1.185-1.325-1.547-.32 1.117-.621 2.052-.663 3.315-.259.517-.313 1.834-.442 2.43-.444-.654-.618-1.94-.884-2.872-.419-1.34-.777-2.21-2.21-1.768-1.487.018-1.529.059-1.547 1.547.64.959 1.324 1.89 1.768 2.651v3.094c0 1.277.078 1.647-.884 1.989-.366-1.326-1.143-2.592-1.989-3.757-.116-.901-.406-.663-1.325-.663-.615 0-1.243-.083-1.547.221 0 .77.066 1.839 0 1.989-.533.094-.748-.005-1.105-.442-.386.643-.095 1.549 0 2.431-.281.983-.616 1.881-1.105 2.43v-.221c-1.517-.557-2.703-.901-3.977-1.325-.767.095-1.324.77-1.768 1.325-1.123.361-1.62.648-2.873.663-1.202 0-1.787.181-2.873.221-.781.17-1.801.221-2.872.221-.594-.169-1.632-.174-1.989-.442.456-.651.964-.98 1.326-1.988.605-.412 1.172-.94 1.768-1.547.583-.397 1.266-1.219 1.767-1.768.345-1.064.819-1.248 1.547-1.768 1.314.049 1.57.448 2.873.663 1.272.461 1.976.597 2.652-.221 1.055-.427 1.951-1.094 3.093-1.326.885-.423 1.452-.834 2.21-1.326.94-.541 1.388-1.097 2.21-1.767.235-.901.901-1.597.663-2.652-1.196-.299-1.955-.179-2.652.442-.967.762-1.15 1.079-2.21 1.768-.915.249-1.306.634-2.431.884-.923.308-2.036.221-3.093.221-.966 0-2.248-.092-2.873.221.983-.633 2.164-1.291 3.094-1.547.892-.573 1.229-.863 2.431-.884.558-.698 1.133-.715 1.325-1.768.374-1.307-.815-.893-1.767-.442-.898.158-1.889.766-2.652 1.105-.737.246-1.814.429-2.873.442-.279-.398.218-.716.442-1.326 1.032-.35 1.198-.479 1.326-1.547-1.17.155-1.617.523-2.652.663-1.128.282-2.298.407-3.535.442h-3.094c-1.086-.04-1.671-.221-2.872-.221-.88-.44-.884-.649-.884-1.989.693-.762 1.367-.662 2.651-.662.989-.465 1.758-.712 2.431-1.105.8-.165 1.346-.492 1.105-.884h-3.094c-1.191-.482-.054-.703.663-1.105 1.075 0 2.184.061 2.873.442 1.329-.049 1.792-.451 2.872-1.326.847-.667 1.262-1.093 2.21-1.547.681-.719 1.324-1.115 1.768-1.768.909-.827 1.511-1.286 1.989-1.988.585-.308.942-.706.663-1.105-1.385.161-1.945.643-2.873 1.326-.539.513-1.062.973-1.768 1.326-.995.565-1.615.794-2.872.883-1.134 0-2.006-.182-3.094-.221-1.2-.12-.095-.387.221-.883.464-.31.826-.998.442-1.547-.924-.308-2.036-.221-3.094-.221h-3.093c-1.168-.043-1.662-.299-2.431-.663-.238-.62.043-.442.884-.442 1.065-.04 1.82-.179 2.873-.442 1.039-.283 1.169-.614 1.325-1.768-1.019 0-2.173.012-2.872-.221h-1.989z" transform="matrix(1.478 0 0 1.544 -109.567 -519.992)" stroke-width="1pt" fill="#fefefe"/><path d="M339.06 426.42c-.194-1.632-.566-2.472-.625-4.062 0-1.193.03-.56 1.25-2.188.124 0 1.038-.83 1.875-1.562 1.169-.56 2.25-1.347 3.438-1.875.885-.49 2.634-.87 3.437-1.25 1.053-.527 1.912-1.134 2.813-2.188.108-1.398.313-2.402.313-4.062 1.243-.572 2.346-1.127 3.437-1.563 1.564-.421 1.903-1.019 3.438-1.25.988-.33 2.621-.313 4.062-.313 1.555 0 2.536 1.057 3.933 1.307 1.656.639 2.429 1.081 3.75 2.188.746.903 1.21 1.637 2.482 2.317 1.007.494 1.95 1.242 3.125 1.562.01 1.128.261.933-.581.933-.089 1.156-.378 1.084-1.547 1.105-.896-.466-1.535-1.093-1.989-1.768.442-1.148.149.929 0 1.326-.568.447-.906.923-1.547.442-.359-1.078-.662-1.823-.662-3.093-.168-1.381-.572-.379-.884.221-.299 1.114-.163 1.517.221 2.43-1.127 0-1.991-.102-2.873-.221-.82-.195-1.741.045-2.652.442-1.157.695-.797.7-.221 1.547 1.021.288 1.755.829 2.652 1.326 1.02-.194 2.085-.411 3.094-.663 1.053-.351 2.017-.128 3.093 0 .534.267 1.236.321 1.547.663 0 .683.057 1.397-.221 1.768-.46.292-.896 1.101-1.547 1.325-.974.534-1.996.87-3.093 1.105-1.354.049-1.849.333-2.873.884-.168 1.117-.509 1.432-1.547 1.768-1.033.431-1.854.663-3.093.663-.615 0-1.243.083-1.547-.221.984-1.074 1.28-1.58 1.768-2.652.191-.447.591-.734.221-1.105-1.309.049-1.651.041-1.768 1.326-.148 1.164-.616 1.359-1.547 1.768.251-1.078.293-1.906.663-2.873-.782.17-1.801.221-2.873.221-.669.406-.948.564-.663 1.326-.888.296-1.969.114-3.093 0-.939-.049-.421-.456-1.105-.884-.448-.841-.963-1.046-1.989-1.105-.509.609-1.452.861-1.989 1.326-.968.323-1.584.055-2.43-.442-1.104.033-.956.373-.663 1.105.421.281-.026.587.663.663.635.551 1.178.663 2.43.663.958-.239 2.013-.221 3.094-.221 1.091.032.884.279.884 1.326-.713.483-1.752.442-2.873.442-1.066-.127-1.884-.391-2.651-.663-1.035-.074-1.863-.263-2.652 0-.356.377-1.428.542-.221.663.475.428 3.032.221 3.214.949.603.641.469 1.482-.562 1.482-.626-.313-1.109-.236-1.547 0-.736.184-1.61.05-2.894.142 1.677.132-1.218-1.742-1.875-2.5z" transform="matrix(1.478 0 0 1.544 -109.567 -519.992)" stroke-width="1pt" fill="#fefefe"/><path d="M346.04 419.06c-.073 0-.733.439-1.326.884-.971.497-2.008 1.343-2.652 1.768-.507.388-.504.557-1.104.663 1.053-.143 1.522-.399 2.43-.884 1.148-.132 2.26-.365 2.873-.884.575-.192-.043-1.073-.221-1.547z" transform="matrix(1.478 0 0 1.544 -109.567 -519.992)" stroke-width="1pt" fill="#bcbcbc"/><path d="M356.21 408.67c.127 0 .386.691.883 1.105.318.848.611 1.447.663 2.431.271-1.08.734-1.948.884-3.094-.344-.582-.367-.855-1.326-.884 0 .597.073.207-1.104.442z" transform="matrix(1.478 0 0 1.544 -109.567 -519.992)" stroke-width="1pt" fill="#bcbcbc"/><path d="M349.36 417.73c-.494 0 .871-.492 1.326-.663.364-.767.653-1.31 1.326-1.767 1.107.085 1.65.404 2.21 1.104.93.254 1.265.697 2.431.884.433.366 1.019.408 0 .663-.693.366-1.564.442-2.652.442-1.14.082-1.954.333-2.652.663-1.479 0-1.242.049-1.989-1.326z" transform="matrix(1.478 0 0 1.544 -109.567 -519.992)" stroke="#000" stroke-width=".875" fill="#c4c4c2"/><path d="M360.18 408.89v.221c0-.596-.014-.292.221.884.365.741.442 1.536.442 2.652.58-.414 1.064-1.24 1.326-1.989 0-1.745-.247-1.642-1.989-1.768z" transform="matrix(1.478 0 0 1.544 -109.567 -519.992)" stroke-width="1pt" fill="#bcbcbc"/><path d="M368.36 434.3h.221c-.65 0-.284.038.884-.663.756-.504 1.375-1.249 2.431-1.547 1.023-.803 1.81-1.179 2.872-1.546.518-.238.975-.651 1.547-.221-.164 1.09-.353 1.502-1.326 1.988-.503.63-1.295.998-1.988 1.326-.719.316-1.51.332-1.768 1.105-1.202.529-1.35.44-2.873-.442z" transform="matrix(1.478 0 0 1.544 -109.567 -519.992)" stroke-width="1pt" fill="#bcbcbc"/><path d="M372.56 440.71c.394-.298 1.778-1.678 2.43-2.209.738-.973 1.484-1.717 2.21-2.21.644-.948 1.469-1.583 1.989-2.431.614-.743 1.066-1.372 1.768-2.209 0 .966-.092 2.247.22 2.872 0 1.335-.154 1.7-.662 2.652-.502.782-.876 1.3-1.989 1.768-1.004.532-1.606.719-2.431 1.325-.629.387-1.284.772-1.989 1.105-.632.271-.342.153-1.546-.663z" transform="matrix(1.478 0 0 1.544 -109.567 -519.992)" stroke-width="1pt" fill="#bcbcbc"/><path d="M365.71 445.79h.221c-.65 0-.285.038.884-.663.943-.943 1.694-1.271 2.873-1.768.897-.069 1.982-.292 2.652-.663.534-.094.906-.419 1.325 0 .694.938.885 1.203-.221 1.768-.529.449-1.462.901-2.209 1.105-.552.455-1.644.483-2.652.663-.903 0-1.405.102-1.768-.442l1.768.442c-.903 0-1.405.102-2.873-.442z" transform="matrix(1.478 0 0 1.544 -109.567 -519.992)" stroke-width="1pt" fill="#bcbcbc"/><path d="M375.21 445.79v-.221c0 .617-.027.29.442-.884.828-1.236 1.14-1.918 2.21-2.21.501-.606 1.369-.763 2.431-1.105.398.664.092 1.438 0 2.21-.289.825-1.077 1.407-1.547 1.989-.689.468-.97.918-1.989 1.105-.843 0-.396-.021-1.547-.884z" transform="matrix(1.478 0 0 1.544 -109.567 -519.992)" stroke-width="1pt" fill="#bcbcbc"/><path d="M412.746 124.246c0 .943-.731 1.707-1.632 1.707-.901 0-1.632-.764-1.632-1.707 0-.943.731-1.707 1.632-1.707.901 0 1.632.764 1.632 1.707z"/></g><g stroke-opacity=".996" fill-rule="evenodd" fill-opacity=".996" stroke="#002b0d" stroke-width="1pt" fill="#005120"><path d="M416.486 219.256h1.306c-4.093 0-1.647-.286 5.221 5.458 2.877-2.506 2.843-2.844 5.223 1.365 1.374 2.396 1.777-.244 3.916-2.728 1.031 4.958 1.691 10.156 5.223 5.458 4.034 0 8.256-.35 10.444 1.365 2.644 5.134 1.778-.871 3.917 1.365 5.748.721 5.639-5.154 11.9-6.673 3.892 5.084 5.596 1.172 10.445-1.363 3.601 1.053 6.995 6.764 7.68 1.212 2.948-5.027 3.205-4.6 5.223 0 2.867 2.699 4.075-1.349 6.527-2.728 4.37 2.673 9.245 3.043 15.667 1.365 1.087 4.546 3.828 2.574 6.527 1.363 5.775 2.537 7.79 3.313 14.361 0 3.255-4.021 1.412.113 3.916 2.73 4.868-1.58 3.524-1.915 9.14-1.365 5.644 0 6.1-.142 7.833-4.093 2.836 2.964 3.861 5.101 7.833 1.365 6.085.187 4.204.803 7.834-1.365 2.685 6.216 3.316 1.725 6.527 4.093-2.115 5.606-5.364 8.236-9.138 10.918-2.511 4.348-4.081 9.043-9.138 10.919-3.69 3.934-7.621 6.215-11.75 9.553-5.66 1.479-11.89 1.365-18.278 1.365h-54.83c-3.899 2.037-10.277 3.008-15.667 4.093-6.019 0-12.841.074-16.971-1.365-2.799-2.924-7.708-6.193-10.444-9.553-2.768-2.333-2.848-6.886-5.223-9.553-2.184-3.905-2.859-10.014-5.221-13.647v-9.553z"/><path d="M543.109 231.547v1.365c0-3.815.161-1.788-2.611 5.458-.561 1.76-1.79 2.174-3.917 2.73"/><path d="M531.367 236.997h1.306c-4.834 4.773-8.088 6.971-9.14 12.283l9.14-12.283c-4.834 4.773-8.088 6.971-9.14 12.283"/><path d="M513.082 230.188c0 .122-.183 4.868-1.306 6.823"/><path d="M507.868 239.73v1.365-1.365z"/><path d="M497.425 231.547h1.306-1.306z"/><path d="M424.314 231.547c.623 0 3.192 4.332 6.527 6.823-.83 3.993-2.106 8.612 0 12.283"/><path d="M434.756 239.73c.623 0 3.192 4.334 6.528 6.824l-6.528-6.824c.623 0 3.192 4.334 6.528 6.824v1.365c0-4.217-.335-8.633 1.304-10.919 1.452 2.568 3.285 6.696 3.917 2.73 7.353-.275 10.902-2.433 15.667-4.093 0 2.007-.309 1.042 1.306 2.728"/><path d="M552.252 232.905h1.306c-2.462 2.145-4.351 6.519-6.528 9.553"/><path d="M498.725 228.814h10.444"/></g><path d="M413.313 239.249l-36.598 16.405c-.302 0-.588-.025-.883-.037v.993c-.059 11.371.835 21.963 2.464 31.852 14.481-1.058 19.86-16.405 35.016-16.405l36.634 16.442s20.936-16.442 36.634-16.442 20.936 16.442 36.634 16.442 20.936-16.442 36.634-16.442c15.116 0 20.51 15.239 34.905 16.367 1.724-10.154 2.636-21.064 2.575-32.772v-.037c-.294.012-.581.037-.883.037l-36.598-16.405s-20.936 16.405-36.634 16.405-20.936-16.405-36.634-16.405-20.936 16.405-36.634 16.405-20.936-16.405-36.634-16.405z" fill-rule="evenodd" stroke-width="NaN" fill="#fff"/><path d="M413.313 303.289c-12.211 0-18.086 9.899-27.476 14.308 3.281 9.045 7.246 17.277 11.66 24.828 4.459-3.372 9.199-6.29 15.817-6.29 15.689-.012 20.927 16.396 36.628 16.396l36.634-16.405 36.634 16.405s20.936-16.405 36.634-16.405c6.47 0 11.147 2.792 15.522 6.069 4.413-7.515 8.394-15.734 11.696-24.717-9.242-4.468-15.119-14.197-27.218-14.197l-36.634 16.405s-20.936-16.405-36.634-16.405l-36.634 16.405s-20.936-16.405-36.634-16.405z" fill-rule="evenodd" stroke-width="NaN" fill="#fff"/><path d="M486.569 367.318l-36.634 16.442c-14.846 0-20.34-14.697-34.169-16.294 18.484 20.59 39.444 33.056 53.737 39.907 4.834-3.752 9.84 4.561 17.067 4.561 7.175 0 12.154-8.356 16.956-4.634 14.136-6.882 34.84-19.368 53.223-39.76-13.378 1.956-18.924 16.22-33.544 16.22l-36.634-16.442z" fill-rule="evenodd" stroke-width="NaN" fill="#fff"/><g transform="matrix(1.177 0 0 1.177 -406.912 -18.221)"><path d="M332.54 541.35c1.744-.581 10.173-3.197 10.464-2.907.291.291 16.278 15.697 16.278 15.697l-13.371 2.616-13.371-15.406z" stroke-opacity=".996" transform="matrix(1.255 0 0 1.312 259.35 -430)" stroke="#512007" stroke-width=".475" fill="none"/><path d="M413.64 471.01c.291-4.651 8.72-31.103 8.72-31.103" stroke-opacity=".996" transform="matrix(1.063 0 0 1.029 276.8 -177.96)" stroke="#512007" stroke-width=".594" fill="none"/><path d="M416.54 471.32c0-.291 6.686-31.127 6.686-31.127" stroke-opacity=".996" transform="matrix(1.063 0 0 1.029 276.8 -177.96)" stroke="#512007" stroke-width=".594" fill="none"/><path d="M418.83 471.37c.29-1.744 5.558-31.175 5.558-31.175" stroke-opacity=".996" transform="matrix(1.063 0 0 1.029 276.8 -177.96)" stroke="#512007" stroke-width=".594" fill="none"/><path d="M413.93 467.23c1.453-.872 5.813-2.035 5.813-2.035" stroke-opacity=".996" transform="matrix(1.063 0 0 1.029 276.8 -177.96)" stroke="#512007" stroke-width=".594" fill="none"/><path d="M415.96 462.58c1.453 0 4.36-1.163 4.36-1.163" stroke-opacity=".996" transform="matrix(1.063 0 0 1.029 276.8 -177.96)" stroke="#512007" stroke-width=".594" fill="none"/><path d="M416.83 459.09c0-.291 4.36-1.163 4.36-1.163" stroke-opacity=".996" transform="matrix(1.063 0 0 1.029 276.8 -177.96)" stroke="#512007" stroke-width=".594" fill="none"/><path d="M417.41 454.73l4.651-.872" stroke-opacity=".996" transform="matrix(1.063 0 0 1.029 276.8 -177.96)" stroke="#512007" stroke-width=".594" fill="none"/><path d="M419.45 450.95c0 .291 3.197.291 3.197.291" stroke-opacity=".996" transform="matrix(1.063 0 0 1.029 276.8 -177.96)" stroke="#512007" stroke-width=".594" fill="none"/><path d="M420.32 447.46c.581 0 3.197.581 3.197.581" stroke-opacity=".996" transform="matrix(1.063 0 0 1.029 276.8 -177.96)" stroke="#512007" stroke-width=".594" fill="none"/><path d="M413.64 471.01c.291-4.651 8.72-31.103 8.72-31.103" stroke-opacity=".996" transform="matrix(-1.255 0 0 1.762 1290.4 -502.06)" stroke="#512007" stroke-width=".41" fill="none"/><path d="M416.54 470.13c0-.291 6.686-29.94 6.686-29.94" stroke-opacity=".996" transform="matrix(-1.255 0 0 1.762 1290.4 -502.06)" stroke="#512007" stroke-width=".41" fill="none"/><path d="M419.45 467.81c.29-1.744 4.941-27.614 4.941-27.614" stroke-opacity=".996" transform="matrix(-1.255 0 0 1.762 1290.4 -502.06)" stroke="#512007" stroke-width=".41" fill="none"/><path d="M413.93 467.23c1.453-.872 5.813-2.035 5.813-2.035" stroke-opacity=".996" transform="matrix(-1.255 0 0 1.762 1290.4 -502.06)" stroke="#512007" stroke-width=".41" fill="none"/><path d="M415.96 462.58c1.453 0 4.36-1.163 4.36-1.163" stroke-opacity=".996" transform="matrix(-1.255 0 0 1.762 1290.4 -502.06)" stroke="#512007" stroke-width=".41" fill="none"/><path d="M416.83 459.09c0-.291 4.36-1.163 4.36-1.163" stroke-opacity=".996" transform="matrix(-1.255 0 0 1.762 1290.4 -502.06)" stroke="#512007" stroke-width=".41" fill="none"/><path d="M417.41 454.73l4.651-.872" stroke-opacity=".996" transform="matrix(-1.255 0 0 1.762 1290.4 -502.06)" stroke="#512007" stroke-width=".41" fill="none"/><path d="M419.45 450.95c0 .291 3.197.291 3.197.291" stroke-opacity=".996" transform="matrix(-1.255 0 0 1.762 1290.4 -502.06)" stroke="#512007" stroke-width=".41" fill="none"/><path d="M420.32 447.46c.581 0 3.197.581 3.197.581" stroke-opacity=".996" transform="matrix(-1.255 0 0 1.762 1290.4 -502.06)" stroke="#512007" stroke-width=".41" fill="none"/><path d="M413.64 471.01c.291-4.651 8.72-31.103 8.72-31.103" stroke-opacity=".996" transform="matrix(-1.255 0 0 1.312 1321.3 -301.92)" stroke="#512007" stroke-width=".475" fill="none"/><path d="M416.54 470.13c0-.291 6.686-29.94 6.686-29.94" stroke-opacity=".996" transform="matrix(-1.255 0 0 1.312 1321.3 -301.92)" stroke="#512007" stroke-width=".475" fill="none"/><path d="M419.45 467.81c.29-1.744 4.941-27.614 4.941-27.614" stroke-opacity=".996" transform="matrix(-1.255 0 0 1.312 1321.3 -301.92)" stroke="#512007" stroke-width=".475" fill="none"/><path d="M413.93 467.23c1.453-.872 5.813-2.035 5.813-2.035" stroke-opacity=".996" transform="matrix(-1.255 0 0 1.312 1321.3 -301.92)" stroke="#512007" stroke-width=".475" fill="none"/><path d="M415.96 462.58c1.453 0 4.36-1.163 4.36-1.163" stroke-opacity=".996" transform="matrix(-1.255 0 0 1.312 1321.3 -301.92)" stroke="#512007" stroke-width=".475" fill="none"/><path d="M416.83 459.09c0-.291 4.36-1.163 4.36-1.163" stroke-opacity=".996" transform="matrix(-1.255 0 0 1.312 1321.3 -301.92)" stroke="#512007" stroke-width=".475" fill="none"/><path d="M417.41 454.73l4.651-.872" stroke-opacity=".996" transform="matrix(-1.255 0 0 1.312 1321.3 -301.92)" stroke="#512007" stroke-width=".475" fill="none"/><path d="M419.45 450.95c0 .291 3.197.291 3.197.291" stroke-opacity=".996" transform="matrix(-1.255 0 0 1.312 1321.3 -301.92)" stroke="#512007" stroke-width=".475" fill="none"/><path d="M420.32 447.46c.581 0 3.197.581 3.197.581" stroke-opacity=".996" transform="matrix(-1.255 0 0 1.312 1321.3 -301.92)" stroke="#512007" stroke-width=".475" fill="none"/><path d="M395.32 572.16c0-.291.872-72.96.872-72.96s2.616-.291 2.616 0-.29 72.669-.581 72.96-3.198.581-2.907 0z" stroke-opacity=".996" fill-rule="evenodd" transform="matrix(1.255 0 0 1.312 259.35 -430)" stroke="#512007" stroke-width=".475" fill="#dd8b59"/><path d="M423.81 502.4c0 .582-.582 61.333-.582 61.333l-2.035 2.326.582-63.659h2.035z" stroke-opacity=".996" fill-rule="evenodd" transform="matrix(1.255 0 0 1.312 259.35 -430)" stroke="#512007" stroke-width=".475" fill="#dd8b59"/><path d="M363.06 560.24s2.907 29.94 36.335 29.068l42.729-30.23s-14.243-.582-14.534-.582c-.29 0-11.627 13.953-26.161 13.662s-19.184-3.779-22.382-6.685c-3.197-2.907-6.104-7.267-6.104-7.267l-16.859-6.686.872 6.395 6.104 2.325z" stroke-opacity=".996" fill-rule="evenodd" transform="matrix(1.255 0 0 1.312 259.35 -430)" stroke="#512007" stroke-width=".475" fill="#dd8b59"/><path d="M453.3 557.13c-.291-.872-1.007-3.866-1.007-3.866v-3.488l1.609-3.532s-25.289 3.623-25.289 3.914c0-.335-.156 6.885-.156 6.885l24.843.087z" stroke-opacity=".996" fill-rule="evenodd" transform="matrix(1.255 0 0 1.312 259.35 -430)" stroke="#512007" stroke-width=".475" fill="#dd8b59"/><path d="M448.52 549.78l-.581 6.104h4.069l-.29-6.104h-3.198z" stroke-opacity=".996" transform="matrix(1.255 0 0 1.312 259.35 -430)" stroke="#512007" stroke-width=".475" fill="none"/><path d="M444.16 550.07l-.291 6.394 2.616-.29.291-6.104h-2.616z" stroke-opacity=".996" transform="matrix(1.255 0 0 1.312 259.35 -430)" stroke="#512007" stroke-width=".475" fill="none"/><path d="M439.8 556.46v-4.941l2.616-.872.291 4.941-2.907.872z" stroke-opacity=".996" transform="matrix(1.255 0 0 1.312 259.35 -430)" stroke="#512007" stroke-width=".475" fill="none"/><path d="M434.85 556.18l.582-4.36 2.906.29.291 4.651-3.779-.581z" stroke-opacity=".996" transform="matrix(1.255 0 0 1.312 259.35 -430)" stroke="#512007" stroke-width=".475" fill="none"/><path d="M429.33 556.18l.291-3.779 2.907-.291v4.36l-3.198-.29z" stroke-opacity=".996" transform="matrix(1.255 0 0 1.312 259.35 -430)" stroke="#512007" stroke-width=".475" fill="none"/><path d="M361.89 559.95c.872 0 7.558 1.453 7.558 1.453l6.976 9.302" stroke-opacity=".996" transform="matrix(1.255 0 0 1.312 259.35 -430)" stroke="#512007" stroke-width=".475" fill="none"/><path d="M366.84 561.12c.29.291 6.104 19.766 34.009 19.766l34.591-22.091" stroke-opacity=".996" transform="matrix(1.255 0 0 1.312 259.35 -430)" stroke="#512007" stroke-width=".475" fill="none"/><path d="M439.8 559.37s-13.371 29.068-38.951 27.033c-25.58-2.034-29.649-11.627-31.684-16.568-2.035-4.942-3.197-9.011-3.197-9.011" stroke-opacity=".996" transform="matrix(1.255 0 0 1.312 259.35 -430)" stroke="#512007" stroke-width=".475" fill="none"/><path d="M373.23 558.21c.29-1.745.29-54.357.29-54.357l-1.744-.291-.29 53.776 1.744.872z" stroke-opacity=".996" fill-rule="evenodd" transform="matrix(1.255 0 0 1.312 259.35 -430)" stroke="#512007" stroke-width=".475" fill="#dd8b59"/><path d="M331.66 541.06l22.091 10.755-.581 1.453s-21.22-9.883-21.22-10.174c0-.29.291-1.453-.29-2.034z" stroke-opacity=".996" fill-rule="evenodd" transform="matrix(1.255 0 0 1.312 259.35 -430)" stroke="#512007" stroke-width=".475" fill="#dd8b59"/><path d="M341.84 537.86c0 .872 3.198 18.603 3.198 18.603s2.035.291 2.035 0c0-.29-3.489-18.312-3.489-18.312l-1.744-.291z" stroke-opacity=".996" fill-rule="evenodd" transform="matrix(1.255 0 0 1.312 259.35 -430)" stroke="#512007" stroke-width=".475" fill="#dd8b59"/><path d="M362.18 538.44c1.163 0 20.929-3.197 20.929-3.197l-.291 3.197-19.475 2.035-1.163-2.035z" stroke-opacity=".996" fill-rule="evenodd" transform="matrix(1.255 0 0 1.312 259.35 -430)" stroke="#512007" stroke-width=".475" fill="#dd8b59"/><path d="M365.09 514.32c.581 0 6.976 3.198 9.592 2.326s.872-2.907 1.453-2.907c.582 0 2.616 1.453 3.779.29 1.163-1.162 2.035-4.65 1.454-4.36-.582.291-15.988 5.814-16.278 4.651z" stroke-opacity=".996" fill-rule="evenodd" transform="matrix(1.255 0 0 1.312 259.35 -430)" stroke="#512007" stroke-width=".475" fill="#fecf3e"/><path d="M362.48 521.58c1.163.291 23.836-6.104 23.836-6.104s0 2.035-.291 2.035c-.29 0-23.545 6.104-23.545 6.104v-2.035z" stroke-opacity=".996" fill-rule="evenodd" transform="matrix(1.255 0 0 1.312 259.35 -430)" stroke="#512007" stroke-width=".475" fill="#dd8b59"/><path d="M415.09 512.57s1.454 3.488 2.907 2.907l2.907-1.744s1.163 2.907 3.197 2.325c2.035-.581 3.198-3.779 3.198-3.779s2.034.582 2.906.291c.873-.291 2.035-4.941 2.035-4.941l-17.15 4.941z" stroke-opacity=".996" fill-rule="evenodd" transform="matrix(1.255 0 0 1.312 259.35 -430)" stroke="#512007" stroke-width=".475" fill="#fecf3e"/><path d="M413.34 540.77c-.291.581 1.454 2.035 2.907 2.035s2.035-2.035 2.325-1.454c.291.582.291 3.198 4.07 2.326l3.779-3.488s-1.163.872 1.453 1.162c2.616.291 5.232-3.779 4.942-3.779-.291 0-18.894 3.489-19.476 3.198z" stroke-opacity=".996" fill-rule="evenodd" transform="matrix(1.255 0 0 1.312 259.35 -430)" stroke="#512007" stroke-width=".475" fill="#fecf3e"/><path d="M363.35 513.15c-.291 1.163.29 2.617.29 2.617l18.894-6.395s.872-1.454 0-1.454-19.475 5.814-19.184 5.232z" stroke-opacity=".996" fill-rule="evenodd" transform="matrix(1.255 0 0 1.312 259.35 -430)" stroke="#512007" stroke-width=".475" fill="#dd8b59"/><path d="M388.35 509.08c.581 0 19.475-6.104 19.475-6.104s.291 2.616 0 2.616c-.29 0-17.731 5.232-17.731 5.232l-1.744-1.744z" stroke-opacity=".996" fill-rule="evenodd" transform="matrix(1.255 0 0 1.312 259.35 -430)" stroke="#512007" stroke-width=".475" fill="#dd8b59"/><path d="M413.34 521.88s-2.907 3.197-2.035 7.557c.872 4.361 2.035 8.139 2.326 8.139s3.488-5.813 6.976-6.104l9.883 3.198s-.872-6.977-.581-10.174c.29-3.198 5.232-8.72 5.232-8.72l-21.801 6.104z" stroke-opacity=".996" fill-rule="evenodd" transform="matrix(1.255 0 0 1.312 259.35 -430)" stroke="#512007" stroke-width=".475" fill="#fecf3e"/><path d="M386.89 516.64s-.581 2.616-.29 2.616c.29 0 24.707-6.395 24.707-6.395v-1.744l-24.417 5.523z" stroke-opacity=".996" fill-rule="evenodd" transform="matrix(1.255 0 0 1.312 259.35 -430)" stroke="#512007" stroke-width=".475" fill="#dd8b59"/><path d="M355.5 551.82s-5.813-.872-5.523.581c.291 1.453 2.907 2.907 3.198 3.779.29.872-.872 4.069.872 3.779 1.744-.291 3.488-1.454 3.488-2.326l-.291-4.941-1.744-.872z" stroke-opacity=".996" fill-rule="evenodd" fill-opacity=".996" transform="matrix(1.255 0 0 1.312 259.35 -430)" stroke="#512007" stroke-width=".475" fill="#b6b6b4"/><path d="M387.76 537.28v2.034l20.929-2.906-.581-1.454-20.348 2.326z" stroke-opacity=".996" fill-rule="evenodd" transform="matrix(1.255 0 0 1.312 259.35 -430)" stroke="#512007" stroke-width=".475" fill="#dd8b59"/><path d="M363.06 540.77c.291 0 0 2.616 2.325 2.035 2.326-.582 2.907-2.035 2.907-2.035s.581 3.197 3.779 2.907c3.197-.291 4.941-3.779 4.941-3.779s.291 2.616 2.326 1.744l2.616-2.907-18.313 2.616-.581-.581z" stroke-opacity=".996" fill-rule="evenodd" transform="matrix(1.255 0 0 1.312 259.35 -430)" stroke="#512007" stroke-width=".475" fill="#fecf3e"/><path d="M363.06 523.62s-2.616.872-1.744 6.104 2.907 8.139 3.197 8.139c.291 0 2.616-4.941 6.104-5.813 3.489-.873 9.593 2.616 9.593 2.616s-.582-4.651.291-9.011c.872-4.361 3.778-7.558 3.778-7.558s-20.347 5.523-21.219 5.523z" stroke-opacity=".996" fill-rule="evenodd" transform="matrix(1.255 0 0 1.312 259.35 -430)" stroke="#512007" stroke-width=".475" fill="#fecf3e"/><path d="M411.89 538.73l.29 1.744s20.929-2.616 20.929-2.907c0-.29 0-2.034-.29-2.034-.291 0-20.639 3.488-20.929 3.197z" stroke-opacity=".996" fill-rule="evenodd" transform="matrix(1.255 0 0 1.312 259.35 -430)" stroke="#512007" stroke-width=".475" fill="#dd8b59"/><path d="M411.6 520.13l.291 2.034 24.707-6.685s.582-1.744.291-1.744-24.708 7.267-25.289 6.395z" stroke-opacity=".996" fill-rule="evenodd" transform="matrix(1.255 0 0 1.312 259.35 -430)" stroke="#512007" stroke-width=".475" fill="#dd8b59"/><path d="M414.22 510.83s-.29 1.744 0 1.744c.291 0 18.313-4.36 18.313-4.651 0-.29 1.744-2.035.291-1.744-1.454.291-18.022 5.523-18.604 4.651z" stroke-opacity=".996" transform="matrix(1.255 0 0 1.312 259.35 -430)" stroke="#512007" stroke-width=".475" fill="none"/><path d="M452.88 544.55l-18.03-28.49" stroke-opacity=".996" transform="matrix(1.255 0 0 1.312 259.35 -430)" stroke="#512007" stroke-width=".475" fill="none"/><path d="M432.53 535.83c.291-.872 1.163-18.312 1.163-18.312" stroke-opacity=".996" transform="matrix(1.255 0 0 1.312 259.35 -430)" stroke="#512007" stroke-width=".475" fill="none"/><path d="M388.93 509.96c1.163.291 3.198 3.197 4.36 2.616 1.163-.581 2.907-2.325 2.907-2.325s-.291 3.488 2.035 2.906c2.325-.581 2.616-2.906 2.616-2.906s1.744.872 3.197 0c1.454-.872 2.907-5.233 2.326-5.233s-16.859 5.233-17.441 4.942z" stroke-opacity=".996" fill-rule="evenodd" transform="matrix(1.255 0 0 1.312 259.35 -430)" stroke="#512007" stroke-width=".475" fill="#fecf3e"/><path d="M388.35 518.39c0 .581-2.907 5.232-2.035 9.592s2.616 8.43 2.907 8.43 4.651-4.651 8.43-5.523c3.778-.872 9.301 2.907 9.011 2.907-.291 0-1.454-4.361-1.454-7.558 0-3.198 4.36-13.081 4.36-13.081l-21.219 5.233z" stroke-opacity=".996" fill-rule="evenodd" transform="matrix(1.255 0 0 1.312 259.35 -430)" stroke="#512007" stroke-width=".475" fill="#fecf3e"/><path d="M388.35 539.32c0 .291.872 2.326 2.907 2.326 2.034 0 2.325-2.035 2.325-2.035s-.291 3.488 2.907 3.198c3.197-.291 4.36-3.489 4.36-3.489s.291 1.745 2.907.873c2.616-.873 6.104-3.779 5.813-3.779-.29 0-20.928 3.779-21.219 2.906z" stroke-opacity=".996" fill-rule="evenodd" transform="matrix(1.255 0 0 1.312 259.35 -430)" stroke="#512007" stroke-width=".475" fill="#fecf3e"/><use xlink:href="#k" transform="translate(-6.564 7.275)" height="496.063" width="992.126"/><use xlink:href="#k" transform="translate(6.564 3.758)" height="496.063" width="992.126"/><use xlink:href="#k" transform="translate(0 11.033)" height="496.063" width="992.126"/><path id="k" d="M408.98 476.96c0 1.044-.846 1.889-1.889 1.889s-1.889-.846-1.889-1.889.846-1.889 1.889-1.889 1.889.846 1.889 1.889z" stroke-opacity=".996" fill-rule="evenodd" fill-opacity=".996" transform="matrix(.041 -1.072 1.024 .043 251.6 667.92)" stroke="#512007" stroke-width=".581" fill="#be0f17"/><path d="M398.23 500.07c0-.291 9.011 3.779 9.011 4.069 0 .291 31.974 42.73 32.265 42.73" stroke-opacity=".996" transform="matrix(1.255 0 0 1.312 259.35 -430)" stroke="#512007" stroke-width=".475" fill="none"/><path d="M423.52 504.14l8.139 3.489 2.616 6.394" stroke-opacity=".996" transform="matrix(1.255 0 0 1.312 259.35 -430)" stroke="#512007" stroke-width=".475" fill="none"/><path d="M372.94 503.56c-.291 0 9.011 6.976 9.011 6.976l1.163 5.814" stroke-opacity=".996" transform="matrix(1.255 0 0 1.312 259.35 -430)" stroke="#512007" stroke-width=".475" fill="none"/><path d="M341.26 546c4.069-1.744 32.265-26.452 32.265-26.452" stroke-opacity=".996" transform="matrix(1.255 0 0 1.312 259.35 -430)" stroke="#512007" stroke-width=".475" fill="none"/><path d="M333.7 541.35c3.489-2.907 31.684-26.742 31.684-26.742" stroke-opacity=".996" transform="matrix(1.255 0 0 1.312 259.35 -430)" stroke="#512007" stroke-width=".475" fill="none"/><path d="M386.6 518.68l29.94 49.706" stroke-opacity=".996" transform="matrix(1.255 0 0 1.312 259.35 -430)" stroke="#512007" stroke-width=".475" fill="none"/><path d="M413.01 539.23s3.532 11.711 7.02 13.455l7.557 4.651" stroke-opacity=".996" transform="matrix(1.255 0 0 1.312 259.35 -430)" stroke="#512007" stroke-width=".475" fill="none"/><path d="M412.61 539.48s2.481 13.793 5.969 16.409l6.977 5.523" stroke-opacity=".996" transform="matrix(1.255 0 0 1.312 259.35 -430)" stroke="#512007" stroke-width=".475" fill="none"/><path d="M390.96 439.03s3.488 19.185 10.465 23.545c6.976 4.36 12.789 8.139 12.789 8.139" stroke-opacity=".996" transform="matrix(1.255 0 0 1.312 256.26 -299.49)" stroke="#512007" stroke-width=".475" fill="none"/><path d="M390.67 438.74s7.557 15.116 13.952 19.767c6.395 4.65 15.115 9.011 15.115 9.011" stroke-opacity=".996" transform="matrix(1.255 0 0 1.312 256.26 -299.49)" stroke="#512007" stroke-width=".475" fill="none"/><path d="M366.26 439.9c2.034 3.488 1.744 10.174 4.069 12.499 2.325 2.326 5.814 7.558 5.814 7.558" stroke-opacity=".996" transform="matrix(1.255 0 0 1.312 256.26 -299.49)" stroke="#512007" stroke-width=".475" fill="none"/><path d="M366.84 440.19c1.163 1.744 4.406 10.428 6.395 13.08 1.454 2.326 16.278 17.15 16.278 17.15" stroke-opacity=".996" transform="matrix(1.255 0 0 1.312 256.26 -299.49)" stroke="#512007" stroke-width=".475" fill="none"/><path d="M384.57 471.15c0 1.204-.976 2.18-2.18 2.18s-2.18-.976-2.18-2.18.976-2.18 2.18-2.18 2.18.976 2.18 2.18z" stroke-opacity=".996" fill-rule="evenodd" transform="matrix(1.255 0 0 1.312 256.26 -299.49)" stroke="#512007" stroke-width=".475"/><path d="M395.32 475.8c0 1.044-.846 1.889-1.889 1.889s-1.889-.846-1.889-1.889.846-1.889 1.889-1.889 1.889.846 1.889 1.889z" stroke-opacity=".996" fill-rule="evenodd" transform="matrix(1.255 0 0 1.312 256.26 -299.49)" stroke="#512007" stroke-width=".475"/><path d="M408.98 476.96c0 1.044-.846 1.889-1.889 1.889s-1.889-.846-1.889-1.889.846-1.889 1.889-1.889 1.889.846 1.889 1.889z" stroke-opacity=".996" fill-rule="evenodd" transform="matrix(1.255 0 0 1.312 256.26 -299.49)" stroke="#512007" stroke-width=".475"/><path d="M420.9 472.46c0 .963-.716 1.744-1.599 1.744s-1.599-.781-1.599-1.744.716-1.744 1.599-1.744 1.599.781 1.599 1.744z" stroke-opacity=".996" fill-rule="evenodd" transform="matrix(1.255 0 0 1.312 256.26 -299.49)" stroke="#512007" stroke-width=".475"/><path d="M430.49 466.79c0 .883-.846 1.599-1.889 1.599s-1.889-.716-1.889-1.599.846-1.599 1.889-1.599 1.889.716 1.889 1.599z" stroke-opacity=".996" fill-rule="evenodd" transform="matrix(1.255 0 0 1.312 256.26 -299.49)" stroke="#512007" stroke-width=".475"/><path d="M374.1 404.44c-.872.582-15.406 4.07-13.371 3.779 2.034-.29 13.662 2.907 13.371 2.035v-5.814z" stroke-opacity=".996" fill-rule="evenodd" fill-opacity=".996" transform="matrix(1.255 0 0 1.312 256.26 -299.49)" stroke="#512007" stroke-width=".475" fill="#f00"/><path d="M398.81 400.08c-.582 0-9.012 3.198-8.721 3.198s9.593 2.616 9.302 2.034c-.291-.581-.291-4.36-.581-5.232z" stroke-opacity=".996" fill-rule="evenodd" fill-opacity=".996" transform="matrix(1.255 0 0 1.312 256.26 -299.49)" stroke="#512007" stroke-width=".475" fill="#f00"/><path d="M424.1 402.99c-.582.291-10.465 2.616-8.721 2.907s8.43 2.616 8.43 2.035c0-.582 0-4.651.291-4.942z" stroke-opacity=".996" fill-rule="evenodd" fill-opacity=".996" transform="matrix(1.255 0 0 1.312 256.26 -299.49)" stroke="#512007" stroke-width=".475" fill="#f00"/><path d="M413.64 471.01c.291-4.651 8.72-31.103 8.72-31.103" stroke-opacity=".996" transform="matrix(1.255 0 0 1.312 256.26 -299.49)" stroke="#512007" stroke-width=".475" fill="none"/><path d="M416.54 470.13c0-.291 6.686-29.94 6.686-29.94" stroke-opacity=".996" transform="matrix(1.255 0 0 1.312 256.26 -299.49)" stroke="#512007" stroke-width=".475" fill="none"/><path d="M419.45 467.81c.29-1.744 4.941-27.614 4.941-27.614" stroke-opacity=".996" transform="matrix(1.255 0 0 1.312 256.26 -299.49)" stroke="#512007" stroke-width=".475" fill="none"/><path d="M413.93 467.23c1.453-.872 5.813-2.035 5.813-2.035" stroke-opacity=".996" transform="matrix(1.255 0 0 1.312 256.26 -299.49)" stroke="#512007" stroke-width=".475" fill="none"/><path d="M415.96 462.58c1.453 0 4.36-1.163 4.36-1.163" stroke-opacity=".996" transform="matrix(1.255 0 0 1.312 256.26 -299.49)" stroke="#512007" stroke-width=".475" fill="none"/><path d="M416.83 459.09c0-.291 4.36-1.163 4.36-1.163" stroke-opacity=".996" transform="matrix(1.255 0 0 1.312 256.26 -299.49)" stroke="#512007" stroke-width=".475" fill="none"/><path d="M417.41 454.73l4.651-.872" stroke-opacity=".996" transform="matrix(1.255 0 0 1.312 256.26 -299.49)" stroke="#512007" stroke-width=".475" fill="none"/><path d="M419.45 450.95c0 .291 3.197.291 3.197.291" stroke-opacity=".996" transform="matrix(1.255 0 0 1.312 256.26 -299.49)" stroke="#512007" stroke-width=".475" fill="none"/><path d="M420.32 447.46c.581 0 3.197.581 3.197.581" stroke-opacity=".996" transform="matrix(1.255 0 0 1.312 256.26 -299.49)" stroke="#512007" stroke-width=".475" fill="none"/><path d="M413.64 471.01c.291-4.651 8.72-31.103 8.72-31.103" stroke-opacity=".996" transform="matrix(1.255 0 0 1.363 225.31 -323.36)" stroke="#512007" stroke-width=".475" fill="none"/><path d="M416.54 471.32c0-.291 6.686-31.127 6.686-31.127" stroke-opacity=".996" transform="matrix(1.255 0 0 1.363 225.31 -323.36)" stroke="#512007" stroke-width=".475" fill="none"/><path d="M418.83 471.37c.29-1.744 5.558-31.175 5.558-31.175" stroke-opacity=".996" transform="matrix(1.255 0 0 1.363 225.31 -323.36)" stroke="#512007" stroke-width=".475" fill="none"/><path d="M413.93 467.23c1.453-.872 5.813-2.035 5.813-2.035" stroke-opacity=".996" transform="matrix(1.255 0 0 1.363 225.31 -323.36)" stroke="#512007" stroke-width=".475" fill="none"/><path d="M415.96 462.58c1.453 0 4.36-1.163 4.36-1.163" stroke-opacity=".996" transform="matrix(1.255 0 0 1.363 225.31 -323.36)" stroke="#512007" stroke-width=".475" fill="none"/><path d="M416.83 459.09c0-.291 4.36-1.163 4.36-1.163" stroke-opacity=".996" transform="matrix(1.255 0 0 1.363 225.31 -323.36)" stroke="#512007" stroke-width=".475" fill="none"/><path d="M417.41 454.73l4.651-.872" stroke-opacity=".996" transform="matrix(1.255 0 0 1.363 225.31 -323.36)" stroke="#512007" stroke-width=".475" fill="none"/><path d="M419.45 450.95c0 .291 3.197.291 3.197.291" stroke-opacity=".996" transform="matrix(1.255 0 0 1.363 225.31 -323.36)" stroke="#512007" stroke-width=".475" fill="none"/><path d="M420.32 447.46c.581 0 3.197.581 3.197.581" stroke-opacity=".996" transform="matrix(1.255 0 0 1.363 225.31 -323.36)" stroke="#512007" stroke-width=".475" fill="none"/><path d="M413.64 471.01c.291-4.651 8.72-31.103 8.72-31.103" stroke-opacity=".996" transform="matrix(-1.255 0 0 1.32 1259.2 -307.28)" stroke="#512007" stroke-width=".474" fill="none"/><path d="M416.54 470.13c0-.291 6.686-29.94 6.686-29.94" stroke-opacity=".996" transform="matrix(-1.255 0 0 1.32 1259.2 -307.28)" stroke="#512007" stroke-width=".474" fill="none"/><path d="M419.45 467.81c.29-1.744 4.941-27.614 4.941-27.614" stroke-opacity=".996" transform="matrix(-1.255 0 0 1.32 1259.2 -307.28)" stroke="#512007" stroke-width=".474" fill="none"/><path d="M413.93 467.23c1.453-.872 5.813-2.035 5.813-2.035" stroke-opacity=".996" transform="matrix(-1.255 0 0 1.32 1259.2 -307.28)" stroke="#512007" stroke-width=".474" fill="none"/><path d="M415.96 462.58c1.453 0 4.36-1.163 4.36-1.163" stroke-opacity=".996" transform="matrix(-1.255 0 0 1.32 1259.2 -307.28)" stroke="#512007" stroke-width=".474" fill="none"/><path d="M416.83 459.09c0-.291 4.36-1.163 4.36-1.163" stroke-opacity=".996" transform="matrix(-1.255 0 0 1.32 1259.2 -307.28)" stroke="#512007" stroke-width=".474" fill="none"/><path d="M417.41 454.73l4.651-.872" stroke-opacity=".996" transform="matrix(-1.255 0 0 1.32 1259.2 -307.28)" stroke="#512007" stroke-width=".474" fill="none"/><path d="M419.45 450.95c0 .291 3.197.291 3.197.291" stroke-opacity=".996" transform="matrix(-1.255 0 0 1.32 1259.2 -307.28)" stroke="#512007" stroke-width=".474" fill="none"/><path d="M420.32 447.46c.581 0 3.197.581 3.197.581" stroke-opacity=".996" transform="matrix(-1.255 0 0 1.32 1259.2 -307.28)" stroke="#512007" stroke-width=".474" fill="none"/><path d="M426.42 558.5l27.614.582.291-2.035-28.487-.291.582 1.744z" stroke-opacity=".996" fill-rule="evenodd" transform="matrix(1.255 0 0 1.312 259.35 -430)" stroke="#512007" stroke-width=".475" fill="#dd8b59"/><path d="M427.59 551.23c3.198 0 27.324-4.651 27.324-4.651s.872-2.906 0-2.906l-27.324 5.523v2.034z" stroke-opacity=".996" fill-rule="evenodd" transform="matrix(1.255 0 0 1.312 259.35 -430)" stroke="#512007" stroke-width=".475" fill="#dd8b59"/><use xlink:href="#k" transform="translate(0 5.516)" height="496.063" width="992.126"/></g></g></g></svg>