<svg xmlns="http://www.w3.org/2000/svg" height="480" width="640" version="1"><defs><clipPath id="a"><path fill-opacity=".67" d="M-85.333 0h682.67v512h-682.67z"/></clipPath></defs><g fill-rule="evenodd" clip-path="url(#a)"><path stroke-width="NaN" fill="#1b0073" d="M-40 0h720v480h-720z"/><path stroke-width="NaN" fill="#e60006" d="M-40 120h720v240h-720z"/><g stroke="#e60000" fill="#fff"><path stroke-width="1.1325599999999998" d="M167.51 232.658h305.259v49.36h-305.259z"/><path d="M220 280l-5 15h320l-5-15h-310z" transform="matrix(.986 0 0 .774 -49.71 65.222)" stroke-width="1.25"/><path d="M245 280l-5 15h60l-5-15h-50z" transform="matrix(1.196 0 0 .774 115.271 65.223)" stroke-width="1.123"/><path d="M245 280l-5 15h60l-5-15h-50z" transform="matrix(.602 0 0 .774 278.06 65.223)" stroke-width="1.52"/><path d="M245 280l-5 15h60l-5-15h-50z" transform="matrix(.389 0 0 .774 335.617 65.223)" stroke-width="2.024"/><path d="M245 280l-5 15h60l-5-15h-50z" transform="matrix(1.257 0 0 .774 -19.484 65.222)" stroke-width="1.098"/><path stroke-width="NaN" d="M165.797 231.913h308.695v11.614h-308.695z"/><g><path stroke-width="NaN" d="M407.981 232.765h60.5v49.167h-60.5z"/><path stroke-width="0.77924" d="M451.26 255.805h6.05v26.122h-6.05z"/><path stroke-width="0.77924" d="M424.64 255.805h6.05v26.122h-6.05z"/></g><g><path d="M245 280l-5 15h60l-5-15h-50z" transform="matrix(.632 0 0 .774 149.306 65.222)" stroke-width="1.554"/><path d="M245 280l-5 15h60l-5-15h-50z" transform="matrix(.396 0 0 .774 213.097 65.222)" stroke-width="1.956"/><path stroke-width="NaN" d="M287.958 232.658h63.747v49.36h-63.747z"/><path stroke-width="1.00672" d="M338.749 255.801h6.05v26.122h-6.05z"/><path stroke-width="1.00672" d="M296.651 255.798h6.054v26.122h-6.054z"/><path stroke-width="NaN" d="M304.705 220.713h30.87v61.294h-30.87z"/><path stroke-width="1.00672" d="M327.859 255.799h6.05v26.122h-6.05z"/><path stroke-width="1.00672" d="M307.541 255.8h6.054v26.122h-6.054z"/><path d="M358.18 217.13l13.471 22.98 14.264-22.98h-27.735z" transform="matrix(.968 0 0 .82 -40.064 52.637)" stroke-width="1pt"/></g><path stroke-width="1.141272" d="M431.987 232.658h17.15v60.974h-17.15z"/><path stroke-width="1.140304" d="M434.843 232.658h11.421v60.974h-11.421z"/><g><path d="M245 280l-5 15h60l-5-15h-50z" transform="matrix(1.196 0 0 .774 -121.81 65.223)" stroke-width="1.123"/><path d="M245 280l-5 15h60l-5-15h-50z" transform="matrix(.562 0 0 .774 47.885 65.223)" stroke-width="1.637"/><path d="M245 280l-5 15h60l-5-15h-50z" transform="matrix(.359 0 0 .774 102.774 65.223)" stroke-width="2.049"/><path stroke-width="NaN" d="M170.937 232.658h60.024v49.36h-60.024z"/><path stroke-width="0.77924" d="M182.64 255.807h6.05v26.122h-6.05z"/><path stroke-width="0.77924" d="M210.47 255.808h6.05v26.122h-6.05z"/><path stroke-width="1.141272" d="M191.517 232.658h17.15v60.974h-17.15z"/><path stroke-width="1.140304" d="M194.362 232.658h11.421v60.974h-11.421z"/></g><path stroke-width="NaN" d="M162.37 221.043h315.549v11.614h-315.549z"/><g><g><path stroke-width="1pt" d="M187.5 328.56h406.25v17.5h-406.25z" transform="matrix(1.013 0 0 .854 -75.683 47.697)"/><path stroke-width=".898pt" d="M226.25 284.81h327.5v17.5h-327.5z" transform="matrix(1.013 0 0 .854 -75.683 47.697)"/><path stroke-width=".911pt" d="M221.25 288.56h337.5v17.5h-337.5z" transform="matrix(1.013 0 0 .854 -75.683 47.697)"/><path stroke-width="1pt" d="M187.5 328.56h406.25v17.5h-406.25z" transform="matrix(1.013 0 0 .854 -75.683 47.697)"/><path stroke-width=".936pt" d="M212.5 298.56h356.25v17.5h-356.25z" transform="matrix(1.013 0 0 .854 -75.683 47.697)"/><path stroke-width=".969pt" d="M200 311.06h381.25v17.5h-381.25z" transform="matrix(1.013 0 0 .854 -75.683 47.697)"/></g><g><path stroke-width="1.03pt" d="M287.5 283.56h18.75v62.5h-18.75z" transform="matrix(.915 0 0 .836 -71.505 53.607)"/><path stroke-width=".841pt" d="M290.62 283.56h12.5v62.5h-12.5z" transform="matrix(.915 0 0 .836 -71.505 53.607)"/></g><g><path stroke-width="1.03pt" d="M287.5 283.56h18.75v62.5h-18.75z" transform="matrix(.915 0 0 .836 168.588 53.607)"/><path stroke-width=".841pt" d="M290.62 283.56h12.5v62.5h-12.5z" transform="matrix(.915 0 0 .836 168.588 53.607)"/></g></g><path stroke-width="1.162568" d="M313.804 232.659h13.783v110.333h-13.783z"/><g><path d="M217.92 220.3l.184-36.915s3.362 7.236 29.512 8.821c24.749-.937 28.848-5.362 29.969-9.284l-1.025 37.515-58.64-.137z" transform="matrix(.914 0 0 .82 212.768 52.637)" stroke-width="1pt"/><g><path d="M330.92 208.56l-18.42-20.45c6.141-5.303 17.543 3.789 17.543 3.789s6.14-23.485 32.457-33.334c26.316 9.849 32.456 33.334 32.456 33.334s11.403-9.092 17.544-3.789l-18.422 20.455h-63.157z" transform="matrix(.402 0 0 .29 294.442 137.186)" stroke-width="3.528"/><path d="M330.92 208.56l-18.42-20.45c6.141-5.303 17.543 3.789 17.543 3.789s6.14-23.485 32.457-33.334c26.316 9.849 32.456 33.334 32.456 33.334s11.403-9.092 17.544-3.789l-18.422 20.455h-63.157z" transform="matrix(.522 0 0 .407 250.79 128.348)" stroke-width="2.615"/></g><g><path d="M0 280.52c.792 0 30.112 52.301 0 53.093-30.112.793 0-51.508 0-53.093z" transform="matrix(.382 0 0 .383 439.878 43.987)" stroke-width="3.383"/><path d="M330.92 208.56l-18.42-20.45c6.141-5.303 17.543 3.789 17.543 3.789s6.14-23.485 32.457-33.334c26.316 9.849 32.456 33.334 32.456 33.334s11.403-9.092 17.544-3.789l-18.422 20.455h-63.157z" transform="matrix(.309 0 0 .153 328.1 144.971)" stroke-width="5.963"/><path d="M330.92 208.56l-.878-16.666s6.14-23.485 32.457-33.334c26.316 9.849 32.456 33.334 32.456 33.334l-.878 16.666h-63.157z" transform="matrix(.158 0 0 .153 382.494 147.511)" stroke-width="8.321"/><path d="M330.92 208.56l-.878-16.666s6.14-23.485 32.457-33.334c26.316 9.849 32.456 33.334 32.456 33.334l-.878 16.666h-63.157z" transform="matrix(.317 0 0 .204 325.08 144.536)" stroke-width="5.096"/><path d="M330.92 208.56l-.878-16.666s6.14-23.485 32.457-33.334c26.316 9.849 32.456 33.334 32.456 33.334l-.878 16.666h-63.157z" transform="matrix(.317 0 0 .204 325.08 149.617)" stroke-width="5.096"/><path d="M330.92 208.56l-18.42-20.45c6.141-5.303 17.543 3.789 17.543 3.789s6.14-23.485 32.457-33.334c26.316 9.849 32.456 33.334 32.456 33.334s11.403-9.092 17.544-3.789l-18.422 20.455h-63.157z" transform="matrix(.309 0 0 .407 328.1 122.471)" stroke-width="3.651"/><path d="M330.92 208.56l-18.42-20.45c6.141-5.303 17.543 3.789 17.543 3.789s6.14-23.485 32.457-33.334c26.316 9.849 32.456 33.334 32.456 33.334s11.403-9.092 17.544-3.789l-18.422 20.455h-63.157z" transform="matrix(.309 0 0 .407 328.1 132.633)" stroke-width="3.651"/><path d="M330.92 208.56l-.878-16.666s6.14-23.485 32.457-33.334c26.316 9.849 32.456 33.334 32.456 33.334l-.878 16.666h-63.157z" transform="matrix(.317 0 0 .508 325.08 126.681)" stroke-width="3.223"/><path d="M330.92 208.56l-18.42-20.45c6.141-5.303 17.543 3.789 17.543 3.789s6.14-23.485 32.457-33.334c26.316 9.849 32.456 33.334 32.456 33.334s11.403-9.092 17.544-3.789l-18.422 20.455h-63.157z" transform="matrix(.309 0 0 .305 328.1 169.072)" stroke-width="4.216"/></g></g><g><g><path d="M330.92 208.56l-18.42-20.45c6.141-5.303 17.543 3.789 17.543 3.789s6.14-23.485 32.457-33.334c26.316 9.849 32.456 33.334 32.456 33.334s11.403-9.092 17.544-3.789l-18.422 20.455h-63.157z" transform="matrix(.402 0 0 .29 54.697 135.017)" stroke-width="3.528"/><path d="M330.92 208.56l-18.42-20.45c6.141-5.303 17.543 3.789 17.543 3.789s6.14-23.485 32.457-33.334c26.316 9.849 32.456 33.334 32.456 33.334s11.403-9.092 17.544-3.789l-18.422 20.455h-63.157z" transform="matrix(.522 0 0 .407 11.045 126.179)" stroke-width="2.615"/></g><path d="M217.92 220.3l.184-36.915s3.362 7.236 29.512 8.821c24.749-.937 28.848-5.362 29.969-9.284l-1.025 37.515-58.64-.137z" transform="matrix(.914 0 0 .82 -24.924 52.637)" stroke-width="1pt"/><g><path d="M0 280.52c.792 0 30.112 52.301 0 53.093-30.112.793 0-51.508 0-53.093z" transform="matrix(.382 0 0 .383 199.782 43.987)" stroke-width="3.383"/><path d="M330.92 208.56l-18.42-20.45c6.141-5.303 17.543 3.789 17.543 3.789s6.14-23.485 32.457-33.334c26.316 9.849 32.456 33.334 32.456 33.334s11.403-9.092 17.544-3.789l-18.422 20.455h-63.157z" transform="matrix(.309 0 0 .153 88.004 144.971)" stroke-width="5.963"/><path d="M330.92 208.56l-.878-16.666s6.14-23.485 32.457-33.334c26.316 9.849 32.456 33.334 32.456 33.334l-.878 16.666h-63.157z" transform="matrix(.158 0 0 .153 142.398 147.511)" stroke-width="8.321"/><path d="M330.92 208.56l-.878-16.666s6.14-23.485 32.457-33.334c26.316 9.849 32.456 33.334 32.456 33.334l-.878 16.666h-63.157z" transform="matrix(.317 0 0 .204 84.984 144.536)" stroke-width="5.096"/><path d="M330.92 208.56l-.878-16.666s6.14-23.485 32.457-33.334c26.316 9.849 32.456 33.334 32.456 33.334l-.878 16.666h-63.157z" transform="matrix(.317 0 0 .204 84.984 149.617)" stroke-width="5.096"/><path d="M330.92 208.56l-18.42-20.45c6.141-5.303 17.543 3.789 17.543 3.789s6.14-23.485 32.457-33.334c26.316 9.849 32.456 33.334 32.456 33.334s11.403-9.092 17.544-3.789l-18.422 20.455h-63.157z" transform="matrix(.309 0 0 .407 88.004 122.471)" stroke-width="3.651"/><path d="M330.92 208.56l-18.42-20.45c6.141-5.303 17.543 3.789 17.543 3.789s6.14-23.485 32.457-33.334c26.316 9.849 32.456 33.334 32.456 33.334s11.403-9.092 17.544-3.789l-18.422 20.455h-63.157z" transform="matrix(.309 0 0 .407 88.004 132.633)" stroke-width="3.651"/><path d="M330.92 208.56l-.878-16.666s6.14-23.485 32.457-33.334c26.316 9.849 32.456 33.334 32.456 33.334l-.878 16.666h-63.157z" transform="matrix(.317 0 0 .508 84.984 126.681)" stroke-width="3.223"/><path d="M330.92 208.56l-18.42-20.45c6.141-5.303 17.543 3.789 17.543 3.789s6.14-23.485 32.457-33.334c26.316 9.849 32.456 33.334 32.456 33.334s11.403-9.092 17.544-3.789l-18.422 20.455h-63.157z" transform="matrix(.309 0 0 .305 88.004 169.072)" stroke-width="4.216"/></g></g><g transform="matrix(.968 0 0 .968 -40.064 0)"><rect ry="6.449" height="12.898" width="85.039" y="226.28" x="329.53" stroke-width="1.226"/><path d="M353.24-212.6l1.093-56.693s-3.28 13.906-13.123 13.906h-150.92c-9.843 0-13.124-13.906-13.124-13.906l1.093 56.693h174.98z" transform="matrix(.5 0 0 .75 239.17 393.31)" stroke-width="1.579"/><g><path d="M510.49 70.219l.41-25.609s23.557-2.998 20.288-9.332c-3.27-6.333-31.604 7.986-31.604 7.986h-113.34s-28.335-14.319-31.604-7.986c-3.269 6.333 20.288 9.332 20.288 9.332l.408 25.609h135.15z" transform="matrix(.4 0 0 .574 194.88 174.23)" stroke-width="2.4"/><path d="M510.49 70.219l.41-25.609s23.557-2.998 20.288-9.332c-3.27-6.333-31.604 7.986-31.604 7.986h-113.34s-28.335-14.319-31.604-7.986c-3.269 6.333 20.288 9.332 20.288 9.332l.408 25.609h135.15z" transform="matrix(.48 0 0 .574 159.45 186.23)" stroke-width="2.19"/><path d="M510.49 70.219l.41-25.609s23.557-2.998 20.288-9.332c-3.27-6.333-27.29-18.36-61.81-31.08-24.29-5.905 31.26-26.346-21.07-27.709-48.02.757-5.42 23.318-21.07 28.618-38.84 11.81-69.33 23.838-72.6 30.171-3.27 6.334 20.29 9.332 20.29 9.332l.408 25.609h135.15z" transform="matrix(.13 0 0 .261 314.17 134.08)" stroke-width="6.247"/><path d="M510.49 70.219l.41-25.609s23.557-2.998 20.288-9.332c-3.27-6.333-31.604 7.986-31.604 7.986h-113.34s-28.335-14.319-31.604-7.986c-3.269 6.333 20.288 9.332 20.288 9.332l.408 25.609h135.15z" transform="matrix(.283 0 0 .47 246.55 156.75)" stroke-width="3.152"/><path d="M510.49 70.219l.41-25.609s23.557-2.998 20.288-9.332c-3.27-6.333-31.604 7.986-31.604 7.986h-113.34s-28.335-14.319-31.604-7.986c-3.269 6.333 20.288 9.332 20.288 9.332l.408 25.609h135.15z" transform="matrix(.34 0 0 .47 221.46 166.57)" stroke-width="2.877"/><path d="M510.49 70.219l.41-25.609s23.557-2.998 20.288-9.332c-3.27-6.333-31.604 7.986-31.604 7.986h-113.34s-28.335-14.319-31.604-7.986c-3.269 6.333 20.288 9.332 20.288 9.332l.408 25.609h135.15z" transform="matrix(.183 0 0 .319 290.85 149.49)" stroke-width="4.755"/><path d="M510.49 70.219l.41-25.609s23.557-2.998 20.288-9.332c-3.27-6.333-31.604 7.986-31.604 7.986h-113.34s-28.335-14.319-31.604-7.986c-3.269 6.333 20.288 9.332 20.288 9.332l.408 25.609h135.15z" transform="matrix(.22 0 0 .319 274.61 156.16)" stroke-width="4.341"/><path d="M510.49 70.219l.41-25.609s23.557-2.998 20.288-9.332c-3.27-6.333-31.604 7.986-31.604 7.986h-113.34s-28.335-14.319-31.604-7.986c-3.269 6.333 20.288 9.332 20.288 9.332l.408 25.609h135.15z" transform="matrix(.13 0 0 .261 314.53 139.78)" stroke-width="6.247"/><path d="M510.49 70.219l.41-25.609s23.557-2.998 20.288-9.332c-3.27-6.333-31.604 7.986-31.604 7.986h-113.34s-28.335-14.319-31.604-7.986c-3.269 6.333 20.288 9.332 20.288 9.332l.408 25.609h135.15z" transform="matrix(.156 0 0 .261 303.03 145.24)" stroke-width="5.702"/></g><g><path d="M330.92 208.56l-18.42-20.45c6.141-5.303 17.543 3.789 17.543 3.789s6.14-23.485 32.457-33.334c26.316 9.849 32.456 33.334 32.456 33.334s11.403-9.092 17.544-3.789l-18.422 20.455h-63.157z" transform="matrix(.177 0 0 .18 307.82 126.375)" stroke-width="5.444"/><path d="M330.92 208.56l-18.42-20.45c6.141-5.303 17.543 3.789 17.543 3.789s6.14-23.485 32.457-33.334c26.316 9.849 32.456 33.334 32.456 33.334s11.403-9.092 17.544-3.789l-18.422 20.455h-63.157z" transform="matrix(.248 0 0 .18 282.14 132.377)" stroke-width="5.444"/><path d="M330.92 208.56l-18.42-20.45c6.141-5.303 17.543 3.789 17.543 3.789s6.14-23.485 32.457-33.334c26.316 9.849 32.456 33.334 32.456 33.334s11.403-9.092 17.544-3.789l-18.422 20.455h-63.157z" transform="matrix(.283 0 0 .24 269.29 130.357)" stroke-width="4.41"/><path d="M330.92 208.56l-18.42-20.45c6.141-5.303 17.543 3.789 17.543 3.789s6.14-23.485 32.457-33.334c26.316 9.849 32.456 33.334 32.456 33.334s11.403-9.092 17.544-3.789l-18.422 20.455h-63.157z" transform="matrix(.354 0 0 .3 243.6 130.738)" stroke-width="3.528"/><path d="M358.18 217.13l13.471 22.98 14.264-22.98h-27.735z" transform="matrix(.923 0 0 .674 28.619 57.555)" stroke-width="1.458"/><path d="M330.92 208.56l-18.42-20.45c6.141-5.303 17.543 3.789 17.543 3.789s6.14-23.485 32.457-33.334c26.316 9.849 32.456 33.334 32.456 33.334s11.403-9.092 17.544-3.789l-18.422 20.455h-63.157z" transform="matrix(.425 0 0 .335 217.91 135.911)" stroke-width="3.051"/><path d="M358.18 217.13l13.471 22.98 14.264-22.98h-27.735z" transform="matrix(1 0 0 .847 0 37.08)" stroke-width="1.25"/><path d="M330.92 208.56l-18.42-20.45c6.141-5.303 17.543 3.789 17.543 3.789s6.14-23.485 32.457-33.334c26.316 9.849 32.456 33.334 32.456 33.334s11.403-9.092 17.544-3.789l-18.422 20.455h-63.157z" transform="matrix(.461 0 0 .42 205.07 135.532)" stroke-width="2.615"/><path d="M330.92 208.56l-18.42-20.45c6.141-5.303 17.543 3.789 17.543 3.789s6.14-23.485 32.457-33.334c26.316 9.849 32.456 33.334 32.456 33.334s11.403-9.092 17.544-3.789l-18.422 20.455h-63.157z" transform="matrix(.461 0 0 .42 205.07 152.815)" stroke-width="2.615"/></g></g><g stroke-width="1.04"><path d="M236.209 255.803h6.05v26.122h-6.05z"/><path d="M256.779 255.801h6.05v26.122h-6.05z"/><path d="M247.099 255.8h6.05v26.122h-6.05z"/><path d="M357.016 255.802h6.05v26.122h-6.05z"/><path d="M398.156 255.8h6.05v26.122h-6.05z"/><path d="M377.586 255.799h6.05v26.122h-6.05z"/><path d="M367.906 255.798h6.05v26.122h-6.05z"/><path d="M387.266 255.798h6.05v26.122h-6.05z"/><path d="M277.349 255.802h6.05v26.122h-6.05z"/><path d="M266.459 255.8h6.05v26.122h-6.05z"/></g></g></g></svg>