<svg xmlns="http://www.w3.org/2000/svg" height="480" width="640" version="1"><g><path stroke-width="1pt" fill="#006" d="M0 0h640v480h-640z"/><g><path fill-rule="evenodd" fill="#006" d="M0 0h400v200h-400z"/><g stroke-width="1pt"><path fill="#fff" d="M0 0v27.091l334.407 215.22h42.093v-27.09l-334.407-215.22h-42.093zm376.5 0v27.09l-334.407 215.22h-42.093v-27.09l334.407-215.22h42.093z"/><path fill="#fff" d="M156.875 0v242.31h62.75v-242.31h-62.75zm-156.875 80.77v80.77h376.5v-80.77h-376.5z"/><path fill="#c00" d="M0 96.924v48.462h376.5v-48.462h-376.5zm169.425-96.924v242.31h37.65v-242.31h-37.65z"/><path fill="#c00" d="M0 242.31l125.5-80.77h28.062l-125.5 80.77h-28.062zm0-242.31l125.5 80.77h-28.062l-97.438-62.709v-18.061zm222.938 80.77l125.5-80.77h28.062l-125.5 80.77h-28.062zm153.562 161.54l-125.5-80.77h28.062l97.438 62.71v18.06z"/></g></g><g><path d="M448.331 179.141c-1.01.61-3.029 2.441-5.048 1.831-2.019-.61-6.563-8.543-11.611-7.322-5.048 1.22-8.077 3.051-10.096 3.051s-7.573 1.831-7.573 6.712c0 4.882.505 8.543 1.514 8.543 1.01 0 2.524-3.051 2.524-3.051s.505 6.102 4.039 6.102 11.106.61 11.611 2.441c.505 1.831-3.534 6.102-2.524 9.763 1.009 3.661 5.553 9.763 5.553 9.763s-6.563 4.882-6.563 7.933l1.01 6.102-29.28 1.22s-2.019 86.648-1.01 93.361c1.01 6.709 3.534 23.185 3.534 23.185s-6.563-2.134-12.116 3.358-24.989 14.947-25.494 19.218c-.505 4.271-2.272 7.934-.252 10.984 2.019 3.05 9.125 11.34 7.068 10.984-6.778-1.169-9.299-10.798-13.882-14.339-4.503-3.477-13.378-2.746-14.387.913-1.01 3.663-.505 9.763 0 10.984s6.058 20.747 7.572 25.018 17.416 10.676 24.484 10.067c13.378.304 19.436-5.796 19.94-5.184.505.609 28.781 29.768 86.83 29.898 45.188.1 79.258-29.289 79.258-28.677 0 .609 18.679 6.101 25.242 4.271 6.563-1.833 16.155-6.104 18.174-10.375 2.019-4.271 7.573-26.239 8.077-29.898.505-3.663 0-7.934-4.543-9.155s-7.068-.917-9.592.304-3.282 4.579-7.068 10.679c-2.019 1.833-7.32 6.713-5.805 5.492s4.796-10.372 5.301-13.426c.505-3.05 2.019-8.542-1.514-11.593-3.534-3.05-8.947-4.297-15.145-8.847-5.886-4.034-10.6-10.679-14.135-10.679-3.534 0-7.573-1.829-7.068-1.829.505 0 4.552-8.865 3.542-18.016-1.009-9.155.496-96.7-.008-96.7-.505 0-25.242 1.831-25.242.61s2.019-9.763 0-15.255c-2.019-5.492-10.601-9.153-8.077-10.373 2.524-1.221 13.63-4.272 13.126-9.153-.505-4.882-7.573-4.271-10.601-6.102-3.029-1.831-12.116-10.373-13.126-10.373-1.01 0 26.25-16.475 24.232-16.475-2.019 0-12.621-3.051-16.155-1.22 0-3.051 14.64-12.204 12.116-13.425-2.524-1.221-14.135-2.441-11.106-3.051 3.029-.61 4.039-7.933 3.534-7.933-.505 0-13.126 1.831-13.126 1.831s-3.029-4.272-4.039-4.272c-1.009 0-5.553 2.441-5.553 2.441l-2.524-6.712-5.553 3.661-2.524-3.051s-4.543 1.221-4.543 0c.191-.044-.523-3.064-1.237-3.064-.714 0-5.711 3.883-5.89 3.667-.178-.216-5.711-7.982-5.711-7.766 0 .216-3.927 14.67-4.105 14.67-.178 0-3.927.432-4.105.647-.179.216-19.991-11.434-19.811-11.218.178.216 5.176 11.218 5.176 11.218s-4.284 2.373-4.284 2.589c0 .216.714 4.962.714 4.962l-13.21-4.531s4.998 10.139 4.641 10.139c-.357 0-9.816.432-9.638.432.178 0 4.462 8.413 4.462 8.413l-1.606 4.962s14.217 10.033 13.208 10.643zm84.306 212.347c1.262 1.829 8.077 10.372 7.068 10.372-1.01 0-17.921 11.289-24.737 13.426-6.815 2.134-29.027 6.101-27.766 5.796 1.262-.304 19.946-10.535 27.519-15.414 7.573-4.88 17.915-13.57 17.915-14.179zm-105.513-.308c-1.01 1.221-5.805 10.679-5.805 10.679s13.882 9.763 24.232 13.426c10.349 3.659 28.018 4.88 27.008 4.575-1.009-.304-22.213-9.763-28.271-14.643-6.058-4.883-16.911-14.038-17.164-14.038z" fill-rule="evenodd" stroke-width="NaN" fill="#fff"/><g fill-rule="evenodd" stroke="#6d6666" fill="#fec500"><path d="M394.65-212.97s28.777 17.265 35.354 21.376 27.954 22.199 29.598 21.377c1.645-.822 13.155-9.866 13.155-9.866s-23.843-18.91-38.642-23.021-39.465-8.222-39.465-9.866z" stroke-width="1.403" transform="matrix(.307 0 0 .371 317.054 244.257)"/><path d="M390.54-231.88c2.467 0 47.687 23.022 61.664 34.532s19.732 26.31 21.377 26.31c1.644 0 23.021-3.289 22.198-3.289-.822 0-9.866-29.598-30.42-38.642-20.555-9.044-73.996-18.911-74.819-18.911z" stroke-width="1.403" transform="matrix(.307 0 0 .371 317.054 244.257)"/><path d="M603.48-296.01c-.822 0-9.044 24.666-11.511 32.065-2.466 7.4-6.577 23.021-6.577 23.021s-36.176 3.289-34.532-.822c1.645-4.111 55.086-54.264 52.62-54.264z" transform="matrix(.307 0 0 .371 317.054 245.983)" stroke-width="1.403"/><path d="M398.76-261.48s42.754 28.776 57.553 45.22c14.799 16.443 29.598 45.22 30.42 45.22.823 0 40.287-8.222 40.287-7.4s-46.042-46.042-68.241-60.019-59.197-21.377-60.019-23.021z" stroke-width="1.403" transform="matrix(.307 0 0 .371 317.054 244.257)"/><path d="M443.16-273.81s21.377 32.887 25.487 44.398c4.111 11.51 16.444 41.109 16.444 41.109h33.709s-16.443-36.998-34.531-55.086-40.287-28.776-41.109-30.421z" transform="matrix(.307 0 0 .371 317.054 245.983)" stroke-width="1.403"/><path d="M454.66-291.9c.823 2.467 31.243 31.243 38.643 50.153 7.399 18.91 13.155 42.754 13.155 42.754l29.598-7.4s-26.31-48.509-42.753-61.664c-16.444-13.154-36.998-22.198-38.643-23.843z" transform="matrix(.307 0 0 .371 317.054 245.983)" stroke-width="1.403"/><path d="M700.5-209.68s-61.663 6.578-83.862 12.333l-34.532 27.132s28.777 10.688 30.421 9.044 18.91-18.91 37.82-25.488c18.91-6.577 51.797-22.199 50.153-23.021z" stroke-width="1.403" transform="matrix(.307 0 0 .371 317.054 244.257)"/><path d="M698.03-249.97c-1.645.823-50.975 41.11-66.597 54.264-15.621 13.155-30.421 27.132-32.065 27.954-1.644.823-32.065-4.11-30.421-5.755 1.645-1.644 45.22-36.998 73.997-52.619 28.776-15.622 52.619-22.199 55.086-23.844z" stroke-width="1.403" transform="matrix(.307 0 0 .371 317.054 244.257)"/><path d="M685.7-278.75c-4.933 5.755-53.442 45.22-66.597 59.197l-34.531 38.643s-25.488-11.511-23.843-16.444c1.644-4.933 36.175-33.709 60.841-50.153 24.665-16.444 66.596-29.599 64.13-31.243z" stroke-width="1.403" transform="matrix(.307 0 0 .371 317.054 244.257)"/><path d="M636.37-282.04c-.822.823-29.598 31.243-35.354 39.465-5.755 8.222-23.021 44.398-23.021 44.398s-25.487-22.199-25.487-23.021 32.065-34.532 50.975-47.687 33.709-10.688 32.887-13.155z" stroke-width="1.403" transform="matrix(.307 0 0 .371 317.054 244.257)"/><path d="M565.09-241.77c0 5.779-4.685 10.465-10.465 10.465-5.779 0-10.465-4.685-10.465-10.465 0-5.779 4.685-10.465 10.465-10.465 5.779 0 10.465 4.685 10.465 10.465z" transform="matrix(.307 0 0 .371 317.054 245.983)" stroke-width="1.122pt"/><path d="M586.02-227.81c0 5.137-4.685 9.302-10.465 9.302-5.779 0-10.465-4.165-10.465-9.302s4.685-9.302 10.465-9.302c5.779 0 10.465 4.165 10.465 9.302z" transform="matrix(.307 0 0 .371 317.054 245.983)" stroke-width="1.122pt"/><path d="M539.51-238.28c0 5.137-5.726 9.302-12.79 9.302-7.064 0-12.79-4.165-12.79-9.302s5.726-9.302 12.79-9.302c7.064 0 12.79 4.165 12.79 9.302z" transform="matrix(.307 0 0 .371 317.054 245.983)" stroke-width="1.122pt"/><path d="M573.23-219.09c0 9.954-6.507 18.022-14.534 18.022-8.027 0-14.534-8.069-14.534-18.022 0-9.954 6.507-18.022 14.534-18.022 8.027 0 14.534 8.069 14.534 18.022z" transform="matrix(.307 0 0 .371 317.054 245.983)" stroke-width="1.122pt"/><path d="M533.7-218.51c0 7.706-6.507 13.953-14.534 13.953-8.027 0-14.534-6.247-14.534-13.953 0-7.706 6.507-13.953 14.534-13.953 8.027 0 14.534 6.247 14.534 13.953z" transform="matrix(.307 0 0 .371 317.054 245.983)" stroke-width="1.122pt"/><path d="M513.93-207.46c0 6.743-4.946 12.209-11.046 12.209-6.101 0-11.046-5.466-11.046-12.209 0-6.743 4.946-12.209 11.046-12.209 6.101 0 11.046 5.466 11.046 12.209z" transform="matrix(.307 0 0 .371 317.054 245.983)" stroke-width="1.122pt"/><path d="M595.32-208.63c0 8.027-7.548 14.534-16.86 14.534-9.311 0-16.86-6.507-16.86-14.534 0-8.027 7.548-14.534 16.86-14.534 9.311 0 16.86 6.507 16.86 14.534z" transform="matrix(.307 0 0 .371 317.054 245.983)" stroke-width="1.122pt"/><path d="M554.63-229.56c0 4.816-5.987 8.72-13.372 8.72s-13.372-3.904-13.372-8.72 5.987-8.72 13.372-8.72 13.372 3.904 13.372 8.72z" transform="matrix(.307 0 0 .371 317.054 245.983)" stroke-width="1.122pt"/><path d="M556.95-210.37c0 7.064-8.329 12.79-18.604 12.79s-18.604-5.726-18.604-12.79c0-7.064 8.329-12.79 18.604-12.79s18.604 5.726 18.604 12.79z" transform="matrix(.307 0 0 .371 317.054 245.983)" stroke-width="1.122pt"/><path d="M604.62-187.7c0 8.669-7.809 15.697-17.441 15.697s-17.441-7.028-17.441-15.697 7.809-15.697 17.441-15.697c9.633 0 17.441 7.028 17.441 15.697z" transform="matrix(.307 0 0 .371 317.054 245.983)" stroke-width="1.122pt"/><path d="M509.28-191.77c0 5.779-4.425 10.465-9.883 10.465s-9.883-4.685-9.883-10.465c0-5.779 4.425-10.465 9.883-10.465s9.883 4.685 9.883 10.465z" transform="matrix(.307 0 0 .371 317.054 245.983)" stroke-width="1.122pt"/><path d="M579.04-193.51c0 7.385-6.768 13.372-15.116 13.372-8.348 0-15.116-5.987-15.116-13.372s6.768-13.372 15.116-13.372c8.348 0 15.116 5.987 15.116 13.372z" transform="matrix(.307 0 0 .371 317.054 245.983)" stroke-width="1.122pt"/><path d="M531.37-194.09c0 6.422-5.987 11.627-13.371 11.627-7.385 0-13.371-5.206-13.371-11.627 0-6.422 5.987-11.627 13.371-11.627 7.385 0 13.371 5.206 13.371 11.627z" transform="matrix(.307 0 0 .371 317.054 245.983)" stroke-width="1.122pt"/><path d="M554.63-190.61c0 7.064-6.247 12.79-13.953 12.79-7.706 0-13.953-5.726-13.953-12.79 0-7.064 6.247-12.79 13.953-12.79 7.706 0 13.953 5.726 13.953 12.79z" transform="matrix(.307 0 0 .371 317.054 245.983)" stroke-width="1.122pt"/><path d="M494.16-267.35c3.488 0 27.906 8.139 27.906 8.139s-30.232 11.628-25.581 10.465 33.72-4.651 31.394-4.651c-2.325 0-25.58 22.092-18.604 20.929 6.977-1.162 20.93-15.115 22.092-15.115 1.163 0 15.116 22.092 16.279 20.929l1.162-22.092c1.163 0 29.069 13.953 26.743 12.79-2.325-1.163-18.603-17.441-17.441-17.441 1.163 0 38.371 3.488 36.045 2.325-2.325-1.162-24.417-11.627-24.417-11.627s16.278-15.115 12.79-15.115-30.231 15.115-27.906 13.952c2.326-1.162 29.069-31.393 29.069-31.393l-26.743 12.79s4.651-18.604 2.325-17.442c-2.325 1.163-20.929 24.418-22.092 24.418l-5.814-23.255s1.163 25.58-5.813 26.743c-6.977 1.163-31.394 5.814-31.394 4.651z" transform="matrix(.307 0 0 .371 317.054 245.983)" stroke-width="1.122pt"/></g><g fill-rule="evenodd"><path d="M445.507 216.53c.178.863 5.89 16.392 14.635 15.961s12.315-3.02 11.958-3.235c-.357-.216-4.105-2.804-6.247-8.412-2.142-5.608-2.499-7.981-2.499-7.981l-17.848 3.667z" fill="#00389b"/><path d="M476.741 210.491s6.425 15.314 9.281 17.47c2.856 2.157 9.46 3.883 12.315 3.667 2.856-.216 6.247 0 6.247 0s-2.856-1.51-5.176-9.922l-3.034-11.216h-19.633z" fill="#00389b"/><path d="M516.006 216.099s-1.249 11.216 0 14.02c1.249 2.804 7.496 7.981 7.496 7.981s7.496-1.078 7.674-7.981c.179-6.902-2.499-13.373-2.499-13.373l-12.672-.647z" fill="#00389b"/><path d="M288.94 21.015s1.163 4.651 0 8.139-11.046 12.79-11.046 20.348 11.627 30.812 47.091 31.394c35.463.581 80.229-19.185 79.647-19.767-.58-.581-84.88-56.974-86.04-56.393-1.16.582-29.65 17.441-29.65 16.279z" stroke="#000" stroke-width="1.122pt" fill="#005120" transform="matrix(.307 0 0 .371 350.733 188.675)"/><path d="M523.23 61.129s7.557 20.348 10.464 22.674c2.907 2.325 4.07 6.976 4.651 6.976l48.835 10.464s4.651-13.371-2.325-23.836c-6.977-10.465-33.138-37.789-33.138-37.789l-28.49 21.511z" stroke="#000" stroke-width="1.122pt" fill="#005120" transform="matrix(.307 0 0 .371 350.733 188.675)"/><path d="M556.37 36.13c1.162 0 12.79 9.883 22.092 4.651 9.301-5.232 24.417-19.185 24.417-19.185s-12.79 4.07-22.092 3.488c-9.302-.582-23.836 11.627-24.417 11.046z" stroke="#000" stroke-width="1.122pt" fill="#005120" transform="matrix(.307 0 0 .371 350.733 188.675)"/><path d="M287.2 23.34s-3.488-9.883-12.79-10.465c-9.302-.581-26.162 1.163-31.975-3.488-5.814-4.651-7.558-15.697-10.465-15.116-2.907.581-10.465 0-11.046 0s-3.488-9.302 4.651-13.953 15.116-.581 19.766-4.07c4.651-3.488 11.628-5.814 20.93-6.395 9.302-.581 24.417 11.628 31.394 14.534 6.976 2.907 22.092 6.395 27.905 3.488 5.814-2.907 38.371-15.697 49.998-16.278 11.627-.581 36.045-1.163 45.347-.581 9.302.581 45.928 5.232 56.974 10.465 11.046 5.232 69.764 25.58 77.903 30.231 8.139 4.651 26.162 11.627 26.162 11.627s-31.976 31.394-47.672 36.626c-15.697 5.232-65.695 13.372-95.345 11.627-29.65-1.744-52.904-4.651-75.578-16.278-22.68-11.626-47.1-22.672-48.26-28.486-1.16-5.813-.58-13.371-.58-13.371l-27.324 9.883z" stroke="#000" stroke-width="1.122pt" fill="#005120" transform="matrix(.307 0 0 .371 350.733 188.675)"/><path d="M251.15-14.449c-1.163.581-6.976 2.907-5.814 4.07 1.163 1.163 3.489 4.651 10.465 4.069 6.977-.581 14.534-4.651 14.534-4.651s-8.72-4.07-19.185-3.488z" stroke="#000" stroke-width="1.122pt" fill="#005120" transform="matrix(.307 0 0 .371 350.733 188.675)"/><path d="M250.57-13.286v6.395s8.139 2.325 8.139.581c0-1.744.581-5.814-1.163-5.814s-6.395-.581-6.976-1.163z" stroke="#000" stroke-width="1.122pt" transform="matrix(.307 0 0 .371 350.733 188.675)"/><path d="M331.95-8.453c2.056-3.7 0-8.633 11.922-14.388 11.921-5.755 32.681-4.111 32.681-4.111s-5.96 4.522-6.166 9.249c-.205 4.728.411 6.783.411 6.783s-11.305-3.7-19.938-1.439-18.704 4.522-18.91 3.905z" stroke="#000007" stroke-width="1.122pt" fill="#001707" transform="matrix(.307 0 0 .371 350.733 188.675)"/><path d="M385.4-28.596c-1.233.617-10.277 10.688-9.25 13.772 1.028 3.083 13.155 10.483 17.061 9.866 3.905-.617 21.787-9.249 22.815-13.566 1.028-4.316 1.85-10.072.411-11.305-1.439-1.233-30.832 1.644-31.037 1.233z" stroke="#000007" stroke-width="1.122pt" fill="#001707" transform="matrix(.307 0 0 .371 350.733 188.675)"/><path d="M424.66-30.24c-2.261 2.261-1.439 13.155-.617 14.388.822 1.233 15.005 15.416 18.088 16.238 3.083.822 25.899-1.439 27.749-3.905s7.399-12.949 5.755-15.416c-1.645-2.467-6.578-5.755-21.788-9.044s-24.254-2.878-29.187-2.261z" stroke="#000007" stroke-width="1.122pt" fill="#001707" transform="matrix(.307 0 0 .371 350.733 188.675)"/><path d="M482.82-16.469c3.7 1.85 25.282 12.333 38.026 20.76 12.743 8.427 17.882 18.088 21.582 18.91 3.7.822 18.704-8.222 19.321-10.688.617-2.467-18.293-15.621-31.037-21.582s-47.892-6.783-47.892-7.4z" stroke="#000007" stroke-width="1.122pt" fill="#001707" transform="matrix(.307 0 0 .371 350.733 188.675)"/><path d="M478.3-7.63c-1.85 1.644 23.021 45.014 27.748 46.453 4.728 1.439 33.093-8.427 32.682-11.716-.41-3.288-7.81-9.866-25.28-19.526-17.47-9.661-31.65-16.033-35.15-15.21z" stroke="#000007" stroke-width="1.122pt" fill="#001707" transform="matrix(.307 0 0 .371 350.733 188.675)"/><path d="M447.47 8.196c-3.905 2.261-10.071 41.109-6.166 42.959 3.905 1.85 52.003-4.728 53.853-9.044 1.849-4.316-19.733-38.642-26.105-38.642-6.371 0-17.882 1.644-21.582 4.728z" stroke="#000007" stroke-width="1.122pt" fill="#001707" transform="matrix(.307 0 0 .371 350.733 188.675)"/><path d="M397.73-.025c-5.14 4.728-4.11 40.903-1.85 43.164 2.261 2.261 30.831 9.661 33.914 6.989 3.084-2.672 7.195-43.37 4.317-46.453-2.878-3.083-10.894-10.483-17.06-11.099-6.167-.617-16.444 5.961-19.321 7.4z" stroke="#000007" stroke-width="1.122pt" fill="#001707" transform="matrix(.307 0 0 .371 350.733 188.675)"/><path d="M333.19-.642c-4.728 3.7-4.933 13.36.205 15.005 5.139 1.644 17.882 7.194 29.804 12.333 11.922 5.139 18.705 11.305 22.199 11.099 3.494-.206 6.783-36.381 3.083-38.437-3.7-2.055-14.594-3.7-24.871-3.289-10.277.411-25.282 1.439-30.42 3.289z" stroke="#000007" stroke-width="1.122pt" fill="#001707" transform="matrix(.307 0 0 .371 350.733 188.675)"/></g><path d="M387.976 359.201c2.589-2.521 6.616-8.683 12.081-8.962 5.465-.281 11.219 4.761 11.219 4.761s5.753 23.527 5.465 23.527l-9.78 6.722c-.288 0-4.027-9.243-7.479-8.403-3.452.841-3.164 13.444-3.74 12.604-.575-.841-15.245-18.206-14.67-18.766.575-.56 7.191-10.642 6.904-11.483z" fill-rule="evenodd" fill-opacity=".996" stroke-width="NaN" fill="#d40f0f"/><path d="M539.866 356.119c1.726-.279 9.493-6.162 14.958-5.881 5.466.279 8.631 2.8 11.507 5.321 2.876 2.521 6.328 8.962 6.328 8.962s-6.904 19.045-7.479 19.045-3.453 1.682-4.028.281-2.301-5.882-5.753-6.443c-3.451-.56-4.315 6.162-4.315 6.162l-11.218-27.447z" fill-rule="evenodd" fill-opacity=".996" stroke-width="NaN" fill="#d40f0f"/><path d="M543.604 362.007c0 1.682 10.643 28.009 27.903 33.05 17.258 5.042 22.725-4.761 24.737-8.121 2.014-3.362 9.206-3.081 9.206-3.081s-1.726 24.648-4.603 27.728c-2.876 3.081-5.178 9.803-21.286 10.082-16.108.281-30.778-15.123-35.668-19.606-4.891-4.482-11.22-16.244-13.809-21.566-2.588-5.321 13.808-17.924 13.52-18.485z" fill-rule="evenodd" fill-opacity=".996" stroke-width="NaN" fill="#fddc59"/><path d="M356.048 414.374c.288 0 7.767 8.123 18.697 7.282 10.931-.839 29.628-7.282 38.258-18.485 8.63-11.203 12.944-23.247 12.944-23.247s-12.657-22.406-12.944-22.406c-.288 0-1.438 7.282-3.739 12.043-2.301 4.761-8.63 18.205-19.273 22.407-10.643 4.201-10.643 5.881-14.958 5.321-4.315-.56-15.533-7.282-15.533-7.563 0-.279-5.465 13.165-5.465 13.165s-1.151 8.683 2.014 11.483z" fill-rule="evenodd" fill-opacity=".996" stroke-width="NaN" fill="#fddc59"/><path d="M387.782 358.423c-.814 0-21.154 11.091-20.34 15.844.814 4.753 34.985 72.089 108.206 72.88 73.223.793 117.975-60.999 114.719-71.297-3.254-10.297-26.034-22.181-26.034-22.181s5.694 4.753 4.881 11.091c-.814 6.338-26.036 60.999-89.497 59.416-63.461-1.585-93.565-49.908-93.565-55.454 0-5.545 3.254-8.714 1.627-10.298z" fill-rule="evenodd" fill-opacity=".996" stroke-width="NaN" fill="#fddc59"/><path d="M586.171 407.381c1.727-1.401 12.37-30.53 18.41-29.689 6.041.841 4.028 9.522 3.453 11.764-.575 2.24-6.617 22.406-6.617 22.406s.288-4.761-3.739-5.881c-4.026-1.12-10.643 1.961-11.507 1.401z" fill-rule="evenodd" fill-opacity=".996" stroke-width="NaN" fill="#d40f0f"/><path d="M356.048 414.671c0-1.583-4.882-7.129.814-8.714 5.695-1.583 13.018 1.585 13.018 1.585s-4.068-11.884-8.95-21.389c-4.882-9.506-6.509-7.921-10.577-6.338-4.068 1.585-3.969 5.778-1.528 12.115 2.441 6.338 7.224 24.326 7.224 22.741z" fill-rule="evenodd" fill-opacity=".996" stroke-width="NaN" fill="#d40f0f"/><g><path fill="#fdc400" fill-rule="evenodd" transform="matrix(.392 0 0 .398 325.103 89.045)" stroke-width="1pt" d="M249.94 680.32l18-59.99-49.99-37.71 62.61-1.42 20.42-59.2 20.7 59.1 62.61 1.14-49.82 37.94 18.27 59.9-51.48-35.65z"/><path d="M673.23 325.98l-.001 256.89c.59 125.55-148.82 235.49-248.03 256.89-99.22-21.4-248.62-131.34-248.03-256.88v-256.89h496.06z" fill-rule="evenodd" transform="matrix(.307 0 0 .358 348.952 119.039)" stroke-width="1pt" fill="#fff"/><path d="M177.16 325.98l.421 160.73s2.386-3.288 35.012-1.284c32.627 2.004 35.433 35.433 70.867 35.433l70.866-35.433s35.433 35.433 70.866 35.433 35.433-35.433 70.866-35.433 35.433 35.433 72.87 37.459c33.429-2.026 33.429-37.459 69.062-39.463l35.233 2.004v-159.45h-496.06z" fill-rule="evenodd" fill-opacity=".996" transform="matrix(.307 0 0 .358 348.952 119.039)" stroke="#000" stroke-width="1.122pt" fill="#d40f0f"/><path d="M177.16 432.28v53.15h35.433c32.627 2.004 35.432 35.433 70.866 35.433l70.866-35.433s35.433 35.433 70.866 35.433 35.434-35.433 70.867-35.433 33.429 33.407 70.866 35.433c33.429-2.026 35.233-33.429 70.866-35.433h35.433v-53.15h-35.433c-35.433 0-35.433 35.433-70.866 35.434-35.433-.001-35.433-35.434-70.866-35.434s-35.433 35.433-70.867 35.433l-70.866-35.433s-35.433 35.433-70.866 35.433-35.433-35.433-70.866-35.433h-35.433z" fill-rule="evenodd" fill-opacity=".996" transform="matrix(.307 0 0 .358 348.952 157.125)" stroke-width="1pt" fill="#0062bb"/><path d="M187.85 432.28l24.745 53.15c32.627 2.004 35.432 35.433 70.866 35.433l70.866-35.433s35.433 35.433 70.866 35.433 35.434-35.433 70.867-35.433 33.429 33.407 70.866 35.433c33.429-2.026 34.411-33.429 70.044-35.433l25.567-53.972-24.745.822c-35.433 0-35.433 35.433-70.866 35.434-35.433-.001-35.433-35.434-70.866-35.434s-35.433 35.433-70.867 35.433l-70.866-35.433s-35.433 35.433-70.866 35.433-35.433-35.433-70.866-35.433h-24.745z" fill-rule="evenodd" fill-opacity=".996" transform="matrix(.307 0 0 .358 348.952 195.208)" stroke-width="1pt" fill="#0062bb"/><path d="M425.2 520.87c35.434 0 116.62-53.15 115.79-53.15.823 0-9.494-35.433-44.927-35.433s-35.433 35.433-70.867 35.433l-70.866-35.433s-44.477 35.433-44.556 35.433c-1.645 0 79.989 53.15 115.42 53.15z" fill-rule="evenodd" fill-opacity=".996" transform="matrix(.307 0 0 .358 348.952 233.29)" stroke-width="1pt" fill="#0062bb"/><g><path d="M90.849 117.57c.822 0 8.222 1.233 13.565.822 5.344-.411 7.4-2.467 7.4-2.878v-1.233h6.988s1.233 5.755.411 6.166-2.878 2.056-3.289 2.056 0-2.878-.822-2.056l-1.233 2.056s-.822-1.234-1.233-1.234l-1.233 1.234s0-1.234-.412-1.234c-.411 0-2.466 2.056-2.466 2.056l-2.055-1.645s-1.234 2.056-1.645 2.056l-2.877-1.644-4.111 2.466s0-3.7-.822-3.289c-.822.411-5.344.411-5.344.411s-1.233 2.467-1.644 2.467-2.055-2.055-1.644-2.055 1.233-1.234.822-1.645l-2.466-.411s-.822-2.878-.411-2.878l2.055.412v-2.467h2.055l.411 2.467z" fill-rule="evenodd" fill-opacity=".996" transform="matrix(1.5 0 0 1.306 286.934 126.325)" stroke="#000" stroke-width=".701" fill="#fdc400"/><path d="M98.248 94.136c-.411 0-3.289 3.289-2.878 6.988.411 3.7 7.4 9.044 7.4 9.044s3.7-1.644 4.933 0 1.233 6.577.822 6.577-5.344 1.234-5.344.411c0-.822 0-1.644-.411-1.644l-4.933.411.411-1.644-4.111-.822 1.644-1.645s-6.577-2.877-6.166-2.877l2.878-1.644-4.933-3.289h2.878s-4.111-3.289-3.7-3.289c.411 0 2.466.411 2.466.411l-1.233-3.288h1.233l-1.233-2.466 2.055-.822 1.233 2.055-.411-4.933 2.877.411v4.111s1.233-2.466 1.233-2.878c0-.411 3.7 1.644 3.289.822z" fill-rule="evenodd" fill-opacity=".996" transform="matrix(1.5 0 0 1.306 286.934 126.325)" stroke="#000" stroke-width=".701" fill="#fdc400"/><path d="M529.89 282.391c-.771.671-3.084 2.145-3.084 2.145s5.242-.402 5.088-.402-1.85-1.342-2.004-1.743z" fill-rule="evenodd" fill-opacity=".996"/><path d="M534.36 284.936c-.307.402-1.233 4.56-.616 4.291.616-.268 3.083-3.353 3.083-3.353l-2.466-.938z" fill-rule="evenodd" fill-opacity=".996"/><path d="M541.44 285.471c.77.671 4.316 3.754 3.853 3.084-.462-.669-.925-3.487-1.233-3.62-.309-.134-2.313.804-2.621.536z" fill-rule="evenodd" fill-opacity=".996"/><path d="M479.325 281.047c-.462.134-4.316 2.683-4.316 2.683s6.474-1.074 6.165-1.074c-.307 0-2.004-1.206-1.85-1.609z" fill-rule="evenodd" fill-opacity=".996"/><path d="M483.33 284.27c-.616.536-2.621 4.291-1.85 4.158.771-.134 4.162-2.549 4.162-2.549l-2.313-1.609z" fill-rule="evenodd" fill-opacity=".996"/><path d="M480.855 279.037c-.462-.134-3.7-1.476-3.546-1.476l4.317-.938-.771 2.414z" fill-rule="evenodd" fill-opacity=".996"/><path d="M419.817 277.302l-4.625-3.219 5.858 1.609-1.233 1.61z" fill-rule="evenodd" fill-opacity=".996"/><path d="M415.809 279.442c-.617 0-6.475 3.218-6.32 3.218s8.17.134 8.016 0c-.154-.133-1.387-2.949-1.696-3.218z" fill-rule="evenodd" fill-opacity=".996"/><path d="M419.508 284.14c-.617.269-5.241 3.353-4.933 3.353.308 0 6.937.134 6.937 0s-1.85-3.218-2.004-3.353z" fill-rule="evenodd" fill-opacity=".996"/><path d="M418.892 250.74s-1.696-3.755-1.542-3.755c.154 0 4.316 2.951 4.316 2.951l-2.775.805z" fill-rule="evenodd" fill-opacity=".996"/><path d="M423.516 246.046c0-.134.462-2.414.462-2.414s4.162 2.816 4.008 2.816c-.154 0-4.162 0-4.47-.402z" fill-rule="evenodd" fill-opacity=".996"/><path d="M429.991 247.789c0-.134.462-3.487.462-3.487s3.854 4.56 3.546 4.694c-.308.134-3.7-.671-4.008-1.207z" fill-rule="evenodd" fill-opacity=".996"/><path d="M137.26 110.86c0 .206 4.316 3.7 4.419 4.522.102.822-7.811 1.028-7.811 1.028s-2.261-1.747-2.98-1.645c-.72.103-1.028 1.85-1.028 1.85l1.85 1.028-3.494.205 1.028 1.953 2.672-.206-.617 1.85s1.644 1.234 1.953 1.028c.308-.205 1.336-2.055 2.158-2.364.822-.308 2.569-.308 2.569-.308s-1.336 2.261-.719 2.261c.616 0 3.391-2.364 3.391-2.364s.617 2.158.719 2.158c.103 0 2.056-2.466 2.056-2.466s0 1.953.308 1.953l3.186-2.467s2.261 2.878 2.569 2.672c.309-.205.617-3.083.925-3.083s2.261-.308 2.261-.411-1.233-1.131-1.439-2.569c-.205-1.439.206-4.83.103-4.83s-13.874.513-14.079.205z" fill-rule="evenodd" fill-opacity=".996" transform="matrix(1.5 0 0 1.306 285.91 126.62)" stroke="#000" stroke-width=".701" fill="#fdc400"/><path d="M115.37 104.6h40.286c4.111 0 7.81-1.644 7.81-4.111 0-2.466-6.577-2.877-9.043-2.055-2.467.822-13.155 5.755-17.677 5.344s-8.632-3.289-9.043-6.166c-.412-2.878 2.055-5.344 6.577-5.344s10.277 1.644 11.51 1.233 4.111-3.7 5.344-4.111c1.233-.411 4.933-.822 4.933-.822l-1.644 1.233 5.344-1.233s-4.111 4.522-8.222 5.755c-4.111 1.233-12.743.822-16.032.822s-4.933-.411-4.522 2.055c.411 2.466 2.878 4.111 4.933 3.699 2.056-.411 8.222-2.466 8.222-2.466l-1.645-1.233 7.4-.411s-.411-1.233 0-1.233l4.111.411s-2.467-1.233-2.056-1.233 2.056 0 5.344.411c3.289.411 10.277 1.644 9.866 4.933-.411 3.289-2.877 6.166-5.755 6.166s-5.344-.822-5.344.412c0 1.233 3.289 2.055 5.344 2.055s4.522-1.644 4.933-1.644 1.233 2.466 1.644 2.466l2.878-.822-1.644 4.522 2.877.822s-1.644 1.644-1.233 1.644 2.877 0 2.877.411-3.288 2.878-3.288 3.289l2.466 1.644s-1.644 2.467-2.055 2.056l-2.056-2.467s-.411 1.645-1.233 1.645l-2.466-.411s1.233-2.467.822-2.467-2.467 1.644-2.467 1.233l-1.232-1.236s3.288-1.336 3.288-3.289c0-1.952-1.336-3.905-7.296-4.213-5.961-.309-6.064 1.438-10.483 1.233-4.419-.206-4.419-1.953-7.708-1.953-3.288 0-13.463 4.111-18.19 4.008-4.727-.102-10.688-.411-10.483-.616.206-.206 3.906-9.661 4.008-9.966z" fill-rule="evenodd" fill-opacity=".996" transform="matrix(1.5 0 0 1.306 285.91 126.62)" stroke="#000" stroke-width=".701" fill="#fdc400"/><path d="M106.88 102.46c-.411.206-4.008.72-4.214 4.522-.205 3.803.309 3.803.72 3.597.411-.205 1.233-3.494 1.233-3.494s-1.233 4.522.103 5.55c1.336 1.027 2.775 1.438 2.775 1.438l.513-3.597s-1.027 3.495 1.439 4.728c2.467 1.233 3.392.308 3.186-.617-.205-.925-.925-3.288-.925-3.288s1.953 2.158 2.056 2.363c.102.206 1.027 1.85 3.494 1.131 2.466-.72.719-2.364.719-2.364l-2.98-2.46s3.083 3.185 4.419 2.055-1.028-3.597-.925-3.494 1.953 3.494 2.672 1.336-1.13-2.775-1.747-4.83c-.617-2.056-1.131-2.261-.514-3.495.617-1.233.72-3.596.72-3.596s2.569.617 2.363-1.542c-.205-2.158-2.775-2.672-3.288-2.775-.514-.103-.412-2.261-.617-2.158-.206.103-1.85 1.336-1.85 1.336s-1.439-3.392-1.747-3.186-1.953 1.953-3.186 2.055c-1.233.103-1.953 1.85-1.953 1.85s-4.316-2.055-4.213 1.336c.103 3.392 2.569 2.569 2.569 2.672s-.411 4.728-.822 4.933z" fill-rule="evenodd" fill-opacity=".996" transform="matrix(1.5 0 0 1.306 286.934 126.325)" stroke="#000" stroke-width=".701" fill="#fdc400"/><path d="M450.851 253.215c.742-.227 1.832-1.174 3.096-1.059s3.29 1.085 2.288 1.614c-1.004.53-1.744.757-2.879.49-1.133-.267-2.004-.837-2.505-1.046z" fill-rule="evenodd" fill-opacity=".996"/><path d="M463.369 253.081c-.742-.227-1.832-1.174-3.096-1.059s-3.29 1.085-2.288 1.614c1.004.53 1.744.757 2.879.49 1.133-.267 2.004-.837 2.505-1.046z" fill-rule="evenodd" fill-opacity=".996"/><path d="M110.99 103.17c.103.514.411 4.831.616 4.522.206-.308 1.748-4.419 1.645-4.419s-2.158.103-2.261-.103z" fill-rule="evenodd" fill-opacity=".996" transform="matrix(1.5 0 0 1.306 287.143 126.389)" stroke="#000" stroke-width=".421" fill="#000039"/><path d="M109.96 103.17c.049-1.215.822-1.13 2.467-.925 1.644.206 2.466 1.028 2.363 1.234-.102.205-1.438.719-2.569.616-1.336-.411-2.298.089-2.261-.925z" transform="matrix(1.5 0 0 1.306 287.143 126.579)" stroke="#000" stroke-width=".842" fill="none"/><path d="M112.43 100.08l-.206 1.953" transform="matrix(1.5 0 0 1.306 287.143 126.579)" stroke="#000" stroke-width="1.122pt" fill="none"/><path d="M119.32 94.844s1.336.617 1.131 1.233c-.206.617-1.131.925-1.131.925" transform="matrix(1.5 0 0 1.306 287.143 126.579)" stroke="#000" stroke-width="1.122pt" fill="none"/><path d="M108.12 94.33c-.308.103-.719.308-.925 1.131-.205.822.925 1.336.925 1.336" transform="matrix(1.5 0 0 1.306 287.143 126.579)" stroke="#000" stroke-width="1.122pt" fill="none"/><path d="M111.19 136.13s-1.454 1.454 1.017 1.454l.727-1.308" transform="matrix(1.5 0 0 1.306 287.36 77.607)" stroke="#000" stroke-width="1.122pt" fill="none"/></g><path fill="#fdc400" fill-rule="evenodd" transform="matrix(.356 0 0 .351 373.354 164.908)" stroke-width="1pt" d="M249.94 680.32l18-59.99-49.99-37.71 62.61-1.42 20.42-59.2 20.7 59.1 62.61 1.14-49.82 37.94 18.27 59.9-51.48-35.65z"/><path fill="#003017" fill-rule="evenodd" fill-opacity=".996" transform="matrix(.297 0 0 .279 391.222 208.376)" stroke-width="1pt" d="M249.94 680.32l18-59.99-49.99-37.71 62.61-1.42 20.42-59.2 20.7 59.1 62.61 1.14-49.82 37.94 18.27 59.9-51.48-35.65z"/><path fill="#fdc400" fill-rule="evenodd" transform="matrix(.352 0 0 .332 337.626 135.231)" stroke-width="1pt" d="M249.94 680.32l18-59.99-49.99-37.71 62.61-1.42 20.42-59.2 20.7 59.1 62.61 1.14-49.82 37.94 18.27 59.9-51.48-35.65z"/><path fill="#003017" fill-rule="evenodd" fill-opacity=".996" transform="matrix(.294 0 0 .264 355.311 176.335)" stroke-width="1pt" d="M249.94 680.32l18-59.99-49.99-37.71 62.61-1.42 20.42-59.2 20.7 59.1 62.61 1.14-49.82 37.94 18.27 59.9-51.48-35.65z"/><path fill="#fdc400" fill-rule="evenodd" transform="matrix(.356 0 0 .332 410.402 135.231)" stroke-width="1pt" d="M249.94 680.32l18-59.99-49.99-37.71 62.61-1.42 20.42-59.2 20.7 59.1 62.61 1.14-49.82 37.94 18.27 59.9-51.48-35.65z"/><path fill="#003017" fill-rule="evenodd" fill-opacity=".996" transform="matrix(.297 0 0 .264 428.312 176.335)" stroke-width="1pt" d="M249.94 680.32l18-59.99-49.99-37.71 62.61-1.42 20.42-59.2 20.7 59.1 62.61 1.14-49.82 37.94 18.27 59.9-51.48-35.65z"/></g><path d="M373.272 372.554c8.026 34.543 41.902 60.18 87.528 66.243 58.605 7.787 114.514-21.905 124.795-66.277" fill="none"/><path d="M373.449 378.042l11.012-6.221 1.036 2.264-4.319 2.44 1.429 3.122 4.319-2.44 1.036 2.264-11.012 6.221-1.036-2.264 4.991-2.819-1.429-3.122-4.991 2.819-1.036-2.264m4.61 9.633l10.28-7.609 3.518 5.867-1.709 1.265-2.25-3.753-2.377 1.759 2.095 3.493-1.629 1.206-2.095-3.493-2.83 2.095 2.304 3.842-1.736 1.285-3.571-5.956m7.164 11.05l9.069-9.319 1.552 1.865-3.557 3.655 2.14 2.571 3.557-3.655 1.552 1.865-9.069 9.319-1.552-1.865 4.11-4.224-2.14-2.571-4.11 4.224-1.552-1.865m11.843 5.518l1.472 1.434 2.675-5.051-4.146 3.617m-5.753 1.72l10.238-8.28 2.322 2.262-6.034 12.376-1.864-1.816 1.588-3.04-1.99-1.939-2.493 2.158-1.767-1.722m8.933 8.298l6.101-9.242-2.135-1.739 1.205-1.825 6.126 4.991-1.205 1.825-2.135-1.739-6.101 9.242-1.856-1.513m5.01 4.005l6.435-11.715 1.951 1.323-2.524 4.595 2.691 1.825 2.524-4.595 1.951 1.323-6.435 11.715-1.951-1.323 2.917-5.31-2.691-1.825-2.917 5.31-1.951-1.323m12.097 7.654l5.192-12.452 5.859 3.016-.85 2.038-3.77-1.94-1.227 2.943 3.559 1.832-.829 1.989-3.559-1.832-2.286 5.483-2.089-1.075m11.458-1.891c-.721 2.111-1.066 3.487-1.033 4.13.039.639.358 1.085.958 1.338.59.249 1.084.152 1.481-.291.404-.446.97-1.735 1.699-3.868s1.076-3.518 1.042-4.155c-.034-.637-.349-1.081-.943-1.332-.595-.251-1.095-.151-1.501.301-.406.452-.973 1.744-1.702 3.877m-2.197-.927c.465-1.361.893-2.423 1.285-3.185.394-.768.784-1.306 1.169-1.614.534-.442 1.077-.69 1.627-.744.55-.054 1.205.079 1.965.4.76.32 1.33.704 1.709 1.15.38.446.64 1.032.78 1.759.101.525.068 1.217-.099 2.074-.162.859-.475 1.967-.938 3.322-.461 1.35-.889 2.409-1.283 3.177-.392.762-.78 1.304-1.164 1.625-.539.44-1.084.687-1.634.741-.55.054-1.206-.079-1.965-.4-.76-.32-1.33-.704-1.709-1.15-.38-.446-.637-1.031-.773-1.756-.105-.514-.076-1.201.086-2.061.164-.865.478-1.978.943-3.339m10.625-2.915l2.206.73-2.376 8.866c-.272 1.014-.346 1.739-.223 2.176.129.433.478.744 1.047.932.564.187 1.002.133 1.315-.16.318-.292.615-.953.891-1.983l2.367-8.832 2.176.72-2.433 9.079c-.237.883-.456 1.514-.658 1.893-.195.375-.44.682-.732.92-.441.356-.955.564-1.54.625-.584.055-1.234-.036-1.952-.274-1.353-.448-2.222-1.088-2.607-1.922-.378-.838-.35-2.068.085-3.691l2.433-9.079m5.908 16.183l2.698-13.393 2.309.574 1.252 10.147 1.824-9.382 2.121.527-2.698 13.393-2.294-.57-1.272-10.17-1.828 9.399-2.114-.525m12.076.683l1.006.175c.512.089.878.111 1.095.064.218-.046.401-.159.551-.337.261-.315.479-.771.655-1.365.177-.601.36-1.576.55-2.926.185-1.315.267-2.281.246-2.898-.021-.617-.137-1.1-.348-1.45-.111-.176-.267-.311-.47-.407-.197-.1-.517-.189-.961-.266l-.975-.17-1.35 9.579m-2.509 1.611l1.911-13.559 3.653.636c.745.13 1.327.303 1.745.52.424.218.756.51.997.877.363.538.581 1.178.655 1.918.08.736.015 1.849-.195 3.34-.271 1.925-.524 3.276-.758 4.054-.233.771-.534 1.41-.904 1.917-.359.509-.805.831-1.338.967-.527.131-1.406.089-2.637-.125l-3.13-.545m9.555 1.571l1.188-13.661 6.316.678-.197 2.271-4.04-.434-.275 3.158 3.761.404-.188 2.164-3.761-.404-.327 3.761 4.136.444-.2 2.306-6.411-.688m10.435-1.106l1.018.041c.518.021.883-.006 1.094-.081.211-.075.381-.211.511-.408.225-.348.393-.828.504-1.442.111-.62.189-1.613.233-2.978.043-1.33.021-2.3-.066-2.91-.087-.61-.254-1.074-.501-1.393-.129-.16-.299-.274-.511-.341-.206-.074-.534-.119-.983-.137l-.986-.039-.314 9.69m-2.318 1.932l.445-13.715 3.696.148c.754.03 1.35.125 1.789.286.444.16.806.407 1.084.739.418.486.703 1.092.856 1.818.159.72.213 1.834.165 3.342-.063 1.947-.169 3.323-.318 4.125-.149.797-.379 1.471-.692 2.023-.302.553-.71.932-1.225 1.137-.509.2-1.387.274-2.632.225l-3.166-.127m13.761.179l-.49-13.714 2.3-.102.49 13.714-2.3.102m6.144-.361l-.844-11.422-2.638.241-.167-2.256 7.571-.691.167 2.256-2.638.241.844 11.422-2.294.209m8.104-14.715l2.268-.438 1.426 9.114c.163 1.042.387 1.728.672 2.059.29.324.727.43 1.312.317.58-.112.951-.377 1.113-.794.168-.418.169-1.157.003-2.217l-1.42-9.079 2.237-.432 1.46 9.333c.142.907.198 1.581.17 2.021-.025.433-.12.828-.287 1.186-.252.537-.629.978-1.128 1.322-.501.338-1.12.578-1.858.721-1.391.269-2.426.125-3.104-.432-.674-.563-1.142-1.679-1.403-3.347l-1.46-9.333m12.29 3.48l.935-.253c.696-.188 1.152-.471 1.366-.847.213-.382.24-.939.079-1.672-.162-.739-.404-1.215-.726-1.427-.318-.22-.838-.232-1.56-.036l-.966.261.871 3.974m-.515 8.083l-2.923-13.335 3.881-1.05c1.185-.321 2.101-.257 2.75.191s1.12 1.342 1.413 2.681c.289 1.316.226 2.373-.189 3.17-.41.79-1.184 1.339-2.322 1.647l-1.629.441 1.24 5.654-2.221.601m8.822-9.662c.614 2.152 1.114 3.469 1.498 3.95.388.474.888.603 1.499.388.601-.212.934-.628.998-1.249.068-.628-.209-2.03-.83-4.205s-1.123-3.5-1.505-3.976c-.383-.476-.877-.607-1.484-.393-.607.214-.943.638-1.009 1.272-.066.634.212 2.038.832 4.213m-2.24.789c-.396-1.387-.654-2.515-.772-3.383-.12-.874-.116-1.564.015-2.071.172-.715.458-1.283.86-1.705.401-.422.989-.769 1.764-1.042s1.436-.366 1.982-.278c.547.088 1.078.368 1.595.84.373.342.733.907 1.081 1.694.353.786.727 1.869 1.122 3.251.393 1.376.65 2.501.77 3.375.119.868.117 1.561-.004 2.077-.177.717-.466 1.286-.867 1.708-.401.422-.989.769-1.764 1.042s-1.436.366-1.982.278c-.547-.088-1.076-.369-1.587-.843-.369-.331-.731-.889-1.084-1.675-.355-.791-.73-1.881-1.126-3.268m11.291 3.137l-4.596-12.739 2.196-.978 6.2 7.579-3.274-8.882 2.018-.899 4.596 12.739-2.181.972-6.228-7.586 3.28 8.899-2.01.895m14.307-7.027l-4.819-10.133-2.34 1.374-.952-2.001 6.716-3.943.952 2.001-2.34 1.374 4.819 10.133-2.035 1.195m5.438-3.242l-6.596-11.604 1.933-1.356 2.587 4.551 2.665-1.87-2.587-4.551 1.933-1.356 6.596 11.604-1.933 1.356-2.99-5.259-2.665 1.87 2.99 5.259-1.933 1.356m8.24-5.934l-7.445-10.952 5.063-4.248 1.238 1.821-3.239 2.718 1.721 2.532 3.015-2.53 1.18 1.735-3.015 2.53 2.05 3.015 3.316-2.782 1.257 1.849-5.14 4.313m6.355-11.776l1.642-1.793.557.629c.532.602.963.94 1.291 1.015.328.066.659-.082.99-.444.347-.379.524-.764.531-1.154.011-.395-.153-.783-.49-1.164-.259-.292-.543-.474-.852-.544-.313-.075-.826-.048-1.538.08l-1.426.257c-1.219.232-2.09.274-2.61.126-.517-.152-1.019-.504-1.506-1.054-.727-.822-1.077-1.706-1.051-2.651.026-.945.425-1.838 1.195-2.679.816-.891 1.661-1.326 2.534-1.305s1.72.496 2.541 1.424l.185.222.112.14-1.556 1.699-.231-.261c-.468-.53-.882-.824-1.241-.882-.359-.058-.717.109-1.076.5-.263.287-.394.601-.393.941.001.332.137.65.407.956.364.411 1.104.498 2.221.261l.028-.006 1.506-.307c1.064-.229 1.898-.257 2.502-.083.6.17 1.188.581 1.766 1.233.787.89 1.165 1.826 1.135 2.809-.03.983-.471 1.938-1.322 2.867-.885.966-1.77 1.432-2.654 1.398-.881-.038-1.782-.578-2.704-1.621-.097-.11-.251-.301-.461-.572l-.034-.038m9.559-3.855l-9.468-8.815 4.075-5.403 1.574 1.465-2.607 3.456 2.189 2.038 2.427-3.217 1.5 1.397-2.427 3.217 2.607 2.427 2.669-3.538 1.599 1.488-4.137 5.485m2.404-12.287l1.094-1.804-4.849-2.307 3.755 4.111m2.265 6.122l-8.69-10.233 1.725-2.846 11.814 5.081-1.385 2.284-2.915-1.365-1.479 2.439 2.243 2.474-1.313 2.166m1.466-11.16l1.052-2.275.706.403c.676.385 1.18.556 1.513.512.331-.052.602-.308.815-.768.222-.481.281-.908.177-1.281-.102-.379-.366-.69-.795-.934-.328-.187-.649-.26-.963-.219-.318.039-.798.243-1.437.613l-1.281.742c-1.092.646-1.906.99-2.442 1.031-.534.036-1.11-.122-1.728-.475-.923-.526-1.506-1.243-1.748-2.149-.242-.906-.117-1.893.377-2.961.523-1.131 1.202-1.839 2.037-2.124.835-.285 1.774-.13 2.815.464l.239.146.146.093-.997 2.156-.293-.167c-.595-.339-1.07-.474-1.428-.404-.357.07-.65.354-.88.85-.169.365-.204.708-.107 1.031.095.315.314.57.656.765.461.263 1.189.087 2.183-.528l.025-.016 1.342-.817c.946-.589 1.73-.907 2.352-.953.618-.048 1.293.136 2.025.554.999.57 1.623 1.327 1.872 2.27.249.944.102 2.005-.443 3.183-.567 1.226-1.275 1.978-2.124 2.255-.847.272-1.855.074-3.026-.594-.124-.071-.323-.198-.599-.382l-.043-.024"/></g></g></svg>