<svg xmlns="http://www.w3.org/2000/svg" height="480" width="640"><defs><clipPath id="a"><path fill-opacity=".67" d="M0-15.957h512v512h-512z"/></clipPath></defs><g><path fill="#fff" d="M0 0h640v480h-640z"/><g fill-rule="evenodd" clip-path="url(#a)"><path d="M6.131 473.905l355.112-.01-232.431-235.708 241.185.284-363.845-232.392-.018 467.826z" stroke="#000063" stroke-width="12.96828" fill="#ce0000"/><path fill="#fff" transform="matrix(1.203 0 0 1.174 -187.837 -265.406)" stroke-width="1pt" d="M296.98 523.24l-21.03 7.14 16.45 15.87-22.16-1.46 9.13 20.96-19.91-9.82.41 22.85-14.64-16.7-8.37 21.28-7.13-21.03-15.87 16.45 1.45-22.16-20.95 9.13 9.82-19.91-22.86.41 16.7-14.64-21.27-8.37 21.03-7.13-16.46-15.87 22.16 1.45-9.12-20.95 19.91 9.82-.41-22.86 14.64 16.7 8.36-21.27 7.14 21.03 15.87-16.46-1.46 22.16 20.96-9.12-9.82 19.91 22.85-.41-16.7 14.64z"/><path d="M139.05 175.39l-10.622 7.863 5.235 4.326c12.714-9.827 21.761-18.808 28.831-33.713 1.658 19.894-16.578 64.552-64.435 65.045-51.219-.043-68.991-47.425-67.015-65.884 9.409 17.071 15.151 25.395 29.921 34.283l4.519-4.148-10.004-8.335 12.878-3.349-6.929-11.662 13.492.983-1.695-13.58 11.828 6.921 3.701-12.642 8.498 10.182 7.961-9.653 4.334 13.116 11.052-7.691-1.417 13.339 13.25-1.555-6.211 12.331 12.826 3.822z" stroke-width="NaN" fill="#fff"/></g></g></svg>