<svg xmlns="http://www.w3.org/2000/svg" height="480" width="640"><defs><clipPath id="a"><path fill-opacity=".67" d="M0 0h496.06v372.05h-496.06z"/></clipPath></defs><g clip-path="url(#a)"><path fill-rule="evenodd" stroke-width="NaN" fill="#fff" d="M.017 0h644.519v320.099h-644.519z"/><path d="M.017.001l-.027 24.025 153.805 79.029 57.878 1.677-211.657-104.731z" fill="#c00"/><path d="M65.87.001l186.473 97.398v-97.398h-186.46z" fill="#006"/><path fill="#c00" d="M277.213.001v124.339h-277.187v71.051h277.187v124.339h85.29v-124.339h277.187v-71.051h-277.187v-124.339h-85.29z"/><path d="M387.37.001v91.775l182.421-91.064-182.421-.71z" fill="#006"/><path d="M393.137 101.78l51.298-.413 199.31-100.656-52.885.862-197.723 100.207z" fill="#c00"/><path d="M.017 216.109v68.09l127.935-67.374-127.935-.723z" fill="#006"/><path d="M492.663 218.922l-53.332-.414 201.039 100.094-1.322-22.9-146.386-76.78zm-442.693 101.371l188.511-98.971-49.518.335-188.95 98.494" fill="#c00"/><path d="M642.391 28.12l-152.244 75.496 150.218.562v112.498h-127.935l126.752 68.679 1.86 34.937-67.702-.809-185.299-90.966v91.775h-135.045v-91.775l-173.816 91.528-78.501.246v319.724h1279.349v-639.462l-636.288-.554m-643.049 36.088l-.675 66.403 134.684 1.688-134-68.09z" fill="#006"/><g fill-rule="evenodd" stroke-width="1pt" fill="#ffd900"><path d="M640.017 0h640.017v640.017h-640.017z"/><path d="M0 320.009h675.407v320.008h-675.407z"/></g><g fill-rule="evenodd"><path d="M375.262 161.578c0 30.469-24.7 55.169-55.169 55.169-30.469 0-55.169-24.7-55.169-55.169s24.7-55.169 55.169-55.169c30.469 0 55.169 24.7 55.169 55.169z" fill="#000067"/><path transform="matrix(.486 0 0 .471 61.026 -5.199)" stroke-width="1pt" fill="#fff40d" d="M511.95 324.28l21.83-67.38 21.83 67.38 70.83-.05-57.34 41.58 21.94 67.35-57.27-41.68-57.27 41.67 21.95-67.34-57.33-41.6z"/><path transform="matrix(.241 0 0 .221 378.158 81.193)" stroke-width="1pt" fill="#fff40d" d="M511.95 324.28l21.83-67.38 21.83 67.38 70.83-.05-57.34 41.58 21.94 67.35-57.27-41.68-57.27 41.67 21.95-67.34-57.33-41.6z"/><path transform="matrix(.241 0 0 .221 191.521 191.539)" stroke-width="1pt" fill="#fff40d" d="M511.95 324.28l21.83-67.38 21.83 67.38 70.83-.05-57.34 41.58 21.94 67.35-57.27-41.68-57.27 41.67 21.95-67.34-57.33-41.6z"/><path transform="matrix(.241 0 0 .221 191.521 -23.955)" stroke-width="1pt" fill="#fff40d" d="M511.95 324.28l21.83-67.38 21.83 67.38 70.83-.05-57.34 41.58 21.94 67.35-57.27-41.68-57.27 41.67 21.95-67.34-57.33-41.6z"/><path transform="matrix(.241 0 0 .221 4.307 81.193)" stroke-width="1pt" fill="#fff40d" d="M511.95 324.28l21.83-67.38 21.83 67.38 70.83-.05-57.34 41.58 21.94 67.35-57.27-41.68-57.27 41.67 21.95-67.34-57.33-41.6z"/></g></g></svg>