<svg xmlns="http://www.w3.org/2000/svg" height="480" width="640"><defs><clipPath id="a"><path fill-opacity=".67" d="M0 0h640v480h-640z"/></clipPath></defs><g clip-path="url(#a)"><path fill-rule="evenodd" stroke-width="1pt" fill="#5387f4" d="M-79.429 318.86h798.86v161.14h-798.86z"/><path fill-rule="evenodd" stroke-width="1pt" fill="#5387f4" d="M-79.429 0h798.86v161.14h-798.86z"/><path fill-rule="evenodd" stroke-width="1pt" fill="#fff" d="M-79.429 161.14h798.86v157.71h-798.86z"/><g><g stroke="#000" fill-rule="evenodd"><g><path d="M490.58 234.24c0 .846-.823 1.531-1.837 1.531s-1.837-.686-1.837-1.531c0-.846.823-1.531 1.837-1.531s1.837.686 1.837 1.531z" transform="matrix(-.78 -.489 -.612 .958 779.333 213.229)" stroke-width=".332" fill="#f00"/><path d="M490.58 234.24c0 .846-.823 1.531-1.837 1.531s-1.837-.686-1.837-1.531c0-.846.823-1.531 1.837-1.531s1.837.686 1.837 1.531z" transform="matrix(-.78 -.489 -.612 .958 785.267 217.889)" stroke-width=".332" fill="#f00"/><path d="M259.03 105.71s400.32 70.645 414.45 395.62c14.129 324.97-188.39 367.36-259.03 419.16-70.645 51.807-113.03 113.03-146 113.03-32.968 0-80.065-14.13-80.065-14.13s9.42 51.81 75.355 47.1c65.936-4.71 127.16-113.03 164.84-131.87s277.88-98.9 259.04-428.58c-14.13-353.23-423.88-390.91-428.59-400.33z" transform="matrix(-.17 .04 .042 .181 329.686 148.813)" stroke-width="1.603" fill="#006700"/><path d="M320.26 487.2c0 59.825-11.597 108.32-25.903 108.32s-25.903-48.498-25.903-108.32c0-59.825 11.597-108.32 25.903-108.32s25.903 48.498 25.903 108.32z" transform="matrix(-.082 -.006 -.021 .082 293.581 153.107)" stroke-width="1.603" fill="#006700"/><path d="M320.26 487.2c0 59.825-11.597 108.32-25.903 108.32s-25.903-48.498-25.903-108.32c0-59.825 11.597-108.32 25.903-108.32s25.903 48.498 25.903 108.32z" transform="matrix(-.075 -.028 -.038 .078 301.804 162.465)" stroke-width="1.603" fill="#006700"/><path d="M320.26 487.2c0 59.825-11.597 108.32-25.903 108.32s-25.903-48.498-25.903-108.32c0-59.825 11.597-108.32 25.903-108.32s25.903 48.498 25.903 108.32z" transform="matrix(-.007 -.087 -.078 .023 306.051 212.497)" stroke-width="1.603" fill="#006700"/><path d="M320.26 487.2c0 59.825-11.597 108.32-25.903 108.32s-25.903-48.498-25.903-108.32c0-59.825 11.597-108.32 25.903-108.32s25.903 48.498 25.903 108.32z" transform="matrix(-.036 -.073 -.07 .049 310.802 193.453)" stroke-width="1.603" fill="#006700"/><path d="M320.26 487.2c0 59.825-11.597 108.32-25.903 108.32s-25.903-48.498-25.903-108.32c0-59.825 11.597-108.32 25.903-108.32s25.903 48.498 25.903 108.32z" transform="matrix(-.055 -.057 -.06 .063 308.833 179.752)" stroke-width="1.603" fill="#006700"/><path d="M490.58 234.24c0 .846-.823 1.531-1.837 1.531s-1.837-.686-1.837-1.531c0-.846.823-1.531 1.837-1.531s1.837.686 1.837 1.531z" transform="matrix(-.878 -.284 -.355 1.077 749.037 107.455)" stroke-width=".332" fill="#f00"/><path d="M490.58 234.24c0 .846-.823 1.531-1.837 1.531s-1.837-.686-1.837-1.531c0-.846.823-1.531 1.837-1.531s1.837.686 1.837 1.531z" transform="matrix(-.878 -.284 -.355 1.077 755.945 110.529)" stroke-width=".332" fill="#f00"/><path d="M320.26 487.2c0 59.825-11.597 108.32-25.903 108.32s-25.903-48.498-25.903-108.32c0-59.825 11.597-108.32 25.903-108.32s25.903 48.498 25.903 108.32z" transform="matrix(-.117 .028 -.001 .127 275.706 136.747)" stroke-width="1.603" fill="#006700"/><path d="M320.26 487.2c0 59.825-11.597 108.32-25.903 108.32s-25.903-48.498-25.903-108.32c0-59.825 11.597-108.32 25.903-108.32s25.903 48.498 25.903 108.32z" transform="matrix(-.113 -.006 -.027 .129 290.134 146.385)" stroke-width="1.603" fill="#006700"/><path d="M320.26 487.2c0 59.825-11.597 108.32-25.903 108.32s-25.903-48.498-25.903-108.32c0-59.825 11.597-108.32 25.903-108.32s25.903 48.498 25.903 108.32z" transform="matrix(-.039 -.121 -.1 .068 312.23 216.096)" stroke-width="1.603" fill="#006700"/><path d="M320.26 487.2c0 59.825-11.597 108.32-25.903 108.32s-25.903-48.498-25.903-108.32c0-59.825 11.597-108.32 25.903-108.32s25.903 48.498 25.903 108.32z" transform="matrix(-.074 -.089 -.082 .101 312.649 186.645)" stroke-width="1.603" fill="#006700"/><path d="M320.26 487.2c0 59.825-11.597 108.32-25.903 108.32s-25.903-48.498-25.903-108.32c0-59.825 11.597-108.32 25.903-108.32s25.903 48.498 25.903 108.32z" transform="matrix(-.095 -.057 -.063 .118 305.472 167.918)" stroke-width="1.603" fill="#006700"/><path d="M320.26 487.2c0 59.825-11.597 108.32-25.903 108.32s-25.903-48.498-25.903-108.32c0-59.825 11.597-108.32 25.903-108.32s25.903 48.498 25.903 108.32z" transform="matrix(-.11 .051 .021 .126 251.714 157.707)" stroke-width="1.603" fill="#006700"/><path d="M320.26 487.2c0 59.825-11.597 108.32-25.903 108.32s-25.903-48.498-25.903-108.32c0-59.825 11.597-108.32 25.903-108.32s25.903 48.498 25.903 108.32z" transform="matrix(-.112 .016 -.004 .133 267.52 164.404)" stroke-width="1.603" fill="#006700"/><path d="M320.26 487.2c0 59.825-11.597 108.32-25.903 108.32s-25.903-48.498-25.903-108.32c0-59.825 11.597-108.32 25.903-108.32s25.903 48.498 25.903 108.32z" transform="matrix(-.059 -.112 -.085 .087 301.422 228.918)" stroke-width="1.603" fill="#006700"/><path d="M320.26 487.2c0 59.825-11.597 108.32-25.903 108.32s-25.903-48.498-25.903-108.32c0-59.825 11.597-108.32 25.903-108.32s25.903 48.498 25.903 108.32z" transform="matrix(-.087 -.073 -.062 .116 296.633 199.748)" stroke-width="1.603" fill="#006700"/><path d="M320.26 487.2c0 59.825-11.597 108.32-25.903 108.32s-25.903-48.498-25.903-108.32c0-59.825 11.597-108.32 25.903-108.32s25.903 48.498 25.903 108.32z" transform="matrix(-.102 -.038 -.039 .129 286.318 182.656)" stroke-width="1.603" fill="#006700"/><path d="M320.26 487.2c0 59.825-11.597 108.32-25.903 108.32s-25.903-48.498-25.903-108.32c0-59.825 11.597-108.32 25.903-108.32s25.903 48.498 25.903 108.32z" transform="matrix(-.08 .094 .066 .107 219.154 183.632)" stroke-width="1.603" fill="#006700"/><path d="M320.26 487.2c0 59.825-11.597 108.32-25.903 108.32s-25.903-48.498-25.903-108.32c0-59.825 11.597-108.32 25.903-108.32s25.903 48.498 25.903 108.32z" transform="matrix(-.095 .062 .047 .124 235.994 183.168)" stroke-width="1.603" fill="#006700"/><path d="M239.071 260.127c-2.632 7-3.641 13.59-2.253 14.72s4.647-3.628 7.279-10.627c2.632-7 3.641-13.59 2.253-14.72s-4.647 3.628-7.279 10.627z" stroke-width="0.200375" fill="#006700"/><path d="M320.26 487.2c0 59.825-11.597 108.32-25.903 108.32s-25.903-48.498-25.903-108.32c0-59.825 11.597-108.32 25.903-108.32s25.903 48.498 25.903 108.32z" transform="matrix(-.107 -.03 -.012 .134 275.793 203.64)" stroke-width="1.603" fill="#006700"/><path d="M320.26 487.2c0 59.825-11.597 108.32-25.903 108.32s-25.903-48.498-25.903-108.32c0-59.825 11.597-108.32 25.903-108.32s25.903 48.498 25.903 108.32z" transform="matrix(-.107 .009 .012 .137 259.95 192.159)" stroke-width="1.603" fill="#006700"/><path d="M320.26 487.2c0 59.825-11.597 108.32-25.903 108.32s-25.903-48.498-25.903-108.32c0-59.825 11.597-108.32 25.903-108.32s25.903 48.498 25.903 108.32z" transform="matrix(-.058 .133 .107 .094 200.111 208.873)" stroke-width="1.603" fill="#006700"/><path d="M490.58 234.24c0 .846-.823 1.531-1.837 1.531s-1.837-.686-1.837-1.531c0-.846.823-1.531 1.837-1.531s1.837.686 1.837 1.531z" transform="matrix(-.361 -.518 -.683 .368 623.464 344.806)" stroke-width=".332" fill="#f00"/><path d="M490.58 234.24c0 .846-.823 1.531-1.837 1.531s-1.837-.686-1.837-1.531c0-.846.823-1.531 1.837-1.531s1.837.686 1.837 1.531z" transform="matrix(-.361 -.518 -.683 .368 625.938 349.295)" stroke-width=".332" fill="#f00"/><path d="M320.26 487.2c0 59.825-11.597 108.32-25.903 108.32s-25.903-48.498-25.903-108.32c0-59.825 11.597-108.32 25.903-108.32s25.903 48.498 25.903 108.32z" transform="matrix(-.084 .104 .092 .12 218.502 202.139)" stroke-width="1.603" fill="#006700"/><path d="M320.26 487.2c0 59.825-11.597 108.32-25.903 108.32s-25.903-48.498-25.903-108.32c0-59.825 11.597-108.32 25.903-108.32s25.903 48.498 25.903 108.32z" transform="matrix(-.132 -.051 -.011 .145 293.938 231.956)" stroke-width="1.603" fill="#006700"/><path d="M320.26 487.2c0 59.825-11.597 108.32-25.903 108.32s-25.903-48.498-25.903-108.32c0-59.825 11.597-108.32 25.903-108.32s25.903 48.498 25.903 108.32z" transform="matrix(-.128 .006 .03 .152 268.899 210.032)" stroke-width="1.603" fill="#006700"/><path d="M320.26 487.2c0 59.825-11.597 108.32-25.903 108.32s-25.903-48.498-25.903-108.32c0-59.825 11.597-108.32 25.903-108.32s25.903 48.498 25.903 108.32z" transform="matrix(-.116 .049 .058 .146 247.775 203.2)" stroke-width="1.603" fill="#006700"/><path d="M320.26 487.2c0 59.825-11.597 108.32-25.903 108.32s-25.903-48.498-25.903-108.32c0-59.825 11.597-108.32 25.903-108.32s25.903 48.498 25.903 108.32z" transform="matrix(.016 .16 .154 .026 175.048 260.638)" stroke-width="1.603" fill="#006700"/><path d="M490.58 234.24c0 .846-.823 1.531-1.837 1.531s-1.837-.686-1.837-1.531c0-.846.823-1.531 1.837-1.531s1.837.686 1.837 1.531z" transform="matrix(-.556 .73 .912 .683 303.33 -210.88)" stroke-width=".332" fill="#f00"/><path d="M490.58 234.24c0 .846-.823 1.531-1.837 1.531s-1.837-.686-1.837-1.531c0-.846.823-1.531 1.837-1.531s1.837.686 1.837 1.531z" transform="matrix(-.556 .73 .912 .683 308.513 -216.345)" stroke-width=".332" fill="#f00"/><path d="M320.26 487.2c0 59.825-11.597 108.32-25.903 108.32s-25.903-48.498-25.903-108.32c0-59.825 11.597-108.32 25.903-108.32s25.903 48.498 25.903 108.32z" transform="matrix(-.026 .149 .153 .06 189.192 243.363)" stroke-width="1.603" fill="#006700"/><path d="M320.26 487.2c0 59.825-11.597 108.32-25.903 108.32s-25.903-48.498-25.903-108.32c0-59.825 11.597-108.32 25.903-108.32s25.903 48.498 25.903 108.32z" transform="matrix(-.154 .029 .068 .144 277.934 227.161)" stroke-width="1.603" fill="#006700"/><path d="M320.26 487.2c0 59.825-11.597 108.32-25.903 108.32s-25.903-48.498-25.903-108.32c0-59.825 11.597-108.32 25.903-108.32s25.903 48.498 25.903 108.32z" transform="matrix(-.121 .082 .11 .127 242.051 221.098)" stroke-width="1.603" fill="#006700"/><path d="M320.26 487.2c0 59.825-11.597 108.32-25.903 108.32s-25.903-48.498-25.903-108.32c0-59.825 11.597-108.32 25.903-108.32s25.903 48.498 25.903 108.32z" transform="matrix(-.085 .115 .134 .105 218.009 227.088)" stroke-width="1.603" fill="#006700"/><g stroke-width="1.603" fill="#006700"><path d="M283.097 339.677c9.463.135 17.124-2.01 17.112-4.791s-7.694-5.145-17.157-5.28c-9.463-.135-17.124 2.01-17.112 4.791s7.694 5.145 17.157 5.28z"/><path d="M285.117 324.055c5.993 7.931 12.482 12.961 14.493 11.235s-1.217-9.554-7.21-17.485c-5.993-7.931-12.482-12.961-14.493-11.235s1.217 9.554 7.21 17.485z"/><path d="M282.726 332.012c8.787 3.875 16.685 4.934 17.641 2.364s-5.392-7.795-14.179-11.67c-8.787-3.875-16.685-4.934-17.641-2.364s5.392 7.795 14.179 11.67z"/></g><g stroke-width="1.603" fill="#006700"><path d="M278.45 179.693c-4.326 4.011-6.927 7.765-5.81 8.386s5.53-2.127 9.856-6.138 6.927-7.765 5.81-8.386-5.53 2.127-9.856 6.138z"/><path d="M283.454 184.432c-5.903.811-10.87 2.475-11.093 3.717s4.381 1.59 10.284.779c5.903-.811 10.87-2.475 11.093-3.717s-4.381-1.59-10.284-.779z"/><path d="M281.341 181.348c-5.543 2.884-9.553 6.017-8.957 6.998s5.572-.562 11.115-3.446c5.543-2.884 9.553-6.017 8.957-6.998s-5.572.562-11.115 3.446z"/></g><path d="M490.58 234.24c0 .846-.823 1.531-1.837 1.531s-1.837-.686-1.837-1.531c0-.846.823-1.531 1.837-1.531s1.837.686 1.837 1.531z" transform="matrix(-.923 0 0 1.133 680.656 -17.903)" stroke-width=".332" fill="#f00"/><path d="M490.58 234.24c0 .846-.823 1.531-1.837 1.531s-1.837-.686-1.837-1.531c0-.846.823-1.531 1.837-1.531s1.837.686 1.837 1.531z" transform="matrix(-.923 0 0 1.133 688.19 -17.11)" stroke-width=".332" fill="#f00"/><path d="M490.58 234.24c0 .846-.823 1.531-1.837 1.531s-1.837-.686-1.837-1.531c0-.846.823-1.531 1.837-1.531s1.837.686 1.837 1.531z" transform="matrix(-.799 .459 .572 .981 489.851 -175.963)" stroke-width=".332" fill="#f00"/><path d="M490.58 234.24c0 .846-.823 1.531-1.837 1.531s-1.837-.686-1.837-1.531c0-.846.823-1.531 1.837-1.531s1.837.686 1.837 1.531z" transform="matrix(-.799 .459 .572 .981 496.769 -179.013)" stroke-width=".332" fill="#f00"/><path d="M490.58 234.24c0 .846-.823 1.531-1.837 1.531s-1.837-.686-1.837-1.531c0-.846.823-1.531 1.837-1.531s1.837.686 1.837 1.531z" transform="matrix(-.496 -.393 -.547 .548 640.599 250.366)" stroke-width=".332" fill="#f00"/><path d="M490.58 234.24c0 .846-.823 1.531-1.837 1.531s-1.837-.686-1.837-1.531c0-.846.823-1.531 1.837-1.531s1.837.686 1.837 1.531z" transform="matrix(-.496 -.393 -.547 .548 644.268 253.952)" stroke-width=".332" fill="#f00"/></g><g><path d="M490.58 234.24c0 .846-.823 1.531-1.837 1.531s-1.837-.686-1.837-1.531c0-.846.823-1.531 1.837-1.531s1.837.686 1.837 1.531z" transform="matrix(.78 -.489 .612 .958 -140.232 213.976)" stroke-width=".332" fill="#f00"/><path d="M490.58 234.24c0 .846-.823 1.531-1.837 1.531s-1.837-.686-1.837-1.531c0-.846.823-1.531 1.837-1.531s1.837.686 1.837 1.531z" transform="matrix(.78 -.489 .612 .958 -146.166 218.636)" stroke-width=".332" fill="#f00"/><path d="M259.03 105.71s400.32 70.645 414.45 395.62c14.129 324.97-188.39 367.36-259.03 419.16-70.645 51.807-113.03 113.03-146 113.03-32.968 0-80.065-14.13-80.065-14.13s9.42 51.81 75.355 47.1c65.936-4.71 127.16-113.03 164.84-131.87s277.88-98.9 259.04-428.58c-14.13-353.23-423.88-390.91-428.59-400.33z" transform="matrix(.17 .04 -.042 .181 309.415 149.56)" stroke-width="1.603" fill="#006700"/><path d="M320.26 487.2c0 59.825-11.597 108.32-25.903 108.32s-25.903-48.498-25.903-108.32c0-59.825 11.597-108.32 25.903-108.32s25.903 48.498 25.903 108.32z" transform="matrix(.082 -.006 .021 .082 345.52 153.854)" stroke-width="1.603" fill="#006700"/><path d="M320.26 487.2c0 59.825-11.597 108.32-25.903 108.32s-25.903-48.498-25.903-108.32c0-59.825 11.597-108.32 25.903-108.32s25.903 48.498 25.903 108.32z" transform="matrix(.075 -.028 .038 .078 337.297 163.212)" stroke-width="1.603" fill="#006700"/><path d="M320.26 487.2c0 59.825-11.597 108.32-25.903 108.32s-25.903-48.498-25.903-108.32c0-59.825 11.597-108.32 25.903-108.32s25.903 48.498 25.903 108.32z" transform="matrix(.007 -.087 .078 .023 333.05 213.244)" stroke-width="1.603" fill="#006700"/><path d="M320.26 487.2c0 59.825-11.597 108.32-25.903 108.32s-25.903-48.498-25.903-108.32c0-59.825 11.597-108.32 25.903-108.32s25.903 48.498 25.903 108.32z" transform="matrix(.036 -.073 .07 .049 328.299 194.2)" stroke-width="1.603" fill="#006700"/><path d="M320.26 487.2c0 59.825-11.597 108.32-25.903 108.32s-25.903-48.498-25.903-108.32c0-59.825 11.597-108.32 25.903-108.32s25.903 48.498 25.903 108.32z" transform="matrix(.055 -.057 .06 .063 330.268 180.499)" stroke-width="1.603" fill="#006700"/><path d="M490.58 234.24c0 .846-.823 1.531-1.837 1.531s-1.837-.686-1.837-1.531c0-.846.823-1.531 1.837-1.531s1.837.686 1.837 1.531z" transform="matrix(.878 -.284 .355 1.077 -109.936 108.202)" stroke-width=".332" fill="#f00"/><path d="M490.58 234.24c0 .846-.823 1.531-1.837 1.531s-1.837-.686-1.837-1.531c0-.846.823-1.531 1.837-1.531s1.837.686 1.837 1.531z" transform="matrix(.878 -.284 .355 1.077 -116.844 111.276)" stroke-width=".332" fill="#f00"/><path d="M320.26 487.2c0 59.825-11.597 108.32-25.903 108.32s-25.903-48.498-25.903-108.32c0-59.825 11.597-108.32 25.903-108.32s25.903 48.498 25.903 108.32z" transform="matrix(.117 .028 .001 .127 363.395 137.494)" stroke-width="1.603" fill="#006700"/><path d="M320.26 487.2c0 59.825-11.597 108.32-25.903 108.32s-25.903-48.498-25.903-108.32c0-59.825 11.597-108.32 25.903-108.32s25.903 48.498 25.903 108.32z" transform="matrix(.113 -.006 .027 .129 348.967 147.132)" stroke-width="1.603" fill="#006700"/><path d="M320.26 487.2c0 59.825-11.597 108.32-25.903 108.32s-25.903-48.498-25.903-108.32c0-59.825 11.597-108.32 25.903-108.32s25.903 48.498 25.903 108.32z" transform="matrix(.039 -.121 .1 .068 326.871 216.843)" stroke-width="1.603" fill="#006700"/><path d="M320.26 487.2c0 59.825-11.597 108.32-25.903 108.32s-25.903-48.498-25.903-108.32c0-59.825 11.597-108.32 25.903-108.32s25.903 48.498 25.903 108.32z" transform="matrix(.074 -.089 .082 .101 326.452 187.392)" stroke-width="1.603" fill="#006700"/><path d="M320.26 487.2c0 59.825-11.597 108.32-25.903 108.32s-25.903-48.498-25.903-108.32c0-59.825 11.597-108.32 25.903-108.32s25.903 48.498 25.903 108.32z" transform="matrix(.095 -.057 .063 .118 333.629 168.665)" stroke-width="1.603" fill="#006700"/><path d="M320.26 487.2c0 59.825-11.597 108.32-25.903 108.32s-25.903-48.498-25.903-108.32c0-59.825 11.597-108.32 25.903-108.32s25.903 48.498 25.903 108.32z" transform="matrix(.11 .051 -.021 .126 387.387 158.454)" stroke-width="1.603" fill="#006700"/><path d="M320.26 487.2c0 59.825-11.597 108.32-25.903 108.32s-25.903-48.498-25.903-108.32c0-59.825 11.597-108.32 25.903-108.32s25.903 48.498 25.903 108.32z" transform="matrix(.112 .016 .004 .133 371.581 165.151)" stroke-width="1.603" fill="#006700"/><path d="M320.26 487.2c0 59.825-11.597 108.32-25.903 108.32s-25.903-48.498-25.903-108.32c0-59.825 11.597-108.32 25.903-108.32s25.903 48.498 25.903 108.32z" transform="matrix(.059 -.112 .085 .087 337.679 229.665)" stroke-width="1.603" fill="#006700"/><path d="M320.26 487.2c0 59.825-11.597 108.32-25.903 108.32s-25.903-48.498-25.903-108.32c0-59.825 11.597-108.32 25.903-108.32s25.903 48.498 25.903 108.32z" transform="matrix(.087 -.073 .062 .116 342.468 200.495)" stroke-width="1.603" fill="#006700"/><path d="M320.26 487.2c0 59.825-11.597 108.32-25.903 108.32s-25.903-48.498-25.903-108.32c0-59.825 11.597-108.32 25.903-108.32s25.903 48.498 25.903 108.32z" transform="matrix(.102 -.038 .039 .129 352.783 183.403)" stroke-width="1.603" fill="#006700"/><path d="M320.26 487.2c0 59.825-11.597 108.32-25.903 108.32s-25.903-48.498-25.903-108.32c0-59.825 11.597-108.32 25.903-108.32s25.903 48.498 25.903 108.32z" transform="matrix(.08 .094 -.066 .107 419.947 184.379)" stroke-width="1.603" fill="#006700"/><path d="M320.26 487.2c0 59.825-11.597 108.32-25.903 108.32s-25.903-48.498-25.903-108.32c0-59.825 11.597-108.32 25.903-108.32s25.903 48.498 25.903 108.32z" transform="matrix(.095 .062 -.047 .124 403.107 183.915)" stroke-width="1.603" fill="#006700"/><path d="M400.788 260.873c2.632 7 3.641 13.59 2.253 14.72s-4.647-3.628-7.279-10.627c-2.632-7-3.641-13.59-2.253-14.72s4.647 3.628 7.279 10.627z" stroke-width="0.200375" fill="#006700"/><path d="M320.26 487.2c0 59.825-11.597 108.32-25.903 108.32s-25.903-48.498-25.903-108.32c0-59.825 11.597-108.32 25.903-108.32s25.903 48.498 25.903 108.32z" transform="matrix(.107 -.03 .012 .134 363.308 204.387)" stroke-width="1.603" fill="#006700"/><path d="M320.26 487.2c0 59.825-11.597 108.32-25.903 108.32s-25.903-48.498-25.903-108.32c0-59.825 11.597-108.32 25.903-108.32s25.903 48.498 25.903 108.32z" transform="matrix(.107 .009 -.012 .137 379.151 192.906)" stroke-width="1.603" fill="#006700"/><path d="M320.26 487.2c0 59.825-11.597 108.32-25.903 108.32s-25.903-48.498-25.903-108.32c0-59.825 11.597-108.32 25.903-108.32s25.903 48.498 25.903 108.32z" transform="matrix(.058 .133 -.107 .094 438.99 209.62)" stroke-width="1.603" fill="#006700"/><path d="M490.58 234.24c0 .846-.823 1.531-1.837 1.531s-1.837-.686-1.837-1.531c0-.846.823-1.531 1.837-1.531s1.837.686 1.837 1.531z" transform="matrix(.361 -.518 .683 .368 15.637 345.553)" stroke-width=".332" fill="#f00"/><path d="M490.58 234.24c0 .846-.823 1.531-1.837 1.531s-1.837-.686-1.837-1.531c0-.846.823-1.531 1.837-1.531s1.837.686 1.837 1.531z" transform="matrix(.361 -.518 .683 .368 13.163 350.042)" stroke-width=".332" fill="#f00"/><path d="M320.26 487.2c0 59.825-11.597 108.32-25.903 108.32s-25.903-48.498-25.903-108.32c0-59.825 11.597-108.32 25.903-108.32s25.903 48.498 25.903 108.32z" transform="matrix(.084 .104 -.092 .12 420.599 202.886)" stroke-width="1.603" fill="#006700"/><path d="M320.26 487.2c0 59.825-11.597 108.32-25.903 108.32s-25.903-48.498-25.903-108.32c0-59.825 11.597-108.32 25.903-108.32s25.903 48.498 25.903 108.32z" transform="matrix(.132 -.051 .011 .145 345.163 232.703)" stroke-width="1.603" fill="#006700"/><path d="M320.26 487.2c0 59.825-11.597 108.32-25.903 108.32s-25.903-48.498-25.903-108.32c0-59.825 11.597-108.32 25.903-108.32s25.903 48.498 25.903 108.32z" transform="matrix(.128 .006 -.03 .152 370.202 210.779)" stroke-width="1.603" fill="#006700"/><path d="M320.26 487.2c0 59.825-11.597 108.32-25.903 108.32s-25.903-48.498-25.903-108.32c0-59.825 11.597-108.32 25.903-108.32s25.903 48.498 25.903 108.32z" transform="matrix(.116 .049 -.058 .146 391.326 203.947)" stroke-width="1.603" fill="#006700"/><path d="M320.26 487.2c0 59.825-11.597 108.32-25.903 108.32s-25.903-48.498-25.903-108.32c0-59.825 11.597-108.32 25.903-108.32s25.903 48.498 25.903 108.32z" transform="matrix(-.016 .16 -.154 .026 464.053 261.385)" stroke-width="1.603" fill="#006700"/><path d="M490.58 234.24c0 .846-.823 1.531-1.837 1.531s-1.837-.686-1.837-1.531c0-.846.823-1.531 1.837-1.531s1.837.686 1.837 1.531z" transform="matrix(.556 .73 -.912 .683 335.771 -210.133)" stroke-width=".332" fill="#f00"/><path d="M490.58 234.24c0 .846-.823 1.531-1.837 1.531s-1.837-.686-1.837-1.531c0-.846.823-1.531 1.837-1.531s1.837.686 1.837 1.531z" transform="matrix(.556 .73 -.912 .683 330.588 -215.598)" stroke-width=".332" fill="#f00"/><path d="M320.26 487.2c0 59.825-11.597 108.32-25.903 108.32s-25.903-48.498-25.903-108.32c0-59.825 11.597-108.32 25.903-108.32s25.903 48.498 25.903 108.32z" transform="matrix(.026 .149 -.153 .06 449.909 244.11)" stroke-width="1.603" fill="#006700"/><path d="M320.26 487.2c0 59.825-11.597 108.32-25.903 108.32s-25.903-48.498-25.903-108.32c0-59.825 11.597-108.32 25.903-108.32s25.903 48.498 25.903 108.32z" transform="matrix(.154 .029 -.068 .144 361.167 227.908)" stroke-width="1.603" fill="#006700"/><path d="M320.26 487.2c0 59.825-11.597 108.32-25.903 108.32s-25.903-48.498-25.903-108.32c0-59.825 11.597-108.32 25.903-108.32s25.903 48.498 25.903 108.32z" transform="matrix(.121 .082 -.11 .127 397.05 221.845)" stroke-width="1.603" fill="#006700"/><path d="M320.26 487.2c0 59.825-11.597 108.32-25.903 108.32s-25.903-48.498-25.903-108.32c0-59.825 11.597-108.32 25.903-108.32s25.903 48.498 25.903 108.32z" transform="matrix(.085 .115 -.134 .105 421.092 227.835)" stroke-width="1.603" fill="#006700"/><g stroke-width="1.603" fill="#006700"><path d="M356.762 340.423c-9.463.135-17.124-2.01-17.112-4.791s7.694-5.145 17.157-5.28c9.463-.135 17.124 2.01 17.112 4.791s-7.694 5.145-17.157 5.28z"/><path d="M354.742 324.801c-5.993 7.931-12.482 12.961-14.493 11.235s1.217-9.554 7.21-17.485c5.993-7.931 12.482-12.961 14.493-11.235s-1.217 9.554-7.21 17.485z"/><path d="M357.133 332.758c-8.787 3.875-16.685 4.934-17.641 2.364s5.392-7.795 14.179-11.67c8.787-3.875 16.685-4.934 17.641-2.364s-5.392 7.795-14.179 11.67z"/></g><g stroke-width="1.603" fill="#006700"><path d="M361.409 180.439c4.326 4.011 6.927 7.765 5.81 8.386s-5.53-2.127-9.856-6.138-6.927-7.765-5.81-8.386 5.53 2.127 9.856 6.138z"/><path d="M356.405 185.178c5.903.811 10.87 2.475 11.093 3.717s-4.381 1.59-10.284.779c-5.903-.811-10.87-2.475-11.093-3.717s4.381-1.59 10.284-.779z"/><path d="M358.518 182.094c5.543 2.884 9.553 6.017 8.957 6.998s-5.572-.562-11.115-3.446c-5.543-2.884-9.553-6.017-8.957-6.998s5.572.562 11.115 3.446z"/></g><path d="M490.58 234.24c0 .846-.823 1.531-1.837 1.531s-1.837-.686-1.837-1.531c0-.846.823-1.531 1.837-1.531s1.837.686 1.837 1.531z" transform="matrix(.923 0 0 1.133 -41.555 -17.156)" stroke-width=".332" fill="#f00"/><path d="M490.58 234.24c0 .846-.823 1.531-1.837 1.531s-1.837-.686-1.837-1.531c0-.846.823-1.531 1.837-1.531s1.837.686 1.837 1.531z" transform="matrix(.923 0 0 1.133 -49.089 -16.363)" stroke-width=".332" fill="#f00"/><path d="M490.58 234.24c0 .846-.823 1.531-1.837 1.531s-1.837-.686-1.837-1.531c0-.846.823-1.531 1.837-1.531s1.837.686 1.837 1.531z" transform="matrix(.799 .459 -.572 .981 149.25 -175.216)" stroke-width=".332" fill="#f00"/><path d="M490.58 234.24c0 .846-.823 1.531-1.837 1.531s-1.837-.686-1.837-1.531c0-.846.823-1.531 1.837-1.531s1.837.686 1.837 1.531z" transform="matrix(.799 .459 -.572 .981 142.332 -178.266)" stroke-width=".332" fill="#f00"/><path d="M490.58 234.24c0 .846-.823 1.531-1.837 1.531s-1.837-.686-1.837-1.531c0-.846.823-1.531 1.837-1.531s1.837.686 1.837 1.531z" transform="matrix(.496 -.393 .547 .548 -1.498 251.113)" stroke-width=".332" fill="#f00"/><path d="M490.58 234.24c0 .846-.823 1.531-1.837 1.531s-1.837-.686-1.837-1.531c0-.846.823-1.531 1.837-1.531s1.837.686 1.837 1.531z" transform="matrix(.496 -.393 .547 .548 -5.167 254.699)" stroke-width=".332" fill="#f00"/></g><g stroke-width=".235" fill="#5387f4"><path d="M317.866 342.768l.046 6.41c12.579-.63 6.484 8.505 8.66 13.681l2.778-3.446 3.846 3.417c-.308-5.983 3.386-21.205-15.33-20.061z"/><path d="M322.358 343.031l-.046 6.41c-12.579-.63-6.484 8.505-8.66 13.681l-2.778-3.446-3.846 3.417c.308-5.983-3.386-21.205 15.33-20.061z"/><g><path d="M345.245 332.847c-.677 2.253-6.694 12.187-8.39 14.443-1.641 1.812-4.15 7.09-15.382 2.198-5.392-2.348-1.829-7.076-1.589-6.959.239.117 1.209 2.947 4.307 2.105 3.096-.841 9.063-19.4 12.295-20.482 3.557-1.191 10.218 7.027 8.758 8.695z"/><path d="M345.245 332.847c-2.129-1.399-3.092-2.506-4.893-.33-7.211 8.803-6.703 19.97-18.879 16.971-5.722-1.381-1.829-7.076-1.589-6.959.239.117 1.209 2.947 4.307 2.105 3.096-.841 9.063-19.4 12.295-20.482 3.557-1.191 10.218 7.027 8.758 8.695z"/></g><g><path d="M296.97 332.847c.677 2.253 6.694 12.187 8.39 14.443 1.641 1.812 4.15 7.09 15.382 2.198 5.392-2.348 1.829-7.076 1.589-6.959-.239.117-1.209 2.947-4.307 2.105-3.096-.841-9.063-19.4-12.295-20.482-3.557-1.191-10.218 7.027-8.758 8.695z"/><path d="M296.97 332.847c2.129-1.399 3.092-2.506 4.893-.33 7.211 8.803 6.703 19.97 18.879 16.971 5.722-1.381 1.829-7.076 1.589-6.959-.239.117-1.209 2.947-4.307 2.105-3.096-.841-9.063-19.4-12.295-20.482-3.557-1.191-10.218 7.027-8.758 8.695z"/></g><path d="M317.59 342.231l-.222 8.258 6.259-.045.755-8.212h-6.792z"/></g></g><path d="M409.69 276.93s-14.322 12.064-14.322 20.725c.306 3.457 3.169 6.981 8.407 9.52-2.418-3.586-2.747-6.52-2.747-9.931.306-5.86 8.461-12.931 8.461-12.931l.201-7.383z" fill-rule="evenodd" transform="matrix(-.916 0 0 .922 694.242 21.543)" stroke="#000" stroke-width=".235" fill="#5387f4"/><g stroke="#000" fill-rule="evenodd"><path transform="matrix(.001 -1.314 -1.099 -.167 -146.59 388.331)" stroke-width=".176" fill="#ffd200" d="M172.65-427.57h49.929v2.055h-49.929z"/><path d="M283.46-389.76l-17.717 70.866 17.717 25.037 17.716-25.037-17.716-70.866z" transform="matrix(-.192 -.037 -.002 .205 376.222 239.842)" stroke-width="1.066" fill="#ffd200"/><path d="M368.98-419.45s-40.709-27.717-40.709.866c0 28.582 39.843.866 40.709-.866zm-7.795-.181s-28.583-19.342-28.583.604c0 19.945 27.975.604 28.583-.604z" transform="matrix(-.149 -.012 .005 .106 378.512 217.428)" stroke-width="1.685"/><path d="M368.98-419.45s-40.709-27.717-40.709.866c0 28.582 39.843.866 40.709-.866zm-7.795-.181s-28.583-19.342-28.583.604c0 19.945 27.975.604 28.583-.604z" transform="matrix(.145 -.017 -.02 -.106 260.693 130.507)" stroke-width="1.685"/><path d="M422.29-165.7l2.45-.306s1.766 2.602 3.675 6.737c1.679 4.331 3.368 11.33 4.899 27.255-4.593-.307-21.436 1.531-21.436 1.531s.236-19.169 6.125-26.029c2.757-2.906 4.593-8.575 4.287-9.188z" transform="matrix(1.108 0 0 1.314 -146.59 388.331)" stroke-width=".175" fill="#5387f4"/><path d="M422.29-165.7l2.45-.306s1.766 2.602 3.675 6.737c1.679 4.331-4.9 11.636-3.369 27.561-4.593-.307-13.168 1.225-13.168 1.225s.236-19.169 6.125-26.029c2.757-2.906 4.593-8.575 4.287-9.188z" transform="matrix(1.108 0 0 1.314 -146.59 388.331)" stroke-width=".175" fill="#fff"/><path d="M422.29-165.7l2.45-.306s-.613 7.962-2.756 11.943c-2.144 3.981-3.369 22.967-3.063 22.967.307 0-7.043.613-7.043.613s.236-19.169 6.125-26.029c2.757-2.906 4.593-8.575 4.287-9.188z" transform="matrix(1.108 0 0 1.314 -146.59 388.331)" stroke-width=".175" fill="#5387f4"/></g><path d="M409.69 276.93s-14.322 12.064-14.322 20.725c.306 3.457 3.169 6.981 8.407 9.52-2.418-3.586-2.747-6.52-2.747-9.931.306-5.86 8.461-12.931 8.461-12.931l.201-7.383z" fill-rule="evenodd" transform="matrix(.942 0 0 .898 -62.064 28.76)" stroke="#000" stroke-width=".235" fill="#5387f4"/><g stroke="#000" fill-rule="evenodd"><path d="M407.48-248.03l106.3-106.3s-27.516 220.02-88.583 265.75c0 0-53.15 24.117-53.15-.135l35.433-159.31z" transform="matrix(-.441 0 0 .321 483.497 304.2)" stroke-width=".628pt" fill="#5387f4"/><path d="M407.48-248.03l70.866-70.867s-35.433 230.31-106.3 230.31v-.135l35.433-159.31z" transform="matrix(-.441 0 0 .321 483.497 304.2)" stroke-width=".628pt" fill="#fff"/><path d="M407.48-248.03l35.433-35.434s-35.433 194.88-70.866 194.88v-.135l35.433-159.31z" transform="matrix(-.441 0 0 .321 483.497 304.2)" stroke-width=".628pt" fill="#5387f4"/><path transform="matrix(-.317 -.223 -.306 .231 483.497 400.879)" stroke-width=".816" fill="#ffd200" d="M678.85-116.49h177.17v7.323h-177.17z"/><path d="M283.46-389.76l-17.717 70.866 17.717 25.037 17.716-25.037-17.716-70.866z" transform="matrix(-.197 .139 .174 .125 355.444 182.734)" stroke-width="1.729" fill="#ffd200"/><path d="M368.98-419.45s-40.709-27.717-40.709.866c0 28.582 39.843.866 40.709-.866zm-7.795-.181s-28.583-19.342-28.583.604c0 19.945 27.975.604 28.583-.604z" transform="matrix(-.171 .085 .073 .078 340.834 187.032)" stroke-width=".628pt"/><path d="M368.98-419.45s-40.709-27.717-40.709.866c0 28.582 39.843.866 40.709-.866zm-7.795-.181s-28.583-19.342-28.583.604c0 19.945 27.975.604 28.583-.604z" transform="matrix(.149 -.104 -.09 -.068 155.944 194.836)" stroke-width=".628pt"/><path d="M407.48-248.03l106.3-53.15s-17.717 221.39-106.3 221.39c-53.15 0-70.866-70.866-70.866-70.866l70.866-97.378z" transform="matrix(-.441 0 0 .321 475.684 318.437)" stroke-width=".628pt" fill="#5387f4"/><path d="M407.48-248.03l70.866-35.434c0 35.434-17.716 185.96-70.866 185.96-35.433 0-70.866-53.15-70.866-53.15l70.866-97.378z" transform="matrix(-.441 0 0 .321 475.684 318.437)" stroke-width=".628pt" fill="#fff"/><path d="M407.48-248.03l35.433-17.717c0 79.662-17.716 150.53-53.149 150.53-17.717 0-53.15-35.433-53.15-35.433l70.866-97.378z" transform="matrix(-.441 0 0 .321 475.684 318.437)" stroke-width=".628pt" fill="#5387f4"/><path transform="matrix(-.395 -.143 -.197 .287 483.497 400.879)" stroke-width=".816" fill="#ffd200" d="M569.18-267.74h177.17v7.323h-177.17z"/><path d="M283.46-389.76l-17.717 70.866 17.717 25.037 17.716-25.037-17.716-70.866z" transform="matrix(-.131 .176 .218 .081 344.414 193.067)" stroke-width="1.729" fill="#ffd200"/><path d="M368.98-419.45s-40.709-27.717-40.709.866c0 28.582 39.843.866 40.709-.866zm-7.795-.181s-28.583-19.342-28.583.604c0 19.945 27.975.604 28.583-.604z" transform="matrix(-.128 .118 .102 .059 332.252 200.357)" stroke-width=".628pt"/><path d="M368.98-419.45s-40.709-27.717-40.709.866c0 28.582 39.843.866 40.709-.866zm-7.795-.181s-28.583-19.342-28.583.604c0 19.945 27.975.604 28.583-.604z" transform="matrix(.099 -.132 -.114 -.045 159.115 248.215)" stroke-width=".628pt"/></g><g stroke="#000" fill-rule="evenodd"><path d="M407.48-248.03l106.3-106.3s-27.516 220.02-88.583 265.75c0 0-53.15 24.117-53.15-.135l35.433-159.31z" transform="matrix(.434 0 0 .321 162.408 304.2)" stroke-width=".628pt" fill="#5387f4"/><path d="M407.48-248.03l70.866-70.867s-35.433 230.31-106.3 230.31v-.135l35.433-159.31z" transform="matrix(.434 0 0 .321 162.408 304.2)" stroke-width=".628pt" fill="#fff"/><path d="M407.48-248.03l35.433-35.434s-35.433 194.88-70.866 194.88v-.135l35.433-159.31z" transform="matrix(.434 0 0 .321 162.408 304.2)" stroke-width=".628pt" fill="#5387f4"/><path transform="matrix(.312 -.223 .301 .231 162.408 400.879)" stroke-width=".816" fill="#ffd200" d="M678.85-116.49h177.17v7.323h-177.17z"/><path d="M283.46-389.76l-17.717 70.866 17.717 25.037 17.716-25.037-17.716-70.866z" transform="matrix(.194 .139 -.171 .125 288.429 182.734)" stroke-width="1.729" fill="#ffd200"/><path d="M368.98-419.45s-40.709-27.717-40.709.866c0 28.582 39.843.866 40.709-.866zm-7.795-.181s-28.583-19.342-28.583.604c0 19.945 27.975.604 28.583-.604z" transform="matrix(.168 .085 -.072 .078 302.807 187.032)" stroke-width=".628pt"/><path d="M368.98-419.45s-40.709-27.717-40.709.866c0 28.582 39.843.866 40.709-.866zm-7.795-.181s-28.583-19.342-28.583.604c0 19.945 27.975.604 28.583-.604z" transform="matrix(-.146 -.104 .089 -.068 484.761 194.836)" stroke-width=".628pt"/><path d="M407.48-248.03l106.3-53.15s-17.717 221.39-106.3 221.39c-53.15 0-70.866-70.866-70.866-70.866l70.866-97.378z" transform="matrix(.434 0 0 .321 170.097 318.437)" stroke-width=".628pt" fill="#5387f4"/><path d="M407.48-248.03l70.866-35.434c0 35.434-17.716 185.96-70.866 185.96-35.433 0-70.866-53.15-70.866-53.15l70.866-97.378z" transform="matrix(.434 0 0 .321 170.097 318.437)" stroke-width=".628pt" fill="#fff"/><path d="M407.48-248.03l35.433-17.717c0 79.662-17.716 150.53-53.149 150.53-17.717 0-53.15-35.433-53.15-35.433l70.866-97.378z" transform="matrix(.434 0 0 .321 170.097 318.437)" stroke-width=".628pt" fill="#5387f4"/><path transform="matrix(.388 -.143 .194 .287 162.408 400.879)" stroke-width=".816" fill="#ffd200" d="M569.18-267.74h177.17v7.323h-177.17z"/><path d="M283.46-389.76l-17.717 70.866 17.717 25.037 17.716-25.037-17.716-70.866z" transform="matrix(.129 .176 -.214 .081 299.283 193.067)" stroke-width="1.729" fill="#ffd200"/><path d="M368.98-419.45s-40.709-27.717-40.709.866c0 28.582 39.843.866 40.709-.866zm-7.795-.181s-28.583-19.342-28.583.604c0 19.945 27.975.604 28.583-.604z" transform="matrix(.126 .118 -.101 .059 311.253 200.357)" stroke-width=".628pt"/><path d="M368.98-419.45s-40.709-27.717-40.709.866c0 28.582 39.843.866 40.709-.866zm-7.795-.181s-28.583-19.342-28.583.604c0 19.945 27.975.604 28.583-.604z" transform="matrix(-.097 -.132 .112 -.045 481.641 248.215)" stroke-width=".628pt"/></g><g stroke-linejoin="bevel" stroke="#000" stroke-width=".105"><path d="M263.52 285.469l58.643-100.025 58.64 100.025h-117.283z" fill-rule="evenodd" fill="#ffd200"/><path d="M269.562 282.571l52.85-90.635 52.847 90.635h-105.697z" fill-rule="evenodd" fill="#0ff"/><path d="M331.552 238.837c0 4.742-3.969 8.586-8.866 8.586-4.896 0-8.866-3.844-8.866-8.586 0-4.742 3.969-8.586 8.866-8.586 4.896 0 8.866 3.844 8.866 8.586z" fill-rule="evenodd" fill="#ffd200"/><g fill="none"><path d="M322.616 234.781l-.352-31.954"/><path d="M324.371 236.866l11.579-15.978"/><path d="M326.126 238.601l18.595-7.64"/><path d="M327.53 241.035l21.754.695"/><path d="M326.126 243.814l12.632 11.115"/><path d="M322.616 242.769v10.073"/><path d="M318.756 240.338l-16.491 14.241"/><path d="M320.512 241.38l-7.368 13.546"/><path d="M317.704 238.601l-27.368 9.378"/><path d="M317.353 237.212l-19.298-.695"/><path d="M301.913 229.223l16.842 5.558"/><path d="M309.983 214.983l10.176 19.451"/></g><g fill-rule="evenodd"><path d="M322.372 229.834c-10.559 0-18.252 1.919-24.747 4.173l1.651-2.826 1.648-2.831 1.651-2.831 1.651-2.826 1.648-2.831 1.651-2.826 1.827-2.882c2.461-2.141 7.742-3.142 13.02-3.142 5.281 0 10.561 1.058 13.201 3.194l1.651 2.831 1.648 2.826 1.651 2.831 1.651 2.826 1.648 2.831 1.651 2.831 1.648 2.826c-6.846-2.254-14.189-4.173-24.748-4.173z" fill="#c453d7"/><path d="M322.376 227.84c-10.593-.015-22.434 3.126-23.096 3.342l1.648-2.831 1.651-2.831 1.651-2.826 1.648-2.831 1.651-2.826 1.827-2.882c2.461-2.141 7.742-3.142 13.02-3.142 5.281 0 10.561 1.058 13.201 3.194l1.651 2.831 1.648 2.826 1.651 2.831 1.651 2.826 1.648 2.831 1.651 2.831s-12.541-3.342-23.1-3.342z" fill="#5000c1"/><path d="M322.372 225.579c-7.822-.032-20.468 2.107-21.361 2.509l1.563-2.57 1.651-2.826 1.648-2.831 1.651-2.826 1.827-2.882c2.461-2.141 7.742-3.142 13.02-3.142 5.281 0 10.561 1.058 13.201 3.194l1.651 2.831 1.648 2.826 1.651 2.831 1.651 2.826 1.648 2.831s-10.89-2.769-21.449-2.769z" fill="#0053d7"/><path d="M322.368 223.233c-10.371-.021-18.988 1.956-19.797 2.283l1.651-2.826 1.648-2.831 1.651-2.826 1.827-2.882c2.461-2.141 7.742-3.142 13.02-3.142 5.281 0 10.561 1.058 13.201 3.194l1.651 2.831 1.648 2.826 1.651 2.831 1.651 2.826s-9.242-2.283-19.801-2.283z" fill="#009f9f"/><path d="M322.372 221.237c-10.61-.036-17.273 1.317-18.146 1.455l1.648-2.831 1.651-2.826 1.827-2.882c2.461-2.141 7.742-3.142 13.02-3.142 5.281 0 10.561 1.058 13.201 3.194l1.651 2.831 1.648 2.826 1.651 2.831s-7.591-1.455-18.15-1.455z" fill="#ff0"/><path d="M322.281 218.629c-9.242-.198-16.028 1.254-16.411 1.229l1.651-2.826 1.827-2.882c2.461-2.141 7.742-3.142 13.02-3.142 5.281 0 10.561 1.058 13.201 3.194l1.651 2.831 1.648 2.826s-6.028-1.229-16.587-1.229z" fill="#f50"/><path d="M322.625 215.596c-9.276.076-14.08 1.28-15.111 1.443l1.827-2.882c2.461-2.141 7.742-3.142 13.02-3.142 5.281 0 10.561 1.058 13.201 3.194l1.651 2.831s-4.029-1.443-14.588-1.443z" fill="#ff0b00"/></g><path d="M269.562 282.571l14.864-25.493h75.968l14.864 25.493h-105.697z" fill-rule="evenodd" fill="#4363ff"/><path d="M319.627 237.398l.355-.544c.447-.248.918-.442 1.538-.544.335-.128 1.021-.091 1.538-.091.726.05.771.287 1.183.635.181.283.611.676.828 1.088.236.219.424.558.592.816.172.278.355.697.592 1.088.122.435.237.774.237 1.269 0 .516-.111.736-.237 1.088-.361.092-1.063.137-1.42 0-.382-.262-1.038-.095-1.301-.363-.681-.073-.846-.687-1.183-.997l-.473-.725c-.373-.204-.424-.454-.592-.816.148-.388.405-.472.828-.635.227-.253.355-.355.355-.816-.085-.513-.327-.459-.947-.544-.767 0-1.16.061-1.893.091z" fill-rule="evenodd" fill="#f00"/><g fill-rule="evenodd" fill="#6da700"><path d="M337.889 276.617s3.38-1.317 5.062-4.203c1.682-2.886.608-7.207 1.665-7.34s2.486 4.737 5.453 6.146c2.967 1.409 7.558 3.207 7.558 3.207l-19.739 2.19z"/><path d="M336.038 276.834s3.38-1.317 5.062-4.203c1.682-2.886.608-7.207 1.665-7.34s2.486 4.737 5.453 6.146c2.967 1.409 7.558 3.207 7.558 3.207l-19.739 2.19z"/><path d="M331.354 278.212s4.035-1.469 6.081-4.676c2.046-3.207.848-8.003 2.105-8.153 1.257-.15 2.867 5.255 6.364 6.814 3.497 1.559 8.914 3.547 8.914 3.547l-23.464 2.468z"/><path d="M327.171 278.765s4.447-1.68 6.667-5.388c2.22-3.708.821-9.278 2.211-9.445 1.39-.167 3.254 6.113 7.15 7.941 3.896 1.828 9.926 4.166 9.926 4.166l-25.955 2.726z"/><path d="M321.523 279.393s5.04-1.89 7.573-6.028c2.533-4.138.984-10.332 2.558-10.524 1.574-.191 3.643 6.791 8.039 8.809 4.396 2.018 11.202 4.594 11.202 4.594l-29.372 3.149z"/><path d="M316.976 280.111s5.34-2.107 7.973-6.761c2.632-4.654.884-11.648 2.558-11.856 1.674-.208 3.99 7.676 8.706 9.974 4.716 2.298 12.007 5.237 12.007 5.237l-31.243 3.405z"/><path d="M310.099 278.187s6.289-1.624 9.771-5.895c3.482-4.271 2.233-11.115 4.156-11.19 1.923-.075 3.723 7.666 8.839 10.224 5.115 2.558 13.09 5.923 13.09 5.923l-35.856.938z"/><path d="M306.735 278.322s6.289-1.624 9.771-5.895c3.482-4.271 2.233-11.115 4.156-11.19 1.923-.075 3.723 7.666 8.839 10.224 5.115 2.558 13.09 5.923 13.09 5.923l-35.856.938z"/><path d="M297.276 279.224s7.481-1.83 11.676-6.587c4.194-4.757 2.821-12.351 5.102-12.442 2.281-.092 4.294 8.496 10.319 11.313 6.024 2.817 15.426 6.519 15.426 6.519l-42.523 1.197z"/><path d="M289.358 280.245s8.257-2.108 12.848-7.633c4.591-5.525 2.992-14.367 5.515-14.467 2.523-.1 4.839 9.901 11.533 13.198 6.694 3.297 17.133 7.633 17.133 7.633l-47.029 1.269z"/><path d="M279.914 280.192s9.35-2.36 14.553-8.506c5.203-6.146 3.405-15.962 6.261-16.079 2.856-.117 5.465 10.985 13.038 14.632 7.573 3.647 19.384 8.439 19.384 8.439l-53.237 1.514z"/><path d="M271.482 280.517s9.927-2.638 15.399-9.551c5.471-6.914 3.449-17.979 6.487-18.104 3.039-.125 5.94 12.391 14.042 16.517 8.102 4.126 20.73 9.553 20.73 9.553l-56.659 1.585z"/></g></g><g><path d="M380.34 293.64l5.819-4.9s7.961 6.431 23.579 6.125c14.709-.283 19.906-5.513 22.049-6.126l5.818 5.206c-3.369.919-15.311 6.737-28.785 7.35-14.087-.612-26.642-5.817-28.48-7.655z" fill-rule="evenodd" transform="matrix(1.231 0 0 1.22 -183.419 -52.119)" stroke="#000" stroke-width=".235" fill="#ffc200"/><path d="M425.45 510.86v-3.401h-1.476v-.454h3.55v.454h-1.481v3.401h-.593z" stroke-width="1pt" transform="matrix(.851 -.299 .314 .87 -179.707 -8.455)"/><path d="M415.64 510.86v-3.855h3.238v.454h-2.645v1.181h2.477v.452h-2.477v1.313h2.749v.455h-3.342z" stroke-width="1pt" transform="matrix(.873 -.229 .241 .893 -152.205 -49.435)"/><path d="M409.81 510.86v-3.855h.593v3.855h-.593z" stroke-width="1pt" transform="matrix(.873 -.229 .241 .893 -152.299 -49.618)"/><path d="M406.21 510.86v-3.855h.593v3.4h2.206v.455h-2.799z" stroke-width="1pt" transform="matrix(.896 -.109 .116 .917 -97.939 -111.399)"/><path d="M399.97 510.86v-3.855h.608l2.352 3.026v-3.026h.568v3.855h-.608l-2.352-3.03v3.03h-.568z" stroke-width="1pt" transform="matrix(.902 -.023 .027 .924 -55.813 -149.158)"/><path d="M393.47 510.86v-3.855h.592v3.855h-.592z" stroke-width="1pt" transform="matrix(.897 .094 -.096 .92 8.021 -193.505)"/><path d="M388.85 510.86v-3.855h.608l2.352 3.026v-3.026h.568v3.855h-.608l-2.352-3.03v3.03h-.568z" stroke-width="1pt" transform="matrix(.886 .167 -.172 .909 51.02 -216.676)"/><path d="M387.28 507.01h.592v2.227c0 .387-.051.695-.152.923-.103.228-.287.413-.554.557-.264.142-.613.213-1.044.213-.419 0-.763-.062-1.029-.187-.267-.124-.458-.304-.572-.539-.114-.236-.171-.559-.171-.967v-2.227h.593v2.224c0 .335.035.582.107.742.073.158.197.279.373.365s.392.129.647.129c.436 0 .746-.085.932-.255.185-.17.278-.497.278-.981v-2.224z" stroke-width="1pt" transform="matrix(.873 .227 -.235 .894 88.553 -232.768)"/><path d="M378.22 509.63l.559-.042c.026.193.087.351.183.476.098.122.248.223.452.3.203.075.433.113.687.113.226 0 .426-.029.599-.087s.302-.137.385-.237c.085-.102.128-.212.128-.331 0-.121-.04-.226-.122-.316-.082-.091-.216-.167-.403-.228-.12-.041-.386-.103-.797-.187-.412-.086-.7-.167-.865-.242-.214-.096-.374-.216-.479-.358-.105-.144-.156-.304-.156-.481 0-.194.064-.376.192-.544.128-.17.315-.299.562-.387.247-.087.52-.131.822-.131.332 0 .624.046.877.139.254.091.449.226.586.405s.21.381.22.608l-.568.036c-.031-.243-.135-.427-.312-.552-.175-.124-.435-.187-.779-.187-.358 0-.62.057-.785.171-.163.112-.244.248-.244.408 0 .138.058.252.174.342.114.089.412.181.892.276.482.093.813.174.993.244.26.104.453.235.577.395.124.158.187.34.187.547 0 .205-.069.399-.205.581-.137.18-.333.322-.59.423-.254.1-.542.15-.861.15-.406 0-.746-.051-1.02-.152-.274-.102-.488-.254-.645-.458-.155-.205-.236-.436-.244-.694z" stroke-width="1pt" transform="matrix(.87 .25 -.239 .889 91.433 -239.392)"/><path d="M371.92 510.86v-3.855h.593v3.855h-.593z" stroke-width="1pt" transform="matrix(.844 .323 -.316 .866 139.836 -255.271)"/><path d="M367.3 510.86v-3.855h1.542c.349 0 .615.018.798.055.257.05.476.142.656.276.237.172.413.392.529.66.118.266.177.571.177.915 0 .293-.039.552-.119.778-.079.226-.181.414-.305.563-.125.147-.261.264-.41.35-.146.084-.325.148-.534.192-.208.044-.447.066-.718.066h-1.616zm.593-.455h.956c.295 0 .526-.024.693-.071.169-.048.303-.114.404-.201.14-.12.249-.282.326-.486.08-.205.119-.453.119-.744 0-.403-.077-.713-.232-.928-.152-.217-.339-.363-.559-.437-.159-.052-.414-.079-.766-.079h-.941v2.946z" stroke-width="1pt" transform="matrix(.692 .58 -.583 .716 332.426 -273.778)"/><path d="M373.38 508.99c0-.64.2-1.14.598-1.502.4-.362.915-.544 1.546-.544.414 0 .786.085 1.118.255s.585.408.758.713c.175.303.263.648.263 1.033 0 .391-.092.741-.276 1.049-.183.309-.442.543-.778.703-.336.157-.699.236-1.088.236-.421 0-.798-.087-1.13-.263-.332-.175-.584-.415-.755-.717-.171-.304-.256-.625-.256-.963zm.611.008c0 .464.144.831.434 1.099.291.267.655.399 1.093.399.446 0 .813-.134 1.1-.404.289-.27.434-.653.434-1.149 0-.314-.062-.588-.187-.821-.122-.235-.302-.416-.541-.544-.236-.13-.502-.195-.797-.195-.419 0-.781.125-1.084.374-.301.247-.452.661-.452 1.241z" stroke-width="1pt" transform="matrix(.844 .323 -.316 .866 139.836 -254.991)"/><path d="M394.93 508.99c0-.64.199-1.14.598-1.502.4-.362.915-.544 1.546-.544.413 0 .786.085 1.118.255s.585.408.758.713c.175.303.262.648.262 1.033 0 .391-.091.741-.275 1.049-.183.309-.442.543-.779.703-.336.157-.698.236-1.087.236-.422 0-.798-.087-1.13-.263-.332-.175-.584-.415-.755-.717-.171-.304-.256-.625-.256-.963zm.611.008c0 .464.144.831.434 1.099.29.267.655.399 1.093.399.446 0 .813-.134 1.1-.404.289-.27.434-.653.434-1.149 0-.314-.063-.588-.187-.821-.122-.235-.302-.416-.541-.544-.236-.13-.502-.195-.797-.195-.419 0-.781.125-1.084.374-.302.247-.452.661-.452 1.241z" stroke-width="1pt" transform="matrix(.897 .094 -.096 .92 8.205 -193.59)"/><path d="M432.31 510.86v-3.855h1.542c.349 0 .615.018.798.055.256.05.475.142.656.276.237.172.413.392.529.66.118.266.177.571.177.915 0 .293-.04.552-.119.778s-.182.414-.306.563c-.124.147-.26.264-.409.35-.146.084-.325.148-.534.192-.208.044-.448.066-.718.066h-1.616zm.593-.455h.956c.295 0 .526-.024.693-.071.169-.048.303-.114.403-.201.141-.12.25-.282.327-.486.079-.205.119-.453.119-.744 0-.403-.077-.713-.232-.928-.153-.217-.339-.363-.559-.437-.159-.052-.415-.079-.767-.079h-.94v2.946z" stroke-width="1pt" transform="matrix(.812 -.389 .407 .831 -211.22 50.471)"/><path d="M419.8 510.86v-3.855h1.985c.4 0 .703.035.911.105.208.068.373.19.498.365.124.175.186.369.186.581 0 .274-.103.504-.308.692-.206.188-.524.307-.953.357.156.065.275.13.357.192.173.137.337.308.492.513l.779 1.05h-.746l-.593-.802c-.173-.232-.315-.409-.427-.532s-.213-.208-.302-.257c-.088-.05-.178-.084-.269-.103l-.33-.018h-.688v1.712h-.592zm.592-2.154h1.275c.27 0 .482-.024.635-.071.152-.049.269-.127.348-.232.08-.106.119-.222.119-.347 0-.182-.078-.332-.232-.449-.153-.118-.395-.177-.727-.177h-1.418v1.276z" stroke-width="1pt" transform="matrix(.873 -.229 .241 .893 -152.017 -49.618)"/><path d="M427.64 510.86l1.72-3.855h.638l1.833 3.855h-.675l-.522-1.168h-1.873l-.491 1.168h-.63zm1.292-1.584h1.518l-.467-1.067c-.143-.324-.248-.591-.318-.8-.057.248-.137.493-.241.737l-.492 1.13z" stroke-width="1pt" transform="matrix(.836 -.336 .352 .856 -193.163 14.53)"/><path d="M411.43 510.86v-3.855h1.68c.342 0 .616.039.822.118.208.077.369.197.486.36.117.161.177.331.177.508 0 .164-.052.32-.156.465s-.261.263-.471.352c.271.069.479.185.624.35.146.165.22.359.22.584 0 .181-.045.349-.135.505-.087.154-.196.273-.327.357-.13.085-.294.148-.492.192-.195.043-.435.064-.72.064h-1.708zm.593-2.236h.968c.262 0 .451-.015.565-.044.15-.039.264-.103.339-.192.077-.09.116-.202.116-.337 0-.128-.036-.24-.107-.336-.071-.099-.173-.165-.305-.2-.132-.037-.36-.056-.681-.056h-.895v1.165zm0 1.781h1.115l.403-.019c.136-.021.25-.056.342-.105.091-.049.167-.12.226-.213.059-.095.089-.203.089-.326 0-.144-.043-.268-.129-.374-.085-.107-.205-.181-.357-.223-.151-.044-.369-.066-.654-.066h-1.035v1.326z" stroke-width="1pt" transform="matrix(.883 -.185 .196 .904 -133.693 -72.895)"/></g><g stroke="#000" fill="#ffc200" stroke-width=".235"><path d="M371.685 353.25l6.159 14.929-2.022.795-5.433-13.169-7.531 2.962-.726-1.761 9.553-3.757z"/><path d="M404.399 330.509l10.402 9.917 3.792-3.795 1.392 1.327-9.124 9.131-1.392-1.327 3.808-3.811-10.402-9.917 1.524-1.525z"/><path d="M417.774 316.783l11.476 11.554-1.607 1.522-15.229-3.184 9.011 9.072-1.501 1.421-11.476-11.554 1.607-1.522 15.234 3.192-9.018-9.079 1.502-1.422z"/><path d="M423.64 304.537l13.89 8.667-6.422 9.807-1.64-1.023 5.247-8.012-4.254-2.655-4.914 7.503-1.63-1.017 4.914-7.503-4.728-2.95-5.452 8.326-1.638-1.022 6.628-10.121z"/><path d="M431.155 303.531l-1.639 1.504c-1.263-1.317-1.971-2.716-2.124-4.193-.153-1.468.234-2.908 1.159-4.319.957-1.462 2.041-2.463 3.249-3.004 1.21-.53 2.552-.676 4.021-.436 1.467.246 2.864.784 4.19 1.612 1.447.903 2.532 1.956 3.254 3.163.724 1.217 1.04 2.495.946 3.835-.093 1.35-.531 2.623-1.314 3.819-.889 1.358-1.99 2.277-3.302 2.761-1.314.483-2.73.507-4.252.072l.73-2.033c1.217.315 2.254.319 3.106.008.852-.309 1.575-.919 2.168-1.826.682-1.042.999-2.075.948-3.096-.056-1.018-.422-1.936-1.103-2.761-.673-.82-1.467-1.516-2.382-2.087-1.182-.738-2.323-1.214-3.426-1.433-1.1-.208-2.1-.094-3.001.343-.899.438-1.62 1.069-2.162 1.896-.659 1.006-.92 2.042-.781 3.109.137 1.067.71 2.089 1.715 3.065z"/><path d="M446.059 257.771l-.46 2.149c-1.807-.374-3.208-1.124-4.2-2.248-.986-1.117-1.514-2.514-1.584-4.187-.073-1.733.228-3.159.901-4.278.681-1.111 1.695-1.981 3.039-2.605 1.347-.619 2.807-.958 4.379-1.022 1.716-.069 3.222.189 4.522.773 1.308.593 2.316 1.463 3.025 2.614.715 1.158 1.104 2.448 1.164 3.865.068 1.61-.295 2.978-1.086 4.109-.793 1.131-1.94 1.942-3.442 2.435l-.594-2.074c1.182-.421 2.034-.999 2.55-1.728.516-.731.751-1.635.706-2.71-.052-1.236-.399-2.259-1.04-3.067-.643-.803-1.482-1.351-2.524-1.646-1.032-.296-2.092-.42-3.177-.377-1.401.056-2.616.302-3.648.739-1.024.444-1.776 1.097-2.258 1.958-.48.861-.701 1.783-.659 2.762.05 1.192.444 2.187 1.184 2.985.738.799 1.807 1.315 3.203 1.553z"/><path d="M440.41 240.04l16.45-1.005.136 2.126-16.45 1.005-.136-2.126z"/><path d="M432.555 206.674l15.831-4.493 3.323 11.18-1.869.53-2.715-9.133-4.849 1.376 2.542 8.554-1.858.527-2.542-8.554-5.389 1.529 2.821 9.491-1.867.53-3.429-11.538z"/><path d="M424.371 189.295l15.118-6.408 1.307 2.941-9.151 8.032c-.855.744-1.497 1.296-1.925 1.654.626-.065 1.55-.146 2.773-.242l12.091-.923 1.168 2.628-15.118 6.408-.837-1.884 12.653-5.363-14.56 1.072-.783-1.762 10.971-9.726-12.869 5.455-.837-1.882z"/><path d="M388.087 150.508l9.346-13.254 1.798 1.209-8.244 11.691 6.688 4.496-1.102 1.563-8.485-5.705z"/><path d="M367.414 139.791l6.932-14.603 2.03.919 2.412 15.022 5.443-11.466 1.898.859-6.932 14.603-2.03-.919-2.408-15.03-5.447 11.475-1.898-.859z"/><path d="M353.678 134.546l6.219-14.912 11.037 4.391-.734 1.76-9.018-3.588-1.905 4.567 8.444 3.36-.73 1.75-8.444-3.36-2.117 5.076 9.372 3.729-.733 1.759-11.391-4.532z"/><path d="M269.082 140.463l-10.867-13.622 2.263-.665 7.554 9.997c.607.8 1.142 1.559 1.606 2.28-.015-.914.011-1.839.073-2.774l.815-12.456 2.132-.626-1.431 17.235-2.145.63z"/><path d="M254.854 147.565l-8.075-14.036 1.901-1.043 7.122 12.381 7.078-3.884.952 1.655-8.979 4.927z"/><path d="M226.717 163.167l1.414-1.47c.622.536 1.242.884 1.859 1.041.618.149 1.316.098 2.095-.15.774-.254 1.51-.685 2.208-1.294.621-.542 1.087-1.11 1.397-1.705s.437-1.148.382-1.658c-.056-.522-.253-.968-.593-1.34-.344-.376-.756-.607-1.234-.69-.483-.089-1.07-.004-1.76.254-.443.163-1.351.606-2.72 1.329-1.373.719-2.395 1.158-3.062 1.318-.862.212-1.64.225-2.336.036-.694-.198-1.294-.572-1.799-1.124-.554-.605-.896-1.324-1.023-2.155-.133-.837.015-1.687.441-2.549.427-.863 1.053-1.656 1.882-2.379.91-.794 1.845-1.351 2.802-1.666.961-.326 1.881-.375 2.765-.144.884.229 1.663.683 2.334 1.363l-1.455 1.476c-.777-.686-1.588-1.009-2.427-.973-.835.033-1.726.461-2.671 1.286-.983.858-1.539 1.662-1.666 2.412-.128.74.035 1.357.49 1.854.395.432.878.646 1.453.647.568.004 1.646-.421 3.235-1.278 1.59-.867 2.73-1.405 3.422-1.617 1.01-.303 1.912-.355 2.71-.156.79.193 1.48.613 2.069 1.256.586.64.95 1.406 1.094 2.3.142.889.004 1.799-.41 2.73-.416.921-1.061 1.766-1.938 2.531-1.112.97-2.192 1.627-3.235 1.969-1.039.336-2.062.377-3.073.119-1.01-.267-1.891-.792-2.648-1.574z"/><path d="M215.722 186.306l-13.34-9.458 1.283-1.724 11.767 8.342 4.771-6.413 1.573 1.115-6.054 8.136z"/><path d="M207.816 200.289l-14.423-7.791 5.77-10.186 1.703.92-4.714 8.321 4.417 2.386 4.415-7.793 1.692.914-4.415 7.793 4.909 2.652 4.9-8.649 1.701.919-5.956 10.514z"/><path d="M201.379 225.429l-16.098-3.479 2.578-11.366 1.9.411-2.106 9.287 4.93 1.066 1.972-8.696 1.889.408-1.972 8.696 5.48 1.184 2.189-9.651 1.898.41-2.66 11.73z"/><path d="M196.328 277.406l-.143-2.193c1.844-.11 3.399.249 4.663 1.075 1.256.821 2.145 2.029 2.671 3.626.544 1.652.642 3.103.299 4.356-.353 1.25-1.093 2.35-2.219 3.304-1.13.945-2.445 1.654-3.943 2.124-1.635.513-3.158.656-4.571.43-1.422-.231-2.632-.808-3.63-1.733-1.006-.93-1.731-2.071-2.176-3.423-.504-1.532-.529-2.948-.074-4.244.456-1.296 1.34-2.377 2.654-3.241l1.139 1.845c-1.025.713-1.689 1.49-1.987 2.329s-.278 1.77.059 2.796c.387 1.177 1.001 2.073 1.839 2.686.838.605 1.797.916 2.881.929 1.076.017 2.132-.137 3.166-.461 1.336-.419 2.44-.972 3.315-1.662.866-.695 1.413-1.52 1.642-2.475.227-.957.189-1.901-.118-2.834-.374-1.136-1.025-1.993-1.956-2.571-.929-.576-2.101-.798-3.511-.662z"/><path d="M208.418 292.827l-14.775 7.138-.967-1.907 14.775-7.138.967 1.907z"/><path d="M213.642 303.529l-15.153 6.339-.859-1.956 13.366-5.592-3.199-7.286 1.787-.748 4.057 9.242z"/><path d="M212.037 330.161l-1.418-1.619 7.241-6.045c1.261-1.052 2.382-1.747 3.367-2.088s2.03-.341 3.135-.002c1.095.336 2.158 1.095 3.191 2.274 1.004 1.146 1.622 2.253 1.856 3.319.233 1.068.104 2.075-.386 3.024-.497.955-1.41 1.986-2.738 3.094l-7.241 6.045-1.418-1.619 7.232-6.038c1.09-.91 1.808-1.677 2.156-2.305.336-.628.436-1.299.296-2.01-.144-.718-.522-1.423-1.13-2.118-1.042-1.19-2.061-1.809-3.057-1.853s-2.28.589-3.854 1.904l-7.232 6.038z"/><path d="M252.465 345.168l-10.222 12.627-9.348-7.223 1.207-1.491 7.636 5.901 3.131-3.868-7.152-5.527 1.2-1.482 7.152 5.527 3.48-4.298-7.936-6.132 1.205-1.489 9.647 7.455z"/><path d="M388.14 343.406l3.019 16.992-2.018 1.177-14.242-10.443 2.133-1.244 4.208 3.223 5.916-3.452-1.005-5.092 1.988-1.16zm-.612 8.057l-4.796 2.798 3.818 2.966c1.161.901 2.079 1.66 2.756 2.28-.363-.991-.645-2.019-.851-3.084l-.927-4.961z"/><path d="M399.934 335.792l10.703 12.241-5.557 4.636c-1.116.931-2.065 1.528-2.84 1.79-.77.268-1.574.268-2.408.002-.834-.268-1.546-.738-2.134-1.411-.76-.869-1.112-1.84-1.058-2.915.055-1.076.613-2.197 1.674-3.36-.618.158-1.129.235-1.533.224-.863-.029-1.797-.189-2.799-.48l-5.094-1.512 2.086-1.74 3.885 1.163c1.126.33 2.017.56 2.67.688.655.129 1.175.166 1.563.114.381-.049.727-.15 1.037-.303.223-.117.547-.355.975-.712l1.923-1.604-4.752-5.435 1.659-1.384zm4.321 8.222l-3.564 2.973c-.759.633-1.286 1.201-1.582 1.709-.292.512-.403 1.028-.333 1.547.076.526.284.985.63 1.382.506.579 1.139.873 1.899.885.753.015 1.594-.364 2.522-1.138l3.967-3.309-3.54-4.048z"/><path d="M439.863 261.051l13.773 10.802-.717 2.187-17.759 1.361.757-2.31 5.341-.301 2.101-6.412-4.202-3.173.706-2.154zm4.997 6.442l-1.704 5.198 4.873-.239c1.482-.076 2.685-.099 3.613-.07-.943-.51-1.851-1.097-2.727-1.765l-4.055-3.125z"/><path d="M437.599 221.237l16.415-1.469.667 7.108c.134 1.429.085 2.529-.144 3.298-.221.769-.685 1.41-1.388 1.921-.706.511-1.51.809-2.412.889-1.166.104-2.181-.177-3.048-.841-.868-.666-1.483-1.756-1.843-3.275-.225.585-.456 1.036-.698 1.351-.523.671-1.196 1.324-2.017 1.957l-4.206 3.188-.25-2.668 3.216-2.427c.926-.708 1.633-1.285 2.117-1.732.486-.448.817-.841.997-1.181.179-.332.294-.666.345-1.002.031-.246.019-.641-.032-1.188l-.231-2.459-7.289.652-.199-2.122zm9.37 1.301l.428 4.559c.091.97.261 1.719.515 2.248.26.528.627.915 1.101 1.158.483.243.988.342 1.519.295.776-.069 1.388-.405 1.837-1.004.447-.591.617-1.48.505-2.668l-.476-5.074-5.429.486z"/><path d="M413.373 175.107l17.111-4.259 1.359 1.873-9.553 14.679-1.436-1.98 2.962-4.349-3.984-5.492-5.119 1.375-1.34-1.847zm8.272-.029l3.229 4.452 2.732-3.946c.828-1.202 1.532-2.155 2.113-2.862-.984.43-2.01.786-3.082 1.068l-4.992 1.287z"/><path d="M395.599 157.082l15.885-7.538 1.717 1.568-6.332 16.26-1.816-1.658 2.005-4.843-5.036-4.598-4.732 2.354-1.692-1.545zm8.098-1.657l4.083 3.727 1.863-4.404c.564-1.341 1.057-2.412 1.48-3.219-.875.615-1.807 1.165-2.799 1.653l-4.626 2.243z"/><path d="M325.508 129.494l1.641-16.02 7.273.708c1.463.142 2.56.398 3.29.763.733.358 1.288.924 1.67 1.696.38.773.525 1.601.435 2.482-.117 1.138-.591 2.058-1.425 2.764-.832.706-2.048 1.089-3.644 1.146.547.326.956.634 1.229.926.576.629 1.103 1.398 1.583 2.305l2.407 4.638-2.731-.266-1.828-3.544c-.536-1.022-.984-1.81-1.342-2.359-.356-.551-.69-.943-.998-1.18-.3-.235-.614-.408-.94-.521-.241-.076-.642-.14-1.201-.194l-2.517-.245-.728 7.113-2.172-.211zm3.088-8.739l4.666.454c.991.097 1.779.075 2.358-.068.58-.149 1.037-.428 1.374-.836.336-.417.53-.883.583-1.401.078-.757-.141-1.408-.659-1.952-.51-.541-1.373-.872-2.59-.991l-5.191-.506-.543 5.298z"/><path d="M306.043 120.541c.272-2.659 1.215-4.668 2.832-6.027 1.618-1.366 3.582-1.936 5.895-1.711 1.515.147 2.844.635 3.987 1.458 1.144.825 1.967 1.904 2.472 3.232.513 1.323.687 2.787.523 4.389-.166 1.624-.649 3.045-1.453 4.262-.804 1.216-1.854 2.097-3.152 2.639-1.299.537-2.66.735-4.085.597-1.545-.15-2.887-.65-4.029-1.496-1.142-.848-1.961-1.931-2.458-3.253s-.674-2.684-.53-4.09zm2.233.25c-.198 1.93.177 3.506 1.121 4.722.954 1.212 2.233 1.896 3.837 2.052 1.635.159 3.035-.271 4.2-1.29 1.175-1.02 1.869-2.559 2.08-4.621.134-1.304.021-2.462-.335-3.476-.347-1.019-.931-1.839-1.749-2.455-.81-.623-1.757-.987-2.838-1.092-1.538-.15-2.914.238-4.132 1.165-1.211.918-1.939 2.584-2.186 4.995z"/><path d="M293.423 132.163l-3.135-15.806 5.575-1.053c1.259-.238 2.234-.344 2.927-.318.969.035 1.835.262 2.597.685.993.543 1.809 1.325 2.447 2.344.644 1.012 1.106 2.223 1.385 3.631.238 1.202.306 2.292.202 3.274-.102.981-.317 1.82-.646 2.516-.329.688-.727 1.26-1.195 1.713-.461.446-1.053.829-1.775 1.152-.716.321-1.563.574-2.541.759l-5.84 1.104zm1.772-2.269l3.455-.653c1.066-.201 1.883-.457 2.448-.766.572-.309 1.004-.675 1.294-1.094.41-.591.672-1.332.786-2.218.121-.895.063-1.94-.174-3.132-.328-1.654-.86-2.869-1.593-3.647-.729-.788-1.522-1.257-2.377-1.408-.615-.107-1.562-.041-2.834.199l-3.401.643 2.395 12.076z"/><path d="M277.047 135.793l2.438-17.076 2.288-.519 10.299 14.186-2.42.549-3.002-4.322-6.713 1.523-.634 5.147-2.256.512zm3.101-7.487l5.444-1.235-2.709-3.961c-.824-1.204-1.461-2.2-1.911-2.992.034 1.052-.017 2.114-.154 3.189l-.671 4.999z"/><path d="M240.803 157.513l-3.73-16.854 1.967-1.257 14.673 9.863-2.08 1.329-4.341-3.051-5.769 3.685 1.218 5.047-1.938 1.238zm.274-8.074l4.677-2.988-3.941-2.81c-1.198-.854-2.148-1.575-2.85-2.168.404.976.729 1.991.98 3.047l1.134 4.919z"/><path d="M199.741 240.859l-16.415-1.486.524-5.521c.118-1.246.287-2.191.506-2.832.305-.9.771-1.648 1.4-2.245.812-.779 1.808-1.325 2.989-1.638 1.175-.319 2.495-.414 3.957-.282 1.248.113 2.339.355 3.275.727.936.371 1.701.807 2.293 1.31.585.501 1.035 1.035 1.35 1.6.31.557.52 1.22.636 1.987.115.761.127 1.626.035 2.595l-.549 5.785zm-1.735-2.297l.325-3.422c.1-1.056.077-1.894-.068-2.509-.143-.623-.382-1.13-.714-1.519-.466-.55-1.121-1.003-1.961-1.358-.846-.365-1.89-.602-3.128-.714-1.718-.156-3.061.003-4.031.473-.979.463-1.661 1.075-2.049 1.834-.277.547-.477 1.453-.597 2.713l-.319 3.368 12.542 1.135z"/><path d="M201.334 272.595l-16.913-4.963-.175-2.288 15.938-7.774.185 2.42-4.835 2.237.514 6.713 5.113 1.398.173 2.256zm-7.105-4.138l-.417-5.444-4.425 2.01c-1.345.611-2.451 1.076-3.322 1.388 1.07.128 2.137.34 3.205.636l4.958 1.412z"/><path d="M221.683 315.826l-13.521 9.208-3.538-4.952c-.721-1.01-1.159-1.911-1.315-2.705-.167-.798-.086-1.561.241-2.293.316-.734.785-1.312 1.407-1.735.578-.393 1.232-.611 1.961-.652s1.471.14 2.226.545c-.331-.961-.359-1.853-.086-2.672.269-.825.797-1.507 1.584-2.043.633-.431 1.317-.701 2.054-.809.726-.111 1.373-.073 1.943.109.569.184 1.139.513 1.709.991.558.477 1.138 1.135 1.739 1.976l3.596 5.034zm-9.086 3.593l-2.04-2.856c-.553-.775-1.002-1.294-1.348-1.559-.453-.352-.914-.533-1.387-.54-.477-.016-.952.139-1.425.461-.449.306-.766.68-.955 1.119-.193.444-.213.904-.057 1.378.15.478.564 1.192 1.241 2.141l1.885 2.639 4.086-2.783zm6.244-4.253l-2.349-3.288c-.403-.564-.708-.946-.913-1.144-.362-.352-.725-.605-1.091-.758-.365-.154-.772-.206-1.222-.157-.457.051-.901.225-1.331.518-.504.343-.851.767-1.039 1.27-.195.507-.205 1.036-.032 1.587.163.549.545 1.244 1.146 2.085l2.182 3.054 4.65-3.167z"/><path d="M240.882 336.551l-11.004 11.992-4.63-4.053c-.815-.713-1.402-1.298-1.761-1.748-.512-.627-.845-1.258-.997-1.893-.157-.629-.132-1.299.078-2.011.205-.715.58-1.37 1.126-1.965.935-1.019 2.06-1.593 3.375-1.72 1.31-.122 2.833.577 4.57 2.097l3.148 2.756 4.473-4.875 1.623 1.421zm-7.396 4.869l-3.174-2.778c-1.049-.918-1.969-1.381-2.76-1.384-.791-.005-1.505.339-2.14 1.032-.46.501-.723 1.044-.786 1.628-.073.585.049 1.12.368 1.606.208.31.681.788 1.417 1.432l3.141 2.75 3.933-4.286z"/><path d="M267.44 353.804l-8.53 13.778-6.254-3.691c-1.256-.741-2.135-1.433-2.634-2.069-.503-.629-.756-1.375-.76-2.231-.003-.858.231-1.666.7-2.423.606-.978 1.439-1.61 2.501-1.899 1.064-.288 2.328-.124 3.793.493-.349-.523-.584-.973-.7-1.35-.243-.809-.382-1.726-.414-2.746l-.133-5.199 2.348 1.386.092 3.968c.034 1.148.09 2.046.172 2.692.081.648.208 1.141.381 1.484.168.338.375.626.621.866.184.17.518.395.999.679l2.164 1.277 3.787-6.118 1.867 1.102zm-6.632 6.596l-4.011-2.367c-.854-.504-1.572-.814-2.158-.928-.589-.109-1.126-.049-1.608.179-.487.236-.869.574-1.145 1.02-.403.651-.49 1.331-.263 2.039.222.703.855 1.363 1.9 1.98l4.465 2.635 2.821-4.557z"/></g></g></g></svg>