<svg xmlns="http://www.w3.org/2000/svg" height="480" width="640"><defs><clipPath id="a"><path fill-opacity=".67" d="M-85.333 0h682.67v512h-682.67z"/></clipPath></defs><g clip-path="url(#a)" transform="matrix(.938 0 0 .938 80 0)"><path fill-rule="evenodd" fill="#3e5eb9" d="M-128 0h768v512h-768z"/><path fill-rule="evenodd" fill="#ffd900" d="M-128 91.429h768v329.14h-768z"/><path fill-rule="evenodd" fill="#b10c0c" d="M-128 128h768v256h-768z"/><rect fill-rule="evenodd" rx="5.767" ry="5.851" height="10.971" width="621.71" stroke="#000" y="250.51" x="-51.439" stroke-width="1.474" fill="#ffd900"/><g stroke="#000" transform="matrix(1.032 0 0 1.032 -757.03 -25.6)"><path d="M-106.3 265.75l-88.583 35.433 88.583 35.433 88.582-35.433-88.582-35.433z" fill-rule="evenodd" transform="matrix(.34 0 0 .3 1256.8 136.42)" stroke-width="4.175" fill="#fff"/><rect fill-rule="evenodd" rx="4.108" ry="3.78" height="7.087" width="442.91" y="223.23" x="761.81" stroke-width="1.333" fill="#ffd900"/><path d="M1194.088 230.314c1.77 0 3.545-1.772 3.545-3.543s-1.775-3.543-3.545-3.543" stroke-width="1.3335" fill="none"/><path d="M1190.588 230.314c1.77 0 3.545-1.772 3.545-3.543s-1.775-3.543-3.545-3.543" stroke-width="1.3335" fill="none"/><path d="M1186.988 230.315c1.77 0 3.545-1.772 3.545-3.543s-1.775-3.543-3.545-3.543" stroke-width="1.3335" fill="none"/></g><g stroke="#000" transform="matrix(1.032 0 0 1.032 -786.29 -3.657)"><path d="M-106.3 265.75l-88.583 35.433 88.583 35.433 88.582-35.433-88.582-35.433z" fill-rule="evenodd" transform="matrix(.34 0 0 .3 1256.8 136.42)" stroke-width="4.175" fill="#fff"/><rect fill-rule="evenodd" rx="4.108" ry="3.78" height="7.087" width="442.91" y="223.23" x="761.81" stroke-width="1.333" fill="#ffd900"/><path d="M1194.088 230.314c1.77 0 3.545-1.772 3.545-3.543s-1.775-3.543-3.545-3.543" stroke-width="1.3335" fill="none"/><path d="M1190.588 230.314c1.77 0 3.545-1.772 3.545-3.543s-1.775-3.543-3.545-3.543" stroke-width="1.3335" fill="none"/><path d="M1186.988 230.315c1.77 0 3.545-1.772 3.545-3.543s-1.775-3.543-3.545-3.543" stroke-width="1.3335" fill="none"/></g><g fill-rule="evenodd"><path d="M338.07-.416c-5.571 12.442 4.275-4.138 28.299 16.691 4.452 3.87 8.342 14.09 8.342 21.177-1.13-.975-1.969-3.144-3.214-4.552-1.743 2.253 1.664 12.577 2.162 17.457-3.756-2.711-3.394-3.994-4.642-7.324.249 4.026-.645 15.116.849 19.386-2.96-1.09-2.764-4.163-4.31-4.78 1.052 4.834-.916 10.094-.394 15.528-1.73-2.208-3.573-3.938-4.376-4.829-.135 2.588-3.327 9.388-3.4 11.835-1.468-1.144-1.866-2.926-2.111-4.127-1.824 2.955-8.308 13.872-8.724 17.202-4.996-5.689-17.793-19.545-19.459-26.899-1.473 4.175-3.604 5.583-7.817 8.632-1.665-11.656-7.891-24.756-4.561-34.747-2.359 1.804-4.302 3.608-6.66 5.828 2.234-16.88 13.628-36.674 30.016-46.477z" transform="matrix(.994 0 0 .771 190.372 251.967)" stroke="#000" stroke-width="1.067pt" fill="#3d5da7"/><path d="M273.5 33.156c-19.565.663-27.155-1.665-39.755-1.249-22.163.709-38.09 4.409-38.09-.416 0-4.826 8.006-7.077 30.181-7.077 22.174 0 27.682 1.419 47.664 8.742z" transform="matrix(-.134 .231 -.474 -.126 558.114 240.235)" stroke-width="1pt" fill="#a70000"/><path d="M273.5 33.156c-19.565.663-27.155-1.665-39.755-1.249-22.163.709-38.09 4.409-38.09-.416 0-4.826 8.006-7.077 30.181-7.077 22.174 0 27.682 1.419 47.664 8.742z" transform="matrix(0 .18 -.437 .04 535.819 259.48)" stroke-width="1pt" fill="#a70000"/><path d="M273.5 33.156c-19.565.663-27.155-1.665-39.755-1.249-22.163.709-38.09 4.409-38.09-.416 0-4.826 8.006-7.077 30.181-7.077 22.174 0 27.682 1.419 47.664 8.742z" transform="matrix(.033 .253 -.405 .105 537.509 244.213)" stroke-width="1pt" fill="#a70000"/><path d="M273.5 33.156c-19.565.663-27.155-1.665-39.755-1.249-22.163.709-38.09 4.409-38.09-.416 0-4.826 8.006-7.077 30.181-7.077 22.174 0 27.682 1.419 47.664 8.742z" transform="matrix(.155 .103 .218 -.272 495.932 263.672)" stroke-width="1pt" fill="#a70000"/><path d="M273.5 33.156c-19.565.663-27.155-1.665-39.755-1.249-22.163.709-38.09 4.409-38.09-.416 0-4.826 8.006-7.077 30.181-7.077 22.174 0 27.682 1.419 47.664 8.742z" transform="matrix(.091 .156 .39 -.164 505.65 261.811)" stroke-width="1pt" fill="#a70000"/></g><g fill-rule="evenodd"><path d="M329.6 20.703c-.272-2.662.253-2.981-1.258-4.989 2.2.997 2.284 3.649 4.959 1.767.983-.551 1.411-.569.217-3.526 2.79.14 11.927 3.535 13.39 3.614 3.842.191 10.855-4.373 15.723 1.239 4.672 5.117 3.112 10.429 3.112 17.516-1.877-.975-.973-1.455-2.965-3.989 1.494 6.195-.08 17.364-.08 23.934-.767-1.584-.654-.896-1.404-2.537-1.992 5.997-4.38 7.231-4.38 14.318-.719-2.779-.025-2.192-.825-3.654-1.936 4.552-14.925 8.444-9.92 13.033-4.518-2.87-6.499-2.569-8.548-5.15-.882.617-1.584 1.785-2.404 3.387-7.943-3.96-5.103-12.501-11.326-18.206-1.077 2.392-.586 2.045-1.75 5.938-1.26-5.408-1.604-8.844-3.021-12.819-1.223 2.204-1.113 1.359-3.333 4.689-.918-6.587-2.413-8.142-1.822-12.501-2.359 1.804-.815 1.073-3.173 3.293 2.234-16.88 11.884-29.352 18.808-25.358z" transform="matrix(1.137 0 0 1.049 -399.332 239.172)" stroke="#000" stroke-width="1.067pt" fill="#3d5da7"/><path d="M273.5 33.156c-19.565.663-27.155-1.665-39.755-1.249-22.163.709-38.09 4.409-38.09-.416 0-4.826 8.006-7.077 30.181-7.077 22.174 0 27.682 1.419 47.664 8.742z" transform="matrix(-.134 .286 -.462 -.163 16.298 217.013)" stroke-width="1pt" fill="#a70000"/><path d="M273.5 33.156c-19.565.663-27.155-1.665-39.755-1.249-22.163.709-38.09 4.409-38.09-.416 0-4.826 8.006-7.077 30.181-7.077 22.174 0 27.682 1.419 47.664 8.742z" transform="matrix(-.062 .259 -.429 -.047 4.236 234.592)" stroke-width="1pt" fill="#a70000"/><path d="M273.5 33.156c-19.565.663-27.155-1.665-39.755-1.249-22.163.709-38.09 4.409-38.09-.416 0-4.826 8.006-7.077 30.181-7.077 22.174 0 27.682 1.419 47.664 8.742z" transform="matrix(-.027 .254 -.41 .005 4.572 244.496)" stroke-width="1pt" fill="#a70000"/><path d="M273.5 33.156c-19.565.663-27.155-1.665-39.755-1.249-22.163.709-38.09 4.409-38.09-.416 0-4.826 8.006-7.077 30.181-7.077 22.174 0 27.682 1.419 47.664 8.742z" transform="matrix(.233 .209 .363 -.335 -69.703 235.561)" stroke-width="1pt" fill="#a70000"/><path d="M273.5 33.156c-19.565.663-27.155-1.665-39.755-1.249-22.163.709-38.09 4.409-38.09-.416 0-4.826 8.006-7.077 30.181-7.077 22.174 0 27.682 1.419 47.664 8.742z" transform="matrix(.157 .214 .377 -.216 -51.866 246.885)" stroke-width="1pt" fill="#a70000"/></g><g fill-rule="evenodd"><path d="M637.8 230.32c-53.15 59.05-124.02 177.16-265.75 177.16-124.02 0-212.6-118.11-265.75-177.16 53.15-59.06 141.73-177.17 265.75-177.17 141.73 0 212.6 118.11 265.75 177.17z" transform="matrix(.688 0 0 .619 -.011 113.355)" stroke="#000" stroke-width="2.108" fill="#fff"/><path d="M353.5 114.78c14.14 17.671 2.333 24.795 17.3 25.955 15.784 1.288 6.837 18.672 20.114 19.276 9.282.45-.927 41.652 8.009 55.247 9.102 14.174 16.725 4.153 16.885 14.393.158 10.59-24.773 9.522-25.21 42.146-.731 18.8-21.039 20.004-22.008 32.101-1.205 11.378 40.008 17.766 39.459 27.952-.565 10.155-44.501 8.565-46.414 20.146-.981 10.402 60.359 18.928 65.291 49.013-9.153 3.326-35.194 6.457-54.877 6.474-124.01.11-212.6-118.11-265.75-177.16 53.15-59.06 141.73-177.17 265.75-177.17 0 0-36.813 37.374-18.549 61.627z" transform="matrix(.688 0 0 .619 -.011 113.355)" stroke-width="1pt"/><g stroke-width="1pt" fill="#fff"><path d="M141.342 216.989h8.858v29.233h-8.858z"/><path d="M141.342 265.71h8.858v29.233h-8.858z"/><path d="M159.057 216.989h8.858v29.233h-8.858z"/><path d="M159.057 265.71h8.858v29.233h-8.858z"/><path d="M176.772 216.989h8.858v29.233h-8.858z"/><path d="M176.772 265.71h8.858v29.233h-8.858z"/><path d="M194.492 216.989h8.858v29.233h-8.858z"/><path d="M194.492 265.71h8.858v29.233h-8.858z"/><path d="M212.207 216.989h8.858v29.233h-8.858z"/><path d="M212.207 265.71h8.858v29.233h-8.858z"/><path d="M229.922 216.989h8.858v29.233h-8.858z"/><path d="M229.922 265.71h8.858v29.233h-8.858z"/></g><g stroke-width="1pt"><path d="M275.433 216.989h8.858v29.233h-8.858z"/><path d="M275.433 265.71h8.858v29.233h-8.858z"/><path d="M293.148 216.989h8.858v29.233h-8.858z"/><path d="M293.148 265.71h8.858v29.233h-8.858z"/><path d="M310.863 216.989h8.858v29.233h-8.858z"/><path d="M310.863 265.71h8.858v29.233h-8.858z"/><path d="M328.583 216.989h8.858v29.233h-8.858z"/><path d="M328.583 265.71h8.858v29.233h-8.858z"/><path d="M346.298 216.989h8.858v29.233h-8.858z"/><path d="M346.298 265.71h8.858v29.233h-8.858z"/><path d="M364.013 216.989h8.858v29.233h-8.858z"/><path d="M364.013 265.71h8.858v29.233h-8.858z"/></g></g><g fill-rule="evenodd"><path d="M338.07-.416c-5.571 12.442 9.754-4.138 33.778 16.691 4.452 3.87 10.833 19.159 10.833 26.245-5.115-1.256-14.173-7.087-14.173-7.087s10.63 12.295 10.63 26.468c-3.756-2.711-5.635-2.304-6.883-5.635 0 4.589 3.34 7.513 3.34 14.599-2.711-2.498-5.006-4.163-7.3-5.625 3.543 7.087-6.457 20.834-1.452 25.423-8.752-1.462-17.707-7.919-21.25-15.006-1.878 1.462-2.082 3.756-2.155 6.203.276.264-13.322-11.656-12.073-16.235-1.824 2.955-2.081 4.579-2.497 7.909-4.996-5.689-9.574-11.378-11.24-18.733l-4.579 6.66c-1.665-11.656-1.665-11.24 1.665-21.23-2.359 1.804-4.302 3.608-6.66 5.828 2.234-16.88 13.628-36.674 30.016-46.477z" transform="matrix(.909 0 0 .788 -110.558 166.096)" stroke="#000" stroke-width="1.067pt" fill="#3d5da7"/><path d="M273.5 33.156c-19.565.663-27.155-1.665-39.755-1.249-22.163.709-38.09 4.409-38.09-.416 0-4.826 8.006-7.077 30.181-7.077 22.174 0 27.682 1.419 47.664 8.742z" transform="matrix(-.06 .344 -.561 -.029 219.482 120.475)" stroke-width="1pt" fill="#a70000"/><path d="M273.5 33.156c-19.565.663-27.155-1.665-39.755-1.249-22.163.709-38.09 4.409-38.09-.416 0-4.826 8.006-7.077 30.181-7.077 22.174 0 27.682 1.419 47.664 8.742z" transform="matrix(.011 .294 -.49 .083 211.572 142.826)" stroke-width="1pt" fill="#a70000"/><path d="M273.5 33.156c-19.565.663-27.155-1.665-39.755-1.249-22.163.709-38.09 4.409-38.09-.416 0-4.826 8.006-7.077 30.181-7.077 22.174 0 27.682 1.419 47.664 8.742z" transform="matrix(.138 .246 .437 -.171 168.444 174.447)" stroke-width="1pt" fill="#a70000"/><path d="M273.5 33.156c-19.565.663-27.155-1.665-39.755-1.249-22.163.709-38.09 4.409-38.09-.416 0-4.826 8.006-7.077 30.181-7.077 22.174 0 27.682 1.419 47.664 8.742z" transform="matrix(.323 .149 .297 -.467 130.113 166.77)" stroke-width="1pt" fill="#a70000"/><path d="M273.5 33.156c-19.565.663-27.155-1.665-39.755-1.249-22.163.709-38.09 4.409-38.09-.416 0-4.826 8.006-7.077 30.181-7.077 22.174 0 27.682 1.419 47.664 8.742z" transform="matrix(.239 .178 .35 -.345 153.342 173.23)" stroke-width="1pt" fill="#a70000"/></g></g></svg>