<svg xmlns="http://www.w3.org/2000/svg" height="480" width="640" version="1"><defs><clipPath id="a"><path fill-opacity=".67" d="M42.666 0h682.67v512h-682.67z"/></clipPath></defs><g fill-rule="evenodd" clip-path="url(#a)"><path stroke-width="NaN" fill="#004e00" d="M-40 0h720v480h-720z"/><g stroke-width="1pt"><path d="M204.251 161.118h13.238" fill="#ffef00"/><path d="M206.938 128.995c26.172 12.604 57.328-.073 68.597-17.485 11.555-16.25 12.968-43.532-7.02-68.559 31.023 25.7 37.886 54.84 22.46 78.841-20.577 27.427-66.24 26.644-84.038 7.203z" fill="#fff"/><path fill="#feffff" d="M253.384 65.16l5.264.067-4.166 3.312 1.562 5.181-4.344-3.062-4.301 3.133 1.484-5.203-4.218-3.241 5.26-.156 1.688-5.138z"/><path fill="#feffff" d="M227.393 97.744l5.264.067-4.166 3.312 1.562 5.181-4.344-3.062-4.301 3.133 1.484-5.203-4.218-3.241 5.26-.156 1.688-5.138z"/><path fill="#feffff" d="M229.106 72.027l5.264.067-4.166 3.312 1.562 5.181-4.344-3.062-4.301 3.133 1.484-5.203-4.218-3.241 5.26-.156 1.688-5.138z"/><path fill="#feffff" d="M229.106 46.296l5.264.067-4.166 3.312 1.562 5.181-4.344-3.062-4.301 3.133 1.484-5.203-4.218-3.241 5.26-.156 1.688-5.138z"/><path fill="#feffff" d="M200.221 78.887l5.264.067-4.166 3.312 1.562 5.181-4.344-3.062-4.301 3.133 1.484-5.203-4.218-3.241 5.26-.156 1.688-5.138z"/></g><g><path stroke-width="NaN" fill="#980000" d="M4.589 0h154.348v480.186h-154.348z"/><g stroke-width="1pt" fill="#e69900"><path d="M4.589 125.191v-3.43l6.38-8.575-1.286-1.715 3.859-5.145-1.286-1.715-2.573 3.43-1.286-1.715 9.003-12.005 1.286 1.715-1.286 1.715 2.651 3.465 6.352-8.61-6.459-8.344-2.545 3.199 1.286 1.715-1.286 1.715-9.003-12.005 1.286-1.715 2.573 3.43 1.286-1.715-3.859-5.145 1.286-1.715-6.38-8.575v-3.43l8.953 12.005-1.286 1.715 3.859 5.145-2.573 3.43 2.573 3.43 3.859-5.144 9.054 12.209-9.054 11.8-3.859-5.145-2.573 3.43 2.573 3.43-3.859 5.145 1.286 1.715-8.953 12.005z"/><path d="M4.588 82.318l1.286 3.43v5.145h3.859l2.572 1.715-2.572 1.715h-3.859v5.145l-1.286 3.43v-20.58z"/></g><g stroke-width="1pt" fill="#e69900"><path d="M4.589 207.509v-3.43l6.38-8.575-1.286-1.715 3.859-5.145-1.286-1.715-2.573 3.43-1.286-1.715 9.003-12.005 1.286 1.715-1.286 1.715 2.651 3.465 6.352-8.61-6.459-8.344-2.545 3.199 1.286 1.715-1.286 1.715-9.003-12.005 1.286-1.715 2.573 3.43 1.286-1.715-3.859-5.145 1.286-1.715-6.38-8.575v-3.43l8.953 12.005-1.286 1.715 3.859 5.145-2.573 3.43 2.573 3.43 3.859-5.144 9.054 12.209-9.054 11.8-3.859-5.145-2.573 3.43 2.573 3.43-3.859 5.145 1.286 1.715-8.953 12.005z"/><path d="M4.588 164.636l1.286 3.43v5.145h3.859l2.572 1.715-2.572 1.715h-3.859v5.145l-1.286 3.43v-20.58z"/></g><g stroke-width="1pt" fill="#e69900"><path d="M4.59 289.828v-3.43l6.38-8.575-1.286-1.715 3.859-5.145-1.286-1.715-2.573 3.43-1.286-1.715 9.003-12.005 1.286 1.715-1.286 1.715 2.651 3.465 6.352-8.61-6.459-8.344-2.545 3.199 1.286 1.715-1.286 1.715-9.003-12.005 1.286-1.715 2.573 3.43 1.286-1.715-3.859-5.145 1.286-1.715-6.38-8.575v-3.43l8.953 12.005-1.286 1.715 3.859 5.145-2.573 3.43 2.573 3.43 3.859-5.144 9.054 12.209-9.054 11.8-3.859-5.145-2.573 3.43 2.573 3.43-3.859 5.145 1.286 1.715-8.953 12.005z"/><path d="M4.589 246.955l1.286 3.43v5.145h3.859l2.572 1.715-2.572 1.715h-3.859v5.145l-1.286 3.43v-20.58z"/></g><g stroke-width="1pt" fill="#e69900"><path d="M4.59 366.998v-3.43l6.38-8.575-1.286-1.715 3.859-5.145-1.286-1.715-2.573 3.43-1.286-1.715 9.003-12.005 1.286 1.715-1.286 1.715 2.651 3.465 6.352-8.61-6.459-8.344-2.545 3.199 1.286 1.715-1.286 1.715-9.003-12.005 1.286-1.715 2.573 3.43 1.286-1.715-3.859-5.145 1.286-1.715-6.38-8.575v-3.43l8.953 12.005-1.286 1.715 3.859 5.145-2.573 3.43 2.573 3.43 3.859-5.144 9.054 12.209-9.054 11.8-3.859-5.145-2.573 3.43 2.573 3.43-3.859 5.145 1.286 1.715-8.953 12.005z"/><path d="M4.589 324.125l1.286 3.43v5.145h3.859l2.572 1.715-2.572 1.715h-3.859v5.145l-1.286 3.43v-20.58z"/></g><g stroke-width="1pt" fill="#e69900"><path d="M158.933 125.191v-3.43l-6.38-8.575 1.286-1.715-3.859-5.145 1.286-1.715 2.573 3.43 1.286-1.715-9.003-12.005-1.286 1.715 1.286 1.715-2.651 3.465-6.352-8.61 6.459-8.344 2.545 3.199-1.286 1.715 1.286 1.715 9.003-12.005-1.286-1.715-2.573 3.43-1.286-1.715 3.859-5.145-1.286-1.715 6.38-8.575v-3.43l-8.953 12.005 1.286 1.715-3.859 5.145 2.573 3.43-2.573 3.43-3.859-5.144-9.054 12.209 9.054 11.8 3.859-5.145 2.573 3.43-2.573 3.43 3.859 5.145-1.286 1.715 8.953 12.005z"/><path d="M158.934 82.318l-1.286 3.43v5.145h-3.859l-2.572 1.715 2.572 1.715h3.859v5.145l1.286 3.43v-20.58z"/></g><g stroke-width="1pt" fill="#e69900"><path d="M159.359 207.51v-3.43l-6.38-8.575 1.286-1.715-3.859-5.145 1.286-1.715 2.573 3.43 1.286-1.715-9.003-12.005-1.286 1.715 1.286 1.715-2.651 3.465-6.352-8.61 6.459-8.344 2.545 3.199-1.286 1.715 1.286 1.715 9.003-12.005-1.286-1.715-2.573 3.43-1.286-1.715 3.859-5.145-1.286-1.715 6.38-8.575v-3.43l-8.953 12.005 1.286 1.715-3.859 5.145 2.573 3.43-2.573 3.43-3.859-5.144-9.054 12.209 9.054 11.8 3.859-5.145 2.573 3.43-2.573 3.43 3.859 5.145-1.286 1.715 8.953 12.005z"/><path d="M159.36 164.637l-1.286 3.43v5.145h-3.859l-2.572 1.715 2.572 1.715h3.859v5.145l1.286 3.43v-20.58z"/></g><g stroke-width="1pt" fill="#e69900"><path d="M158.933 289.828v-3.43l-6.38-8.575 1.286-1.715-3.859-5.145 1.286-1.715 2.573 3.43 1.286-1.715-9.003-12.005-1.286 1.715 1.286 1.715-2.651 3.465-6.352-8.61 6.459-8.344 2.545 3.199-1.286 1.715 1.286 1.715 9.003-12.005-1.286-1.715-2.573 3.43-1.286-1.715 3.859-5.145-1.286-1.715 6.38-8.575v-3.43l-8.953 12.005 1.286 1.715-3.859 5.145 2.573 3.43-2.573 3.43-3.859-5.144-9.054 12.209 9.054 11.8 3.859-5.145 2.573 3.43-2.573 3.43 3.859 5.145-1.286 1.715 8.953 12.005z"/><path d="M158.934 246.955l-1.286 3.43v5.145h-3.859l-2.572 1.715 2.572 1.715h3.859v5.145l1.286 3.43v-20.58z"/></g><g stroke-width="1pt" fill="#e69900"><path d="M158.933 366.998v-3.43l-6.38-8.575 1.286-1.715-3.859-5.145 1.286-1.715 2.573 3.43 1.286-1.715-9.003-12.005-1.286 1.715 1.286 1.715-2.651 3.465-6.352-8.61 6.459-8.344 2.545 3.199-1.286 1.715 1.286 1.715 9.003-12.005-1.286-1.715-2.573 3.43-1.286-1.715 3.859-5.145-1.286-1.715 6.38-8.575v-3.43l-8.953 12.005 1.286 1.715-3.859 5.145 2.573 3.43-2.573 3.43-3.859-5.144-9.054 12.209 9.054 11.8 3.859-5.145 2.573 3.43-2.573 3.43 3.859 5.145-1.286 1.715 8.953 12.005z"/><path d="M158.934 324.125l-1.286 3.43v5.145h-3.859l-2.572 1.715 2.572 1.715h3.859v5.145l1.286 3.43v-20.58z"/></g><g stroke-width="1pt" fill="#e69900"><path d="M4.593 32.583v-3.43l6.38-8.575-1.286-1.715 3.859-5.145-1.286-1.715-2.573 3.43-1.286-1.715 9.003-12.005 1.286 1.715-1.286 1.715 2.651 3.465 6.352-8.61h2.623l-9.054 12.005-3.859-5.145-2.573 3.43 2.573 3.43-3.859 5.145 1.286 1.715-8.953 12.005z"/><path d="M4.592 0h7.717l-2.572 1.715h-3.859v5.145l-1.286 3.43v-10.29z"/></g><g stroke-width="1pt" fill="#e69900"><path d="M158.93 32.583v-3.43l-6.38-8.575 1.286-1.715-3.859-5.145 1.286-1.715 2.573 3.43 1.286-1.715-9.003-12.005-1.286 1.715 1.286 1.715-2.651 3.465-6.352-8.61h-2.623l9.054 12.005 3.859-5.145 2.573 3.43-2.573 3.43 3.859 5.145-1.286 1.715 8.953 12.005z"/><path d="M158.931 0h-7.717l2.572 1.715h3.859v5.145l1.286 3.43v-10.29z"/></g><path d="M63.64 485.46s11.048-14.584 38.891-19.003c27.842-4.42 32.704 9.723 48.613 9.723 15.91 0 41.101-9.723 41.101-9.723s-25.191 18.561-44.636 18.119c-19.446-.441-26.075-9.722-45.962-8.396-19.888 1.325-38.007 9.722-38.007 9.28z" transform="matrix(.501 0 0 .667 37.014 149.711)" stroke-width="1pt" fill="#e69900"/><path d="M63.64 485.46s11.048-14.584 38.891-19.003c27.842-4.42 32.704 9.723 48.613 9.723 15.91 0 41.101-9.723 41.101-9.723s-25.191 18.561-44.636 18.119c-19.446-.441-26.075-9.722-45.962-8.396-19.888 1.325-38.007 9.722-38.007 9.28z" transform="matrix(-.501 0 0 .667 127.745 149.711)" stroke-width="1pt" fill="#e69900"/><g stroke-width="1pt" fill="#e69900"><path d="M50.133 457.226c-1.228-2.571-4.297-13.793-2.66-15.196 2.456-.935 9.003 10.521 8.39 20.808-4.297 2.338-18.825-.935-18.621-3.975 1.023-4.208 9.208-2.805 12.891-1.637z"/><path d="M41.306 447.705c-.803-2.857-2.066-14.694-.247-15.616 2.548-.236 7.178 12.791 4.983 22.695-4.567 1.101-18.274-6.12-17.603-9.04 1.653-3.838 9.444-.201 12.867 1.961z"/><path d="M34.518 436.358c-.547-2.96-.763-14.901 1.126-15.529 2.553.165 6.011 13.814 2.96 23.294-4.636.376-17.625-8.936-16.701-11.728 1.98-3.548 9.404 1.281 12.616 3.963z"/><path d="M28.602 425.013c-.193-3.041.992-14.892 2.93-15.122 2.5.694 4.313 14.908.192 23.648-4.618-.591-16.345-12.498-15.107-15.067 2.37-3.097 9.13 3.221 11.985 6.54z"/><path d="M24.542 412.66c.138-3.045 2.595-14.545 4.538-14.404 2.401 1.162 2.658 15.571-2.369 23.434-4.51-1.464-14.835-15.477-13.331-17.782 2.682-2.613 8.694 4.924 11.162 8.752z"/><path d="M25.725 398.428c-.345 12.187-2.56 12.326-6.593 3.312-1.786-3.406-1.992-17.54-.379-18.065 2.33-.045 6.913 10.041 6.972 14.753z"/></g><g stroke-width="1pt" fill="#e69900"><path d="M113.932 458.51c1.228-2.571 4.297-13.793 2.66-15.196-2.456-.935-9.003 10.521-8.39 20.808 4.297 2.338 18.825-.935 18.621-3.975-1.023-4.208-9.208-2.805-12.891-1.637z"/><path d="M122.759 448.989c.803-2.857 2.066-14.694.247-15.616-2.548-.236-7.178 12.791-4.983 22.695 4.567 1.101 18.274-6.12 17.603-9.04-1.653-3.838-9.444-.201-12.867 1.961z"/><path d="M129.547 437.642c.547-2.96.763-14.901-1.126-15.529-2.553.165-6.011 13.814-2.96 23.294 4.636.376 17.625-8.936 16.701-11.728-1.98-3.548-9.404 1.281-12.616 3.963z"/><path d="M135.463 426.297c.193-3.041-.992-14.892-2.93-15.122-2.5.694-4.313 14.908-.192 23.648 4.618-.591 16.345-12.498 15.107-15.067-2.37-3.097-9.13 3.221-11.985 6.54z"/><path d="M139.523 413.944c-.138-3.045-2.595-14.545-4.538-14.404-2.401 1.162-2.658 15.571 2.369 23.434 4.51-1.464 14.835-15.477 13.331-17.782-2.682-2.613-8.694 4.924-11.162 8.752z"/><path d="M138.34 399.712c.345 12.187 2.56 12.326 6.593 3.312 1.786-3.406 1.992-17.54.379-18.065-2.33-.045-6.913 10.041-6.972 14.753z"/></g><g transform="matrix(.938 0 0 1.187 136.583 -72.251)"><path d="M-3.543 290.55h-5.315v3.543h-5.315v3.543h-21.26l-3.543 3.544 1.772 1.771h8.858l1.772-1.771h-8.858l1.772-1.772h12.402l-5.315 5.315h-12.402l-3.543-1.772-3.543 1.771-12.402.001-5.315-5.317 12.402.002 1.772 1.772-8.858-.002 1.772 1.773h8.858l1.772-1.771-3.543-3.544h-19.488v-3.543h-5.315v-3.543h-5.315v-15.945h5.315v-3.543h5.315v-3.543h19.488l3.543-3.544-1.772-1.771h-8.858l-1.772 1.773 8.858-.002-1.772 1.772-12.402.002 5.315-5.317 12.402.001 3.543 1.771 3.543-1.772h12.402l5.315 5.315h-12.402l-1.772-1.772h8.858l-1.772-1.771h-8.858l-1.772 1.771 3.543 3.544h21.26v3.543h5.315v3.543h5.315v15.945z" transform="matrix(1.488 0 0 1.24 3.502 -39.474)" stroke="#000" stroke-width=".133" fill="#980000"/><path d="M375.59 499.67v24.803h10.629v7.019h10.63v7.087h35.433l14.174 10.63 14.173-10.63h38.976v-7.019l10.63-.068v-7.087h10.63v-24.803h-10.63v-7.086l-10.63.068v-7.155h-38.976l-14.173-10.63-14.174 10.63h-35.433v7.155h-10.63v7.086h-10.629z" transform="matrix(.744 0 0 .62 -392.03 -6.521)" stroke="#e69900" stroke-width="1.067pt" fill="#004e00"/><path d="M425.2 492.52l-21.26 17.716v-17.716h21.26z" transform="matrix(.744 0 0 .62 -392.03 -8.718)" stroke-width="1pt" fill="#980000"/><path d="M425.2 492.52l-21.26 17.717v-17.717h21.26z" transform="matrix(-.744 0 0 .62 272.46 -8.718)" stroke-width="1pt" fill="#980000"/><path d="M425.2 492.52l-21.26 17.716v-17.716h21.26z" transform="matrix(.744 0 0 -.62 -392.03 630.57)" stroke-width="1pt" fill="#980000"/><path d="M425.2 492.52l-21.26 17.717v-17.717h21.26z" transform="matrix(-.744 0 0 -.62 272.46 630.57)" stroke-width="1pt" fill="#980000"/><path d="M474.8 506.69l-7.086 7.087h14.173l-7.087-7.087z" transform="matrix(.744 0 0 .62 -392.03 -10.915)" stroke-width="1pt" fill="#980000"/><path d="M418.11 506.69l-7.086 7.087h14.173l-7.087-7.087z" transform="matrix(.744 0 0 .62 -392.03 -10.915)" stroke-width="1pt" fill="#980000"/><path d="M418.11 506.69l-7.086 7.087h14.173l-7.087-7.087z" transform="matrix(.744 0 0 -.62 -392.03 632.77)" stroke-width="1pt" fill="#980000"/><path d="M418.11 506.69l-7.086 7.087h14.173l-7.087-7.087z" transform="matrix(.744 0 0 -.62 -349.84 632.77)" stroke-width="1pt" fill="#980000"/><path d="M418.11 506.69l-7.086 7.087h14.173l-7.087-7.087z" transform="matrix(.744 0 0 -.62 -370.94 643.75)" stroke-width="1pt" fill="#e69900"/><path d="M418.11 506.69l-7.086 7.087h14.173l-7.087-7.087z" transform="matrix(.744 0 0 -.62 -370.94 621.78)" stroke-width="1pt" fill="#e69900"/><path d="M418.11 506.69l-7.086 7.087h14.173l-7.087-7.087z" transform="matrix(.744 0 0 .62 -370.94 -21.899)" stroke-width="1pt" fill="#e69900"/><path d="M418.11 506.69l-7.086 7.087h14.173l-7.087-7.087z" transform="matrix(.744 0 0 .62 -370.94 .069)" stroke-width="1pt" fill="#e69900"/><path transform="matrix(.744 0 0 .62 -392.03 -6.521)" stroke="#000" stroke-width=".133" fill="#e69900" d="M467.72 506.69h14.173v3.543h-14.173z"/><path transform="matrix(.744 0 0 .62 -392.03 -6.521)" stroke="#000" stroke-width=".133" fill="#c00" d="M414.57 510.24h7.087v3.543h-7.087z"/><path transform="matrix(.744 0 0 .62 -392.03 -6.521)" stroke="#000" stroke-width=".133" fill="#c00" d="M471.26 510.24h7.087v3.543h-7.087z"/><path transform="matrix(.744 0 0 .62 -392.03 -6.521)" stroke="#000" stroke-width=".133" fill="#900" d="M439.37 488.98h14.173v3.543h-14.173z"/><path transform="matrix(.744 0 0 .62 -392.03 -6.521)" stroke="#000" stroke-width=".133" fill="#900" d="M439.37 496.06h14.173v3.543h-14.173z"/><path transform="matrix(.744 0 0 .62 -392.03 -6.521)" stroke="#000" stroke-width=".133" fill="#900" d="M435.83 492.52h21.26v3.543h-21.26z"/><path transform="matrix(.744 0 0 .62 -392.03 -6.521)" stroke="#000" stroke-width=".133" fill="#900" d="M439.37 524.41h14.173v3.543h-14.173z"/><path transform="matrix(.744 0 0 .62 -392.03 -6.521)" stroke="#000" stroke-width=".133" fill="#900" d="M439.37 531.5h14.173v3.543h-14.173z"/><path transform="matrix(.744 0 0 .62 -392.03 -6.521)" stroke="#000" stroke-width=".133" fill="#900" d="M435.83 527.95h21.26v3.543h-21.26z"/><path transform="matrix(.744 0 0 .62 -392.03 -6.521)" stroke="#000" stroke-width=".133" fill="#e69900" d="M467.72 513.78h14.173v3.543h-14.173z"/><path transform="matrix(.744 0 0 .62 -392.03 -6.521)" stroke="#000" stroke-width=".133" fill="#e69900" d="M411.02 506.69h14.173v3.543h-14.173z"/><path transform="matrix(.744 0 0 .62 -392.03 -6.521)" stroke="#000" stroke-width=".133" fill="#e69900" d="M411.02 513.78h14.173v3.543h-14.173z"/><path transform="matrix(.744 0 0 .62 -392.03 -6.521)" stroke="#000" stroke-width=".133" fill="#e69900" d="M407.48 510.24h7.087v3.543h-7.087z"/><path transform="matrix(.744 0 0 .62 -392.03 -6.521)" stroke="#000" stroke-width=".133" fill="#e69900" d="M421.65 510.24h7.087v3.543h-7.087z"/><path transform="matrix(.744 0 0 .62 -392.03 -6.521)" stroke="#000" stroke-width=".133" fill="#e69900" d="M464.17 510.24h7.087v3.543h-7.087z"/><path transform="matrix(.744 0 0 .62 -392.03 -6.521)" stroke="#000" stroke-width=".133" fill="#e69900" d="M478.35 510.24h7.087v3.543h-7.087z"/><ellipse fill="#fff" transform="matrix(.744 0 0 .62 -374.14 -38.912)" cx="413.68" rx=".886" cy="581.99" ry=".886" stroke-width="1pt"/><ellipse fill="#fff" transform="matrix(.744 0 0 .62 -367.57 -38.912)" cx="413.68" rx=".886" cy="581.99" ry=".886" stroke-width="1pt"/><ellipse fill="#fff" transform="matrix(.744 0 0 .62 -361 -38.958)" cx="413.68" rx=".886" cy="581.99" ry=".886" stroke-width="1pt"/><ellipse fill="#fff" transform="matrix(.744 0 0 .62 -371.51 -41.102)" cx="413.68" rx=".886" cy="581.99" ry=".886" stroke-width="1pt"/><ellipse fill="#fff" transform="matrix(.744 0 0 .62 -363.68 -41.148)" cx="413.68" rx=".886" cy="581.99" ry=".886" stroke-width="1pt"/><ellipse fill="#fff" transform="matrix(.744 0 0 .62 -371.57 -36.768)" cx="413.68" rx=".886" cy="581.99" ry=".886" stroke-width="1pt"/><ellipse fill="#fff" transform="matrix(.744 0 0 .62 -363.68 -36.677)" cx="413.68" rx=".886" cy="581.99" ry=".886" stroke-width="1pt"/><ellipse fill="#fff" transform="matrix(.744 0 0 .62 -353.17 -49.999)" cx="413.68" rx=".886" cy="581.99" ry=".886" stroke-width="1pt"/><ellipse fill="#fff" transform="matrix(.744 0 0 .62 -346.59 -49.999)" cx="413.68" rx=".886" cy="581.99" ry=".886" stroke-width="1pt"/><ellipse fill="#fff" transform="matrix(.744 0 0 .62 -340.02 -50.045)" cx="413.68" rx=".886" cy="581.99" ry=".886" stroke-width="1pt"/><ellipse fill="#fff" transform="matrix(.744 0 0 .62 -350.54 -52.189)" cx="413.68" rx=".886" cy="581.99" ry=".886" stroke-width="1pt"/><ellipse fill="#fff" transform="matrix(.744 0 0 .62 -342.71 -52.235)" cx="413.68" rx=".886" cy="581.99" ry=".886" stroke-width="1pt"/><ellipse fill="#fff" transform="matrix(.744 0 0 .62 -350.59 -47.855)" cx="413.68" rx=".886" cy="581.99" ry=".886" stroke-width="1pt"/><ellipse fill="#fff" transform="matrix(.744 0 0 .62 -342.71 -47.764)" cx="413.68" rx=".886" cy="581.99" ry=".886" stroke-width="1pt"/><ellipse fill="#fff" transform="matrix(.744 0 0 .62 -374.2 -60.904)" cx="413.68" rx=".886" cy="581.99" ry=".886" stroke-width="1pt"/><ellipse fill="#fff" transform="matrix(.744 0 0 .62 -367.62 -60.904)" cx="413.68" rx=".886" cy="581.99" ry=".886" stroke-width="1pt"/><ellipse fill="#fff" transform="matrix(.744 0 0 .62 -361.05 -60.949)" cx="413.68" rx=".886" cy="581.99" ry=".886" stroke-width="1pt"/><ellipse fill="#fff" transform="matrix(.744 0 0 .62 -371.57 -63.094)" cx="413.68" rx=".886" cy="581.99" ry=".886" stroke-width="1pt"/><ellipse fill="#fff" transform="matrix(.744 0 0 .62 -363.74 -63.139)" cx="413.68" rx=".886" cy="581.99" ry=".886" stroke-width="1pt"/><ellipse fill="#fff" transform="matrix(.744 0 0 .62 -371.62 -58.759)" cx="413.68" rx=".886" cy="581.99" ry=".886" stroke-width="1pt"/><ellipse fill="#fff" transform="matrix(.744 0 0 .62 -363.74 -58.668)" cx="413.68" rx=".886" cy="581.99" ry=".886" stroke-width="1pt"/><ellipse fill="#fff" transform="matrix(.744 0 0 .62 -395.28 -49.817)" cx="413.68" rx=".886" cy="581.99" ry=".886" stroke-width="1pt"/><ellipse fill="#fff" transform="matrix(.744 0 0 .62 -388.71 -49.817)" cx="413.68" rx=".886" cy="581.99" ry=".886" stroke-width="1pt"/><ellipse fill="#fff" transform="matrix(.744 0 0 .62 -382.14 -49.862)" cx="413.68" rx=".886" cy="581.99" ry=".886" stroke-width="1pt"/><ellipse fill="#fff" transform="matrix(.744 0 0 .62 -392.65 -52.007)" cx="413.68" rx=".886" cy="581.99" ry=".886" stroke-width="1pt"/><ellipse fill="#fff" transform="matrix(.744 0 0 .62 -384.82 -52.052)" cx="413.68" rx=".886" cy="581.99" ry=".886" stroke-width="1pt"/><ellipse fill="#fff" transform="matrix(.744 0 0 .62 -392.71 -47.672)" cx="413.68" rx=".886" cy="581.99" ry=".886" stroke-width="1pt"/><ellipse fill="#fff" transform="matrix(.744 0 0 .62 -384.82 -47.581)" cx="413.68" rx=".886" cy="581.99" ry=".886" stroke-width="1pt"/></g><g><path d="M-79.724 145.28l3.543 3.543 3.543-3.543h-7.087z" transform="matrix(1.2 0 0 -.563 185.963 321.582)" stroke-width="1pt" fill="#fff"/><path d="M-79.724 145.28l3.543 3.543 3.543-3.543h-7.087z" transform="matrix(1.2 0 0 -.563 173.203 321.582)" stroke-width="1pt" fill="#fff"/><path d="M-79.724 145.28l3.543 3.543 3.543-3.543h-7.087z" transform="matrix(1.2 0 0 -.563 160.444 321.582)" stroke-width="1pt" fill="#fff"/><path d="M-79.724 145.28l3.543 3.543 3.543-3.543h-7.087z" transform="matrix(1.2 0 0 .563 185.963 112.32)" stroke-width="1pt" fill="#fff"/><path d="M-79.724 145.28l3.543 3.543 3.543-3.543h-7.087z" transform="matrix(1.2 0 0 .563 173.203 112.32)" stroke-width="1pt" fill="#fff"/><path d="M-79.724 145.28l3.543 3.543 3.543-3.543h-7.087z" transform="matrix(1.2 0 0 .563 160.444 112.32)" stroke-width="1pt" fill="#fff"/><path d="M-83.268 219.68l-5.315-3.544-5.315 3.544-5.315-3.544-5.314 3.544v-1.771l3.543-1.773-1.772-1.771v-1.772h1.772l1.772 1.772 1.771-1.772h1.772v1.772l-1.772 1.771 3.543 1.772 3.544-1.772-1.772-1.771v-1.772h1.772l1.772 1.772 1.771-1.772h1.772v1.772l-1.772 1.771 3.543 1.772 3.544-1.771-1.772-1.772v-1.772h1.772l1.771 1.772 1.771-1.772h1.772v1.772l-1.772 1.772 3.543 1.772v1.771l-5.315-3.543-5.315 3.543z" transform="matrix(.933 0 0 -1.125 164.461 492.976)" stroke-width="0" fill="#004e00"/><path d="M-83.268 219.68l-5.315-3.544-5.315 3.544-5.315-3.544-5.314 3.544v-1.771l3.543-1.773-1.772-1.771v-1.772h1.772l1.772 1.772 1.771-1.772h1.772v1.772l-1.772 1.771 3.543 1.772 3.544-1.772-1.772-1.771v-1.772h1.772l1.772 1.772 1.771-1.772h1.772v1.772l-1.772 1.771 3.543 1.772 3.544-1.771-1.772-1.772v-1.772h1.772l1.771 1.772 1.771-1.772h1.772v1.772l-1.772 1.772 3.543 1.772v1.771l-5.315-3.543-5.315 3.543z" transform="matrix(.933 0 0 1.125 164.462 -59.082)" stroke-width="0" fill="#004e00"/><path d="M-83.268 219.68l-5.315-3.544-5.315 3.544-5.315-3.544-5.314 3.544v-1.771l3.543-1.773-1.772-1.771v-1.772h1.772l1.772 1.772 1.771-1.772h1.772v1.772l-1.772 1.771 3.543 1.772 3.544-1.772-1.772-1.771v-1.772h1.772l1.772 1.772 1.771-1.772h1.772v1.772l-1.772 1.771 3.543 1.772 3.544-1.771-1.772-1.772v-1.772h1.772l1.771 1.772 1.771-1.772h1.772v1.772l-1.772 1.772 3.543 1.772v1.771l-5.315-3.543-5.315 3.543z" transform="matrix(0 .812 -1.5 0 453.892 288.923)" stroke-width="0" fill="#004e00"/><path d="M-83.268 219.68l-5.315-3.544-5.315 3.544-5.315-3.544-5.314 3.544v-1.771l3.543-1.773-1.772-1.771v-1.772h1.772l1.772 1.772 1.771-1.772h1.772v1.772l-1.772 1.771 3.543 1.772 3.544-1.772-1.772-1.771v-1.772h1.772l1.772 1.772 1.771-1.772h1.772v1.772l-1.772 1.771 3.543 1.772 3.544-1.771-1.772-1.772v-1.772h1.772l1.771 1.772 1.771-1.772h1.772v1.772l-1.772 1.772 3.543 1.772v1.771l-5.315-3.543-5.315 3.543z" transform="matrix(0 .812 1.5 0 -290.364 288.923)" stroke-width="0" fill="#004e00"/><path transform="matrix(1.2 0 0 1.125 158.318 -5.284)" stroke="#000" stroke-width=".267" fill="#004e00" d="M-26.575 214.37h1.772v1.772h-1.772z"/><path transform="matrix(1.2 0 0 1.125 158.318 -5.284)" stroke="#000" stroke-width=".267" fill="#004e00" d="M-28.346 216.14h1.772v1.772h-1.772z"/><path transform="matrix(1.2 0 0 1.125 158.318 -5.284)" stroke="#000" stroke-width=".267" fill="#004e00" d="M-37.205 225h1.772v1.772h-1.772z"/><path transform="matrix(1.2 0 0 1.125 158.318 -5.284)" stroke="#000" stroke-width=".267" fill="#004e00" d="M-35.433 223.23h1.772v1.772h-1.772z"/><path transform="matrix(1.2 0 0 1.125 158.318 -5.284)" stroke="#000" stroke-width=".267" fill="#004e00" d="M-93.898 223.23h1.772v1.772h-1.772z"/><path transform="matrix(1.2 0 0 1.125 158.318 -5.284)" stroke="#000" stroke-width=".267" fill="#004e00" d="M-102.76 214.37h1.772v1.772h-1.772z"/><path transform="matrix(1.2 0 0 1.125 158.318 -5.284)" stroke="#000" stroke-width=".267" fill="#004e00" d="M-100.98 216.14h1.772v1.772h-1.772z"/><path transform="matrix(1.2 0 0 1.125 158.318 -5.284)" stroke="#000" stroke-width=".267" fill="#004e00" d="M-100.98 177.17h1.772v1.772h-1.772z"/><path transform="matrix(1.2 0 0 1.125 158.318 -5.284)" stroke="#000" stroke-width=".267" fill="#004e00" d="M-102.76 178.94h1.772v1.772h-1.772z"/><path transform="matrix(1.2 0 0 1.125 158.318 -5.284)" stroke="#000" stroke-width=".267" fill="#004e00" d="M-92.126 168.31h1.772v1.772h-1.772z"/><path transform="matrix(1.2 0 0 1.125 158.318 -5.284)" stroke="#000" stroke-width=".267" fill="#004e00" d="M-93.898 170.08h1.772v1.772h-1.772z"/><path transform="matrix(1.2 0 0 1.125 158.318 -5.284)" stroke="#000" stroke-width=".267" fill="#004e00" d="M-37.205 168.31h1.772v1.772h-1.772z"/><path transform="matrix(1.2 0 0 1.125 158.318 -5.284)" stroke="#000" stroke-width=".267" fill="#004e00" d="M-35.433 170.08h1.772v1.772h-1.772z"/><path transform="matrix(1.2 0 0 1.125 158.318 -5.284)" stroke="#000" stroke-width=".267" fill="#004e00" d="M-28.346 177.17h1.772v1.772h-1.772z"/><path transform="matrix(1.2 0 0 1.125 158.318 -5.284)" stroke="#000" stroke-width=".267" fill="#004e00" d="M-26.575 178.94h1.772v1.772h-1.772z"/><path transform="matrix(1.2 0 0 1.125 158.318 -5.284)" stroke="#000" stroke-width=".267" fill="#004e00" d="M-92.126 225h1.772v1.772h-1.772z"/><path d="M423.42 278.15l-15.942-.002-.003-8.864 10.63.005v-8.312h10.63v-7.633h10.63v9.541c-8.802 0-15.945 6.463-15.945 15.265z" transform="matrix(.393 0 0 .442 -91.208 94.028)" stroke-width="1.25" fill="#fff"/><path d="M423.42 278.15l-15.942-.002-.003-8.864 10.63.005v-8.312h10.63v-7.633h10.63v9.541c-8.802 0-15.945 6.463-15.945 15.265z" transform="matrix(-.393 0 0 .442 254.291 94.028)" stroke-width="1.25" fill="#e69900"/><path d="M423.42 278.15l-15.942-.002-.003-8.864 10.63.005v-8.312h10.63v-7.633h10.63v9.541c-8.802 0-15.945 6.463-15.945 15.265z" transform="matrix(-.393 0 0 -.442 254.291 339.863)" stroke-width="1.25" fill="#fff"/><path d="M423.42 278.15l-15.942-.002-.003-8.864 10.63.005v-8.312h10.63v-7.633h10.63v9.541c-8.802 0-15.945 6.463-15.945 15.265z" transform="matrix(.393 0 0 -.442 -91.208 339.863)" stroke-width="1.25" fill="#e69900"/><path d="M437.6 273.72h-15.944v-15.059c8.801 0 15.944 6.747 15.944 15.059z" transform="matrix(.393 0 0 .448 -84.248 94.332)" stroke-width="1pt" fill="#004e00"/><path d="M437.6 273.72h-15.944v-15.059c8.801 0 15.944 6.747 15.944 15.059z" transform="matrix(.393 0 0 -.448 -84.248 339.559)" stroke-width="1pt" fill="#980000"/><path d="M437.6 273.72h-15.944v-15.059c8.801 0 15.944 6.747 15.944 15.059z" transform="matrix(-.393 0 0 -.448 247.331 339.559)" stroke-width="1pt" fill="#004e00"/><path d="M437.6 273.72h-15.944v-15.059c8.801 0 15.944 6.747 15.944 15.059z" transform="matrix(-.393 0 0 .448 247.331 94.332)" stroke-width="1pt" fill="#980000"/><path d="M-83.268 219.68l-5.315-3.544-5.315 3.544-5.315-3.544-5.314 3.544v-1.771l3.543-1.773-1.772-1.771v-1.772h1.772l1.772 1.772 1.771-1.772h1.772v1.772l-1.772 1.771 3.543 1.772 3.544-1.772-1.772-1.771v-1.772h1.772l1.772 1.772 1.771-1.772h1.772v1.772l-1.772 1.771 3.543 1.772 3.544-1.771-1.772-1.772v-1.772h1.772l1.771 1.772 1.771-1.772h1.772v1.772l-1.772 1.772 3.543 1.772v1.771l-5.315-3.543-5.315 3.543z" transform="matrix(1.2 0 0 1.125 188.089 -5.282)" stroke-width="0" fill="#004e00"/><path d="M-83.268 219.68l-5.315-3.544-5.315 3.544-5.315-3.544-5.314 3.544v-1.771l3.543-1.773-1.772-1.771v-1.772h1.772l1.772 1.772 1.771-1.772h1.772v1.772l-1.772 1.771 3.543 1.772 3.544-1.772-1.772-1.771v-1.772h1.772l1.772 1.772 1.771-1.772h1.772v1.772l-1.772 1.771 3.543 1.772 3.544-1.771-1.772-1.772v-1.772h1.772l1.771 1.772 1.771-1.772h1.772v1.772l-1.772 1.772 3.543 1.772v1.771l-5.315-3.543-5.315 3.543z" transform="matrix(1.2 0 0 -1.125 188.089 439.178)" stroke-width="0" fill="#004e00"/><path d="M-83.268 219.68l-5.315-3.544-5.315 3.544-5.315-3.544-5.314 3.544v-1.771l3.543-1.773-1.772-1.771v-1.772h1.772l1.772 1.772 1.771-1.772h1.772v1.772l-1.772 1.771 3.543 1.772 3.544-1.772-1.772-1.771v-1.772h1.772l1.772 1.772 1.771-1.772h1.772v1.772l-1.772 1.771 3.543 1.772 3.544-1.771-1.772-1.772v-1.772h1.772l1.771 1.772 1.771-1.772h1.772v1.772l-1.772 1.772 3.543 1.772v1.771l-5.315-3.543-5.315 3.543z" transform="matrix(0 .937 .9 0 -86.242 299.993)" stroke-width="0" fill="#004e00"/><path d="M-100.98 177.17l-7.087 7.086v26.575l7.087 7.087h31.889l7.087-7.087v-26.575l-7.087-7.086h-31.889zm-1.772-5.316l-17.717 17.716v15.945l17.717 17.717h35.433l17.716-17.717v-15.945l-17.716-17.716h-35.433z" transform="matrix(1.2 0 0 1.125 183.837 -5.282)" stroke="#000" stroke-width=".427" fill="#004e00"/><path d="M-93.898 147.05l3.543 5.315 3.543-5.315h-7.087z" transform="matrix(.96 0 0 .75 161.72 131.581)" stroke="#000" stroke-width=".267" fill="#e69900"/><path d="M-93.898 147.05l3.543 5.315 3.543-5.315h-7.087z" transform="matrix(.96 0 0 -.75 161.72 302.322)" stroke="#000" stroke-width=".267" fill="#e69900"/><path d="M-93.898 147.05l3.543 5.315 3.543-5.315h-7.087z" transform="matrix(.96 0 0 -.75 175.33 302.322)" stroke="#000" stroke-width=".267" fill="#e69900"/><path d="M-93.898 147.05l3.543 5.315 3.543-5.315h-7.087z" transform="matrix(.96 0 0 .75 175.33 131.581)" stroke="#000" stroke-width=".267" fill="#e69900"/><path d="M-93.898 147.05l3.543 5.315 3.543-5.315h-7.087z" transform="matrix(.96 0 0 -.75 154.915 302.322)" stroke="#000" stroke-width=".267" fill="#980000"/><path d="M-93.898 147.05l3.543 5.315 3.543-5.315h-7.087z" transform="matrix(.96 0 0 -.75 168.525 302.322)" stroke="#000" stroke-width=".267" fill="#980000"/><path d="M-93.898 147.05l3.543 5.315 3.543-5.315h-7.087z" transform="matrix(.96 0 0 -.75 182.135 302.322)" stroke="#000" stroke-width=".267" fill="#980000"/><path d="M-104.53 180.71l3.544-3.544h-3.544v3.544z" transform="matrix(1.8 0 0 -1.688 244.427 540.811)" stroke="#000" stroke-width=".267" fill="#980000"/><path d="M-83.268 219.68l-5.315-3.544-5.315 3.544-5.315-3.544-5.314 3.544v-1.771l3.543-1.773-1.772-1.771v-1.772h1.772l1.772 1.772 1.771-1.772h1.772v1.772l-1.772 1.771 3.543 1.772 3.544-1.772-1.772-1.771v-1.772h1.772l1.772 1.772 1.771-1.772h1.772v1.772l-1.772 1.771 3.543 1.772 3.544-1.771-1.772-1.772v-1.772h1.772l1.771 1.772 1.771-1.772h1.772v1.772l-1.772 1.772 3.543 1.772v1.771l-5.315-3.543-5.315 3.543z" transform="matrix(0 .937 -.9 0 249.761 299.993)" stroke-width="0" fill="#004e00"/><path d="M-76.181 154.13h7.087l1.772 1.772-1.772 1.771h-7.087v-3.543z" transform="matrix(1.2 0 0 1.012 205.102 55.504)" stroke="#000" stroke-width=".267" fill="#980000"/><path d="M-99.213 180.71l-3.543 3.544v26.575l3.543 3.543h-5.316l.001-33.662h5.315z" transform="matrix(1.2 0 0 1.125 175.33 -5.282)" stroke="#000" stroke-width=".4" fill="#980000"/><path d="M-93.898 147.05l3.543 5.315 3.543-5.315h-7.087z" transform="matrix(.96 0 0 .75 154.915 131.581)" stroke="#000" stroke-width=".267" fill="#980000"/><path d="M-93.898 147.05l3.543 5.315 3.543-5.315h-7.087z" transform="matrix(.96 0 0 .75 168.525 131.581)" stroke="#000" stroke-width=".267" fill="#980000"/><path d="M-93.898 147.05l3.543 5.315 3.543-5.315h-7.087z" transform="matrix(.96 0 0 .75 182.135 131.581)" stroke="#000" stroke-width=".267" fill="#980000"/><path d="M-99.212 180.71l-3.544 3.544v26.575l3.544 3.543h-5.315v-33.662h5.315z" transform="matrix(-1.2 0 0 1.125 -11.803 -5.282)" stroke="#000" stroke-width=".4" fill="#980000"/><path d="M-104.53 180.71l3.544-3.544h-3.544v3.544z" transform="matrix(-1.8 0 0 -1.688 -80.908 540.811)" stroke="#000" stroke-width=".267" fill="#980000"/><path d="M-104.53 180.71l3.544-3.544h-3.544v3.544z" transform="matrix(-1.8 0 0 1.688 -80.908 -106.913)" stroke="#000" stroke-width=".267" fill="#980000"/><path d="M-104.53 180.71l3.544-3.544h-3.544v3.544z" transform="matrix(1.8 0 0 1.688 244.427 -106.913)" stroke="#000" stroke-width=".267" fill="#980000"/><path d="M-100.98 177.17l-7.087 7.086v26.575l7.087 7.087h31.889l7.087-7.087v-26.575l-7.087-7.086h-31.889zm-.001-1.773l-8.858 8.858v26.575l8.859 8.858h31.889l8.858-8.858v-26.575l-8.859-8.858h-31.889z" transform="matrix(1.2 0 0 1.125 183.837 -5.282)" stroke="#000" stroke-width=".427" fill="#004e00"/><path d="M-76.181 154.13h7.087l1.772 1.772-1.772 1.771h-7.087v-3.543z" transform="matrix(1.2 0 0 1.012 205.101 59.079)" stroke="#000" stroke-width=".267" fill="#e69900"/><path d="M-76.181 154.13h7.087l1.772 1.772-1.772 1.771h-7.087v-3.543z" transform="matrix(1.2 0 0 1.012 205.102 62.679)" stroke="#000" stroke-width=".267" fill="#980000"/><path d="M-76.181 154.13h7.087l1.772 1.772-1.772 1.771h-7.087v-3.543z" transform="matrix(1.2 0 0 1.012 205.102 66.254)" stroke="#000" stroke-width=".267" fill="#e69900"/><path d="M-76.181 154.13h7.087l1.772 1.772-1.772 1.771h-7.087v-3.543z" transform="matrix(1.2 0 0 1.012 205.102 51.903)" stroke="#000" stroke-width=".267" fill="#e69900"/><path d="M-76.181 154.13h7.087l1.772 1.772-1.772 1.771h-7.087v-3.543z" transform="matrix(-1.2 0 0 1.012 -41.578 55.504)" stroke="#000" stroke-width=".267" fill="#980000"/><path d="M-76.181 154.13h7.087l1.772 1.772-1.772 1.771h-7.087v-3.543z" transform="matrix(-1.2 0 0 1.012 -41.578 59.08)" stroke="#000" stroke-width=".267" fill="#e69900"/><path d="M-76.181 154.13h7.087l1.772 1.772-1.772 1.771h-7.087v-3.543z" transform="matrix(-1.2 0 0 1.012 -41.578 62.679)" stroke="#000" stroke-width=".267" fill="#980000"/><path d="M-76.181 154.13h7.087l1.772 1.772-1.772 1.771h-7.087v-3.543z" transform="matrix(-1.2 0 0 1.012 -41.578 66.255)" stroke="#000" stroke-width=".267" fill="#e69900"/><path d="M-76.181 154.13h7.087l1.772 1.772-1.772 1.771h-7.087v-3.543z" transform="matrix(-1.2 0 0 1.012 -41.578 51.905)" stroke="#000" stroke-width=".267" fill="#e69900"/><path d="M-100.98 178.94v37.205h8.858v8.858h56.693v-8.858h8.858v-37.205h-8.858v-8.858h-56.693v8.858h-8.858zm1.771 1.772v33.661h8.858v8.858h53.15v-8.858h8.858v-33.661h-8.858v-8.859h-53.15v8.859h-8.858z" transform="matrix(1.2 0 0 1.125 158.318 -5.284)" stroke="#000" stroke-width=".267" fill="#970000"/></g><g><path d="M-28.347 69.094l-5.315-7.087v-5.315l-5.315-5.315h-10.63l-8.858-5.315h-28.346l-8.858 5.315h-10.63l-5.315 5.315v5.315l-5.315 7.087v14.173l5.315 7.087v5.315l5.315 5.315h10.63l8.858 5.315h28.346l8.858-5.315h10.63l5.315-5.314v-5.315l5.315-7.087v-14.174z" transform="matrix(1.2 0 0 1.082 168.948 -34.403)" stroke="#000" stroke-width=".267" fill="#980000"/><path d="M345.47 251.58v5.315l5.315 7.086v5.315l5.315 5.315h10.63l8.859 5.315h12.402l-.001-28.346h-42.52z" transform="matrix(1.2 0 0 1.082 -383.734 -224.182)" stroke-width="1pt" fill="#e69900"/><path d="M328.36 268.9l-8.416 7.965h-5.027l1.676 2.654-3.351 5.31 1.675 2.655 5.027-2.655 1.676 2.655.774-7.094 9.28-8.397-3.314-3.093z" transform="matrix(.922 0 0 .619 -239.104 -104.983)" stroke-width="1pt" fill="#980000"/><path d="M328.36 268.9l-8.416 7.965h-5.027l1.676 2.654-3.351 5.31 1.675 2.655 5.027-2.655 1.676 2.655.774-7.094 9.28-8.397-3.314-3.093z" transform="matrix(.922 0 0 .619 -247.603 -108.816)" stroke-width="1pt" fill="#980000"/><path d="M328.36 268.9l-8.416 7.965h-5.027l1.676 2.654-3.351 5.31 1.675 2.655 5.027-2.655 1.676 2.655.774-7.094 9.28-8.397-3.314-3.093z" transform="matrix(.922 0 0 .619 -251.858 -116.48)" stroke-width="1pt" fill="#980000"/><path d="M345.47 251.58v5.315l5.315 7.086v5.315l5.315 5.315h10.63l8.859 5.315h12.402l-.001-28.346h-42.52z" transform="matrix(-1.2 0 0 -1.082 547.317 320.237)" stroke-width="1pt" fill="#e69900"/><path d="M-72.638 47.835h3.281l3.806 3.543h6.037l3.281 1.772-1.64 1.772-3.281-1.772h-3.281l-3.281 5.315-4.921-1.772v-3.543h4.921l-4.921-5.315z" transform="matrix(-1.2 0 0 -1.082 -5.361 130.454)" stroke-width="1pt" fill="#980000"/><path d="M345.47 251.58v5.315l5.315 7.086v5.315l5.315 5.315h10.63l8.859 5.315h12.402l-.001-28.346h-42.52z" transform="matrix(1.2 0 0 -1.082 -383.734 320.237)" stroke-width="1pt" fill="#fff"/><path d="M-72.638 47.835h3.281l3.806 3.543h6.037l3.281 1.772-1.64 1.772-3.281-1.772h-3.281l-3.281 5.315-4.921-1.772v-3.543h4.921l-4.921-5.315z" transform="matrix(-1.2 0 0 1.082 -5.361 -34.404)" stroke-width="1pt" fill="#980000"/><path d="M-72.638 47.835h3.281l3.806 3.543h6.037l3.281 1.772-1.64 1.772-3.281-1.772h-3.281l-3.281 5.315-4.921-1.772v-3.543h4.921l-4.921-5.315z" transform="matrix(1.2 0 0 1.082 168.949 -34.404)" stroke-width="1pt" fill="#980000"/><path d="M345.47 251.58v5.315l5.315 7.086v5.315l5.315 5.315h10.63l8.859 5.315h12.402l-.001-28.346h-42.52z" transform="matrix(-1.2 0 0 1.082 547.317 -224.182)" stroke-width="1pt" fill="#fff"/><path d="M-72.638 47.835h3.281l3.806 3.543h6.037l3.281 1.772-1.64 1.772-3.281-1.772h-3.281l-3.281 5.315-4.921-1.772v-3.543h4.921l-4.921-5.315z" transform="matrix(1.2 0 0 -1.082 168.949 130.454)" stroke-width="1pt" fill="#980000"/><path d="M328.36 268.9l-8.416 7.965h-5.027l1.676 2.654-3.351 5.31 1.675 2.655 5.027-2.655 1.676 2.655.774-7.094 9.28-8.397-3.314-3.093z" transform="matrix(.922 0 0 -.619 -247.603 204.863)" stroke-width="1pt" fill="#980000"/><path d="M328.36 268.9l-8.416 7.965h-5.027l1.676 2.654-3.351 5.31 1.675 2.655 5.027-2.655 1.676 2.655.774-7.094 9.28-8.397-3.314-3.093z" transform="matrix(-.922 0 0 -.619 402.687 201.033)" stroke-width="1pt" fill="#980000"/><path d="M328.36 268.9l-8.416 7.965h-5.027l1.676 2.654-3.351 5.31 1.675 2.655 5.027-2.655 1.676 2.655.774-7.094 9.28-8.397-3.314-3.093z" transform="matrix(.922 0 0 -.619 -239.104 201.033)" stroke-width="1pt" fill="#980000"/><path d="M328.36 268.9l-8.416 7.965h-5.027l1.676 2.654-3.351 5.31 1.675 2.655 5.027-2.655 1.676 2.655.774-7.094 9.28-8.397-3.314-3.093z" transform="matrix(.922 0 0 -.619 -251.858 212.534)" stroke-width="1pt" fill="#980000"/><path d="M334.75 269.29h1.555l1.554 1.635 1.554-1.635 32.636-.001v22.895h-1.554l1.554 1.636v1.635l-4.662-4.906v-1.635h1.554v1.635h1.554v-1.635l-12.619-7.223h-10.63v-7.087l-4.725-3.679h-3.108l-1.554 1.635 1.554 1.636h-1.554l-3.109-4.906z" transform="matrix(1.267 0 0 1.172 -389.411 -267.636)" stroke-width="0" fill="#fff"/><path d="M334.75 269.29h1.555l1.554 1.635 1.554-1.635 32.636-.001v22.895h-1.554l1.554 1.636v1.635l-4.662-4.906v-1.635h1.554v1.635h1.554v-1.635l-12.619-7.223h-10.63v-7.087l-4.725-3.679h-3.108l-1.554 1.635 1.554 1.636h-1.554l-3.109-4.906z" transform="matrix(1.267 0 0 -1.172 -389.411 363.69)" stroke-width="0" fill="#e69900"/><path d="M340.16 269.29h31.89v21.26l-14.173-8.858h-10.63v-7.087l-7.087-5.315z" transform="matrix(1.2 0 0 1.082 -364.614 -243.355)" stroke-width="0" fill="#004e00"/><path d="M328.36 268.9l-8.416 7.965h-5.027l1.676 2.654-3.351 5.31 1.675 2.655 5.027-2.655 1.676 2.655.774-7.094 9.28-8.397-3.314-3.093z" transform="matrix(-.922 0 0 -.619 411.186 204.863)" stroke-width="1pt" fill="#980000"/><path d="M328.36 268.9l-8.416 7.965h-5.027l1.676 2.654-3.351 5.31 1.675 2.655 5.027-2.655 1.676 2.655.774-7.094 9.28-8.397-3.314-3.093z" transform="matrix(-.922 0 0 -.619 415.441 212.534)" stroke-width="1pt" fill="#980000"/><path d="M334.75 269.29h1.555l1.554 1.635 1.554-1.635 32.636-.001v22.895h-1.554l1.554 1.636v1.635l-4.662-4.906v-1.635h1.554v1.635h1.554v-1.635l-12.619-7.223h-10.63v-7.087l-4.725-3.679h-3.108l-1.554 1.635 1.554 1.636h-1.554l-3.109-4.906z" transform="matrix(-1.267 0 0 -1.172 552.994 363.69)" stroke-width="0" fill="#fff"/><path d="M340.16 269.29h31.89v21.26l-14.173-8.858h-10.63v-7.087l-7.087-5.315z" transform="matrix(-1.2 0 0 -1.082 528.197 339.41)" stroke-width="0" fill="#004e00"/><path d="M328.36 268.9l-8.416 7.965h-5.027l1.676 2.654-3.351 5.31 1.675 2.655 5.027-2.655 1.676 2.655.774-7.094 9.28-8.397-3.314-3.093z" transform="matrix(-.922 0 0 .619 402.687 -104.983)" stroke-width="1pt" fill="#980000"/><path d="M328.36 268.9l-8.416 7.965h-5.027l1.676 2.654-3.351 5.31 1.675 2.655 5.027-2.655 1.676 2.655.774-7.094 9.28-8.397-3.314-3.093z" transform="matrix(-.922 0 0 .619 411.186 -108.816)" stroke-width="1pt" fill="#980000"/><path d="M328.36 268.9l-8.416 7.965h-5.027l1.676 2.654-3.351 5.31 1.675 2.655 5.027-2.655 1.676 2.655.774-7.094 9.28-8.397-3.314-3.093z" transform="matrix(-.922 0 0 .619 415.441 -116.48)" stroke-width="1pt" fill="#980000"/><path d="M334.75 269.29h1.555l1.554 1.635 1.554-1.635 32.636-.001v22.895h-1.554l1.554 1.636v1.635l-4.662-4.906v-1.635h1.554v1.635h1.554v-1.635l-12.619-7.223h-10.63v-7.087l-4.725-3.679h-3.108l-1.554 1.635 1.554 1.636h-1.554l-3.109-4.906z" transform="matrix(-1.267 0 0 1.172 552.994 -267.636)" stroke-width="0" fill="#e69900"/><path d="M340.16 269.29h31.89v21.26l-14.173-8.858h-10.63v-7.087l-7.087-5.315z" transform="matrix(-1.2 0 0 1.082 528.197 -243.355)" stroke-width="0" fill="#980000"/><path d="M340.16 269.29h31.89v21.26l-14.173-8.858h-10.63v-7.087l-7.087-5.315z" transform="matrix(1.2 0 0 -1.082 -364.614 339.41)" stroke-width="0" fill="#980000"/><path d="M328.36 268.9l-8.416 7.965h-5.027l1.676 2.654-3.351 5.31 1.675 2.655 5.027-2.655 1.676 2.655.774-7.094 9.28-8.397-3.314-3.093z" transform="matrix(-1.269 0 0 -.722 502.566 242.192)" stroke-width="1pt" fill="#980000"/><path d="M328.36 268.9l-8.416 7.965h-5.027l1.676 2.654-3.351 5.31 1.675 2.655 5.027-2.655 1.676 2.655.774-7.094 9.28-8.397-3.314-3.093z" transform="matrix(1.269 0 0 .722 -338.983 -146.149)" stroke-width="1pt" fill="#980000"/><path d="M328.36 268.9l-8.416 7.965h-5.027l1.676 2.654-3.351 5.31 1.675 2.655 5.027-2.655 1.676 2.655.774-7.094 9.28-8.397-3.314-3.093z" transform="matrix(1.269 0 0 -.722 -338.983 242.192)" stroke-width="1pt" fill="#004e00"/><path d="M328.36 268.9l-8.416 7.965h-5.027l1.676 2.654-3.351 5.31 1.675 2.655 5.027-2.655 1.676 2.655.774-7.094 9.28-8.397-3.314-3.093z" transform="matrix(-1.269 0 0 .722 502.566 -146.149)" stroke-width="1pt" fill="#004e00"/><path d="M311.81 217.91l8.858-5.315 8.859 5.315-8.859 5.315-8.858-5.315z" transform="matrix(1.44 0 0 1.804 -379.923 -344.944)" stroke-width="1.246" fill="#fff"/><path d="M-66.076 53.15l-1.64-1.772 1.64-1.772h1.64l4.921 7.087h-1.641l-3.281-5.315h-1.64l1.64 1.772-1.64 1.772h-3.281v-1.772h3.281z" transform="matrix(-1.2 0 0 -1.082 -38.824 109.366)" stroke-width="1pt" fill="#980000"/><path d="M-66.076 53.15l-1.64-1.772 1.64-1.772h1.64l4.921 7.087h-1.641l-3.281-5.315h-1.64l1.64 1.772-1.64 1.772h-3.281v-1.772h3.281z" transform="matrix(-1.2 0 0 1.082 -38.824 -13.317)" stroke-width="1pt" fill="#980000"/><path d="M-66.076 53.15l-1.64-1.772 1.64-1.772h1.64l4.921 7.087h-1.641l-3.281-5.315h-1.64l1.64 1.772-1.64 1.772h-3.281v-1.772h3.281z" transform="matrix(1.2 0 0 -1.082 202.411 109.366)" stroke-width="1pt" fill="#980000"/><path d="M-66.076 53.15l-1.64-1.772 1.64-1.772h1.64l4.921 7.087h-1.641l-3.281-5.315h-1.64l1.64 1.772-1.64 1.772h-3.281v-1.772h3.281z" transform="matrix(1.2 0 0 1.082 202.411 -13.317)" stroke-width="1pt" fill="#980000"/><path stroke-width="1pt" fill="#980000" d="M-81.496 44.291h3.543v14.173h-3.543z" transform="matrix(1.111 0 0 1.082 170.366 -7.566)"/><path stroke-width="1pt" fill="#980000" d="M-86.811 47.835h14.173v7.087h-14.173z" transform="matrix(1.111 0 0 1.082 170.366 -7.566)"/></g><g><path d="M333.07 170.08l-10.63 5.315v8.858l10.63 5.315h10.63l10.63-5.315v-8.858l-10.63-5.315h-10.63z" transform="matrix(3.334 0 0 3.608 -1046.507 -274.084)" stroke="#000" stroke-width=".07" fill="#004e00"/><path d="M302.95 233.86h1.771v-5.315h3.544v5.315h1.771v-12.401h-1.771v5.315h-3.544v-5.315h-1.771v12.401z" transform="matrix(1.21 0 0 .74 -324.844 198.706)" stroke-width="1pt" fill="#c00"/><path d="M302.95 233.86h1.771v-5.315h3.544v5.315h1.771v-12.401h-1.771v5.315h-3.544v-5.315h-1.771v12.401z" transform="matrix(1.21 0 0 .74 -270.539 229.276)" stroke-width="1pt" fill="#c00"/><path d="M302.95 233.86h1.771v-5.315h3.544v5.315h1.771v-12.401h-1.771v5.315h-3.544v-5.315h-1.771v12.401z" transform="matrix(1.21 0 0 .74 -304.835 183.421)" stroke-width="1pt" fill="#c00"/><path d="M302.95 233.86h1.771v-5.315h3.544v5.315h1.771v-12.401h-1.771v5.315h-3.544v-5.315h-1.771v12.401z" transform="matrix(1.21 0 0 .74 -273.395 183.421)" stroke-width="1pt" fill="#c00"/><path d="M302.95 233.86h1.771v-5.315h3.544v5.315h1.771v-12.401h-1.771v5.315h-3.544v-5.315h-1.771v12.401z" transform="matrix(1.21 0 0 .74 -253.396 198.706)" stroke-width="1pt" fill="#c00"/><path d="M302.95 233.86h1.771v-5.315h3.544v5.315h1.771v-12.401h-1.771v5.315h-3.544v-5.315h-1.771v12.401z" transform="matrix(1.21 0 0 .74 -253.396 213.991)" stroke-width="1pt" fill="#c00"/><path d="M-205.51 345.47v38.977h53.15v-17.717l-35.433-21.26h-17.717z" transform="matrix(.968 0 0 -.862 280.697 706.412)" stroke-width="1pt" fill="#e69900"/><path d="M-205.51 345.47v38.977h53.15v-17.717l-35.433-21.26h-17.717z" transform="matrix(-.968 0 0 .862 -117.169 43.023)" stroke-width="1pt" fill="#e69900"/><path d="M-205.51 345.47v38.977h53.15v-17.717l-35.433-21.26h-17.717z" transform="matrix(.968 0 0 .862 280.697 43.023)" stroke-width="1pt" fill="#fff"/><path d="M-205.51 345.47l.001 38.976 53.149.001v-17.717l-35.433-21.26h-17.717z" transform="matrix(-.968 0 0 -.862 -117.169 706.412)" stroke-width="1pt" fill="#fff"/><path d="M-177.16 368.5h21.259l-21.259-10.63v10.63zm24.803-1.772l-.001 17.717h-33.661v-14.173h-7.086l-8.858-5.315v-12.402l5.314-5.315h-7.086v17.717h-1.772v-19.489h17.717l35.433 21.26z" transform="matrix(.968 0 0 .862 280.697 43.024)" stroke="#000" stroke-width=".133" fill="#e69900"/><path d="M333.07 176.72v6.2h1.594l3.721 1.772 3.721-1.772h1.594v-6.2h-1.594l-3.721-1.772-3.721 1.772h-1.594z" transform="matrix(3.226 0 0 3.451 -1010.111 -245.887)" stroke-width=".625" fill="#980000"/><path d="M-177.16 368.5h21.259l-21.259-10.63v10.63zm24.803-1.772l-.001 17.717h-33.661v-14.173h-7.086l-8.858-5.315v-12.402l5.314-5.315h-7.086v17.717h-1.772v-19.489h17.717l35.433 21.26z" transform="matrix(-.968 0 0 -.862 -117.169 706.412)" stroke="#000" stroke-width=".133" fill="#e69900"/><path d="M-177.16 368.5h21.259l-21.259-10.63v10.63zm24.803-1.772l-.001 17.717h-33.661v-14.173h-7.086l-8.858-5.315v-12.402l5.314-5.315h-7.086v17.717h-1.772v-19.489h17.717l35.433 21.26z" transform="matrix(-.968 0 0 .862 -117.169 43.024)" stroke="#000" stroke-width=".133" fill="#fff"/><path d="M-177.16 368.5h21.259l-21.259-10.63v10.63zm24.803-1.772l-.001 17.717h-33.661v-14.173h-7.086l-8.858-5.315v-12.402l5.314-5.315h-7.086v17.717h-1.772v-19.489h17.717l35.433 21.26z" transform="matrix(.968 0 0 -.862 280.698 706.412)" stroke="#000" stroke-width=".133" fill="#fff"/><path d="M302.95 233.86h1.771v-5.315h3.544v5.315h1.771v-12.401h-1.771v5.315h-3.544v-5.315h-1.771v12.401z" transform="matrix(1.21 0 0 .862 -325.986 185.173)" stroke-width="1pt" fill="#980000"/><path d="M302.95 233.86h1.771v-5.315h3.544v5.315h1.771v-12.401h-1.771v5.315h-3.544v-5.315h-1.771v12.401z" transform="matrix(1.21 0 0 .862 -305.416 200.458)" stroke-width="1pt" fill="#980000"/><path d="M302.95 233.86h1.771v-5.315h3.544v5.315h1.771v-12.401h-1.771v5.315h-3.544v-5.315h-1.771v12.401z" transform="matrix(1.21 0 0 -.862 -325.986 564.271)" stroke-width="1pt" fill="#980000"/><path d="M302.95 233.86h1.771v-5.315h3.544v5.315h1.771v-12.401h-1.771v5.315h-3.544v-5.315h-1.771v12.401z" transform="matrix(1.21 0 0 -.862 -305.416 548.987)" stroke-width="1pt" fill="#980000"/><path d="M302.95 233.86h1.771v-5.315h3.544v5.315h1.771v-12.401h-1.771v5.315h-3.544v-5.315h-1.771v12.401z" transform="matrix(1.21 0 0 .862 -272.824 200.458)" stroke-width="1pt" fill="#980000"/><path d="M302.95 233.86h1.771v-5.315h3.544v5.315h1.771v-12.401h-1.771v5.315h-3.544v-5.315h-1.771v12.401z" transform="matrix(1.21 0 0 .862 -252.244 171.409)" stroke-width="1pt" fill="#980000"/><path d="M302.95 233.86h1.771v-5.315h3.544v5.315h1.771v-12.401h-1.771v5.315h-3.544v-5.315h-1.771v12.401z" transform="matrix(1.21 0 0 .862 -272.824 200.458)" stroke-width="1pt" fill="#980000"/><path d="M302.95 233.86h1.771v-5.315h3.544v5.315h1.771v-12.401h-1.771v5.315h-3.544v-5.315h-1.771v12.401z" transform="matrix(1.21 0 0 .862 -272.824 200.458)" stroke-width="1pt" fill="#980000"/><path d="M302.95 233.86h1.771v-5.315h3.544v5.315h1.771v-12.401h-1.771v5.315h-3.544v-5.315h-1.771v12.401z" transform="matrix(1.21 0 0 .862 -252.244 185.164)" stroke-width="1pt" fill="#980000"/><path d="M302.95 233.86h1.771v-5.315h3.544v5.315h1.771v-12.401h-1.771v5.315h-3.544v-5.315h-1.771v12.401z" transform="matrix(1.21 0 0 .862 -272.824 156.124)" stroke-width="1pt" fill="#980000"/><path d="M-154.13 334.84l7.087-7.088h3.543v3.543h-3.543v1.772h5.314v-7.086l-5.314-.001v-5.314h-7.087v5.314h1.772v-3.544h3.543v3.544l-7.086 7.087-7.087-7.086v-3.543h3.543v3.543h1.772v-5.315l-7.087.001v5.314h-5.315v7.088h5.315v-1.772h-3.544v-3.544h3.544l7.087 7.086-7.087 7.086h-3.543v-3.543h3.543v-1.772h-5.314v7.087h5.314v5.314l7.087.002v-5.316h-1.771v3.544h-3.543v-3.544l7.085-7.086 7.088 7.088v3.543h-3.543v-3.543h-1.772v5.314h7.086v-5.314l5.315-.002v-7.086h-5.315v1.772h3.544v3.544h-3.544l-7.087-7.087z" transform="matrix(.968 0 0 .786 232.678 111.373)" stroke-width="1.247" fill="#004e00"/></g><g transform="matrix(.968 0 0 .899 152.08 17.027)"><path d="M372.05 391.54l3.544-3.543h21.259l15.945-15.946h21.26l15.945 15.945h21.26l3.543 3.543-3.543 3.544h-21.26l-15.945 15.945h-21.26l-15.945-15.945h-21.259l-3.544-3.543z" transform="matrix(.968 0 0 1.053 -482.4 -277.85)" stroke-width="1pt" fill="#980000"/><path d="M372.05 391.54l1.903-1.949h22.834l17.126-19.489h19.029l17.126 19.489h22.835l1.903 1.949-1.903 1.948h-22.835l-15.223 17.54h-22.834l-15.224-17.54h-22.834l-1.903-1.948z" transform="matrix(.931 0 0 .909 -466.86 -221.29)" stroke="#000" stroke-width=".29" fill="#980000"/><path d="M428.74 354.33l7.087 7.086-3.543 3.543-1.772-1.772h-1.771v1.772l1.771 1.772h3.544l3.543-3.544v-3.543l-7.086-7.086 7.086-7.087v-3.543l-3.543-3.543h-3.543l-1.772 1.771v1.772h1.772l1.771-1.772 3.543 3.544-7.086 7.086-7.087-7.086 7.087-7.087v-1.771h-1.772l-7.086 7.086-7.087-7.087h-1.772v1.771l7.087 7.087-7.087 7.087-7.087-7.086 3.543-3.544 1.772 1.772h1.772v-1.772l-1.772-1.771h-3.543l-3.544 3.543v3.543l7.087 7.087-7.087 7.087v3.543l3.544 3.543h3.543l1.772-1.771v-1.772h-1.772l-1.772 1.772-3.543-3.544 7.087-7.086 7.086 7.086-7.086 7.087-.001 1.772h1.772l7.087-7.087 7.087 7.087h1.771v-1.772l-7.086-7.087 7.086-7.086zm-8.858-8.859l-7.087 7.087 7.087 7.087 7.087-7.087-7.087-7.087z" transform="matrix(.968 0 0 1.053 -478.98 -236.82)" stroke-width="0" fill="#e69900"/><path d="M412.8 411.02v14.173l1.772-1.772 1.772 1.772 1.771-1.772 1.772 1.772 1.772-1.772 1.771 1.772 1.772-1.772 1.772 1.772 1.771-1.772 1.772 1.772 1.771-1.772 1.772 1.772v-14.173h-21.26z" transform="matrix(.968 0 0 1.053 -482.4 -277.85)" stroke-width="1pt" fill="#e69900"/><path d="M412.8 411.02v14.173l1.772-1.772 1.772 1.772 1.771-1.772 1.772 1.772 1.772-1.772 1.771 1.772 1.772-1.772 1.772 1.772 1.771-1.772 1.772 1.772 1.771-1.772 1.772 1.772v-14.173h-21.26z" transform="matrix(-.968 0 0 -1.053 337.13 546.43)" stroke-width="1pt" fill="#e69900"/><path d="M419.88 411.02v14.173l1.772-1.772 1.771 1.772 1.772-1.772 1.772 1.772 1.771-1.772 1.772 1.772 1.771-1.772 1.772 1.772v-14.173h-14.173z" transform="matrix(-.968 0 0 -1.053 373.13 563.22)" stroke-width="1pt" fill="#e69900"/><path d="M419.88 411.02v14.173l1.772-1.772 1.771 1.772 1.772-1.772 1.772 1.772 1.771-1.772 1.772 1.772 1.771-1.772 1.772 1.772v-14.173h-14.173z" transform="matrix(-.968 0 0 -1.053 307.98 563.22)" stroke-width="1pt" fill="#e69900"/><path d="M419.88 411.02v14.173l1.772-1.772 1.771 1.772 1.772-1.772 1.772 1.772 1.771-1.772 1.772 1.772 1.771-1.772 1.772 1.772v-14.173h-14.173z" transform="matrix(-.968 0 0 1.053 373.13 -294.63)" stroke-width="1pt" fill="#e69900"/><path d="M419.88 411.02v14.173l1.772-1.772 1.771 1.772 1.772-1.772 1.772 1.772 1.771-1.772 1.772 1.772 1.771-1.772 1.772 1.772v-14.173h-14.173z" transform="matrix(-.968 0 0 1.053 307.98 -294.63)" stroke-width="1pt" fill="#e69900"/><path d="M412.8 411.02l-.001 8.858 1.772-1.772 1.772 1.772 1.771-1.772 1.772 1.772 1.772-1.772 1.771 1.772 1.772-1.772 1.771 1.772 1.772-1.772v-23.031l-15.944 15.945z" transform="matrix(.968 0 0 1.053 -461.83 -277.85)" stroke-width="1pt" fill="#004e00"/><path d="M412.8 411.02v8.859l1.772-1.772 1.772 1.772 1.771-1.772 1.772 1.772 1.772-1.772 1.771 1.772 1.772-1.772 1.771 1.772 1.772-1.772-.001-23.032-15.944 15.945z" transform="matrix(-.968 0 0 1.053 316.55 -277.85)" stroke-width="1pt" fill="#004e00"/><path d="M412.8 411.02l-.001 8.858 1.772-1.772 1.772 1.772 1.771-1.772 1.772 1.772 1.772-1.772 1.771 1.772 1.772-1.772 1.771 1.772 1.772-1.772v-23.031l-15.944 15.945z" transform="matrix(-.968 0 0 -1.053 316.55 546.43)" stroke-width="1pt" fill="#004e00"/><path d="M412.8 411.02l-.001 8.858 1.772-1.772 1.772 1.772 1.771-1.772 1.772 1.772 1.772-1.772 1.771 1.772 1.772-1.772 1.771 1.772 1.772-1.772v-23.031l-15.944 15.945z" transform="matrix(.968 0 0 -1.053 -461.83 546.43)" stroke-width="1pt" fill="#004e00"/><path d="M380.9 414.57l-1.772-1.772-1.77 1.772-1.772-1.772-1.772 1.772-1.772-1.772-1.772 1.772-1.77-1.772-1.772 1.772-.001-28.347 1.772 1.772 1.771-1.772 1.772 1.772 1.771-1.772 1.772 1.772 1.772-1.772 1.771 1.772 1.772-1.772v10.631h-7.086l-3.544 3.543 3.544 3.543h7.086v10.63z" transform="matrix(.968 0 0 1.053 -480.69 -287.17)" stroke-width="1pt" fill="#004e00"/><path d="M380.9 414.57l-1.772-1.772-1.77 1.772-1.772-1.772-1.772 1.772-1.772-1.772-1.772 1.772-1.77-1.772-1.772 1.772-.001-28.347 1.772 1.772 1.771-1.772 1.772 1.772 1.771-1.772 1.772 1.772 1.772-1.772 1.771 1.772 1.772-1.772v10.631h-7.086l-3.544 3.543 3.544 3.543h7.086v10.63z" transform="matrix(-.968 0 0 1.053 335.41 -287.17)" stroke-width="1pt" fill="#004e00"/><path d="M357.87 396.85s-3.543 3.544-3.543 5.315c-.07 1.652 3.779 5.354 5.315 5.315 2.007.039 5.315-3.543 5.315-5.315 0-1.771-3.544-5.315-3.544-5.315v-7.086s7.696 12.183 7.696 6.868c0-3.812-7.696-10.412-7.696-10.412h-3.543s-7.696 7.727-7.696 10.412c0 5.315 7.696-6.868 7.696-6.868v7.086z" transform="matrix(.403 0 0 .416 -235.66 -9.092)" stroke-width="1pt" fill="#fff"/><path d="M357.87 396.85s-3.543 3.544-3.543 5.315c-.07 1.652 3.779 5.354 5.315 5.315 2.007.039 5.315-3.543 5.315-5.315 0-1.771-3.544-5.315-3.544-5.315v-7.086s6.276 11.593 6.276 6.278c0-3.437-6.276-9.822-6.276-9.822h-3.543s-7.244 7.994-6.275 9.821c0 5.315 6.275-6.277 6.275-6.277v7.086z" transform="matrix(.484 0 0 .582 -246.66 -69.429)" stroke-width="1pt" fill="#980000"/><ellipse fill="#004e00" transform="matrix(.968 0 0 1.053 -482.4 -277.85)" cx="403.94" rx="3.543" cy="391.54" ry="1.772" stroke-width="1pt"/><ellipse fill="#004e00" transform="matrix(.968 0 0 1.053 -463.54 -277.85)" cx="403.94" rx="3.543" cy="391.54" ry="1.772" stroke-width="1pt"/><ellipse fill="#004e00" transform="matrix(.968 0 0 1.053 -444.69 -277.85)" cx="403.94" rx="3.543" cy="391.54" ry="1.772" stroke-width="1pt"/><path d="M357.87 396.85s-3.543 3.544-3.543 5.315c-.07 1.652 3.779 5.354 5.315 5.315 2.007.039 5.315-3.543 5.315-5.315 0-1.771-3.544-5.315-3.544-5.315v-7.086s7.696 12.183 7.696 6.868c0-3.812-7.696-10.412-7.696-10.412h-3.543s-7.696 7.727-7.696 10.412c0 5.315 7.696-6.868 7.696-6.868v7.086z" transform="matrix(.403 0 0 -.416 -236.02 277.83)" stroke-width="1pt" fill="#fff"/><path d="M357.87 396.85s-3.543 3.544-3.543 5.315c-.07 1.652 3.779 5.354 5.315 5.315 2.007.039 5.315-3.543 5.315-5.315 0-1.771-3.544-5.315-3.544-5.315v-7.086s6.276 11.593 6.276 6.278c0-3.437-6.276-9.822-6.276-9.822h-3.543s-7.244 7.994-6.275 9.821c0 5.315 6.275-6.277 6.275-6.277v7.086z" transform="matrix(.484 0 0 -.582 -247.02 338.16)" stroke-width="1pt" fill="#980000"/><path d="M357.87 396.85s-3.543 3.544-3.543 5.315c-.07 1.652 3.779 5.354 5.315 5.315 2.007.039 5.315-3.543 5.315-5.315 0-1.771-3.544-5.315-3.544-5.315v-7.086s7.696 12.183 7.696 6.868c0-3.812-7.696-10.412-7.696-10.412h-3.543s-7.696 7.727-7.696 10.412c0 5.315 7.696-6.868 7.696-6.868v7.086z" transform="matrix(.403 0 0 .416 -199.16 -9.092)" stroke-width="1pt" fill="#fff"/><path d="M357.87 396.85s-3.543 3.544-3.543 5.315c-.07 1.652 3.779 5.354 5.315 5.315 2.007.039 5.315-3.543 5.315-5.315 0-1.771-3.544-5.315-3.544-5.315v-7.086s7.696 12.183 7.696 6.868c0-3.812-7.696-10.412-7.696-10.412h-3.543s-7.696 7.727-7.696 10.412c0 5.315 7.696-6.868 7.696-6.868v7.086z" transform="matrix(.403 0 0 -.416 -199.52 277.83)" stroke-width="1pt" fill="#fff"/><path d="M357.87 396.85s-3.543 3.544-3.543 5.315c-.07 1.652 3.779 5.354 5.315 5.315 2.007.039 5.315-3.543 5.315-5.315 0-1.771-3.544-5.315-3.544-5.315v-7.086s6.276 11.593 6.276 6.278c0-3.437-6.276-9.822-6.276-9.822h-3.543s-7.244 7.994-6.275 9.821c0 5.315 6.275-6.277 6.275-6.277v7.086z" transform="matrix(.536 0 0 .39 -298.12 -9.27)" stroke-width="1pt" fill="#980000"/><path d="M357.87 396.85s-3.543 3.544-3.543 5.315c-.07 1.652 3.779 5.354 5.315 5.315 2.007.039 5.315-3.543 5.315-5.315 0-1.771-3.544-5.315-3.544-5.315v-7.086s6.276 11.593 6.276 6.278c0-3.437-6.276-9.822-6.276-9.822h-3.543s-7.244 7.994-6.275 9.821c0 5.315 6.275-6.277 6.275-6.277v7.086z" transform="matrix(.536 0 0 -.39 -298.52 279.33)" stroke-width="1pt" fill="#980000"/><path d="M357.87 396.85s-3.543 3.544-3.543 5.315c-.07 1.652 3.779 5.354 5.315 5.315 2.007.039 5.315-3.543 5.315-5.315 0-1.771-3.544-5.315-3.544-5.315v-7.086s6.276 11.593 6.276 6.278c0-3.437-6.276-9.822-6.276-9.822h-3.543s-7.244 7.994-6.275 9.821c0 5.315 6.275-6.277 6.275-6.277v7.086z" transform="matrix(.536 0 0 .39 -232.27 -9.712)" stroke-width="1pt" fill="#980000"/><path d="M357.87 396.85s-3.543 3.544-3.543 5.315c-.07 1.652 3.779 5.354 5.315 5.315 2.007.039 5.315-3.543 5.315-5.315 0-1.771-3.544-5.315-3.544-5.315v-7.086s6.276 11.593 6.276 6.278c0-3.437-6.276-9.822-6.276-9.822h-3.543s-7.244 7.994-6.275 9.821c0 5.315 6.275-6.277 6.275-6.277v7.086z" transform="matrix(.536 0 0 -.39 -232.67 278.89)" stroke-width="1pt" fill="#980000"/><path d="M354.98 396.41c-1.526 3.07-1.123 4.474-1.123 6.245-.071 1.652 4.256 4.868 5.792 4.829 2.007.039 5.315-3.543 5.315-5.315 0-1.771.084-3.301-.738-6.355l-2.215 5.178c-2.689-7.346-2.835-7.517-4.431.178l-2.6-4.76z" transform="matrix(.403 0 0 -.416 -263.42 310.25)" stroke-width="1pt" fill="#fff"/><path d="M354.98 396.41c-1.526 3.07-1.123 4.474-1.123 6.245-.071 1.652 4.256 4.868 5.792 4.829 2.007.039 5.315-3.543 5.315-5.315 0-1.771.084-3.301-.738-6.355l-2.215 5.178c-2.689-7.346-2.835-7.517-4.431.178l-2.6-4.76z" transform="matrix(.403 0 0 .416 -263.36 -40.956)" stroke-width="1pt" fill="#fff"/><path d="M354.98 396.41c-1.526 3.07-1.123 4.474-1.123 6.245-.071 1.652 4.256 4.868 5.792 4.829 2.007.039 5.315-3.543 5.315-5.315 0-1.771.084-3.301-.738-6.355l-2.215 5.178c-2.689-7.346-2.835-7.517-4.431.178l-2.6-4.76z" transform="matrix(.403 0 0 -.416 -170.94 309.98)" stroke-width="1pt" fill="#fff"/><path d="M354.98 396.41c-1.526 3.07-1.123 4.474-1.123 6.245-.071 1.652 4.256 4.868 5.792 4.829 2.007.039 5.315-3.543 5.315-5.315 0-1.771.084-3.301-.738-6.355l-2.215 5.178c-2.689-7.346-2.835-7.517-4.431.178l-2.6-4.76z" transform="matrix(.403 0 0 .416 -170.89 -41.232)" stroke-width="1pt" fill="#fff"/><path d="M-83.27 170.073v-5.315h-15.944v-10.63h-14.173v-3.543h-12.402v-31.89h12.402v-3.543h14.173v-10.63h15.944v-5.315h21.26v5.315h15.945v10.63h14.173v3.543h12.402v31.89h-12.402v3.543h-14.173v10.63h-15.945v5.315h-21.26zm-1.772 1.772v-5.315h-15.944v-10.63h-14.173v-3.543h-12.402v-35.433h12.402v-3.544h14.173v-10.63h15.945v-5.315h24.803v5.315h15.945v10.63h14.173v3.544h12.402v35.433h-12.402v3.543h-14.173v10.63h-15.945v5.315h-24.804z" stroke="#000" stroke-width=".133" fill="#980000"/></g></g></g></svg>